<svg id="Layer_3" data-name="Layer 3" xmlns="http://www.w3.org/2000/svg" viewBox="0 0 763.69775 83.12981"><defs><style>.cls-1{fill:#52261e;}</style></defs><path class="cls-1" d="M106.81836,703.21924a2.52518,2.52518,0,0,0-.74561-1.70215q-.74632-.82251-.74609-1.20508v-.15283q0-.61158.87988-.6123h7.1919q.87963,0,.87988.6123v.15283q0,.38305-.80371,1.20508a2.4422,2.4422,0,0,0-.80322,1.70215l-.03809,12.12695q-.03882,6.197-2.37207,8.95117a8.43511,8.43511,0,0,1-6.73242,2.79248,12.66886,12.66886,0,0,1-4.26563-.6499,6.62362,6.62362,0,0,1-2.77343-1.72168,7.4789,7.4789,0,0,1-1.396-2.16113,5.741,5.741,0,0,1-.43994-2.16162,2.89177,2.89177,0,0,1,.72656-2.04639,2.48637,2.48637,0,0,1,1.91309-.78418,2.60043,2.60043,0,0,1,1.95068.74561,4.22565,4.22565,0,0,1,1.03272,1.79834q.30615,1.05249.6123,2.10351a4.30931,4.30931,0,0,0,1.01367,1.79834,2.53564,2.53564,0,0,0,1.93213.74561,2.42049,2.42049,0,0,0,2.19922-1.62549,10.31538,10.31538,0,0,0,.78418-4.41846Z" transform="translate(-94.65381 -697.78425)"/><path class="cls-1" d="M126.21338,727.08984a10.48506,10.48506,0,0,1-7.51709-2.81152,9.10168,9.10168,0,0,1-2.96436-6.8667,8.80867,8.80867,0,0,1,2.90723-6.771,9.96925,9.96925,0,0,1,7.00049-2.67773,10.30056,10.30056,0,0,1,7.34473,2.77344,9.5847,9.5847,0,0,1,.17236,13.65674A9.56316,9.56316,0,0,1,126.21338,727.08984Zm.68848-1.6831a2.68666,2.68666,0,0,0,2.42919-1.45362,8.08045,8.08045,0,0,0,.86084-4.09326,17.04693,17.04693,0,0,0-.63134-4.49463,11.93988,11.93988,0,0,0-1.89356-4.0166,3.52751,3.52751,0,0,0-2.79248-1.70263q-3.52,0-3.51953,5.58545a16.45435,16.45435,0,0,0,.63135,4.36084,11.96771,11.96771,0,0,0,1.95117,4.05468A3.72282,3.72282,0,0,0,126.90186,725.40674Z" transform="translate(-94.65381 -697.78425)"/><path class="cls-1" d="M139.06641,726.70752q-.84229,0-.8418-.65039v-.15283a2.306,2.306,0,0,1,.727-1.186,2.53124,2.53124,0,0,0,.72656-1.72119v-8.64551a2.71376,2.71376,0,0,0-.72656-1.79834q-.72729-.84081-.727-1.14746V711.291q0-.3816.80371-.80323l4.78174-2.37207a1.27137,1.27137,0,0,1,1.14746-.05713.88055.88055,0,0,1,.4209.82227v14.11621a2.4121,2.4121,0,0,0,.80322,1.72119q.80348.80348.80322,1.186v.15283q0,.65112-.87988.65039Zm6.17822-22.01514a3.81629,3.81629,0,0,1-2.69727.937,3.95476,3.95476,0,0,1-2.73486-.937,3.10167,3.10167,0,0,1-1.05225-2.4292,3.06013,3.06013,0,0,1,1.05225-2.39111,3.95709,3.95709,0,0,1,2.73486-.937,3.8185,3.8185,0,0,1,2.69727.937,3.11547,3.11547,0,0,1,1.01367,2.39111A3.15887,3.15887,0,0,1,145.24463,704.69238Z" transform="translate(-94.65381 -697.78425)"/><path class="cls-1" d="M169.01953,722.99707a3.10858,3.10858,0,0,0,.72656,1.72119,2.35822,2.35822,0,0,1,.65039,1.22412v.15283q0,.65114-.87988.6504h-6.61816q-.88038,0-.8794-.6504v-.15283a2.32047,2.32047,0,0,1,.70752-1.186,2.451,2.451,0,0,0,.66944-1.75928l-.38282-7.07715q-.26807-5.77587-3.32763-5.77637a2.81965,2.81965,0,0,0-2.39112,1.14747,4.98123,4.98123,0,0,0-.86084,3.06054v8.6836a2.38656,2.38656,0,0,0,.82276,1.72119q.82178.80346.82226,1.186v.15283q0,.65114-.87988.6504H150.0835q-.88038,0-.87989-.6504v-.15283q0-.38158.82227-1.186a2.3884,2.3884,0,0,0,.82275-1.72119v-8.91309a1.90828,1.90828,0,0,0-.28711-1.0332,1.93342,1.93342,0,0,0-.65039-.66944,2.79284,2.79284,0,0,1-.6499-.51611.90459.90459,0,0,1-.28711-.6123v-.15284q0-.42041.76514-.80371l4.55224-2.21875q.64966-.30542.97559-.05713a1.0218,1.0218,0,0,1,.3252.86084v2.14209q1.64429-3.09886,5.66162-3.09863a6.91807,6.91807,0,0,1,4.95361,1.95117q2.04639,1.95045,2.35254,6.19678Z" transform="translate(-94.65381 -697.78425)"/><path class="cls-1" d="M198.70361,722.80566a3.27844,3.27844,0,0,0,.28711,1.54932q.28638.51636.63086.57373a1.59864,1.59864,0,0,1,.63135.24854.72308.72308,0,0,1,.28662.65039q0,1.11035-3.4043,1.10937a4.53237,4.53237,0,0,1-2.50586-.55469,2.32294,2.32294,0,0,1-.89892-1.93164q-1.60693,2.63966-5.54688,2.63916a6.78489,6.78489,0,0,1-5.10693-2.08447,8.11955,8.11955,0,0,1-2.0083-5.87207V712.668a2.6047,2.6047,0,0,0-.74609-1.77881q-.74561-.82177-.74561-1.12842V709.646q0-.68848.80322-.80323l4.81983-.727q1.56811-.19043,1.56836.689l-.11475,10.90234q0,5.20313,3.17529,5.20264a2.8408,2.8408,0,0,0,2.35254-1.24317,5.23035,5.23035,0,0,0,.9375-3.23291V712.668a2.57407,2.57407,0,0,0-.76513-1.77881q-.76612-.82177-.76514-1.12842V709.646q0-.68848.76514-.80323l4.89648-.727q1.45313-.15234,1.45361.689Z" transform="translate(-94.65381 -697.78425)"/><path class="cls-1" d="M210.40918,727.05176a11.84709,11.84709,0,0,1-5.89111-1.30078q-2.29542-1.30005-2.29541-3.13672a1.94241,1.94241,0,0,1,.63134-1.56836,2.48383,2.48383,0,0,1,1.66407-.53565,2.28026,2.28026,0,0,1,1.79785.78418,4.64187,4.64187,0,0,1,.97558,1.74073,4.11827,4.11827,0,0,0,1.0708,1.74072,2.76728,2.76728,0,0,0,2.04688.78418,3.03881,3.03881,0,0,0,2.0083-.65039,2.29743,2.29743,0,0,0,.78418-1.87451,2.56651,2.56651,0,0,0-1.09033-2.18067,7.6218,7.6218,0,0,0-2.65869-1.20508q-1.56885-.40135-3.13672-.918a5.82044,5.82044,0,0,1-2.65869-1.79786,4.98587,4.98587,0,0,1-1.09034-3.34716,4.81937,4.81937,0,0,1,2.16163-4.03614,9.23616,9.23616,0,0,1,5.604-1.5874,10.6823,10.6823,0,0,1,5.68066,1.35791,3.85572,3.85572,0,0,1,2.19971,3.23242,1.83646,1.83646,0,0,1-.63135,1.41553,2.21657,2.21657,0,0,1-1.54931.57373,2.124,2.124,0,0,1-1.72119-.78418,4.67235,4.67235,0,0,1-.918-1.72119,4.447,4.447,0,0,0-.95655-1.72168,2.28023,2.28023,0,0,0-1.79785-.78418,2.331,2.331,0,0,0-1.79785.74609,2.5802,2.5802,0,0,0-.689,1.8169,2.81043,2.81043,0,0,0,.57421,1.79834,3.64126,3.64126,0,0,0,1.4917,1.10888,19.46891,19.46891,0,0,0,2.02735.708q1.10961.3252,2.23779.72657a10.52371,10.52371,0,0,1,2.04688.97558,4.292,4.292,0,0,1,1.49169,1.626,5.24215,5.24215,0,0,1,.57422,2.54394,4.6303,4.6303,0,0,1-2.21875,3.9209A10.25073,10.25073,0,0,1,210.40918,727.05176Z" transform="translate(-94.65381 -697.78425)"/><path class="cls-1" d="M229.49707,726.70752q-.84228,0-.8418-.65039v-.15283a2.306,2.306,0,0,1,.727-1.186,2.53125,2.53125,0,0,0,.72657-1.72119v-8.64551a2.71378,2.71378,0,0,0-.72657-1.79834q-.72729-.84081-.727-1.14746V711.291q0-.3816.80371-.80323l4.78174-2.37207a1.27137,1.27137,0,0,1,1.14746-.05713.88053.88053,0,0,1,.4209.82227v14.11621a2.4121,2.4121,0,0,0,.80322,1.72119q.80347.80348.80323,1.186v.15283q0,.65112-.87989.65039Zm6.17822-22.01514a3.81627,3.81627,0,0,1-2.69726.937,3.9548,3.9548,0,0,1-2.73487-.937,3.10166,3.10166,0,0,1-1.05224-2.4292,3.06012,3.06012,0,0,1,1.05224-2.39111,3.95713,3.95713,0,0,1,2.73487-.937,3.81847,3.81847,0,0,1,2.69726.937,3.11544,3.11544,0,0,1,1.01367,2.39111A3.15883,3.15883,0,0,1,235.67529,704.69238Z" transform="translate(-94.65381 -697.78425)"/><path class="cls-1" d="M259.4502,722.99707a3.10858,3.10858,0,0,0,.72656,1.72119,2.3583,2.3583,0,0,1,.65039,1.22412v.15283q0,.65114-.87988.6504H253.3291q-.88037,0-.87939-.6504v-.15283a2.32047,2.32047,0,0,1,.70752-1.186,2.451,2.451,0,0,0,.66943-1.75928l-.38281-7.07715q-.26806-5.77587-3.32764-5.77637a2.81964,2.81964,0,0,0-2.39111,1.14747,4.98123,4.98123,0,0,0-.86084,3.06054v8.6836a2.38654,2.38654,0,0,0,.82275,1.72119q.82178.80346.82227,1.186v.15283q0,.65114-.87989.6504h-7.11523q-.88037,0-.87988-.6504v-.15283q0-.38158.82226-1.186a2.38841,2.38841,0,0,0,.82276-1.72119v-8.91309a1.90836,1.90836,0,0,0-.28711-1.0332,1.93359,1.93359,0,0,0-.65039-.66944,2.79268,2.79268,0,0,1-.64991-.51611.90461.90461,0,0,1-.2871-.6123v-.15284q0-.42041.76513-.80371l4.55225-2.21875q.64965-.30542.97558-.05713a1.0218,1.0218,0,0,1,.3252.86084v2.14209q1.64428-3.09886,5.66162-3.09863a6.91805,6.91805,0,0,1,4.95361,1.95117q2.04639,1.95045,2.35254,6.19678Z" transform="translate(-94.65381 -697.78425)"/><path class="cls-1" d="M279.95312,727.08984a9.5353,9.5353,0,0,1-7.05761-2.83056,9.27051,9.27051,0,0,1-2.812-6.771,8.93577,8.93577,0,0,1,2.812-6.88574,9.83865,9.83865,0,0,1,6.82812-2.63965,9.55579,9.55579,0,0,1,5.60449,1.53027,4.55321,4.55321,0,0,1,2.314,3.8252,1.85893,1.85893,0,0,1-.57373,1.39648,2.39438,2.39438,0,0,1-1.79785.51661,2.50637,2.50637,0,0,1-1.60645-.6504,5.24405,5.24405,0,0,1-1.1289-1.41552q-.44019-.80348-.89893-1.60694a4.75248,4.75248,0,0,0-1.14746-1.35791,2.48867,2.48867,0,0,0-1.60645-.55468,2.98151,2.98151,0,0,0-2.58252,1.45361,6.3832,6.3832,0,0,0-.97558,3.63428,9.72728,9.72728,0,0,0,1.7793,6.1206,5.67864,5.67864,0,0,0,4.72412,2.29541,5.018,5.018,0,0,0,4.59033-2.67773.875.875,0,0,1,.55469-.36328.6688.6688,0,0,1,.57422.15283.64568.64568,0,0,1,.21044.59277,6.39011,6.39011,0,0,1-2.23828,4.39942A8.02841,8.02841,0,0,1,279.95312,727.08984Z" transform="translate(-94.65381 -697.78425)"/><path class="cls-1" d="M300.07471,727.08984a10.48506,10.48506,0,0,1-7.51709-2.81152,9.10165,9.10165,0,0,1-2.96436-6.8667,8.80867,8.80867,0,0,1,2.90723-6.771,9.96925,9.96925,0,0,1,7.00049-2.67773,10.30053,10.30053,0,0,1,7.34472,2.77344,9.58471,9.58471,0,0,1,.17237,13.65674A9.56318,9.56318,0,0,1,300.07471,727.08984Zm.68847-1.6831a2.68668,2.68668,0,0,0,2.4292-1.45362,8.08056,8.08056,0,0,0,.86084-4.09326,17.04734,17.04734,0,0,0-.63134-4.49463,11.93988,11.93988,0,0,0-1.89356-4.0166,3.52751,3.52751,0,0,0-2.79248-1.70263q-3.52,0-3.51953,5.58545a16.45435,16.45435,0,0,0,.63135,4.36084,11.96752,11.96752,0,0,0,1.95117,4.05468A3.7228,3.7228,0,0,0,300.76318,725.40674Z" transform="translate(-94.65381 -697.78425)"/><path class="cls-1" d="M331.86377,722.99707a3.10858,3.10858,0,0,0,.72656,1.72119,2.35822,2.35822,0,0,1,.65039,1.22412v.15283q0,.65114-.87988.6504h-6.61816q-.88038,0-.8794-.6504v-.15283a2.32047,2.32047,0,0,1,.70752-1.186,2.451,2.451,0,0,0,.66943-1.75928l-.38281-7.07715q-.26806-5.77587-3.32763-5.77637a2.81965,2.81965,0,0,0-2.39112,1.14747,4.98123,4.98123,0,0,0-.86084,3.06054v8.6836a2.38656,2.38656,0,0,0,.82276,1.72119q.82178.80346.82226,1.186v.15283q0,.65114-.87988.6504h-7.11524q-.88036,0-.87988-.6504v-.15283q0-.38158.82227-1.186a2.3884,2.3884,0,0,0,.82275-1.72119v-8.91309a1.90828,1.90828,0,0,0-.28711-1.0332,1.9335,1.9335,0,0,0-.65039-.66944,2.79284,2.79284,0,0,1-.6499-.51611.90459.90459,0,0,1-.28711-.6123v-.15284q0-.42041.76514-.80371l4.55224-2.21875q.64966-.30542.97559-.05713a1.0218,1.0218,0,0,1,.32519.86084v2.14209q1.64429-3.09886,5.66162-3.09863a6.91809,6.91809,0,0,1,4.95362,1.95117q2.04639,1.95045,2.35254,6.19678Z" transform="translate(-94.65381 -697.78425)"/><path class="cls-1" d="M344.79346,698.667a6.39464,6.39464,0,0,1,4.07422,1.33887,3.91944,3.91944,0,0,1,1.70214,3.13721,1.99774,1.99774,0,0,1-.55468,1.377,2.03283,2.03283,0,0,1-1.58741.6123,2.89809,2.89809,0,0,1-1.79834-.49755,2.23028,2.23028,0,0,1-.8413-1.20508q-.19189-.70752-.3252-1.41553a2.70922,2.70922,0,0,0-.55469-1.22412,1.48729,1.48729,0,0,0-1.22412-.51611,1.51522,1.51522,0,0,0-1.41553.82226,3.95872,3.95872,0,0,0-.40136,2.12305,18.00889,18.00889,0,0,0,.30566,2.60156,18.28632,18.28632,0,0,0,.66944,2.5249h4.667a.78435.78435,0,0,1,.76513.76465v.727a.67171.67171,0,0,1-.22949.5166.768.768,0,0,1-.53564.21045h-4.51367v12.43262a1.78306,1.78306,0,0,0,.478,1.22412,7.88439,7.88439,0,0,0,.95655.918,1.03846,1.03846,0,0,1,.478.76514v.15283q0,.65112-.72705.65039h-7.45947q-.80346,0-.80322-.65039v-.15283q0-.38234.76513-1.186a2.46726,2.46726,0,0,0,.76514-1.72119V710.56445h-2.71631q-.80346,0-.80322-.727v-.727a.73417.73417,0,0,1,.22949-.53515.77691.77691,0,0,1,.57373-.2295h2.71631v-2.41015a7.41312,7.41312,0,0,1,1.87451-5.24073A7.08255,7.08255,0,0,1,344.79346,698.667Z" transform="translate(-94.65381 -697.78425)"/><path class="cls-1" d="M360.93652,707.96289a3.4125,3.4125,0,0,1,2.582.97559,3.46942,3.46942,0,0,1,.9375,2.50537q0,3.02269-2.44873,3.02246a2.18457,2.18457,0,0,1-1.54882-.5166,2.05821,2.05821,0,0,1-.66944-1.12842,3.02111,3.02111,0,0,0-.45947-1.12842,1.15855,1.15855,0,0,0-1.03271-.5166,1.63977,1.63977,0,0,0-1.53028,1.22412,7.94042,7.94042,0,0,0-.49707,2.98389v7.65088a1.71541,1.71541,0,0,0,.478,1.20507,8.77756,8.77756,0,0,0,.95654.89893,1.03848,1.03848,0,0,1,.478.76514v.15283q0,.65112-.8418.65039h-7.07666q-.88036,0-.87988-.65039v-.15283q0-.38234.7456-1.186a2.45578,2.45578,0,0,0,.7461-1.6831V714.0835a2.11091,2.11091,0,0,0-.87988-1.645q-.88038-.72583-.87989-1.10938v-.15283q0-.53539.80371-.918l4.59034-2.14258q1.22386-.57348,1.22412.76514V711.75A5.08126,5.08126,0,0,1,360.93652,707.96289Z" transform="translate(-94.65381 -697.78425)"/><path class="cls-1" d="M375.66406,727.08984a10.4851,10.4851,0,0,1-7.51709-2.81152,9.10167,9.10167,0,0,1-2.96435-6.8667,8.8087,8.8087,0,0,1,2.90722-6.771,9.96927,9.96927,0,0,1,7.00049-2.67773,10.30056,10.30056,0,0,1,7.34473,2.77344,9.5847,9.5847,0,0,1,.17236,13.65674A9.56316,9.56316,0,0,1,375.66406,727.08984Zm.68848-1.6831a2.68668,2.68668,0,0,0,2.4292-1.45362,8.08056,8.08056,0,0,0,.86084-4.09326,17.047,17.047,0,0,0-.63135-4.49463,11.94006,11.94006,0,0,0-1.89355-4.0166,3.52751,3.52751,0,0,0-2.79248-1.70263q-3.52,0-3.51954,5.58545a16.45435,16.45435,0,0,0,.63135,4.36084,11.96771,11.96771,0,0,0,1.95117,4.05468A3.72283,3.72283,0,0,0,376.35254,725.40674Z" transform="translate(-94.65381 -697.78425)"/><path class="cls-1" d="M407.45312,722.99707a3.10866,3.10866,0,0,0,.72657,1.72119,2.3583,2.3583,0,0,1,.65039,1.22412v.15283q0,.65114-.87988.6504H401.332q-.88036,0-.87939-.6504v-.15283a2.32047,2.32047,0,0,1,.70752-1.186,2.451,2.451,0,0,0,.66943-1.75928l-.38281-7.07715q-.26806-5.77587-3.32764-5.77637A2.81964,2.81964,0,0,0,395.728,711.291a4.98123,4.98123,0,0,0-.86084,3.06054v8.6836a2.38654,2.38654,0,0,0,.82275,1.72119q.82178.80346.82227,1.186v.15283q0,.65114-.87989.6504h-7.11523q-.88036,0-.87988-.6504v-.15283q0-.38158.82226-1.186a2.38841,2.38841,0,0,0,.82276-1.72119v-8.91309a1.90836,1.90836,0,0,0-.28711-1.0332,1.93359,1.93359,0,0,0-.65039-.66944,2.79268,2.79268,0,0,1-.64991-.51611.90463.90463,0,0,1-.28711-.6123v-.15284q0-.42041.76514-.80371l4.55225-2.21875q.64965-.30542.97558-.05713a1.0218,1.0218,0,0,1,.3252.86084v2.14209q1.64429-3.09886,5.66162-3.09863a6.91805,6.91805,0,0,1,4.95361,1.95117q2.04639,1.95045,2.35254,6.19678Z" transform="translate(-94.65381 -697.78425)"/><path class="cls-1" d="M417.97266,727.08984a5.42874,5.42874,0,0,1-4.22705-1.70214,7.059,7.059,0,0,1-1.54932-4.91553v-9.90772h-1.79785a.67616.67616,0,0,1-.76514-.76513v-.65039q0-.80347.76514-.80323h.95654a3.72385,3.72385,0,0,0,2.65869-1.0332,4.83609,4.83609,0,0,0,1.396-2.75439q.19116-.91773.87988-.918h.76514q.84081,0,.84179.918l.03809,3.78759H422.334a.73229.73229,0,0,1,.53516.2295.77688.77688,0,0,1,.22949.57373v.65039a.7155.7155,0,0,1-.22949.55468.76768.76768,0,0,1-.53516.21045h-4.39941v9.98389a2.69761,2.69761,0,0,0,.55469,1.7793,1.7372,1.7372,0,0,0,1.39648.66943,2.48912,2.48912,0,0,0,2.60108-1.72168.81631.81631,0,0,1,.86084-.40185.57517.57517,0,0,1,.51611.63134,5.51322,5.51322,0,0,1-1.5874,3.90186A5.63173,5.63173,0,0,1,417.97266,727.08984Z" transform="translate(-94.65381 -697.78425)"/><path class="cls-1" d="M426.23486,726.70752q-.84228,0-.84179-.65039v-.15283a2.30594,2.30594,0,0,1,.727-1.186,2.53129,2.53129,0,0,0,.72656-1.72119v-8.64551a2.71381,2.71381,0,0,0-.72656-1.79834q-.72731-.84081-.727-1.14746V711.291q0-.3816.80371-.80323l4.78174-2.37207a1.27137,1.27137,0,0,1,1.14746-.05713.88055.88055,0,0,1,.4209.82227v14.11621a2.41206,2.41206,0,0,0,.80322,1.72119q.80346.80348.80322,1.186v.15283q0,.65112-.87988.65039Zm6.17823-22.01514a3.81629,3.81629,0,0,1-2.69727.937,3.95476,3.95476,0,0,1-2.73486-.937,3.10167,3.10167,0,0,1-1.05225-2.4292,3.06013,3.06013,0,0,1,1.05225-2.39111,3.95709,3.95709,0,0,1,2.73486-.937,3.8185,3.8185,0,0,1,2.69727.937,3.11547,3.11547,0,0,1,1.01367,2.39111A3.15887,3.15887,0,0,1,432.41309,704.69238Z" transform="translate(-94.65381 -697.78425)"/><path class="cls-1" d="M456.188,722.99707a3.10858,3.10858,0,0,0,.72656,1.72119,2.3583,2.3583,0,0,1,.65039,1.22412v.15283q0,.65114-.87988.6504h-6.61817q-.88036,0-.87939-.6504v-.15283a2.32047,2.32047,0,0,1,.70752-1.186,2.451,2.451,0,0,0,.66943-1.75928l-.38281-7.07715q-.26807-5.77587-3.32764-5.77637a2.81965,2.81965,0,0,0-2.39111,1.14747,4.98123,4.98123,0,0,0-.86084,3.06054v8.6836a2.38658,2.38658,0,0,0,.82275,1.72119q.82179.80346.82227,1.186v.15283q0,.65114-.87988.6504H437.252q-.88037,0-.87988-.6504v-.15283q0-.38158.82227-1.186a2.3884,2.3884,0,0,0,.82275-1.72119v-8.91309a1.90828,1.90828,0,0,0-.28711-1.0332,1.9335,1.9335,0,0,0-.65039-.66944,2.79263,2.79263,0,0,1-.6499-.51611.90459.90459,0,0,1-.28711-.6123v-.15284q0-.42041.76513-.80371l4.55225-2.21875q.64967-.30542.97559-.05713a1.0218,1.0218,0,0,1,.32519.86084v2.14209q1.64428-3.09886,5.66162-3.09863a6.91809,6.91809,0,0,1,4.95362,1.95117q2.04637,1.95045,2.35254,6.19678Z" transform="translate(-94.65381 -697.78425)"/><path class="cls-1" d="M475.92676,708.3457a4.27526,4.27526,0,0,1,1.93164.28662.6575.6575,0,0,1,.28711.86084,1.20711,1.20711,0,0,1-.49756.82227,3.60508,3.60508,0,0,1-1.30029.40186,8.00135,8.00135,0,0,0-1.10938.22949,6.91444,6.91444,0,0,1,2.14209,4.89648,7.11942,7.11942,0,0,1-1.12842,3.95947,7.44279,7.44279,0,0,1-3.15625,2.69678q4.59082,1.03272,4.59082,4.36084,0,2.41041-2.73535,3.88281a14.37477,14.37477,0,0,1-6.8667,1.47315,12.25389,12.25389,0,0,1-6.522-1.49219,4.38285,4.38285,0,0,1-2.39111-3.78711,2.072,2.072,0,0,1,2.25683-2.14209,2.19323,2.19323,0,0,1,1.75977.89893,6.981,6.981,0,0,1,1.12842,1.98926,5.0317,5.0317,0,0,0,1.39648,1.98925,3.7204,3.7204,0,0,0,2.48633.937,3.92669,3.92669,0,0,0,2.812-.99463,3.41662,3.41662,0,0,0,1.05176-2.60108q0-3.022-2.37158-3.51953-.99537.0769-1.49219.07666a9.54621,9.54621,0,0,1-6.40723-2.16162,6.80834,6.80834,0,0,1-2.54394-5.41309,7.37111,7.37111,0,0,1,2.52441-5.81445,9.54989,9.54989,0,0,1,6.5415-2.21875q1.03345,0,3.252.19141Q473.78369,708.3462,475.92676,708.3457Zm-11.28516,5.126a12.61386,12.61386,0,0,0,1.31983,5.75732q1.31982,2.62061,3.07959,2.62012a2.50872,2.50872,0,0,0,2.123-1.05176,4.52968,4.52968,0,0,0,.78418-2.77343,14.00342,14.00342,0,0,0-.53564-3.78711,9.06021,9.06021,0,0,0-1.60645-3.252,3.01713,3.01713,0,0,0-2.33349-1.33886,2.43714,2.43714,0,0,0-2.06592,1.0332A4.59089,4.59089,0,0,0,464.6416,713.47168Z" transform="translate(-94.65381 -697.78425)"/><path class="cls-1" d="M495.436,727.08984a5.42878,5.42878,0,0,1-4.22706-1.70214,7.059,7.059,0,0,1-1.54931-4.91553v-9.90772h-1.79785a.67616.67616,0,0,1-.76514-.76513v-.65039q0-.80347.76514-.80323h.95654a3.72385,3.72385,0,0,0,2.65869-1.0332,4.83609,4.83609,0,0,0,1.396-2.75439q.19116-.91773.87988-.918h.76514q.84081,0,.84179.918l.03809,3.78759h4.39941a.73229.73229,0,0,1,.53516.2295.77688.77688,0,0,1,.22949.57373v.65039a.7155.7155,0,0,1-.22949.55468.76768.76768,0,0,1-.53516.21045H495.398v9.98389a2.69761,2.69761,0,0,0,.55469,1.7793,1.7372,1.7372,0,0,0,1.39648.66943,2.48912,2.48912,0,0,0,2.60108-1.72168.81631.81631,0,0,1,.86084-.40185.57517.57517,0,0,1,.51611.63134,5.51322,5.51322,0,0,1-1.5874,3.90186A5.63173,5.63173,0,0,1,495.436,727.08984Z" transform="translate(-94.65381 -697.78425)"/><path class="cls-1" d="M522.29,722.9585a3.1086,3.1086,0,0,0,.72656,1.72168,2.35815,2.35815,0,0,1,.65039,1.22412v.15283q0,.65112-.84179.65039H516.169q-.84156,0-.84131-.65039v-.15283a2.31864,2.31864,0,0,1,.70752-1.186,2.40384,2.40384,0,0,0,.66943-1.72119l-.38232-7.34521q-.26808-5.50856-3.32813-5.50831A2.81964,2.81964,0,0,0,510.603,711.291a4.98123,4.98123,0,0,0-.86084,3.06054v8.6836a2.35307,2.35307,0,0,0,.82275,1.6831q.82178.80348.82227,1.186v.15283q0,.65112-.918.65039h-7.07715q-.88036,0-.87988-.65039v-.15283q0-.38234.80371-1.186a2.37856,2.37856,0,0,0,.80322-1.6831V703.98438a2.12516,2.12516,0,0,0-.86084-1.645q-.8606-.72584-.86084-1.10938v-.11475q0-.57348.76514-.95605l5.0498-2.21875a1.21388,1.21388,0,0,1,1.01367-.07666.78268.78268,0,0,1,.36329.76514l-.03809,11.47607a6.186,6.186,0,0,1,5.01123-2.14209,6.96635,6.96635,0,0,1,4.93457,1.89356q2.02734,1.894,2.29541,5.94873Z" transform="translate(-94.65381 -697.78425)"/><path class="cls-1" d="M541.03467,720.89307a.71684.71684,0,0,1,.84131-.30616.62974.62974,0,0,1,.459.72657,6.1589,6.1589,0,0,1-2.29492,3.88281,7.86576,7.86576,0,0,1-5.4707,1.89355,8.87587,8.87587,0,0,1-6.65625-2.67773,9.6707,9.6707,0,0,1-2.60108-7.03857,9.18018,9.18018,0,0,1,9.25733-9.41065,7.87428,7.87428,0,0,1,5.356,1.645,4.929,4.929,0,0,1,1.87451,3.78711,2.60184,2.60184,0,0,1-1.68359,2.5249l-8.49219,3.86377a5.24988,5.24988,0,0,0,5.04932,3.32813,5.41812,5.41812,0,0,0,2.62061-.63135A4.41,4.41,0,0,0,541.03467,720.89307ZM533.88086,709.646a2.67754,2.67754,0,0,0-2.37158,1.43457,6.88814,6.88814,0,0,0-.87989,3.65332,12.67754,12.67754,0,0,0,.38233,3.29l4.93506-2.48682a1.82987,1.82987,0,0,0,.99463-1.79785,5.23546,5.23546,0,0,0-.8418-2.69678A2.52029,2.52029,0,0,0,533.88086,709.646Z" transform="translate(-94.65381 -697.78425)"/><path class="cls-1" d="M561.92041,698.667a6.39463,6.39463,0,0,1,4.07422,1.33887,3.91943,3.91943,0,0,1,1.70215,3.13721,1.99775,1.99775,0,0,1-.55469,1.377,2.03282,2.03282,0,0,1-1.5874.6123,2.898,2.898,0,0,1-1.79834-.49755,2.23025,2.23025,0,0,1-.84131-1.20508q-.1919-.70752-.3252-1.41553a2.70931,2.70931,0,0,0-.55468-1.22412,1.48732,1.48732,0,0,0-1.22412-.51611,1.5152,1.5152,0,0,0-1.41553.82226,3.95881,3.95881,0,0,0-.40137,2.12305,18.01029,18.01029,0,0,0,.30566,2.60156,18.28773,18.28773,0,0,0,.66944,2.5249h4.667a.78435.78435,0,0,1,.76514.76465v.727a.67171.67171,0,0,1-.22949.5166.768.768,0,0,1-.53565.21045h-4.51367v12.43262a1.783,1.783,0,0,0,.478,1.22412,7.88362,7.88362,0,0,0,.95654.918,1.03848,1.03848,0,0,1,.478.76514v.15283q0,.65112-.727.65039h-7.45948q-.80346,0-.80322-.65039v-.15283q0-.38234.76514-1.186a2.46728,2.46728,0,0,0,.76513-1.72119V710.56445h-2.7163q-.80348,0-.80323-.727v-.727a.73417.73417,0,0,1,.22949-.53515.77693.77693,0,0,1,.57374-.2295h2.7163v-2.41015a7.41313,7.41313,0,0,1,1.87452-5.24073A7.08252,7.08252,0,0,1,561.92041,698.667Z" transform="translate(-94.65381 -697.78425)"/><path class="cls-1" d="M575.80664,727.08984a10.48506,10.48506,0,0,1-7.51709-2.81152,9.10167,9.10167,0,0,1-2.96435-6.8667,8.8087,8.8087,0,0,1,2.90722-6.771,9.96927,9.96927,0,0,1,7.00049-2.67773,10.30056,10.30056,0,0,1,7.34473,2.77344,9.5847,9.5847,0,0,1,.17236,13.65674A9.56316,9.56316,0,0,1,575.80664,727.08984Zm.68848-1.6831a2.68668,2.68668,0,0,0,2.4292-1.45362,8.08056,8.08056,0,0,0,.86084-4.09326,17.047,17.047,0,0,0-.63135-4.49463,11.93988,11.93988,0,0,0-1.89356-4.0166,3.52749,3.52749,0,0,0-2.79248-1.70263q-3.52,0-3.51953,5.58545a16.45435,16.45435,0,0,0,.63135,4.36084,11.96771,11.96771,0,0,0,1.95117,4.05468A3.72282,3.72282,0,0,0,576.49512,725.40674Z" transform="translate(-94.65381 -697.78425)"/><path class="cls-1" d="M597.99365,727.08984a10.4851,10.4851,0,0,1-7.51709-2.81152,9.10167,9.10167,0,0,1-2.96435-6.8667,8.8087,8.8087,0,0,1,2.90722-6.771,9.96927,9.96927,0,0,1,7.00049-2.67773,10.30056,10.30056,0,0,1,7.34473,2.77344,9.5847,9.5847,0,0,1,.17236,13.65674A9.56316,9.56316,0,0,1,597.99365,727.08984Zm.68848-1.6831a2.68668,2.68668,0,0,0,2.4292-1.45362,8.08056,8.08056,0,0,0,.86084-4.09326,17.047,17.047,0,0,0-.63135-4.49463,11.94006,11.94006,0,0,0-1.89355-4.0166,3.52751,3.52751,0,0,0-2.79248-1.70263q-3.52,0-3.51954,5.58545a16.45435,16.45435,0,0,0,.63135,4.36084,11.96771,11.96771,0,0,0,1.95117,4.05468A3.72283,3.72283,0,0,0,598.68213,725.40674Z" transform="translate(-94.65381 -697.78425)"/><path class="cls-1" d="M628.63477,723.03516a2.49085,2.49085,0,0,0,.76513,1.70214q.76466.82324.76514,1.20508v.11475q0,.65112-.76514.65039h-4.74365q-.88036,0-.87988-.8418l-.07617-.84131a6.17672,6.17672,0,0,1-4.97315,2.06543,8.7529,8.7529,0,0,1-6.3501-2.582,10.42505,10.42505,0,0,1,0-13.86719,8.6407,8.6407,0,0,1,6.38819-2.67773,6.776,6.776,0,0,1,4.47607,1.49219V703.334a1.74739,1.74739,0,0,0-.47851-1.2622,7.12869,7.12869,0,0,0-.95606-.8418.93668.93668,0,0,1-.47852-.72656v-.11475q0-.65039.80372-.87988l5.01123-1.53027q1.49195-.49659,1.4917.76513Zm-8.64551,2.41015a2.97344,2.97344,0,0,0,2.27636-1.09033,4.34212,4.34212,0,0,0,.97559-3.00293v-6.73291a5.37,5.37,0,0,0-1.26269-3.44287,3.677,3.677,0,0,0-2.90723-1.56836,3.241,3.241,0,0,0-2.79248,1.47266,7.34688,7.34688,0,0,0-1.07129,4.15088,17.5258,17.5258,0,0,0,.43994,4.47558,11.4252,11.4252,0,0,0,1.68311,3.99756A3.38179,3.38179,0,0,0,619.98926,725.44531Z" transform="translate(-94.65381 -697.78425)"/><path class="cls-1" d="M665.85547,708.3457q.76464,0,.76514.61182v.19141q0,.45922-.89893,1.22412a3.81021,3.81021,0,0,0-1.20508,1.6831l-4.93457,13.7334a1.20073,1.20073,0,0,1-1.22412.918h-1.2627a1.187,1.187,0,0,1-1.2622-.918l-3.51953-11.32324-3.55762,11.32324a1.22378,1.22378,0,0,1-1.26221.918h-.87988a1.19964,1.19964,0,0,1-1.22412-.918l-5.585-13.7334a5.1273,5.1273,0,0,0-1.07129-1.626,2.29429,2.29429,0,0,1-.76514-1.28125v-.19141q0-.61158.76514-.61182h6.80908q.72657,0,.72705.64991v.15332a.86909.86909,0,0,1-.26807.59277,5.24922,5.24922,0,0,1-.55468.5166,1.34517,1.34517,0,0,0-.42041.72656,1.927,1.927,0,0,0,.09521,1.14795l3.06055,8.98975,3.55762-11.89746a.88736.88736,0,0,1,.87988-.72656l2.104-.03809a.878.878,0,0,1,.87989.68848l3.481,11.97363,2.9458-8.49268a2.009,2.009,0,0,0,.09571-1.396,1.77056,1.77056,0,0,0-.57373-.86084,7.41214,7.41214,0,0,1-.708-.59326.904.904,0,0,1-.34424-.63086v-.15332q0-.64967.76514-.64991Z" transform="translate(-94.65381 -697.78425)"/><path class="cls-1" d="M684.5625,722.88232a3.62311,3.62311,0,0,0,.43945,1.415,1.50846,1.50846,0,0,0,.66993.66944,2.83525,2.83525,0,0,1,.61181.32519.62176.62176,0,0,1,.26758.53565q0,1.11035-3.67236,1.10937a5.25634,5.25634,0,0,1-2.46729-.43994,2.01448,2.01448,0,0,1-.937-1.626q-1.49194,2.21925-5.08789,2.21875a8.44916,8.44916,0,0,1-5.20264-1.4917,5.64365,5.64365,0,0,1-.03808-8.56884,7.91394,7.91394,0,0,1,4.97265-1.53028,7.11989,7.11989,0,0,1,4.16992,1.14746l-.03808-.459a18.00082,18.00082,0,0,0-1.07129-5.126,2.386,2.386,0,0,0-2.3335-1.4917,2.10616,2.10616,0,0,0-1.6831.76465,4.52907,4.52907,0,0,0-.918,1.6836,4.86844,4.86844,0,0,1-.87988,1.6831,1.92213,1.92213,0,0,1-1.56885.76514,2.32916,2.32916,0,0,1-1.66406-.59326,2.02762,2.02762,0,0,1-.63086-1.54932,3.56215,3.56215,0,0,1,2.123-3.1748,10.57572,10.57572,0,0,1,5.22168-1.186,8.8277,8.8277,0,0,1,6.08252,2.104,8.69276,8.69276,0,0,1,2.79248,5.73829Zm-8.49268,2.52442a2.38735,2.38735,0,0,0,2.02735-1.05176,3.59564,3.59564,0,0,0,.68847-2.39111l-.11474-1.33887a4.15881,4.15881,0,0,0-.9751-2.5249,2.6908,2.6908,0,0,0-2.04687-.87989,2.57033,2.57033,0,0,0-2.00831.87989,3.378,3.378,0,0,0-.78417,2.33349,6.56,6.56,0,0,0,.89892,3.51953A2.659,2.659,0,0,0,676.06982,725.40674Z" transform="translate(-94.65381 -697.78425)"/><path class="cls-1" d="M695.771,727.05176a11.84716,11.84716,0,0,1-5.89112-1.30078q-2.2954-1.30005-2.29541-3.13672a1.94239,1.94239,0,0,1,.63135-1.56836,2.48382,2.48382,0,0,1,1.66406-.53565,2.28023,2.28023,0,0,1,1.79785.78418,4.6419,4.6419,0,0,1,.97559,1.74073,4.11817,4.11817,0,0,0,1.0708,1.74072,2.76726,2.76726,0,0,0,2.04688.78418,3.03883,3.03883,0,0,0,2.0083-.65039,2.29743,2.29743,0,0,0,.78418-1.87451,2.56649,2.56649,0,0,0-1.09034-2.18067,7.6218,7.6218,0,0,0-2.65869-1.20508q-1.56885-.40135-3.13672-.918a5.82054,5.82054,0,0,1-2.65869-1.79786,4.98587,4.98587,0,0,1-1.09033-3.34716,4.81938,4.81938,0,0,1,2.16162-4.03614,9.23619,9.23619,0,0,1,5.604-1.5874,10.68232,10.68232,0,0,1,5.68066,1.35791,3.85572,3.85572,0,0,1,2.19971,3.23242,1.83646,1.83646,0,0,1-.63135,1.41553,2.21658,2.21658,0,0,1-1.54932.57373,2.124,2.124,0,0,1-1.72119-.78418,4.67264,4.67264,0,0,1-.918-1.72119,4.44713,4.44713,0,0,0-.95654-1.72168,2.28023,2.28023,0,0,0-1.79785-.78418,2.331,2.331,0,0,0-1.79785.74609,2.58017,2.58017,0,0,0-.689,1.8169,2.81043,2.81043,0,0,0,.57422,1.79834,3.64112,3.64112,0,0,0,1.4917,1.10888,19.4687,19.4687,0,0,0,2.02734.708q1.10962.3252,2.2378.72657a10.52334,10.52334,0,0,1,2.04687.97558,4.292,4.292,0,0,1,1.4917,1.626,5.24227,5.24227,0,0,1,.57422,2.54394,4.6303,4.6303,0,0,1-2.21875,3.9209A10.25073,10.25073,0,0,1,695.771,727.05176Z" transform="translate(-94.65381 -697.78425)"/><path class="cls-1" d="M713.52,727.08984a5.42874,5.42874,0,0,1-4.22705-1.70214,7.059,7.059,0,0,1-1.54932-4.91553v-9.90772H705.9458a.67616.67616,0,0,1-.76514-.76513v-.65039q0-.80347.76514-.80323h.95654a3.72389,3.72389,0,0,0,2.6587-1.0332,4.83608,4.83608,0,0,0,1.396-2.75439q.19116-.91773.87988-.918h.76514q.84082,0,.8418.918l.03808,3.78759h4.39942a.73228.73228,0,0,1,.53515.2295.77689.77689,0,0,1,.2295.57373v.65039a.71551.71551,0,0,1-.2295.55468.76767.76767,0,0,1-.53515.21045h-4.39942v9.98389a2.69761,2.69761,0,0,0,.55469,1.7793,1.7372,1.7372,0,0,0,1.39649.66943,2.4891,2.4891,0,0,0,2.60107-1.72168.81631.81631,0,0,1,.86084-.40185.57516.57516,0,0,1,.51611.63134,5.51318,5.51318,0,0,1-1.5874,3.90186A5.6317,5.6317,0,0,1,713.52,727.08984Z" transform="translate(-94.65381 -697.78425)"/><path class="cls-1" d="M736.24316,720.89307a.71685.71685,0,0,1,.84131-.30616.62973.62973,0,0,1,.459.72657,6.1589,6.1589,0,0,1-2.29492,3.88281,7.8658,7.8658,0,0,1-5.47071,1.89355,8.8759,8.8759,0,0,1-6.65625-2.67773,9.67073,9.67073,0,0,1-2.60107-7.03857,9.18018,9.18018,0,0,1,9.25732-9.41065,7.87431,7.87431,0,0,1,5.356,1.645,4.929,4.929,0,0,1,1.87451,3.78711,2.60184,2.60184,0,0,1-1.68359,2.5249l-8.49219,3.86377a5.24988,5.24988,0,0,0,5.04932,3.32813,5.41808,5.41808,0,0,0,2.6206-.63135A4.41,4.41,0,0,0,736.24316,720.89307Zm-7.1538-11.24707a2.67757,2.67757,0,0,0-2.37159,1.43457,6.88823,6.88823,0,0,0-.87988,3.65332,12.67756,12.67756,0,0,0,.38232,3.29l4.93506-2.48682a1.82987,1.82987,0,0,0,.99463-1.79785,5.23554,5.23554,0,0,0-.84179-2.69678A2.5203,2.5203,0,0,0,729.08936,709.646Z" transform="translate(-94.65381 -697.78425)"/><path class="cls-1" d="M748.25439,726.70752q-.84228,0-.84179-.65039v-.15283a2.306,2.306,0,0,1,.727-1.186,2.53124,2.53124,0,0,0,.72656-1.72119v-8.64551a2.71376,2.71376,0,0,0-.72656-1.79834q-.72729-.84081-.727-1.14746V711.291q0-.3816.80371-.80323l4.78174-2.37207a1.27137,1.27137,0,0,1,1.14746-.05713.88055.88055,0,0,1,.4209.82227v14.11621a2.41206,2.41206,0,0,0,.80322,1.72119q.80346.80348.80322,1.186v.15283q0,.65112-.87988.65039Zm6.17823-22.01514a3.81629,3.81629,0,0,1-2.69727.937,3.95476,3.95476,0,0,1-2.73486-.937,3.10167,3.10167,0,0,1-1.05225-2.4292,3.06013,3.06013,0,0,1,1.05225-2.39111,3.95709,3.95709,0,0,1,2.73486-.937,3.8185,3.8185,0,0,1,2.69727.937,3.11547,3.11547,0,0,1,1.01367,2.39111A3.15887,3.15887,0,0,1,754.43262,704.69238Z" transform="translate(-94.65381 -697.78425)"/><path class="cls-1" d="M766.34814,727.05176A11.84712,11.84712,0,0,1,760.457,725.751q-2.29541-1.30005-2.29541-3.13672a1.94239,1.94239,0,0,1,.63135-1.56836,2.48382,2.48382,0,0,1,1.66406-.53565,2.28023,2.28023,0,0,1,1.79785.78418,4.6419,4.6419,0,0,1,.97559,1.74073,4.11817,4.11817,0,0,0,1.0708,1.74072,2.76725,2.76725,0,0,0,2.04687.78418,3.03884,3.03884,0,0,0,2.00831-.65039,2.29742,2.29742,0,0,0,.78417-1.87451,2.56651,2.56651,0,0,0-1.09033-2.18067,7.6218,7.6218,0,0,0-2.65869-1.20508q-1.56885-.40135-3.13672-.918a5.82044,5.82044,0,0,1-2.65869-1.79786,4.98587,4.98587,0,0,1-1.09033-3.34716,4.81936,4.81936,0,0,1,2.16162-4.03614,9.23616,9.23616,0,0,1,5.604-1.5874,10.68233,10.68233,0,0,1,5.68067,1.35791,3.85572,3.85572,0,0,1,2.19971,3.23242,1.83646,1.83646,0,0,1-.63135,1.41553,2.21658,2.21658,0,0,1-1.54932.57373,2.124,2.124,0,0,1-1.72119-.78418,4.67264,4.67264,0,0,1-.918-1.72119,4.44713,4.44713,0,0,0-.95654-1.72168,2.28026,2.28026,0,0,0-1.79785-.78418,2.331,2.331,0,0,0-1.79785.74609,2.58017,2.58017,0,0,0-.689,1.8169,2.81043,2.81043,0,0,0,.57422,1.79834,3.64112,3.64112,0,0,0,1.4917,1.10888,19.4687,19.4687,0,0,0,2.02734.708q1.10962.3252,2.2378.72657a10.52334,10.52334,0,0,1,2.04687.97558,4.292,4.292,0,0,1,1.4917,1.626,5.24227,5.24227,0,0,1,.57422,2.54394,4.63032,4.63032,0,0,1-2.21875,3.9209A10.25074,10.25074,0,0,1,766.34814,727.05176Z" transform="translate(-94.65381 -697.78425)"/><path class="cls-1" d="M784.67188,727.05176a11.84713,11.84713,0,0,1-5.89112-1.30078q-2.2954-1.30005-2.29541-3.13672a1.94239,1.94239,0,0,1,.63135-1.56836,2.48382,2.48382,0,0,1,1.66406-.53565,2.28023,2.28023,0,0,1,1.79785.78418,4.6419,4.6419,0,0,1,.97559,1.74073,4.11817,4.11817,0,0,0,1.0708,1.74072,2.76726,2.76726,0,0,0,2.04688.78418,3.03883,3.03883,0,0,0,2.0083-.65039,2.29743,2.29743,0,0,0,.78418-1.87451,2.56652,2.56652,0,0,0-1.09034-2.18067,7.6218,7.6218,0,0,0-2.65869-1.20508q-1.56885-.40135-3.13672-.918a5.82044,5.82044,0,0,1-2.65869-1.79786,4.98587,4.98587,0,0,1-1.09033-3.34716,4.81936,4.81936,0,0,1,2.16162-4.03614,9.23616,9.23616,0,0,1,5.604-1.5874,10.68233,10.68233,0,0,1,5.68067,1.35791,3.85572,3.85572,0,0,1,2.19971,3.23242,1.83646,1.83646,0,0,1-.63135,1.41553,2.21658,2.21658,0,0,1-1.54932.57373,2.124,2.124,0,0,1-1.72119-.78418,4.67264,4.67264,0,0,1-.918-1.72119,4.44713,4.44713,0,0,0-.95654-1.72168,2.28026,2.28026,0,0,0-1.79785-.78418,2.331,2.331,0,0,0-1.79785.74609,2.58017,2.58017,0,0,0-.689,1.8169,2.81043,2.81043,0,0,0,.57422,1.79834,3.64112,3.64112,0,0,0,1.4917,1.10888,19.4687,19.4687,0,0,0,2.02734.708q1.10963.3252,2.2378.72657a10.52334,10.52334,0,0,1,2.04687.97558,4.292,4.292,0,0,1,1.4917,1.626,5.24227,5.24227,0,0,1,.57422,2.54394,4.63032,4.63032,0,0,1-2.21875,3.9209A10.25073,10.25073,0,0,1,784.67188,727.05176Z" transform="translate(-94.65381 -697.78425)"/><path class="cls-1" d="M813.668,722.80566a3.27832,3.27832,0,0,0,.28711,1.54932q.28638.51636.63086.57373a1.59864,1.59864,0,0,1,.63135.24854.7231.7231,0,0,1,.28662.65039q0,1.11035-3.4043,1.10937a4.53235,4.53235,0,0,1-2.50586-.55469,2.323,2.323,0,0,1-.89893-1.93164q-1.60692,2.63966-5.54687,2.63916a6.78488,6.78488,0,0,1-5.10693-2.08447,8.11956,8.11956,0,0,1-2.00831-5.87207V712.668a2.60466,2.60466,0,0,0-.74609-1.77881q-.7456-.82177-.7456-1.12842V709.646q0-.68848.80322-.80323l4.81982-.727q1.56812-.19043,1.56836.689l-.11474,10.90234q0,5.20313,3.17529,5.20264a2.8408,2.8408,0,0,0,2.35254-1.24317,5.23035,5.23035,0,0,0,.9375-3.23291V712.668a2.574,2.574,0,0,0-.76514-1.77881q-.76611-.82177-.76514-1.12842V709.646q0-.68848.76514-.80323l4.89649-.727q1.45313-.15234,1.45361.689Z" transform="translate(-94.65381 -697.78425)"/><path class="cls-1" d="M832.90967,720.89307a.71684.71684,0,0,1,.84131-.30616.62974.62974,0,0,1,.459.72657,6.1589,6.1589,0,0,1-2.29492,3.88281,7.86576,7.86576,0,0,1-5.4707,1.89355,8.87587,8.87587,0,0,1-6.65625-2.67773,9.6707,9.6707,0,0,1-2.60108-7.03857,9.18018,9.18018,0,0,1,9.25733-9.41065,7.87428,7.87428,0,0,1,5.356,1.645,4.929,4.929,0,0,1,1.87451,3.78711,2.60184,2.60184,0,0,1-1.68359,2.5249l-8.49219,3.86377a5.24988,5.24988,0,0,0,5.04932,3.32813,5.41812,5.41812,0,0,0,2.62061-.63135A4.41,4.41,0,0,0,832.90967,720.89307ZM825.75586,709.646a2.67754,2.67754,0,0,0-2.37158,1.43457,6.88814,6.88814,0,0,0-.87989,3.65332,12.67754,12.67754,0,0,0,.38233,3.29l4.93506-2.48682a1.82987,1.82987,0,0,0,.99463-1.79785,5.23546,5.23546,0,0,0-.8418-2.69678A2.52029,2.52029,0,0,0,825.75586,709.646Z" transform="translate(-94.65381 -697.78425)"/><path class="cls-1" d="M112.82471,768.7876a3.62305,3.62305,0,0,0,.43945,1.415,1.50852,1.50852,0,0,0,.66992.66943,2.83492,2.83492,0,0,1,.61182.3252.62176.62176,0,0,1,.26758.53564q0,1.11035-3.67237,1.10938a5.25627,5.25627,0,0,1-2.46728-.44,2.01446,2.01446,0,0,1-.937-1.626q-1.49195,2.21923-5.08789,2.21875a8.44914,8.44914,0,0,1-5.20264-1.4917,5.64367,5.64367,0,0,1-.03809-8.56885,7.914,7.914,0,0,1,4.97266-1.53027,7.11984,7.11984,0,0,1,4.16992,1.14746l-.03808-.459a18.00109,18.00109,0,0,0-1.07129-5.126,2.386,2.386,0,0,0-2.3335-1.4917,2.10615,2.10615,0,0,0-1.68311.76465,4.52908,4.52908,0,0,0-.918,1.68359,4.86834,4.86834,0,0,1-.87989,1.68311,1.92213,1.92213,0,0,1-1.56884.76513,2.32915,2.32915,0,0,1-1.66407-.59326,2.02761,2.02761,0,0,1-.63086-1.54932,3.56215,3.56215,0,0,1,2.123-3.1748,10.5757,10.5757,0,0,1,5.22168-1.186,8.82767,8.82767,0,0,1,6.08252,2.104,8.69278,8.69278,0,0,1,2.79248,5.73828ZM104.332,771.312a2.38735,2.38735,0,0,0,2.02735-1.05176,3.59562,3.59562,0,0,0,.68847-2.39111l-.11474-1.33887a4.15887,4.15887,0,0,0-.9751-2.5249,2.6908,2.6908,0,0,0-2.04688-.87988,2.5703,2.5703,0,0,0-2.0083.87988,3.378,3.378,0,0,0-.78418,2.3335,6.56,6.56,0,0,0,.89893,3.51953A2.659,2.659,0,0,0,104.332,771.312Z" transform="translate(-94.65381 -697.78425)"/><path class="cls-1" d="M135.8916,768.90234a3.10863,3.10863,0,0,0,.72656,1.7212,2.35815,2.35815,0,0,1,.65039,1.22412v.15283q0,.65112-.87988.65039h-6.61816q-.88038,0-.8794-.65039v-.15283a2.32048,2.32048,0,0,1,.70752-1.186,2.451,2.451,0,0,0,.66944-1.75928l-.38282-7.07714q-.26807-5.77589-3.32763-5.77637a2.81965,2.81965,0,0,0-2.39112,1.14746,4.98127,4.98127,0,0,0-.86084,3.06055v8.68359a2.38654,2.38654,0,0,0,.82276,1.72119q.82178.80348.82226,1.186v.15283q0,.65112-.87988.65039h-7.11523q-.88038,0-.87989-.65039v-.15283q0-.3816.82227-1.186a2.38838,2.38838,0,0,0,.82275-1.72119v-8.91309a1.90828,1.90828,0,0,0-.28711-1.0332,1.93338,1.93338,0,0,0-.65039-.66943,2.79288,2.79288,0,0,1-.6499-.51612.90459.90459,0,0,1-.28711-.6123v-.15283q0-.42042.76514-.80371l4.55224-2.21875q.64966-.30543.97559-.05713a1.02178,1.02178,0,0,1,.3252.86084v2.14209q1.64429-3.09888,5.66162-3.09864a6.918,6.918,0,0,1,4.95361,1.95118q2.04639,1.95043,2.35254,6.19677Z" transform="translate(-94.65381 -697.78425)"/><path class="cls-1" d="M157.77246,768.94043a2.49085,2.49085,0,0,0,.76514,1.70215q.76464.82325.76513,1.20508v.11474q0,.65112-.76513.65039H153.794q-.88038,0-.87989-.84179l-.07617-.84131a6.17673,6.17673,0,0,1-4.97314,2.06543,8.75287,8.75287,0,0,1-6.3501-2.582,10.42505,10.42505,0,0,1,0-13.86719,8.64065,8.64065,0,0,1,6.38818-2.67774,6.776,6.776,0,0,1,4.47608,1.49219v-6.12109a1.74737,1.74737,0,0,0-.47852-1.26221,7.13,7.13,0,0,0-.956-.8418.93668.93668,0,0,1-.47852-.72656V746.294q0-.6504.80371-.87989l5.01123-1.53027q1.49194-.49659,1.4917.76514Zm-8.64551,2.41016a2.97344,2.97344,0,0,0,2.27637-1.09034,4.34216,4.34216,0,0,0,.97559-3.00293v-6.73291a5.37,5.37,0,0,0-1.2627-3.44287,3.677,3.677,0,0,0-2.90723-1.56836,3.241,3.241,0,0,0-2.79248,1.47266,7.347,7.347,0,0,0-1.07129,4.15088,17.52627,17.52627,0,0,0,.43995,4.47558,11.425,11.425,0,0,0,1.6831,3.99756A3.38178,3.38178,0,0,0,149.127,771.35059Z" transform="translate(-94.65381 -697.78425)"/><path class="cls-1" d="M188.71973,768.86377a3.1086,3.1086,0,0,0,.72656,1.72168,2.35826,2.35826,0,0,1,.65039,1.22412v.15283q0,.65112-.8418.65039h-6.65625q-.84155,0-.84131-.65039v-.15283a2.3187,2.3187,0,0,1,.70752-1.186,2.40389,2.40389,0,0,0,.66944-1.7212l-.38233-7.34521q-.26807-5.50854-3.32812-5.5083a2.81966,2.81966,0,0,0-2.39112,1.14746,4.98126,4.98126,0,0,0-.86083,3.06055v8.68359a2.35311,2.35311,0,0,0,.82275,1.68311q.82178.80346.82226,1.186v.15283q0,.65112-.918.65039h-7.07715q-.88038,0-.87989-.65039v-.15283q0-.38232.80372-1.186a2.3786,2.3786,0,0,0,.80322-1.68311V749.88965a2.12516,2.12516,0,0,0-.86084-1.645q-.8606-.72583-.86084-1.10938v-.11474q0-.57349.76514-.95606l5.0498-2.21875a1.21388,1.21388,0,0,1,1.01367-.07666.78268.78268,0,0,1,.36328.76514l-.03808,11.47607a6.186,6.186,0,0,1,5.01123-2.14209,6.96635,6.96635,0,0,1,4.93457,1.89356q2.02734,1.894,2.29541,5.94873Z" transform="translate(-94.65381 -697.78425)"/><path class="cls-1" d="M207.46436,766.79834a.71683.71683,0,0,1,.8413-.30615.62973.62973,0,0,1,.459.72656,6.15888,6.15888,0,0,1-2.29492,3.88281,7.86576,7.86576,0,0,1-5.47071,1.89356,8.87588,8.87588,0,0,1-6.65625-2.67774,9.67072,9.67072,0,0,1-2.60107-7.03857,9.18019,9.18019,0,0,1,9.25732-9.41065,7.87429,7.87429,0,0,1,5.356,1.645,4.929,4.929,0,0,1,1.87451,3.78711,2.60186,2.60186,0,0,1-1.68359,2.52491l-8.49219,3.86376a5.24988,5.24988,0,0,0,5.04932,3.32813,5.41806,5.41806,0,0,0,2.6206-.63135A4.41,4.41,0,0,0,207.46436,766.79834Zm-7.15381-11.24707a2.67759,2.67759,0,0,0-2.37159,1.43457,6.88823,6.88823,0,0,0-.87988,3.65332,12.67711,12.67711,0,0,0,.38233,3.29l4.93505-2.48682a1.82986,1.82986,0,0,0,.99463-1.79785,5.23556,5.23556,0,0,0-.84179-2.69678A2.52029,2.52029,0,0,0,200.31055,755.55127Z" transform="translate(-94.65381 -697.78425)"/><path class="cls-1" d="M211.4043,772.61279q-.88038,0-.87989-.65039v-.15283q0-.38232.7461-1.186a2.45729,2.45729,0,0,0,.7456-1.68311V750.11914a2.58011,2.58011,0,0,0-.7456-1.79785q-.74634-.80348-.7461-1.10938v-.15283q0-.45923.76514-.76513l4.81983-2.37207a1.368,1.368,0,0,1,1.167-.07618.81074.81074,0,0,1,.40136.76514v24.32959a2.35313,2.35313,0,0,0,.82276,1.68311q.82177.80346.82226,1.186v.15283q0,.65112-.87988.65039Z" transform="translate(-94.65381 -697.78425)"/><path class="cls-1" d="M232.71143,753.86816a8.928,8.928,0,0,1,6.27392,2.48633,8.79249,8.79249,0,0,1,2.67774,6.771,9.91665,9.91665,0,0,1-2.62061,7.09619,8.34919,8.34919,0,0,1-6.29248,2.77344,6.77388,6.77388,0,0,1-4.47607-1.4917v5.6997a2.41289,2.41289,0,0,0,.80371,1.72168q.80272.80348.80322,1.186v.15283q0,.64966-.87988.65039h-6.92383q-.8811,0-.87988-.65039v-.15283q0-.38306.7456-1.186a2.49529,2.49529,0,0,0,.74609-1.72168V759.98877a2.00161,2.00161,0,0,0-.87988-1.54932q-.88036-.70752-.87988-1.12841v-.19141q0-.53467.76514-.918l4.28466-2.104q1.45313-.72583,1.45362.68847l-.03858,1.60694Q229.001,753.86841,232.71143,753.86816Zm-.53516,17.48243a3.22849,3.22849,0,0,0,2.84961-1.53028,7.963,7.963,0,0,0,1.01367-4.39941,17.689,17.689,0,0,0-1.26221-6.90479q-1.26269-3.00293-3.40478-3.00293a2.85641,2.85641,0,0,0-2.06543.86084,3.57056,3.57056,0,0,0-1.0332,2.2378v7.30664a6.26366,6.26366,0,0,0,1.186,3.82519A3.37008,3.37008,0,0,0,232.17627,771.35059Z" transform="translate(-94.65381 -697.78425)"/><path class="cls-1" d="M244.83838,772.61279q-.84228,0-.8418-.65039v-.15283a2.306,2.306,0,0,1,.72705-1.186,2.5313,2.5313,0,0,0,.72657-1.7212v-8.6455a2.71374,2.71374,0,0,0-.72657-1.79834q-.72729-.84082-.72705-1.14746v-.11475q0-.3816.80371-.80322L249.582,754.021a1.27131,1.27131,0,0,1,1.14746-.05713.88051.88051,0,0,1,.4209.82226v14.11621a2.41214,2.41214,0,0,0,.80322,1.7212q.80348.80346.80323,1.186v.15283q0,.65112-.87989.65039Zm6.17822-22.01513a3.81627,3.81627,0,0,1-2.69726.937,3.95478,3.95478,0,0,1-2.73487-.937,3.10166,3.10166,0,0,1-1.05224-2.4292,3.06013,3.06013,0,0,1,1.05224-2.39112,3.95711,3.95711,0,0,1,2.73487-.937,3.81847,3.81847,0,0,1,2.69726.937,3.11548,3.11548,0,0,1,1.01367,2.39112A3.15887,3.15887,0,0,1,251.0166,750.59766Z" transform="translate(-94.65381 -697.78425)"/><path class="cls-1" d="M274.791,768.90234a3.10863,3.10863,0,0,0,.72656,1.7212,2.35823,2.35823,0,0,1,.65039,1.22412v.15283q0,.65112-.87988.65039h-6.61817q-.88036,0-.87939-.65039v-.15283a2.32048,2.32048,0,0,1,.70752-1.186,2.451,2.451,0,0,0,.66943-1.75928l-.38281-7.07714q-.26807-5.77589-3.32764-5.77637a2.81963,2.81963,0,0,0-2.39111,1.14746,4.98127,4.98127,0,0,0-.86084,3.06055v8.68359a2.38653,2.38653,0,0,0,.82275,1.72119q.82178.80348.82227,1.186v.15283q0,.65112-.87989.65039H255.855q-.88037,0-.87988-.65039v-.15283q0-.3816.82226-1.186a2.38839,2.38839,0,0,0,.82276-1.72119v-8.91309a1.90836,1.90836,0,0,0-.28711-1.0332,1.93355,1.93355,0,0,0-.65039-.66943,2.79273,2.79273,0,0,1-.64991-.51612.90461.90461,0,0,1-.2871-.6123v-.15283q0-.42042.76513-.80371L260.063,754.021q.64965-.30543.97558-.05713a1.02178,1.02178,0,0,1,.3252.86084v2.14209q1.64429-3.09888,5.66162-3.09864a6.918,6.918,0,0,1,4.95361,1.95118q2.04639,1.95043,2.35254,6.19677Z" transform="translate(-94.65381 -697.78425)"/><path class="cls-1" d="M294.52979,754.251a4.27512,4.27512,0,0,1,1.93164.28662.65751.65751,0,0,1,.28711.86084,1.20709,1.20709,0,0,1-.49756.82226,3.60474,3.60474,0,0,1-1.3003.40186,8.00142,8.00142,0,0,0-1.10937.22949,6.9145,6.9145,0,0,1,2.14209,4.89649A7.11952,7.11952,0,0,1,294.855,765.708a7.44292,7.44292,0,0,1-3.15625,2.69678q4.59082,1.0327,4.59082,4.36083,0,2.41041-2.73535,3.88282a14.37492,14.37492,0,0,1-6.8667,1.47314,12.25389,12.25389,0,0,1-6.522-1.49219,4.38284,4.38284,0,0,1-2.39112-3.7871,2.072,2.072,0,0,1,2.25684-2.14209,2.19323,2.19323,0,0,1,1.75977.89892,6.98082,6.98082,0,0,1,1.12841,1.98926,5.03176,5.03176,0,0,0,1.39649,1.98926,3.72039,3.72039,0,0,0,2.48633.937,3.92665,3.92665,0,0,0,2.812-.99463A3.41658,3.41658,0,0,0,290.666,772.919q0-3.022-2.37159-3.51954-.99535.07691-1.49218.07666a9.54619,9.54619,0,0,1-6.40723-2.16162,6.80833,6.80833,0,0,1-2.54395-5.41308,7.37111,7.37111,0,0,1,2.52442-5.81446,9.54994,9.54994,0,0,1,6.5415-2.21875q1.03345,0,3.252.19141Q292.38672,754.25147,294.52979,754.251Zm-11.28516,5.126a12.614,12.614,0,0,0,1.31982,5.75733q1.31983,2.62061,3.07959,2.62011a2.50872,2.50872,0,0,0,2.123-1.05175,4.52974,4.52974,0,0,0,.78418-2.77344,14.0031,14.0031,0,0,0-.53565-3.78711,9.06015,9.06015,0,0,0-1.60644-3.252,3.01716,3.01716,0,0,0-2.3335-1.33887,2.43716,2.43716,0,0,0-2.06591,1.0332A4.59089,4.59089,0,0,0,283.24463,759.377Z" transform="translate(-94.65381 -697.78425)"/><path class="cls-1" d="M314.03906,772.99512A5.42878,5.42878,0,0,1,309.812,771.293a7.059,7.059,0,0,1-1.54931-4.91553v-9.90771h-1.79786a.67616.67616,0,0,1-.76513-.76514v-.65039q0-.80348.76513-.80322h.95655a3.72386,3.72386,0,0,0,2.65869-1.03321,4.836,4.836,0,0,0,1.396-2.75439q.19117-.91773.87989-.918h.76513q.84083,0,.8418.918l.03809,3.7876h4.39941a.73231.73231,0,0,1,.53516.22949.7769.7769,0,0,1,.22949.57373v.65039a.71554.71554,0,0,1-.22949.55469.76776.76776,0,0,1-.53516.21045H314.001v9.98388a2.69764,2.69764,0,0,0,.55468,1.7793,1.7372,1.7372,0,0,0,1.39649.66943,2.4891,2.4891,0,0,0,2.60107-1.72168.81631.81631,0,0,1,.86084-.40185.57517.57517,0,0,1,.51612.63135,5.51318,5.51318,0,0,1-1.58741,3.90185A5.63171,5.63171,0,0,1,314.03906,772.99512Z" transform="translate(-94.65381 -697.78425)"/><path class="cls-1" d="M340.89355,768.86377a3.10869,3.10869,0,0,0,.72657,1.72168,2.35826,2.35826,0,0,1,.65039,1.22412v.15283q0,.65112-.8418.65039h-6.65625q-.84154,0-.84131-.65039v-.15283a2.31863,2.31863,0,0,1,.70752-1.186,2.40389,2.40389,0,0,0,.66944-1.7212l-.38233-7.34521q-.26806-5.50854-3.32812-5.5083a2.81965,2.81965,0,0,0-2.39112,1.14746,4.98127,4.98127,0,0,0-.86084,3.06055v8.68359a2.35313,2.35313,0,0,0,.82276,1.68311q.82178.80346.82226,1.186v.15283q0,.65112-.918.65039h-7.07714q-.88038,0-.87989-.65039v-.15283q0-.38232.80371-1.186a2.37857,2.37857,0,0,0,.80323-1.68311V749.88965a2.12516,2.12516,0,0,0-.86084-1.645q-.8606-.72583-.86084-1.10938v-.11474q0-.57349.76513-.95606l5.04981-2.21875a1.21388,1.21388,0,0,1,1.01367-.07666.78268.78268,0,0,1,.36328.76514l-.03808,11.47607a6.186,6.186,0,0,1,5.01123-2.14209,6.96636,6.96636,0,0,1,4.93457,1.89356q2.02734,1.894,2.29541,5.94873Z" transform="translate(-94.65381 -697.78425)"/><path class="cls-1" d="M359.6377,766.79834a.71683.71683,0,0,1,.8413-.30615.62973.62973,0,0,1,.459.72656,6.15888,6.15888,0,0,1-2.29492,3.88281,7.86576,7.86576,0,0,1-5.47071,1.89356,8.87588,8.87588,0,0,1-6.65625-2.67774,9.67072,9.67072,0,0,1-2.60107-7.03857,9.18019,9.18019,0,0,1,9.25732-9.41065,7.87429,7.87429,0,0,1,5.356,1.645,4.929,4.929,0,0,1,1.87451,3.78711,2.60186,2.60186,0,0,1-1.68359,2.52491l-8.49219,3.86376a5.24988,5.24988,0,0,0,5.04932,3.32813,5.41806,5.41806,0,0,0,2.6206-.63135A4.41,4.41,0,0,0,359.6377,766.79834Zm-7.15381-11.24707a2.67759,2.67759,0,0,0-2.37159,1.43457,6.88823,6.88823,0,0,0-.87988,3.65332,12.67711,12.67711,0,0,0,.38233,3.29l4.935-2.48682a1.82986,1.82986,0,0,0,.99463-1.79785,5.23556,5.23556,0,0,0-.84179-2.69678A2.52029,2.52029,0,0,0,352.48389,755.55127Z" transform="translate(-94.65381 -697.78425)"/><path class="cls-1" d="M390.24072,768.86377a3.10855,3.10855,0,0,0,.72657,1.72168,2.35826,2.35826,0,0,1,.65039,1.22412v.15283q0,.65112-.8418.65039h-6.65625q-.84156,0-.84131-.65039v-.15283a2.31863,2.31863,0,0,1,.70752-1.186,2.40388,2.40388,0,0,0,.66943-1.7212l-.38232-7.34521q-.26806-5.50854-3.32813-5.5083a2.81964,2.81964,0,0,0-2.39111,1.14746,4.98127,4.98127,0,0,0-.86084,3.06055v8.68359a2.35315,2.35315,0,0,0,.82275,1.68311q.82179.80346.82227,1.186v.15283q0,.65112-.918.65039h-7.07715q-.88036,0-.87988-.65039v-.15283q0-.38232.80371-1.186a2.37856,2.37856,0,0,0,.80322-1.68311V749.88965a2.12516,2.12516,0,0,0-.86084-1.645q-.86059-.72583-.86084-1.10938v-.11474q0-.57349.76514-.95606l5.04981-2.21875a1.21388,1.21388,0,0,1,1.01367-.07666.78268.78268,0,0,1,.36328.76514l-.03809,11.47607a6.18606,6.18606,0,0,1,5.01123-2.14209,6.96635,6.96635,0,0,1,4.93457,1.89356q2.02736,1.894,2.29541,5.94873Z" transform="translate(-94.65381 -697.78425)"/><path class="cls-1" d="M403.70557,772.99512a10.485,10.485,0,0,1-7.51709-2.81153,9.10163,9.10163,0,0,1-2.96436-6.8667,8.80864,8.80864,0,0,1,2.90723-6.771,9.96922,9.96922,0,0,1,7.00049-2.67774,10.30053,10.30053,0,0,1,7.34472,2.77344,9.58471,9.58471,0,0,1,.17237,13.65674A9.56318,9.56318,0,0,1,403.70557,772.99512Zm.68847-1.68311a2.68669,2.68669,0,0,0,2.4292-1.45361,8.08061,8.08061,0,0,0,.86084-4.09326,17.04689,17.04689,0,0,0-.63135-4.49463,11.9395,11.9395,0,0,0-1.89355-4.0166,3.52749,3.52749,0,0,0-2.79248-1.70264q-3.52,0-3.51953,5.58545a16.4543,16.4543,0,0,0,.63135,4.36084,11.96748,11.96748,0,0,0,1.95117,4.05469A3.72279,3.72279,0,0,0,404.394,771.312Z" transform="translate(-94.65381 -697.78425)"/><path class="cls-1" d="M447.3916,768.90234a3.11215,3.11215,0,0,0,.72656,1.7212,2.35815,2.35815,0,0,1,.65039,1.22412v.15283q0,.65112-.8413.65039h-6.61817q-.88036,0-.87988-.65039v-.15283a2.32048,2.32048,0,0,1,.70752-1.186,2.26052,2.26052,0,0,0,.63135-1.72119l-.38233-7.00049a10.41962,10.41962,0,0,0-.95654-4.5332,2.7255,2.7255,0,0,0-4.55225-.24854,4.99177,4.99177,0,0,0-.918,2.86914,9.54455,9.54455,0,0,1,.15284,1.83594v7.07715a2.64208,2.64208,0,0,0,.66943,1.72119,2.365,2.365,0,0,1,.66943,1.186v.15283q0,.65112-.8413.65039h-6.61817q-.88037,0-.87988-.65039v-.15283a2.34138,2.34138,0,0,1,.68847-1.186,2.60106,2.60106,0,0,0,.68848-1.72119V761.481a7.37286,7.37286,0,0,0-.918-4.01709,2.771,2.771,0,0,0-2.40967-1.415,2.839,2.839,0,0,0-2.41015,1.18555,5.00427,5.00427,0,0,0-.87988,3.06054v8.64551a2.38772,2.38772,0,0,0,.82226,1.72119q.82251.80348.82275,1.186v.15283q0,.65112-.87988.65039h-7.11523q-.88038,0-.87989-.65039v-.15283q0-.3816.82227-1.186a2.38838,2.38838,0,0,0,.82275-1.72119v-8.91309a1.73762,1.73762,0,0,0-.45947-1.22412,7.29747,7.29747,0,0,0-.937-.86084.98423.98423,0,0,1-.478-.74609v-.15283q0-.42042.80323-.80371l4.81982-2.21875a.97116.97116,0,0,1,.99463-.05713.99228.99228,0,0,1,.34424.86084v1.79785a5.90552,5.90552,0,0,1,5.27929-2.7544,6.7901,6.7901,0,0,1,6.3501,3.44288,5.752,5.752,0,0,1,2.31445-2.52491,6.737,6.737,0,0,1,3.50049-.918,6.631,6.631,0,0,1,4.85791,1.93164q1.95117,1.93214,2.25733,6.293Z" transform="translate(-94.65381 -697.78425)"/><path class="cls-1" d="M466.09814,766.79834a.71684.71684,0,0,1,.84131-.30615.62973.62973,0,0,1,.459.72656,6.15888,6.15888,0,0,1-2.29492,3.88281,7.86576,7.86576,0,0,1-5.47071,1.89356,8.87588,8.87588,0,0,1-6.65625-2.67774,9.67072,9.67072,0,0,1-2.60107-7.03857,9.18019,9.18019,0,0,1,9.25732-9.41065,7.87431,7.87431,0,0,1,5.356,1.645,4.929,4.929,0,0,1,1.87451,3.78711,2.60186,2.60186,0,0,1-1.68359,2.52491L456.6875,765.689a5.24988,5.24988,0,0,0,5.04932,3.32813,5.41808,5.41808,0,0,0,2.6206-.63135A4.4099,4.4099,0,0,0,466.09814,766.79834Zm-7.1538-11.24707a2.67759,2.67759,0,0,0-2.37159,1.43457,6.88823,6.88823,0,0,0-.87988,3.65332,12.67711,12.67711,0,0,0,.38233,3.29l4.935-2.48682a1.82986,1.82986,0,0,0,.99463-1.79785,5.23556,5.23556,0,0,0-.84179-2.69678A2.5203,2.5203,0,0,0,458.94434,755.55127Z" transform="translate(-94.65381 -697.78425)"/><path class="cls-1" d="M470.0376,772.61279q-.88038,0-.87989-.65039v-.15283q0-.38232.7461-1.186a2.45729,2.45729,0,0,0,.7456-1.68311V750.11914a2.58011,2.58011,0,0,0-.7456-1.79785q-.74634-.80348-.7461-1.10938v-.15283q0-.45923.76514-.76513l4.81983-2.37207a1.368,1.368,0,0,1,1.167-.07618.81075.81075,0,0,1,.40137.76514v24.32959a2.35311,2.35311,0,0,0,.82275,1.68311q.82178.80346.82226,1.186v.15283q0,.65112-.87988.65039Z" transform="translate(-94.65381 -697.78425)"/><path class="cls-1" d="M495.5918,766.79834a.71684.71684,0,0,1,.84131-.30615.62973.62973,0,0,1,.459.72656,6.15888,6.15888,0,0,1-2.29492,3.88281,7.86573,7.86573,0,0,1-5.47071,1.89356,8.87588,8.87588,0,0,1-6.65625-2.67774,9.67072,9.67072,0,0,1-2.60107-7.03857,9.18019,9.18019,0,0,1,9.25732-9.41065,7.87429,7.87429,0,0,1,5.356,1.645,4.929,4.929,0,0,1,1.87451,3.78711,2.60186,2.60186,0,0,1-1.68359,2.52491l-8.49219,3.86376a5.24988,5.24988,0,0,0,5.04932,3.32813,5.41806,5.41806,0,0,0,2.6206-.63135A4.40993,4.40993,0,0,0,495.5918,766.79834ZM488.438,755.55127a2.67756,2.67756,0,0,0-2.37158,1.43457,6.88814,6.88814,0,0,0-.87989,3.65332,12.67711,12.67711,0,0,0,.38233,3.29l4.93506-2.48682a1.82988,1.82988,0,0,0,.99463-1.79785,5.23549,5.23549,0,0,0-.8418-2.69678A2.52029,2.52029,0,0,0,488.438,755.55127Z" transform="translate(-94.65381 -697.78425)"/><path class="cls-1" d="M506.83838,772.957a11.847,11.847,0,0,1-5.89111-1.30078q-2.29542-1.30005-2.29541-3.13672a1.94238,1.94238,0,0,1,.63134-1.56836,2.48388,2.48388,0,0,1,1.66407-.53564,2.28026,2.28026,0,0,1,1.79785.78418,4.64183,4.64183,0,0,1,.97558,1.74072,4.11817,4.11817,0,0,0,1.0708,1.74072,2.76726,2.76726,0,0,0,2.04688.78418,3.03881,3.03881,0,0,0,2.0083-.65039,2.2974,2.2974,0,0,0,.78418-1.87451,2.56648,2.56648,0,0,0-1.09033-2.18066,7.62152,7.62152,0,0,0-2.65869-1.20508q-1.56885-.40137-3.13672-.918a5.82049,5.82049,0,0,1-2.65869-1.79785,4.98592,4.98592,0,0,1-1.09034-3.34717,4.81935,4.81935,0,0,1,2.16162-4.03613,9.23613,9.23613,0,0,1,5.604-1.58741,10.6823,10.6823,0,0,1,5.68066,1.35791,3.85574,3.85574,0,0,1,2.19971,3.23243,1.83646,1.83646,0,0,1-.63135,1.41552,2.21653,2.21653,0,0,1-1.54931.57373,2.124,2.124,0,0,1-1.7212-.78418,4.67247,4.67247,0,0,1-.918-1.72119,4.44715,4.44715,0,0,0-.95655-1.72168,2.28023,2.28023,0,0,0-1.79785-.78418,2.331,2.331,0,0,0-1.79785.7461,2.58019,2.58019,0,0,0-.689,1.81689,2.81039,2.81039,0,0,0,.57422,1.79834,3.64128,3.64128,0,0,0,1.4917,1.10889,19.47124,19.47124,0,0,0,2.02735.708q1.10961.32519,2.23779.72656a10.52392,10.52392,0,0,1,2.04687.97558,4.292,4.292,0,0,1,1.4917,1.626,5.24219,5.24219,0,0,1,.57422,2.54395,4.6303,4.6303,0,0,1-2.21875,3.92089A10.25073,10.25073,0,0,1,506.83838,772.957Z" transform="translate(-94.65381 -697.78425)"/><path class="cls-1" d="M525.16162,772.957a11.847,11.847,0,0,1-5.89111-1.30078q-2.29542-1.30005-2.29541-3.13672a1.94239,1.94239,0,0,1,.63135-1.56836,2.48385,2.48385,0,0,1,1.66406-.53564,2.28023,2.28023,0,0,1,1.79785.78418,4.642,4.642,0,0,1,.97559,1.74072,4.11807,4.11807,0,0,0,1.0708,1.74072,2.76724,2.76724,0,0,0,2.04687.78418,3.03881,3.03881,0,0,0,2.0083-.65039,2.2974,2.2974,0,0,0,.78418-1.87451,2.56648,2.56648,0,0,0-1.09033-2.18066,7.62144,7.62144,0,0,0-2.65869-1.20508q-1.56885-.40137-3.13672-.918a5.82049,5.82049,0,0,1-2.65869-1.79785,4.98592,4.98592,0,0,1-1.09033-3.34717,4.81933,4.81933,0,0,1,2.16162-4.03613,9.23609,9.23609,0,0,1,5.604-1.58741,10.6823,10.6823,0,0,1,5.68066,1.35791,3.85574,3.85574,0,0,1,2.19971,3.23243,1.83646,1.83646,0,0,1-.63135,1.41552,2.21653,2.21653,0,0,1-1.54931.57373,2.124,2.124,0,0,1-1.72119-.78418,4.67235,4.67235,0,0,1-.918-1.72119,4.447,4.447,0,0,0-.95655-1.72168,2.28023,2.28023,0,0,0-1.79785-.78418,2.331,2.331,0,0,0-1.79785.7461,2.58018,2.58018,0,0,0-.689,1.81689,2.81034,2.81034,0,0,0,.57422,1.79834,3.64118,3.64118,0,0,0,1.49169,1.10889,19.47124,19.47124,0,0,0,2.02735.708q1.10961.32519,2.23779.72656a10.52429,10.52429,0,0,1,2.04688.97558,4.2922,4.2922,0,0,1,1.4917,1.626,5.24231,5.24231,0,0,1,.57421,2.54395,4.6303,4.6303,0,0,1-2.21875,3.92089A10.25073,10.25073,0,0,1,525.16162,772.957Z" transform="translate(-94.65381 -697.78425)"/><path class="cls-1" d="M552.81836,772.99512a9.5353,9.5353,0,0,1-7.05762-2.83057,9.2705,9.2705,0,0,1-2.812-6.771,8.9358,8.9358,0,0,1,2.812-6.88574,9.83872,9.83872,0,0,1,6.82813-2.63965,9.55582,9.55582,0,0,1,5.60449,1.53028,4.55322,4.55322,0,0,1,2.314,3.82519,1.8589,1.8589,0,0,1-.57373,1.39649,2.39442,2.39442,0,0,1-1.79785.5166,2.50633,2.50633,0,0,1-1.60644-.65039,5.24413,5.24413,0,0,1-1.12891-1.41553q-.44019-.80346-.89893-1.60693A4.752,4.752,0,0,0,553.354,756.106a2.48865,2.48865,0,0,0-1.60644-.55469,2.98149,2.98149,0,0,0-2.58252,1.45361,6.38322,6.38322,0,0,0-.97559,3.63428,9.72733,9.72733,0,0,0,1.7793,6.12061,5.67868,5.67868,0,0,0,4.72412,2.29541,5.018,5.018,0,0,0,4.59033-2.67774.875.875,0,0,1,.55469-.36328.66885.66885,0,0,1,.57422.15283.64571.64571,0,0,1,.21045.59278,6.3901,6.3901,0,0,1-2.23828,4.39941A8.02844,8.02844,0,0,1,552.81836,772.99512Z" transform="translate(-94.65381 -697.78425)"/><path class="cls-1" d="M572.93994,772.99512a10.48506,10.48506,0,0,1-7.51709-2.81153,9.10166,9.10166,0,0,1-2.96435-6.8667,8.80866,8.80866,0,0,1,2.90722-6.771,9.96924,9.96924,0,0,1,7.00049-2.67774,10.30056,10.30056,0,0,1,7.34473,2.77344,9.5847,9.5847,0,0,1,.17236,13.65674A9.56317,9.56317,0,0,1,572.93994,772.99512Zm.68848-1.68311a2.68669,2.68669,0,0,0,2.4292-1.45361,8.08061,8.08061,0,0,0,.86084-4.09326,17.04689,17.04689,0,0,0-.63135-4.49463,11.9397,11.9397,0,0,0-1.89356-4.0166,3.52747,3.52747,0,0,0-2.79248-1.70264q-3.52,0-3.51953,5.58545a16.4543,16.4543,0,0,0,.63135,4.36084,11.96785,11.96785,0,0,0,1.95117,4.05469A3.72282,3.72282,0,0,0,573.62842,771.312Z" transform="translate(-94.65381 -697.78425)"/><path class="cls-1" d="M616.626,768.90234a3.11215,3.11215,0,0,0,.72656,1.7212,2.35823,2.35823,0,0,1,.65039,1.22412v.15283q0,.65112-.84131.65039h-6.61816q-.88038,0-.87989-.65039v-.15283a2.32056,2.32056,0,0,1,.70752-1.186,2.26052,2.26052,0,0,0,.63135-1.72119l-.38232-7.00049a10.41945,10.41945,0,0,0-.95655-4.5332,2.7255,2.7255,0,0,0-4.55224-.24854,4.99162,4.99162,0,0,0-.918,2.86914,9.54543,9.54543,0,0,1,.15283,1.83594v7.07715a2.64214,2.64214,0,0,0,.66943,1.72119,2.365,2.365,0,0,1,.66944,1.186v.15283q0,.65112-.84131.65039h-6.61816q-.88038,0-.87989-.65039v-.15283a2.34142,2.34142,0,0,1,.68848-1.186,2.60111,2.60111,0,0,0,.68848-1.72119V761.481a7.373,7.373,0,0,0-.918-4.01709,2.771,2.771,0,0,0-2.40967-1.415,2.839,2.839,0,0,0-2.41016,1.18555,5.00434,5.00434,0,0,0-.87988,3.06054v8.64551a2.38774,2.38774,0,0,0,.82227,1.72119q.82251.80348.82275,1.186v.15283q0,.65112-.87988.65039h-7.11524q-.88036,0-.87988-.65039v-.15283q0-.3816.82227-1.186a2.38838,2.38838,0,0,0,.82275-1.72119v-8.91309a1.73762,1.73762,0,0,0-.45947-1.22412,7.29879,7.29879,0,0,0-.937-.86084.98423.98423,0,0,1-.478-.74609v-.15283q0-.42042.80322-.80371l4.81982-2.21875a.97116.97116,0,0,1,.99463-.05713.99225.99225,0,0,1,.34424.86084v1.79785a5.90554,5.90554,0,0,1,5.2793-2.7544,6.79011,6.79011,0,0,1,6.3501,3.44288,5.75193,5.75193,0,0,1,2.31445-2.52491,6.737,6.737,0,0,1,3.50049-.918,6.631,6.631,0,0,1,4.85791,1.93164q1.95117,1.93214,2.25732,6.293Z" transform="translate(-94.65381 -697.78425)"/><path class="cls-1" d="M651.55225,768.90234a3.11208,3.11208,0,0,0,.72656,1.7212,2.35823,2.35823,0,0,1,.65039,1.22412v.15283q0,.65112-.84131.65039h-6.61816q-.88038,0-.87989-.65039v-.15283a2.32056,2.32056,0,0,1,.70752-1.186,2.26052,2.26052,0,0,0,.63135-1.72119l-.38232-7.00049a10.41945,10.41945,0,0,0-.95655-4.5332,2.7255,2.7255,0,0,0-4.55224-.24854,4.99162,4.99162,0,0,0-.918,2.86914,9.54543,9.54543,0,0,1,.15283,1.83594v7.07715a2.64214,2.64214,0,0,0,.66943,1.72119,2.365,2.365,0,0,1,.66944,1.186v.15283q0,.65112-.84131.65039h-6.61816q-.88038,0-.87989-.65039v-.15283a2.34134,2.34134,0,0,1,.68848-1.186,2.60111,2.60111,0,0,0,.68848-1.72119V761.481a7.373,7.373,0,0,0-.918-4.01709,2.771,2.771,0,0,0-2.40967-1.415,2.839,2.839,0,0,0-2.41016,1.18555,5.00434,5.00434,0,0,0-.87988,3.06054v8.64551a2.38774,2.38774,0,0,0,.82227,1.72119q.82251.80348.82275,1.186v.15283q0,.65112-.87988.65039h-7.11524q-.88036,0-.87988-.65039v-.15283q0-.3816.82227-1.186a2.38838,2.38838,0,0,0,.82275-1.72119v-8.91309a1.73762,1.73762,0,0,0-.45947-1.22412,7.29819,7.29819,0,0,0-.937-.86084.98424.98424,0,0,1-.478-.74609v-.15283q0-.42042.80322-.80371l4.81982-2.21875a.97116.97116,0,0,1,.99463-.05713.99225.99225,0,0,1,.34424.86084v1.79785a5.90554,5.90554,0,0,1,5.2793-2.7544,6.79012,6.79012,0,0,1,6.3501,3.44288,5.75193,5.75193,0,0,1,2.31445-2.52491,6.737,6.737,0,0,1,3.50049-.918,6.631,6.631,0,0,1,4.85791,1.93164q1.95117,1.93214,2.25732,6.293Z" transform="translate(-94.65381 -697.78425)"/><path class="cls-1" d="M673.395,768.71094a3.27827,3.27827,0,0,0,.28711,1.54931q.28638.51636.63086.57373a1.59879,1.59879,0,0,1,.63135.24854.72311.72311,0,0,1,.28662.65039q0,1.11035-3.4043,1.10938a4.53235,4.53235,0,0,1-2.50586-.55469,2.32292,2.32292,0,0,1-.89892-1.93164q-1.60693,2.63964-5.54688,2.63916a6.78489,6.78489,0,0,1-5.10693-2.08448,8.11952,8.11952,0,0,1-2.0083-5.87207v-6.46533a2.60467,2.60467,0,0,0-.7461-1.77881q-.74561-.82178-.7456-1.12841v-.11475q0-.68847.80322-.80322l4.81982-.72705q1.56811-.19044,1.56836.689l-.11474,10.90234q0,5.20313,3.17529,5.20264a2.84081,2.84081,0,0,0,2.35254-1.24316,5.23037,5.23037,0,0,0,.9375-3.23291v-7.76563a2.574,2.574,0,0,0-.76514-1.77881q-.76611-.82178-.76513-1.12841v-.11475q0-.68847.76513-.80322l4.89649-.72705q1.45313-.15235,1.45361.689Z" transform="translate(-94.65381 -697.78425)"/><path class="cls-1" d="M696.95947,768.90234a3.10858,3.10858,0,0,0,.72657,1.7212,2.35823,2.35823,0,0,1,.65039,1.22412v.15283q0,.65112-.87989.65039h-6.61816q-.88038,0-.8794-.65039v-.15283a2.32056,2.32056,0,0,1,.70752-1.186,2.451,2.451,0,0,0,.66944-1.75928l-.38282-7.07714q-.26807-5.77589-3.32763-5.77637a2.81963,2.81963,0,0,0-2.39111,1.14746,4.9812,4.9812,0,0,0-.86084,3.06055v8.68359a2.38653,2.38653,0,0,0,.82275,1.72119q.82178.80348.82226,1.186v.15283q0,.65112-.87988.65039h-7.11523q-.88038,0-.87989-.65039v-.15283q0-.3816.82227-1.186a2.38838,2.38838,0,0,0,.82275-1.72119v-8.91309a1.90828,1.90828,0,0,0-.28711-1.0332,1.93338,1.93338,0,0,0-.65039-.66943,2.79288,2.79288,0,0,1-.6499-.51612.90463.90463,0,0,1-.28711-.6123v-.15283q0-.42042.76514-.80371l4.55225-2.21875q.64965-.30543.97558-.05713a1.02178,1.02178,0,0,1,.3252.86084v2.14209q1.64428-3.09888,5.66162-3.09864a6.918,6.918,0,0,1,4.95361,1.95118q2.04639,1.95043,2.35254,6.19677Z" transform="translate(-94.65381 -697.78425)"/><path class="cls-1" d="M701.05225,772.61279q-.84229,0-.8418-.65039v-.15283a2.306,2.306,0,0,1,.727-1.186,2.53128,2.53128,0,0,0,.72656-1.7212v-8.6455a2.71373,2.71373,0,0,0-.72656-1.79834q-.72729-.84082-.727-1.14746v-.11475q0-.3816.80371-.80322l4.78174-2.37207a1.27131,1.27131,0,0,1,1.14746-.05713.88053.88053,0,0,1,.4209.82226v14.11621a2.41214,2.41214,0,0,0,.80322,1.7212q.80346.80346.80322,1.186v.15283q0,.65112-.87988.65039Zm6.17822-22.01513a3.81629,3.81629,0,0,1-2.69727.937,3.95476,3.95476,0,0,1-2.73486-.937,3.10167,3.10167,0,0,1-1.05225-2.4292,3.06014,3.06014,0,0,1,1.05225-2.39112,3.95709,3.95709,0,0,1,2.73486-.937,3.8185,3.8185,0,0,1,2.69727.937,3.11548,3.11548,0,0,1,1.01367,2.39112A3.15887,3.15887,0,0,1,707.23047,750.59766Z" transform="translate(-94.65381 -697.78425)"/><path class="cls-1" d="M718.64893,772.99512a5.42875,5.42875,0,0,1-4.227-1.70215,7.059,7.059,0,0,1-1.54932-4.91553v-9.90771h-1.79785a.67617.67617,0,0,1-.76514-.76514v-.65039q0-.80348.76514-.80322h.95654a3.72386,3.72386,0,0,0,2.65869-1.03321,4.836,4.836,0,0,0,1.396-2.75439q.19116-.91773.87988-.918h.76514q.84081,0,.84179.918l.03809,3.7876h4.39941a.73228.73228,0,0,1,.53516.22949.7769.7769,0,0,1,.22949.57373v.65039a.71554.71554,0,0,1-.22949.55469.76772.76772,0,0,1-.53516.21045h-4.39941v9.98388a2.69759,2.69759,0,0,0,.55469,1.7793,1.7372,1.7372,0,0,0,1.39648.66943,2.48912,2.48912,0,0,0,2.60108-1.72168.81631.81631,0,0,1,.86084-.40185.57517.57517,0,0,1,.51611.63135,5.51321,5.51321,0,0,1-1.5874,3.90185A5.63174,5.63174,0,0,1,718.64893,772.99512Z" transform="translate(-94.65381 -697.78425)"/><path class="cls-1" d="M744.9292,754.251q.76464,0,.76514.61181v.19141a2.3449,2.3449,0,0,1-.78418,1.33887,6.6589,6.6589,0,0,0-1.167,1.645l-7.23,15.72216q-.49731,1.10962-.8413,1.79834-.34425.68849-1.05225,1.8169a9.13757,9.13757,0,0,1-1.396,1.77881,6.77039,6.77039,0,0,1-1.72168,1.14746,4.88935,4.88935,0,0,1-2.14209.49756,6.28224,6.28224,0,0,1-4.03613-1.2627,3.6069,3.6069,0,0,1-1.5874-2.83057,2.29083,2.29083,0,0,1,.6123-1.66406,2.23336,2.23336,0,0,1,1.68311-.63135,2.10851,2.10851,0,0,1,1.6831.708,3.55088,3.55088,0,0,1,.80323,1.5874,5.60287,5.60287,0,0,0,.59326,1.58741,1.19211,1.19211,0,0,0,1.05176.708q1.75928,0,3.94043-5.356l-7.6128-15.60742a6.51361,6.51361,0,0,0-1.24316-1.66407,2.24946,2.24946,0,0,1-.82276-1.31982v-.19141q0-.61157.80372-.61181h7.15332q.72655,0,.727.6499v.15332a1.33508,1.33508,0,0,1-.34473.78418,2.58617,2.58617,0,0,0-.459.82226,2.97746,2.97746,0,0,0,.22949,1.45362l4.47607,10.36719,4.13135-9.83155q.38158-1.30005,0-1.79785a5.15634,5.15634,0,0,0-1.03271-.97559q-.65113-.47752-.6504-.82226v-.15332q0-.64967.80323-.6499Z" transform="translate(-94.65381 -697.78425)"/><path class="cls-1" d="M761.03418,772.99512a5.42875,5.42875,0,0,1-4.227-1.70215,7.059,7.059,0,0,1-1.54932-4.91553v-9.90771H753.46a.67617.67617,0,0,1-.76514-.76514v-.65039q0-.80348.76514-.80322h.95654a3.7239,3.7239,0,0,0,2.6587-1.03321,4.836,4.836,0,0,0,1.396-2.75439q.19116-.91773.87988-.918h.76514q.84082,0,.8418.918l.03808,3.7876h4.39942a.73227.73227,0,0,1,.53515.22949.77691.77691,0,0,1,.2295.57373v.65039a.71555.71555,0,0,1-.2295.55469.76772.76772,0,0,1-.53515.21045h-4.39942v9.98388a2.69759,2.69759,0,0,0,.55469,1.7793,1.7372,1.7372,0,0,0,1.39649.66943,2.4891,2.4891,0,0,0,2.60107-1.72168.81631.81631,0,0,1,.86084-.40185.57516.57516,0,0,1,.51611.63135,5.51317,5.51317,0,0,1-1.5874,3.90185A5.63171,5.63171,0,0,1,761.03418,772.99512Z" transform="translate(-94.65381 -697.78425)"/><path class="cls-1" d="M778.47754,772.99512a10.485,10.485,0,0,1-7.51709-2.81153,9.10167,9.10167,0,0,1-2.96436-6.8667,8.80864,8.80864,0,0,1,2.90723-6.771,9.96922,9.96922,0,0,1,7.00049-2.67774,10.30056,10.30056,0,0,1,7.34473,2.77344,9.5847,9.5847,0,0,1,.17236,13.65674A9.56317,9.56317,0,0,1,778.47754,772.99512Zm.68848-1.68311a2.68667,2.68667,0,0,0,2.42919-1.45361,8.0805,8.0805,0,0,0,.86084-4.09326,17.04687,17.04687,0,0,0-.63134-4.49463,11.9397,11.9397,0,0,0-1.89356-4.0166,3.52749,3.52749,0,0,0-2.79248-1.70264q-3.52,0-3.51953,5.58545a16.4543,16.4543,0,0,0,.63135,4.36084,11.96785,11.96785,0,0,0,1.95117,4.05469A3.7228,3.7228,0,0,0,779.166,771.312Z" transform="translate(-94.65381 -697.78425)"/><path class="cls-1" d="M809.11865,768.94043a2.49089,2.49089,0,0,0,.76514,1.70215q.76464.82325.76514,1.20508v.11474q0,.65112-.76514.65039h-4.74365q-.88038,0-.87989-.84179l-.07617-.84131a6.17673,6.17673,0,0,1-4.97314,2.06543,8.7529,8.7529,0,0,1-6.3501-2.582,10.42505,10.42505,0,0,1,0-13.86719,8.64066,8.64066,0,0,1,6.38818-2.67774,6.776,6.776,0,0,1,4.47608,1.49219v-6.12109a1.74737,1.74737,0,0,0-.47852-1.26221,7.13,7.13,0,0,0-.95605-.8418.93668.93668,0,0,1-.47852-.72656V746.294q0-.6504.80371-.87989l5.01123-1.53027q1.49195-.49659,1.4917.76514Zm-8.64551,2.41016a2.97344,2.97344,0,0,0,2.27637-1.09034,4.34216,4.34216,0,0,0,.97559-3.00293v-6.73291a5.37,5.37,0,0,0-1.2627-3.44287,3.677,3.677,0,0,0-2.90722-1.56836,3.241,3.241,0,0,0-2.79248,1.47266,7.34688,7.34688,0,0,0-1.07129,4.15088,17.5258,17.5258,0,0,0,.43994,4.47558,11.42522,11.42522,0,0,0,1.6831,3.99756A3.38181,3.38181,0,0,0,800.47314,771.35059Z" transform="translate(-94.65381 -697.78425)"/><path class="cls-1" d="M830.00537,768.7876a3.62322,3.62322,0,0,0,.43945,1.415,1.50853,1.50853,0,0,0,.66993.66943,2.83484,2.83484,0,0,1,.61181.3252.62173.62173,0,0,1,.26758.53564q0,1.11035-3.67236,1.10938a5.25632,5.25632,0,0,1-2.46729-.44,2.01446,2.01446,0,0,1-.937-1.626q-1.49194,2.21923-5.08789,2.21875a8.44916,8.44916,0,0,1-5.20264-1.4917,5.64368,5.64368,0,0,1-.03808-8.56885,7.914,7.914,0,0,1,4.97265-1.53027,7.11985,7.11985,0,0,1,4.16993,1.14746l-.03809-.459a18.00074,18.00074,0,0,0-1.07129-5.126,2.386,2.386,0,0,0-2.3335-1.4917,2.10613,2.10613,0,0,0-1.6831.76465,4.5291,4.5291,0,0,0-.918,1.68359,4.86848,4.86848,0,0,1-.87988,1.68311,1.92213,1.92213,0,0,1-1.56885.76513,2.32913,2.32913,0,0,1-1.66406-.59326,2.02761,2.02761,0,0,1-.63086-1.54932,3.56216,3.56216,0,0,1,2.123-3.1748,10.57572,10.57572,0,0,1,5.22168-1.186,8.82765,8.82765,0,0,1,6.08252,2.104,8.69274,8.69274,0,0,1,2.79248,5.73828ZM821.5127,771.312a2.38733,2.38733,0,0,0,2.02734-1.05176,3.59563,3.59563,0,0,0,.68848-2.39111l-.11475-1.33887a4.15881,4.15881,0,0,0-.9751-2.5249,2.6908,2.6908,0,0,0-2.04687-.87988,2.57029,2.57029,0,0,0-2.0083.87988,3.378,3.378,0,0,0-.78418,2.3335,6.56,6.56,0,0,0,.89892,3.51953A2.659,2.659,0,0,0,821.5127,771.312Z" transform="translate(-94.65381 -697.78425)"/><path class="cls-1" d="M851.27441,754.251q.76465,0,.76514.61181v.19141a2.3449,2.3449,0,0,1-.78418,1.33887,6.65858,6.65858,0,0,0-1.167,1.645l-7.23,15.72216q-.49731,1.10962-.84131,1.79834-.34424.68849-1.05225,1.8169a9.13756,9.13756,0,0,1-1.396,1.77881,6.77056,6.77056,0,0,1-1.72168,1.14746,4.88938,4.88938,0,0,1-2.14209.49756,6.2822,6.2822,0,0,1-4.03613-1.2627,3.60691,3.60691,0,0,1-1.58741-2.83057,2.2908,2.2908,0,0,1,.61231-1.66406,2.23333,2.23333,0,0,1,1.6831-.63135,2.10853,2.10853,0,0,1,1.68311.708,3.551,3.551,0,0,1,.80322,1.5874,5.60317,5.60317,0,0,0,.59326,1.58741,1.19212,1.19212,0,0,0,1.05176.708q1.75928,0,3.94043-5.356l-7.61279-15.60742a6.51367,6.51367,0,0,0-1.24317-1.66407,2.24949,2.24949,0,0,1-.82275-1.31982v-.19141q0-.61157.80371-.61181h7.15332q.72657,0,.72705.6499v.15332a1.33506,1.33506,0,0,1-.34472.78418,2.586,2.586,0,0,0-.459.82226,2.97759,2.97759,0,0,0,.22949,1.45362l4.47608,10.36719,4.13134-9.83155q.3816-1.30005,0-1.79785a5.15607,5.15607,0,0,0-1.03271-.97559q-.65112-.47752-.65039-.82226v-.15332q0-.64967.80322-.6499Z" transform="translate(-94.65381 -697.78425)"/><path class="cls-1" d="M854.87012,772.99512a3.83,3.83,0,0,1-2.52491-.82227,3.2795,3.2795,0,0,1,0-4.70508,3.83029,3.83029,0,0,1,2.52491-.82275,3.77319,3.77319,0,0,1,2.48681.82275,3.27948,3.27948,0,0,1,0,4.70508A3.7729,3.7729,0,0,1,854.87012,772.99512Z" transform="translate(-94.65381 -697.78425)"/></svg>