<svg id="Layer_2" data-name="Layer 2" xmlns="http://www.w3.org/2000/svg" xmlns:xlink="http://www.w3.org/1999/xlink" viewBox="0 0 293.42042 310.20875"><defs><style>.cls-1{fill:none;}.cls-2{fill:#a0624b;}.cls-3{fill:#51251d;opacity:0.7;}.cls-4{fill:#c6998b;opacity:0.42;}.cls-5{fill:#c67b63;}.cls-6{isolation:isolate;}.cls-7{clip-path:url(#clip-path);}.cls-8{fill:#0e1815;}.cls-9{fill:#0e1714;}.cls-10{fill:#0d1614;}.cls-11{fill:#0d1613;}.cls-12{clip-path:url(#clip-path-2);}.cls-13{fill:#0b1210;}.cls-14{fill:#0b1311;}.cls-15{fill:#0c1411;}.cls-16{fill:#0c1412;}.cls-17{fill:#0d1513;}.cls-18{fill:#0f1916;}.cls-19{fill:#121e1b;}.cls-20{clip-path:url(#clip-path-3);}.cls-21{fill:#9f9e98;}.cls-22{fill:#9a9a93;}.cls-23{fill:#96958f;}.cls-24{fill:#91908a;}.cls-25{clip-path:url(#clip-path-4);}.cls-26{fill:#7a7974;}.cls-27{fill:#7e7e78;}.cls-28{fill:#83827d;}.cls-29{fill:#888781;}.cls-30{fill:#8c8c86;}.cls-31{fill:#a4a39c;}.cls-32{fill:#c9c8c0;}</style><clipPath id="clip-path" transform="translate(-826.65166 -358.59113)"><path class="cls-1" d="M1086.1164,569.41717l6.47871,2.61751a13.12446,13.12446,0,0,0-7.73725-.569l-6.47871-2.61751A13.12446,13.12446,0,0,1,1086.1164,569.41717Z"/></clipPath><clipPath id="clip-path-2" transform="translate(-826.65166 -358.59113)"><path class="cls-1" d="M1074.78211,616.18092l-6.47872-2.61751c-5.86771-2.37066-9.6465-9.241-9.18239-18.22807.64567-12.5029,9.26959-24.364,19.25815-26.48715l6.47871,2.61751c-9.98856,2.12313-18.61248,13.98425-19.25815,26.48715C1065.1356,606.93991,1068.91439,613.81026,1074.78211,616.18092Z"/></clipPath><clipPath id="clip-path-3" transform="translate(-826.65166 -358.59113)"><path class="cls-1" d="M1092.57379,580.26175l1.9436.78526a9.43106,9.43106,0,0,0-5.56-.40885l-1.94361-.78525A9.43118,9.43118,0,0,1,1092.57379,580.26175Z"/></clipPath><clipPath id="clip-path-4" transform="translate(-826.65166 -358.59113)"><path class="cls-1" d="M1081.71744,612.77979l-1.94362-.78524c-4.21881-1.70449-6.93266-6.64721-6.599-13.1078.46391-8.98322,6.65553-17.50694,13.839-19.03384l1.94361.78525c-7.18351,1.5269-13.37512,10.05062-13.839,19.03384C1074.78477,606.13259,1077.49862,611.07531,1081.71744,612.77979Z"/></clipPath></defs><g id="front_svg" data-name="front svg"><path class="cls-2" d="M952.54136,448.53123,845.4535,387.55064l20.26937,227.30647a11.89863,11.89863,0,0,0,5.96745,9.285l74.90277,42.6171a11.89866,11.89866,0,0,0,11.86467-.05541l116.67368-67.83353a11.89869,11.89869,0,0,0,5.87052-9.22292l20.27254-225.894Z" transform="translate(-826.65166 -358.59113)"/><path class="cls-3" d="M949.24555,655.90939l-84.00367-47.79518.60111,6.7426a11.89875,11.89875,0,0,0,5.96751,9.28534l74.90279,42.6171a11.89863,11.89863,0,0,0,11.86463-.0554l116.67381-67.83354a11.89865,11.89865,0,0,0,5.87055-9.22314l.61347-6.8372-125.67633,73.0676A6.83336,6.83336,0,0,1,949.24555,655.90939Z" transform="translate(-826.65166 -358.59113)"/><path class="cls-4" d="M973.364,436.63258l-20.6291,12.3825-21.01618-12.3825L930.50954,657.982l16.27712,9.26114a11.89862,11.89862,0,0,0,11.8647-.05546l14.71264-8.55388Z" transform="translate(-826.65166 -358.59113)"/><path class="cls-3" d="M1100.70513,368.57164,955.69894,452.59388a5.94952,5.94952,0,0,1-5.97638-.00635L845.97829,392.1794l2.22664,26.63879,101.52481,58.87523a5.94914,5.94914,0,0,0,5.961.00472l142.84763-82.54136Z" transform="translate(-826.65166 -358.59113)"/><path class="cls-5" d="M840.3578,383.20916,949.555,446.79235a5.94933,5.94933,0,0,0,5.97637.00634L1106.37493,359.394a5.94932,5.94932,0,0,1,8.22093,2.327l4.76412,8.84764a5.94933,5.94933,0,0,1-2.2617,7.97178L955.52323,471.903a5.94934,5.94934,0,0,1-5.961-.00465L829.61742,402.34105a5.94932,5.94932,0,0,1-2.25367-7.96712l4.7622-8.84409A5.94932,5.94932,0,0,1,840.3578,383.20916Z" transform="translate(-826.65166 -358.59113)"/><g class="cls-6"><g class="cls-6"><g class="cls-7"><g class="cls-6"><path class="cls-8" d="M1084.85786,571.4657l-6.47871-2.61751a14.8383,14.8383,0,0,1,2.425-.31435l6.47871,2.61751a14.83844,14.83844,0,0,0-2.425.31435" transform="translate(-826.65166 -358.59113)"/><path class="cls-9" d="M1087.28287,571.15135l-6.47871-2.61751a13.24506,13.24506,0,0,1,2.14419.07564l6.47871,2.61751a13.245,13.245,0,0,0-2.14419-.07564" transform="translate(-826.65166 -358.59113)"/><path class="cls-10" d="M1089.42706,571.227l-6.47871-2.61751a12.41956,12.41956,0,0,1,1.82361.354l6.47871,2.61751a12.41956,12.41956,0,0,0-1.82361-.354" transform="translate(-826.65166 -358.59113)"/><path class="cls-11" d="M1091.25067,571.581l-6.47871-2.61751a12.13683,12.13683,0,0,1,1.34444.45367l6.47872,2.61751a12.1377,12.1377,0,0,0-1.34445-.45367" transform="translate(-826.65166 -358.59113)"/></g></g></g><g class="cls-6"><g class="cls-12"><g class="cls-6"><path class="cls-13" d="M1074.78211,616.18092l-6.47871-2.61751c-5.86772-2.37066-9.64651-9.241-9.1824-18.22807q.01242-.2407.02879-.48109l6.47871,2.61751q-.01635.24037-.02879.48109c-.46411,8.98706,3.31468,15.85741,9.1824,18.22807" transform="translate(-826.65166 -358.59113)"/><path class="cls-14" d="M1065.6285,597.47176l-6.47871-2.61751a30.4725,30.4725,0,0,1,.41577-3.34282l6.47871,2.61751a30.4725,30.4725,0,0,0-.41577,3.34282" transform="translate(-826.65166 -358.59113)"/><path class="cls-15" d="M1066.04427,594.12894l-6.47871-2.61751q.24417-1.35288.60393-2.67663l6.47871,2.61751q-.35844,1.32194-.60393,2.67663" transform="translate(-826.65166 -358.59113)"/><path class="cls-16" d="M1066.6482,591.45231l-6.47871-2.61751q.33212-1.22483.75687-2.41556l6.47871,2.61751q-.42371,1.1893-.75687,2.41556" transform="translate(-826.65166 -358.59113)"/><path class="cls-17" d="M1067.40507,589.03675l-6.47871-2.61751q.41147-1.155.90446-2.26972l6.47871,2.61751q-.492,1.11345-.90446,2.26972" transform="translate(-826.65166 -358.59113)"/><path class="cls-11" d="M1068.30953,586.767l-6.47871-2.61751q.50034-1.13228,1.079-2.21478l6.47871,2.61751q-.57767,1.08113-1.079,2.21478" transform="translate(-826.65166 -358.59113)"/><path class="cls-10" d="M1069.38855,584.55225l-6.47871-2.61751q.60936-1.14044,1.29905-2.21612l6.47872,2.61751q-.68852,1.07406-1.29906,2.21612" transform="translate(-826.65166 -358.59113)"/><path class="cls-9" d="M1070.68761,582.33613l-6.47872-2.61751q.78414-1.22323,1.66286-2.34926l6.47871,2.61751q-.877,1.12364-1.66285,2.34926" transform="translate(-826.65166 -358.59113)"/><path class="cls-8" d="M1072.35046,579.98687l-6.47871-2.61751a28.71266,28.71266,0,0,1,2.35835-2.66861l6.47871,2.61751a28.71266,28.71266,0,0,0-2.35835,2.66861" transform="translate(-826.65166 -358.59113)"/><path class="cls-18" d="M1074.70881,577.31826l-6.47871-2.61751a21.02093,21.02093,0,0,1,9.72149-5.75555l6.47871,2.61751a21.02093,21.02093,0,0,0-9.72149,5.75555" transform="translate(-826.65166 -358.59113)"/><path class="cls-8" d="M1084.4303,571.56271l-6.47871-2.61751q.21335-.05147.42756-.097l6.47871,2.61751q-.2142.04552-.42756.097" transform="translate(-826.65166 -358.59113)"/></g></g></g><ellipse class="cls-19" cx="1083.68857" cy="594.10795" rx="23.79602" ry="17.02288" transform="translate(-699.76118 1017.74606) rotate(-68.00045)"/></g><g class="cls-6"><g class="cls-6"><g class="cls-20"><g class="cls-6"><path class="cls-21" d="M1088.95744,580.63816l-1.94361-.78525a10.66288,10.66288,0,0,1,1.74266-.2259l1.94361.78525a10.66288,10.66288,0,0,0-1.74266.2259" transform="translate(-826.65166 -358.59113)"/><path class="cls-22" d="M1090.7001,580.41226l-1.94361-.78525a9.51726,9.51726,0,0,1,1.54081.05435l1.94361.78525a9.5184,9.5184,0,0,0-1.54081-.05435" transform="translate(-826.65166 -358.59113)"/><path class="cls-23" d="M1092.24091,580.46661l-1.94361-.78525a8.925,8.925,0,0,1,1.3104.25439l1.94362.78526a8.9251,8.9251,0,0,0-1.31041-.2544" transform="translate(-826.65166 -358.59113)"/><path class="cls-24" d="M1093.55132,580.721l-1.94362-.78526a8.72379,8.72379,0,0,1,.96609.326l1.94362.78525a8.72375,8.72375,0,0,0-.96609-.326" transform="translate(-826.65166 -358.59113)"/></g></g></g><g class="cls-6"><g class="cls-25"><g class="cls-6"><path class="cls-26" d="M1081.71744,612.77979l-1.94361-.78525c-4.21882-1.70448-6.93267-6.6472-6.599-13.10779q.00894-.1731.02071-.346l1.94361.78526q-.01176.17284-.0207.346c-.33364,6.46059,2.38021,11.40331,6.599,13.10779" transform="translate(-826.65166 -358.59113)"/><path class="cls-27" d="M1075.13911,599.32605l-1.94361-.78526a21.90887,21.90887,0,0,1,.29893-2.40347l1.94361.78526a21.9107,21.9107,0,0,0-.29893,2.40347" transform="translate(-826.65166 -358.59113)"/><path class="cls-28" d="M1075.438,596.92258l-1.94361-.78526q.17555-.97265.43418-1.92433l1.94362.78525q-.25772.9504-.43419,1.92434" transform="translate(-826.65166 -358.59113)"/><path class="cls-29" d="M1075.87223,594.99824l-1.94362-.78525q.23872-.88039.544-1.73629l1.94362.78525q-.30456.85487-.544,1.73629" transform="translate(-826.65166 -358.59113)"/><path class="cls-30" d="M1076.41626,593.262l-1.94362-.78525q.2957-.83.65-1.63106l1.94361.78525q-.35358.80014-.64995,1.63106" transform="translate(-826.65166 -358.59113)"/><path class="cls-24" d="M1077.06621,591.63089l-1.94361-.78525q.35947-.81349.77523-1.59123l1.94361.78525q-.415.77675-.77523,1.59123" transform="translate(-826.65166 -358.59113)"/><path class="cls-23" d="M1077.84144,590.03966l-1.94361-.78525q.4377-.81918.93311-1.59186l1.94361.78525q-.49455.77151-.93311,1.59186" transform="translate(-826.65166 -358.59113)"/><path class="cls-22" d="M1078.77455,588.4478l-1.94361-.78525q.56319-.87858,1.19435-1.68737l1.94361.78525q-.62991.80707-1.19435,1.68737" transform="translate(-826.65166 -358.59113)"/><path class="cls-21" d="M1079.9689,586.76043l-1.94361-.78525a20.62033,20.62033,0,0,1,1.69373-1.91656l1.94362.78525a20.62025,20.62025,0,0,0-1.69374,1.91656" transform="translate(-826.65166 -358.59113)"/><path class="cls-31" d="M1081.66264,584.84387l-1.94362-.78525a15.10627,15.10627,0,0,1,6.98721-4.13592l1.94361.78525a15.10632,15.10632,0,0,0-6.9872,4.13592" transform="translate(-826.65166 -358.59113)"/><path class="cls-21" d="M1088.64984,580.708l-1.94361-.78525q.15348-.037.3076-.06979l1.94361.78525q-.15411.03276-.3076.06979" transform="translate(-826.65166 -358.59113)"/></g></g></g><path class="cls-32" d="M1088.95744,580.63816c7.1836-1.52692,12.62252,4.52465,12.15861,13.50787-.46435,8.99182-6.656,17.51554-13.83957,19.04246s-12.62243-4.52467-12.15807-13.51649C1075.58232,590.68878,1081.77393,582.16506,1088.95744,580.63816Z" transform="translate(-826.65166 -358.59113)"/></g></g></svg>