<svg id="Layer_2" data-name="Layer 2" xmlns="http://www.w3.org/2000/svg" viewBox="0 0 292.49512 245.46775"><defs><style>.cls-1{isolation:isolate;}.cls-2{fill:#a0624b;}.cls-3,.cls-6{fill:#51251d;}.cls-4{fill:#aa442d;}.cls-5{fill:#773824;}.cls-6{opacity:0.7;}</style></defs><g id="back_svg" data-name="back svg"><g class="cls-1"><path class="cls-2" d="M1122.88437,528.88734l-13.45816,6.56716a5.63181,5.63181,0,0,0,3.13076-5.35247l13.45815-6.56715A5.6318,5.6318,0,0,1,1122.88437,528.88734Z" transform="translate(-833.52385 -291.77245)"/><path class="cls-2" d="M998.62236,300.1721l13.45815-6.56715a5.46578,5.46578,0,0,1,2.20655-.55181l-13.45815,6.56715A5.46583,5.46583,0,0,0,998.62236,300.1721Z" transform="translate(-833.52385 -291.77245)"/><path class="cls-2" d="M1000.82891,299.62029l13.45815-6.56715a5.68563,5.68563,0,0,1,3.04846.78016l-13.45815,6.56715A5.68568,5.68568,0,0,0,1000.82891,299.62029Z" transform="translate(-833.52385 -291.77245)"/><polygon class="cls-2" points="170.354 8.628 183.812 2.061 283.456 59.353 269.997 65.92 170.354 8.628"/><polygon class="cls-2" points="273.072 71.042 286.53 64.475 292.491 231.762 279.033 238.33 273.072 71.042"/><path class="cls-2" d="M1000.82891,299.62029a5.68568,5.68568,0,0,1,3.04846.78016l99.64394,57.29225a6.15044,6.15044,0,0,1,3.074,5.12161L1112.557,530.102a5.58476,5.58476,0,0,1-5.33629,5.90412,5.668,5.668,0,0,1-3.09248-.80987L1004.423,476.51179a6.19891,6.19891,0,0,1-3.02031-5.09666L995.4936,305.51992A5.5818,5.5818,0,0,1,1000.82891,299.62029Z" transform="translate(-833.52385 -291.77245)"/><path class="cls-2" d="M1103.52131,357.6927l13.45815-6.56715a6.15045,6.15045,0,0,1,3.074,5.12161l-13.45815,6.56715A6.15044,6.15044,0,0,0,1103.52131,357.6927Z" transform="translate(-833.52385 -291.77245)"/></g><path class="cls-3" d="M999.87335,303.19134l99.34,56.35084a5.94933,5.94933,0,0,1,3.00716,4.89075l7.96006,166.56364a5.94933,5.94933,0,0,1-8.92318,5.43281l-99.74265-57.74072a5.94934,5.94934,0,0,1-2.96248-4.87689L990.99486,308.638A5.94933,5.94933,0,0,1,999.87335,303.19134Z" transform="translate(-833.52385 -291.77245)"/><path class="cls-4" d="M836.11869,382.46487,991.3009,292.54621a5.74184,5.74184,0,0,1,5.76792.00612l113.21815,65.9245a5.74177,5.74177,0,0,1,2.16628,2.23974v0a5.74182,5.74182,0,0,1-7.94146,7.686L997.06651,305.93443a5.74183,5.74183,0,0,0-5.76281-.00528L842.17343,392.26773a5.74182,5.74182,0,0,1-7.93236-7.69131l.21125-.39231A4.39537,4.39537,0,0,1,836.11869,382.46487Z" transform="translate(-833.52385 -291.77245)"/><polygon class="cls-5" points="160.663 9.513 11.93 95.778 119.018 156.759 267.751 71.981 160.663 9.513"/><polygon class="cls-6" points="161.969 132.73 269.315 71.542 162.227 9.075 161.17 9.688 161.969 132.73"/></g></svg>