<svg xmlns="http://www.w3.org/2000/svg" viewBox="0 0 782.59881 796.91441"><defs><style>.cls-1{fill:#807e66;}.cls-2{fill:#52261e;}.cls-3{fill:#d7a07f;}.cls-4{fill:#dfac90;}.cls-5{fill:#da8527;}.cls-6{fill:#f2696c;opacity:0.5;}.cls-7{fill:#d9d5c5;}.cls-8{fill:#eae8df;}</style></defs><g id="Layer_4" data-name="Layer 4"><path class="cls-1" d="M251.46484,376.9475c-27.54369,236.52823,91.40106,500.78834,134.1509,507.58536l4.91133-7.90994S232.86037,681.654,256.13415,382.03531Z" transform="translate(-125.71838 -101.83054)"/><path class="cls-1" d="M234.096,283.479c28.9388-97.67572,58.26267,84.45664,31.56113,102.12095C251.11283,395.22172,205.15723,381.15475,234.096,283.479Z" transform="translate(-125.71838 -101.83054)"/><path class="cls-1" d="M252.62634,441.73257s.60954-50.51944,78.87612-47.80984S277.8109,471.28381,252.62634,441.73257Z" transform="translate(-125.71838 -101.83054)"/><path class="cls-1" d="M250.61528,457.12266s8.5784-49.04226-73.78121-51.25472S214.6177,475.53506,250.61528,457.12266Z" transform="translate(-125.71838 -101.83054)"/><path class="cls-1" d="M258.80988,529.97044s-1.08591-45.48428,57.08693-43.2659S333.56628,550.38166,258.80988,529.97044Z" transform="translate(-125.71838 -101.83054)"/><path class="cls-1" d="M253.33022,543.81585s-31.45314-62.79389-81.18444-35.74213S190.87953,567.68583,253.33022,543.81585Z" transform="translate(-125.71838 -101.83054)"/><path class="cls-1" d="M275.97915,625.43063c78.17747-32.19436,108.52059-90.86548,108.52059-90.86548s-27.4657,31.192-56.1744,54.465C299.15187,612.67993,268.78433,628.39353,275.97915,625.43063Z" transform="translate(-125.71838 -101.83054)"/><path class="cls-1" d="M377.321,546.00343c-20.952-34.7368-9.327-48.7687,48.71415-77.807S392.5959,571.3281,377.321,546.00343Z" transform="translate(-125.71838 -101.83054)"/><path class="cls-1" d="M345.14655,582.10137s23.1108-22.35319,66.53268,17.32729S372.64939,634.95471,345.14655,582.10137Z" transform="translate(-125.71838 -101.83054)"/><path class="cls-1" d="M314.98966,602.47126s14.57557-15.30193-4.77938-37.87151S288.99762,596.19394,314.98966,602.47126Z" transform="translate(-125.71838 -101.83054)"/><path class="cls-1" d="M297.36912,615.40087s56.884-8.01993,66.44358,28.44395S297.36912,615.40087,297.36912,615.40087Z" transform="translate(-125.71838 -101.83054)"/><path class="cls-1" d="M275.01533,657.9475c-53.22725-6.572-81.87965-35.39486-81.87965-35.39486l-5.95385-.74275S285.56665,659.25027,275.01533,657.9475Z" transform="translate(-125.71838 -101.83054)"/><path class="cls-1" d="M205.16384,632.12517s2.603-29.91781-58.79636-38.58521S177.37785,645.80061,205.16384,632.12517Z" transform="translate(-125.71838 -101.83054)"/><path class="cls-1" d="M234.95972,647.83978s-34.99575.75848-40.19895,26.31091S235.602,663.95843,234.95972,647.83978Z" transform="translate(-125.71838 -101.83054)"/><path class="cls-1" d="M303.4274,723.98605s2.84129-47.00987,29.63361-43.66749S332.69754,715.54452,303.4274,723.98605Z" transform="translate(-125.71838 -101.83054)"/><path class="cls-1" d="M801.86364,271.06334C799.91523,509.18193,649.17216,756.685,605.90972,758.13769l-3.89436-8.45708S782.60487,575.72914,796.60042,275.534Z" transform="translate(-125.71838 -101.83054)"/><path class="cls-1" d="M802,179c-53-87-37.65974,100-5.65974,99S855,266,802,179Z" transform="translate(-125.71838 -101.83054)"/><path class="cls-1" d="M792.69122,335.2063S798.34026,285,720.34026,278,764.04218,361.41261,792.69122,335.2063Z" transform="translate(-125.71838 -101.83054)"/><path class="cls-1" d="M792.78164,350.727S790.34026,301,872.34026,309,826.223,373.454,792.78164,350.727Z" transform="translate(-125.71838 -101.83054)"/><path class="cls-1" d="M775.63213,422s6.70813-45-51.29187-50S698.924,433,775.63213,422Z" transform="translate(-125.71838 -101.83054)"/><path class="cls-1" d="M779.35569,436.41725S818.34026,378,864.34026,411,838.37112,467.83451,779.35569,436.41725Z" transform="translate(-125.71838 -101.83054)"/><path class="cls-1" d="M746.77774,514.60052C673.187,472.97607,650.34026,411,650.34026,411s23.39312,34.35211,49,61C725.36168,499.0793,753.55043,518.43129,746.77774,514.60052Z" transform="translate(-125.71838 -101.83054)"/><path class="cls-1" d="M656.04784,423.239C681.13879,391.363,671.34026,376,617.34026,340S637.75542,446.47794,656.04784,423.239Z" transform="translate(-125.71838 -101.83054)"/><path class="cls-1" d="M683.50616,463.04218S663.34026,438,615.34026,472,649.67206,512.08437,683.50616,463.04218Z" transform="translate(-125.71838 -101.83054)"/><path class="cls-1" d="M710.90946,486.98857S698.34026,470,720.34026,450,737.47866,483.97713,710.90946,486.98857Z" transform="translate(-125.71838 -101.83054)"/><path class="cls-1" d="M726.79389,502s-55.45363-15-69.45363,20S726.79389,502,726.79389,502Z" transform="translate(-125.71838 -101.83054)"/><path class="cls-1" d="M743.70882,546.98659C797.34022,547.05425,829.34026,522,829.34026,522h6S733.07738,546.97318,743.70882,546.98659Z" transform="translate(-125.71838 -101.83054)"/><path class="cls-1" d="M816.21962,530.00992S817.34026,500,879.34026,499,842.099,547.01984,816.21962,530.00992Z" transform="translate(-125.71838 -101.83054)"/><path class="cls-1" d="M784.70759,541.91517S819.34026,547,821.34026,573,782.07492,557.83034,784.70759,541.91517Z" transform="translate(-125.71838 -101.83054)"/><path class="cls-1" d="M707.34026,609s3-47-24-47S679.34026,597,707.34026,609Z" transform="translate(-125.71838 -101.83054)"/><path class="cls-1" d="M426.22389,291.17082c31.60038,236.0205,212.00529,462.81408,255.11163,458.86537l2.81035-8.87639S483.29087,591.06332,432.0031,294.95089Z" transform="translate(-125.71838 -101.83054)"/><path class="cls-1" d="M421.48,209.05874c52.31551-87.41332,42.96375,85.31187,11.0885,88.30654S388,265,421.48,209.05874Z" transform="translate(-125.71838 -101.83054)"/><path class="cls-1" d="M443.31641,353.67122s-11.86022-49.1113,64.6599-65.77477S475.00726,376.104,443.31641,353.67122Z" transform="translate(-125.71838 -101.83054)"/><path class="cls-1" d="M445.1604,369.08222s-3.77311-49.64369-84.13747-31.48966S414.81113,395.79857,445.1604,369.08222Z" transform="translate(-125.71838 -101.83054)"/><path class="cls-1" d="M471.05619,437.66325s-12.2624-43.81361,44.66273-56.00086S548.53713,439.02049,471.05619,437.66325Z" transform="translate(-125.71838 -101.83054)"/><path class="cls-1" d="M469.15789,452.43209s-45.959-53.105-87.48913-14.631S414.51656,490.95728,469.15789,452.43209Z" transform="translate(-125.71838 -101.83054)"/><path class="cls-1" d="M511.22284,525.94729c67.83138-50.46878,82.7785-114.80842,82.7785-114.80842s-18.93093,36.999-41.01823,66.62961C530.53824,507.87879,504.9802,530.592,511.22284,525.94729Z" transform="translate(-125.71838 -101.83054)"/><path class="cls-1" d="M589.86308,423.99359c-28.86686-28.50149-21.05876-44.96563,28.03526-87.413S610.90831,444.77244,589.86308,423.99359Z" transform="translate(-125.71838 -101.83054)"/><path class="cls-1" d="M567.57779,466.90769s16.88877-27.35953,68.75082.39524S607.25842,511.35237,567.57779,466.90769Z" transform="translate(-125.71838 -101.83054)"/><path class="cls-1" d="M543.37148,494.08167s10.35466-18.4222-13.96572-35.52539S516.6341,494.404,543.37148,494.08167Z" transform="translate(-125.71838 -101.83054)"/><path class="cls-1" d="M529.48109,510.95517s53.1527-21.79208,71.40427,11.19095S529.48109,510.95517,529.48109,510.95517Z" transform="translate(-125.71838 -101.83054)"/><path class="cls-1" d="M518.30282,557.69867c-53.20509,6.74906-88.0773-14.12309-88.0773-14.12309l-5.95325.74753S528.84975,556.36079,518.30282,557.69867Z" transform="translate(-125.71838 -101.83054)"/><path class="cls-1" d="M444.24189,549.88838s-4.85084-29.63647-66.49235-22.9041S420.68343,569.99007,444.24189,549.88838Z" transform="translate(-125.71838 -101.83054)"/><path class="cls-1" d="M476.99166,557.77479s-33.72931,9.36009-32.47439,35.40669S481.58668,573.238,476.99166,557.77479Z" transform="translate(-125.71838 -101.83054)"/><path class="cls-1" d="M562.11425,614.69774s-8.83234-46.26,17.95728-49.62395S588.401,599.30272,562.11425,614.69774Z" transform="translate(-125.71838 -101.83054)"/><path class="cls-1" d="M701.33611,726.9182c84.13071-8.37954,130.04918-55.86112,130.04918-55.86112s-35.26847,21.98728-69.45269,36.03226C727.195,721.36171,693.59341,727.68939,701.33611,726.9182Z" transform="translate(-125.71838 -101.83054)"/><path class="cls-1" d="M821.22327,679.951c-10.09012-39.29148,5.07578-49.39246,69.01228-60.53352S828.57941,708.59626,821.22327,679.951Z" transform="translate(-125.71838 -101.83054)"/><path class="cls-1" d="M780.03522,705.28479s28.558-14.772,58.75079,35.70961S791.19579,763.81105,780.03522,705.28479Z" transform="translate(-125.71838 -101.83054)"/><path class="cls-1" d="M745.29783,716.133s18.357-10.46988,6.30132-37.64821S722.20461,702.65361,745.29783,716.133Z" transform="translate(-125.71838 -101.83054)"/><path class="cls-1" d="M724.70573,723.45583s56.7902,8.659,55.472,46.33212S724.70573,723.45583,724.70573,723.45583Z" transform="translate(-125.71838 -101.83054)"/></g><g id="Layer_3" data-name="Layer 3"><path class="cls-2" d="M444.7414,563.78659c-64.306-7.07645-69.13256-67.65747-39.68294-99.526,15.65032-16.93577,28.51361-35.49143,36.16863-55.62884,4.06752-10.70008,14.3388-21.207,36.77291-27.47379,17.8125-4.97582,32.54028-4.95731,44.57582-2.19983,27.93528,6.40028,57.778,4.89058,85.02229-3.18723,13.85329-4.10743-27.77608,18.73-3.59811,26.7908,22.7125,7.57222,35.83687,16.99161,43.009,26.57014,16.99165,22.69284,42.74867,40.52851,73.06275,51.18249C737.61766,486.481,752.778,498.4559,758,520.68438,762.3119,539.03873,777,585,805.91016,603.235,809.95486,605.78615,810,612.11568,811,617.40326c4.42857,23.41645-17.49681,35.33769-41.3484,40.09627-23.82141,4.75255-45.89891,14.28894-62.52867,28.70762C699.86849,692.497,688.82168,697.466,672,698.014c-15.75.51308-27.98724-2.60206-37.3427-7.066-19.3202-9.21859-40.59489-15.74388-62.98043-17.62707A58.1214,58.1214,0,0,1,548,666.08894c-30-16.76064-45-76.62008,0-72.62945S444.7414,563.78659,444.7414,563.78659Z" transform="translate(-125.71838 -101.83054)"/><path class="cls-3" d="M572,556s8,55,38,68c0,0,55,8-9,59s-107.13914-34.5326-82-48c28-15,0-51,0-51Z" transform="translate(-125.71838 -101.83054)"/><path class="cls-4" d="M437,464s2,153,73,140,67-60,67-60,23,4,24-10-3-23-18-23l5-60L448,435Z" transform="translate(-125.71838 -101.83054)"/><path class="cls-2" d="M422,465.71469s42.99459,10.53229,69.21081-28.43719c0,0,4.1946,46.34208,45.09189,43.1824,0,0,13.48459,38.645,45.54229,30.38139S616,427.79844,616,427.79844L491.21081,412l-56.627,11.58552Z" transform="translate(-125.71838 -101.83054)"/><polygon class="cls-5" points="351.1 454.485 336.129 449.915 347.769 422.015 351.1 454.485"/><circle class="cls-6" cx="413.78162" cy="447.66946" r="29.5"/><path class="cls-7" d="M874,776.96943C803.11019,647.38057,630.373,626.07738,611.653,624.13164a2.14472,2.14472,0,0,0-2.22513,1.388C584.38628,692.4258,544.38413,686.1275,532,681.59383c-24.71559-9.04814-7.56175-47.109-2.15575-57.79973a2.13511,2.13511,0,0,0-1.7263-3.08558C401.355,610.1531,303.79428,674.53434,281,704.44423c-99.35415,130.369,13.31056,170.34959,111.8212,182.00153a2.1326,2.1326,0,0,1,1.79407,2.738l-.04117.13635L395,889.065l85.61891,9.66614A2.14091,2.14091,0,0,0,483,896.60379v-15.3066a2.13942,2.13942,0,0,1,2.15575-2.14082c11.06154.08053,61.55738-.22405,77.81693-12.15949a2.10641,2.10641,0,0,1,1.74247-.37768c6.6781,1.59718,46.99706,10.87992,77.04047,9.64377A2.143,2.143,0,0,1,644,878.399v6.82031a9.98723,9.98723,0,0,0,9.80509,9.98557l58.06769-.758C803.12551,888.76853,922.2007,865.08194,874,776.96943Zm-529,11.922c1.363-31.82152,57.98767-48.501,86-54.64227,9.13605-2.00294,7.9469,8.12376,5.25854,17.02671L415.25267,820.84a2.14712,2.14712,0,0,1-2.25557,1.51647C376.82277,818.90117,344.09711,809.97139,345,788.89138Zm348.97235,26.6693c-6.28686-33.30417-10.16781-61.14692-11.90257-74.60765a2.1315,2.1315,0,0,1,2.51792-2.361c35.53835,6.8397,57.021,44.43165,71.4123,60.23431,9.23173,10.13708-23.559,15.58292-59.71556,18.50336A2.18207,2.18207,0,0,1,693.97235,815.56068Z" transform="translate(-125.71838 -101.83054)"/><path class="cls-8" d="M395.32629,889.03705l76.9473,8.744A9.63816,9.63816,0,0,0,483,888.20456V879s62.72888,1.32892,80.42694-12.56732c-.78363-72.34961,5.18018-140.31622,11.30542-190.01441-18.05,12.13092-35.32782,8.76825-42.73236,6.03974-28.83527-10.62537-.68-61-.68-61-128.32-12-227.33417,53.64136-250.32,84C180.79352,837.80627,296.2594,877.60663,395.35339,888.94666ZM345,790.458c1.363-32.02979,57.98767-48.81848,86-55,9.13605-2.016,7.9469,8.177,5.25854,17.13824l-21.51287,71.70966C377.88452,820.95038,344.08258,812.0174,345,790.458Z" transform="translate(-125.71838 -101.83054)"/><path class="cls-7" d="M457.76185,392.23788c20.8159-3.12568,77.54934-5.79854,157.56981,36.18826a6.26183,6.26183,0,0,0,8.99318-4.07985,113.16874,113.16874,0,0,0,2.77639-27.52171,6.25013,6.25013,0,0,0-3.50591-5.52029C603.14119,381.2684,496.342,331.0388,462.83587,359.26548a5.95887,5.95887,0,0,0-1.38068,1.72551c-1.78381,3.27853-7.50923,14.07456-10.55608,23.02853A6.27011,6.27011,0,0,0,457.76185,392.23788Z" transform="translate(-125.71838 -101.83054)"/><path class="cls-8" d="M469,357V245s-59.39908-10.67516-35-75c22-58,87-23,87-23s16.84107-53.68795,74-44c59,10,47,68,47,71,0,0,64.54463.0747,71,38,8,47,1.5,61.32818-56.0007,79l-41,103Z" transform="translate(-125.71838 -101.83054)"/><path class="cls-7" d="M713,212.174c-6.45538-37.92529-71-38-71-38,0-3,12-61-47-71-26.49066-4.48993-44.31653,4.63428-55.82434,15.71625C585.39557,133.89484,575,184.38019,575,187.174c0,0,64.54462.07471,71,38,8,47,1.5,61.32819-56.00067,79L559.80438,380.0296,615.99933,394.174l41-103C714.5,273.50214,721,259.174,713,212.174Z" transform="translate(-125.71838 -101.83054)"/><path class="cls-8" d="M562.33246,365.46375c-37.709-13.10755-81.33264-22.59144-99.98712-5.49152,0,0-14,25-13,34,0,0,38.39251-11.44818,103.01959,8.13147C556.97382,391.02631,560.83636,372.98059,562.33246,365.46375Z" transform="translate(-125.71838 -101.83054)"/><path class="cls-7" d="M501,722s-30,44-28,102C473,824,485,751,501,722Z" transform="translate(-125.71838 -101.83054)"/><circle class="cls-7" cx="380.28162" cy="633.16946" r="6"/><circle class="cls-7" cx="369.28162" cy="672.16946" r="6"/><circle class="cls-7" cx="363.28162" cy="711.16946" r="6"/><path class="cls-4" d="M483,845.90638s74-21.79974,85,8.7199-85,28.33966-85,28.33966Z" transform="translate(-125.71838 -101.83054)"/><path class="cls-4" d="M644,842.47081s-74-21.79974-85,8.7199,85,28.33966,85,28.33966Z" transform="translate(-125.71838 -101.83054)"/></g></svg>