<svg id="Layer_2" data-name="Layer 2" xmlns="http://www.w3.org/2000/svg" xmlns:xlink="http://www.w3.org/1999/xlink" viewBox="0 0 602 542.76841"><defs><style>.cls-1{fill:none;}.cls-2{fill:#343d35;}.cls-3{fill:#4a544c;}.cls-4{fill:#1c261e;}.cls-5{isolation:isolate;}.cls-6{fill:#6d4231;}.cls-7{fill:#4d683e;}.cls-8{fill:#59704a;}.cls-9{fill:#5f7c52;}.cls-10{fill:#68654c;}.cls-11,.cls-14{fill:#3a3827;}.cls-12{fill:#605b47;}.cls-13{fill:#353120;}.cls-14{opacity:0.7;}.cls-15{fill:#c6998b;opacity:0.42;}.cls-16{fill:#7f7d65;}.cls-17{clip-path:url(#clip-path);}.cls-18{fill:#0e1815;}.cls-19{fill:#0e1714;}.cls-20{fill:#0d1614;}.cls-21{fill:#0d1613;}.cls-22{clip-path:url(#clip-path-2);}.cls-23{fill:#0b1210;}.cls-24{fill:#0b1311;}.cls-25{fill:#0c1411;}.cls-26{fill:#0c1412;}.cls-27{fill:#0d1513;}.cls-28{fill:#0f1916;}.cls-29{fill:#121e1b;}.cls-30{clip-path:url(#clip-path-3);}.cls-31{fill:#9f9e98;}.cls-32{fill:#9a9a93;}.cls-33{fill:#96958f;}.cls-34{fill:#91908a;}.cls-35{clip-path:url(#clip-path-4);}.cls-36{fill:#7a7974;}.cls-37{fill:#7e7e78;}.cls-38{fill:#83827d;}.cls-39{fill:#888781;}.cls-40{fill:#8c8c86;}.cls-41{fill:#a4a39c;}.cls-42{fill:#c9c8c0;}.cls-43{fill:#485b55;}.cls-44{fill:#455b57;}.cls-45{fill:#deab90;}.cls-46{fill:#c38e70;}.cls-47{fill:#b79558;}.cls-48{fill:#a3844f;}.cls-49{fill:#2f443e;}.cls-50{fill:#5b6d6a;}.cls-51{fill:#9fa3a2;}.cls-52{fill:#d3aa62;}.cls-53{fill:#686334;}.cls-54{fill:#281313;}.cls-55{fill:#c97e2d;}.cls-56{fill:#475b57;}.cls-57{fill:#737f7d;}.cls-58{fill:#7c5235;}.cls-59{fill:#56321a;}.cls-60{fill:#704528;}.cls-61{fill:#603c24;}.cls-62{fill:#858e8b;}.cls-63{fill:#323a37;}.cls-64{fill:#7e8784;}</style><clipPath id="clip-path" transform="translate(-430.27028 -99.98618)"><path class="cls-1" d="M731.52927,355.25568l6.4787,2.61752a7.08912,7.08912,0,0,0-4.17924-.30779L727.35,354.9479A7.08924,7.08924,0,0,1,731.52927,355.25568Z"/></clipPath><clipPath id="clip-path-2" transform="translate(-430.27028 -99.98618)"><path class="cls-1" d="M728.37906,381.741l-6.47872-2.61751c-3.17393-1.28233-5.21655-4.999-4.96558-9.85872.34892-6.75671,5.01051-13.1681,10.41526-14.31692l6.47871,2.61751c-5.40475,1.14882-10.06633,7.56021-10.41526,14.31692C723.1625,376.74208,725.20512,380.45872,728.37906,381.741Z"/></clipPath><clipPath id="clip-path-3" transform="translate(-430.27028 -99.98618)"><path class="cls-1" d="M736.06105,361.53482l1.94361.78527a5.09438,5.09438,0,0,0-3.00328-.22123l-1.94361-.78525A5.09447,5.09447,0,0,1,736.06105,361.53482Z"/></clipPath><clipPath id="clip-path-4" transform="translate(-430.27028 -99.98618)"><path class="cls-1" d="M731.08325,379.47591l-1.94361-.78525c-2.28156-.92179-3.74953-3.59338-3.5691-7.0873.25075-4.85558,3.60127-9.46376,7.48723-10.28975l1.94361.78525c-3.886.826-7.23647,5.43418-7.48722,10.28975C727.33372,375.88253,728.8017,378.55412,731.08325,379.47591Z"/></clipPath></defs><polygon class="cls-2" points="0 327.768 315 509.768 602 344.768 287 162.768 0 327.768"/><polygon class="cls-3" points="0 327.768 0 360.768 315 542.768 315 509.768 0 327.768"/><polygon class="cls-4" points="315 509.768 602 344.768 602 377.768 315 542.768 315 509.768"/><g id="Layer_3" data-name="Layer 3"><g class="cls-5"><path class="cls-6" d="M768.42593,151.42933c3.0558.8188,3.68075,2.39133,1.38984,3.51339-2.28553,1.11944-6.61908,1.36334-9.67487.54455-3.063-.82074-3.688-2.39327-1.40245-3.5127C761.02936,150.8525,765.36291,150.60859,768.42593,151.42933Z" transform="translate(-430.27028 -99.98618)"/><path class="cls-6" d="M771.19663,153.42753l.68993,154.64788c.00236.52554-.447,1.05779-1.38085,1.51519-2.28553,1.11944-6.61908,1.36334-9.67487.54455-1.81615-.48664-2.77516-1.23758-2.77857-2.00166l-.69-154.64787c.00341.76407.96243,1.515,2.77858,2.00165,3.05579.81879,7.38934.57489,9.67487-.54455C770.74964,154.48532,771.199,153.95307,771.19663,153.42753Z" transform="translate(-430.27028 -99.98618)"/></g><g class="cls-5"><path class="cls-7" d="M765.56217,231.01441c.05792-.0252.11679-.05266.17446-.08131.31284.01181.48836.0602.392.10807C765.94137,231.03409,765.7502,231.02507,765.56217,231.01441Z" transform="translate(-430.27028 -99.98618)"/><path class="cls-7" d="M765.56217,231.01441c.188.01066.3792.01968.5665.02676a2.2602,2.2602,0,0,1-.74086.06527c-.31284-.01182-.48836-.0602-.392-.10807a2.2602,2.2602,0,0,1,.74086-.06527C765.679,230.96175,765.62009,230.98921,765.56217,231.01441Z" transform="translate(-430.27028 -99.98618)"/><path class="cls-7" d="M780.35834,227.96587a29.29069,29.29069,0,0,1-14.22967,3.0753c.09632-.04787-.0792-.09626-.392-.10807a2.2602,2.2602,0,0,0-.74086.06527c-.09632.04787.0792.09625.392.10807a2.2602,2.2602,0,0,0,.74086-.06527,29.29069,29.29069,0,0,0,14.22967-3.0753,34.75984,34.75984,0,0,1-4.95712,1.99278,32.803,32.803,0,0,1-5.26547,1.18,34.42714,34.42714,0,0,1-11.2787-.2732,30.66423,30.66423,0,0,1-5.37149-1.47179,36.95421,36.95421,0,0,1-4.45516-2.02621,36.509,36.509,0,0,1-4.702-3.05973,37.25593,37.25593,0,0,1-4.37716-3.93054,41.3049,41.3049,0,0,1-3.84256-4.67317,43.00157,43.00157,0,0,1-3.19961-5.31581,45.59,45.59,0,0,1-4.12656-12.14537,48.20348,48.20348,0,0,1-.76982-11.71993c.04527-.59157.08153-1.38269.15134-1.97188.31076-2.6233.34323-2.89752.54135-3.87426.49873-2.45978.49873-2.45978.84671-3.75.44147-1.63628.86081-2.84285,1.13785-3.60811a42.80317,42.80317,0,0,1,4.03462-8.29624c.58986-.89832,1.40324-2.07861,2.03242-2.94984.318-.44036.77679-1.00173,1.12336-1.42.347-.41882.81368-.975,1.1882-1.3694.72164-.76,1.70789-1.75077,2.46374-2.47676a3.21963,3.21963,0,0,1,.739-.47761c3.85115-1.91379,17.11249-3.08216,29.62-2.60964,8.85906.33469,14.9638,1.40283,16.403,2.67755a39.44726,39.44726,0,0,1,6.97562,8.13491,44.098,44.098,0,0,1,4.79059,9.96578c.34152.9724.47895,1.48889,1.05733,3.66273.14935.56144.29432,1.32324.41991,1.89046.16931.76477.53282,3.07591.60775,3.86395a47.88544,47.88544,0,0,1,.31127,5.99469c-.0116,1.71-.202,3.98718-.39047,5.68683a30.67577,30.67577,0,0,1-.54879,3.32668c-.44647,1.88365-1.07241,4.39459-1.71426,6.22093a43.47641,43.47641,0,0,1-4.10974,8.58569c-.5062.75481-1.15467,1.7798-1.69,2.51422-.55734.76461-1.362,1.73758-1.94975,2.47905a23.97443,23.97443,0,0,1-2.22615,2.40679,51.40516,51.40516,0,0,1-4.31374,3.69362A35.59071,35.59071,0,0,1,780.35834,227.96587Z" transform="translate(-430.27028 -99.98618)"/><path class="cls-7" d="M802.45682,189.90927c-.05526,2.01978-.257,4.71245-.534,6.71392a44.53,44.53,0,0,1-1.1421,5.39851,43.82328,43.82328,0,0,1-2.13246,6.06233,42.56116,42.56116,0,0,1-6.48175,10.50562,37.84893,37.84893,0,0,1-8.83725,7.71333,32.0491,32.0491,0,0,1-2.971,1.66289c11.9353-5.93113,20.29115-19.7915,20.43968-36.40106.12451-13.328-5.07169-25.47836-13.23291-33.5248,1.12339-.55826,1.322-1.11828.72924-1.64326,1.44544,1.3404,1.93237,1.79194,2.54112,2.47.70842.78891,1.62968,1.862,2.302,2.68193.34644.42253.77441,1.013,1.09207,1.45761a44.14631,44.14631,0,0,1,4.49257,7.98437,46.30889,46.30889,0,0,1,3.60776,14.88041C802.41213,186.75341,802.48217,188.98009,802.45682,189.90927Z" transform="translate(-430.27028 -99.98618)"/><path class="cls-7" d="M765.56217,231.01441l.73895-82.85891c.04594-.02283.06793-.04571.06814-.068Q765.9662,189.55331,765.56217,231.01441Z" transform="translate(-430.27028 -99.98618)"/><path class="cls-7" d="M763.30864,148.11432c.00266.09795.4246.1849,1.0801.20967a5.8344,5.8344,0,0,0,1.91238-.16849l-.73895,82.85891Q764.4359,189.56247,763.30864,148.11432Z" transform="translate(-430.27028 -99.98618)"/><path class="cls-7" d="M763.90022,231.45012a37.08292,37.08292,0,0,1-6.20141-.81788c-1.07931-.24773-1.84286-.44443-2.26948-.58468-1.168-.38384-2.704-.96105-3.84294-1.424a40.00173,40.00173,0,0,1-4.20874-2.21413c-.8574-.5512-1.98664-1.30954-2.80556-1.91643-.68441-.5072-1.55884-1.23429-2.20111-1.7939a40.87732,40.87732,0,0,1-7.87235-9.4532,42.50781,42.50781,0,0,1-2.87776-5.62494,41.02365,41.02365,0,0,1-2.0977-6.12312,43.89331,43.89331,0,0,1-1.24762-6.54021,49.72733,49.72733,0,0,1-.33336-6.41337,50.26256,50.26256,0,0,1,.45082-5.9261,45.771,45.771,0,0,1,1.1555-5.67823,47.19524,47.19524,0,0,1,1.80616-5.34472,43.002,43.002,0,0,1,2.41859-4.97919c1.22429-2.057,1.22429-2.057,1.92448-3.07451.69175-1.00538.69175-1.00538,2.16022-2.86188a37.77318,37.77318,0,0,1,3.6743-3.87316c-1.90556,1.74817,4.94662,3.41,16.41281,3.84319,12.50754.47253,25.76888-.69585,29.62-2.60963,8.16122,8.04644,13.35742,20.19682,13.23291,33.5248-.14853,16.60956-8.50438,30.46993-20.43967,36.40106-1.11821.51365-2.6165,1.19039-3.77685,1.6a32.56427,32.56427,0,0,1-3.93691,1.12311A34.9085,34.9085,0,0,1,763.90022,231.45012Z" transform="translate(-430.27028 -99.98618)"/><path class="cls-7" d="M799.34349,133.33507a34.03981,34.03981,0,0,0-.38615-5.38388,39.21581,39.21581,0,0,0-1.202-5.0535,31.58364,31.58364,0,0,0-2.01428-4.84478,42.52643,42.52643,0,0,0-2.63941-4.29139,33.06782,33.06782,0,0,0-3.29831-3.87374,32.59987,32.59987,0,0,0-8.02992-5.93937,32.12383,32.12383,0,0,0-9.478-3.26969,41.394,41.394,0,0,0-10.76828-.57135,35.556,35.556,0,0,0-10.05882,2.15324c-.955.34829-2.19024.91284-3.10762,1.35079-.6334.30233-1.44152.77723-2.057,1.11464a26.268,26.268,0,0,0-3.09141,2.06075,32.98076,32.98076,0,0,0-9.79491,11.81271,45.28009,45.28009,0,0,0-1.88695,4.7409,32.02932,32.02932,0,0,0-1.15623,5.21229,46.12872,46.12872,0,0,0-.2939,5.32438,30.65762,30.65762,0,0,0,.38938,4.30805,34.37435,34.37435,0,0,0,.90758,4.06784,32.62462,32.62462,0,0,0,10.1882,15.7396c-.62122-.53089-.43223-1.09821.70577-1.66372,2.98549-1.48362,11.62665-2.519,21.18752-2.68945q-.07506-2.76258-.15018-5.525h.00006c.00266.09793.42457.18492,1.08007.20968a5.83567,5.83567,0,0,0,1.91239-.16848c.046-.02284.06789-.04573.06812-.06806q-.02687,2.76378-.05378,5.52715c1.85317.0009,3.72271.03462,5.57582.10461,11.5119.43489,18.373,2.1083,16.38961,3.8641a35.06412,35.06412,0,0,0,2.86138-2.86472,32.65574,32.65574,0,0,0,7.88632-17.1253A34.20493,34.20493,0,0,0,799.34349,133.33507Z" transform="translate(-430.27028 -99.98618)"/><path class="cls-7" d="M764.38871,148.324a5.83478,5.83478,0,0,0,1.91239-.16852c.04594-.02283.06793-.0457.06816-.068.00095-.09849-.42181-.18606-1.08011-.21095a5.83507,5.83507,0,0,0-1.91239.16848c-.04681.02329-.06877.04658-.06816.0693h0C763.3113,148.21228,763.73323,148.29924,764.38871,148.324Z" transform="translate(-430.27028 -99.98618)"/><path class="cls-7" d="M766.89163,100.63029q-.26108,23.72979-.52238,47.45724c.0011-.0985-.42168-.18612-1.08009-.211a5.83433,5.83433,0,0,0-1.91238.16849c-.04685.02328-.06878.04661-.06814.06934q-.675-23.72121-1.35012-47.44079c-.001-.03665.03432-.07425.10982-.11177a9.40385,9.40385,0,0,1,3.08237-.27157C766.212,100.33032,766.89338,100.47155,766.89163,100.63029Z" transform="translate(-430.27028 -99.98618)"/><path class="cls-7" d="M766.36926,148.08752c-.00024.0223-.02223.04516-.06814.068l.48067-47.41563c.074-.03678.10944-.07363.10984-.10958Q766.63056,124.36008,766.36926,148.08752Z" transform="translate(-430.27028 -99.98618)"/><path class="cls-7" d="M761.95852,100.67356c.00449.15785.68453.298,1.7409.33788a9.40381,9.40381,0,0,0,3.08237-.27157l-.48067,47.41563a5.8344,5.8344,0,0,1-1.91238.16849c-.6554-.02476-1.07731-.1117-1.0801-.20963Q762.63367,124.39315,761.95852,100.67356Z" transform="translate(-430.27028 -99.98618)"/><path class="cls-7" d="M799.34355,133.33505a32.53444,32.53444,0,0,1-3.02464,13.46592,33.101,33.101,0,0,1-8.038,10.78236,3.30741,3.30741,0,0,1-.71579.45668,31.17733,31.17733,0,0,0,10.23629-23.16563c.16226-17.87159-13.7284-33.15217-31.0196-34.13451.40077-.19916-.32949-.40047-1.63108-.44964a9.40385,9.40385,0,0,0-3.08237.27157c-.40076.19916.32949.40047,1.63108.44964a9.40381,9.40381,0,0,0,3.08237-.27157c17.2912.98234,31.18186,16.26292,31.0196,34.13451A31.17733,31.17733,0,0,1,787.5651,158.04c-3.85115,1.91378-17.11249,3.08216-29.62,2.60963-8.81169-.3329-14.89843-1.39142-16.37955-2.65712a32.7443,32.7443,0,0,1-10.54322-17.06094,33.71876,33.71876,0,0,1-.90511-9.67894,31.2606,31.2606,0,0,1,.71567-5.27322,28.82624,28.82624,0,0,1,1.52309-4.9832,31.27612,31.27612,0,0,1,2.26419-4.62122,30.16093,30.16093,0,0,1,2.93886-4.18666,33.7487,33.7487,0,0,1,5.65333-5.40159,43.82,43.82,0,0,1,3.94882-2.5483,33.72435,33.72435,0,0,1,4.7919-2.15582,36.54359,36.54359,0,0,1,10.15081-2.01415,41.635,41.635,0,0,1,6.76762.12017,38.51932,38.51932,0,0,1,7.10678,1.373,32.22572,32.22572,0,0,1,5.23038,2.09584c1.22987.66909,2.84234,1.61489,4.01085,2.38614a23.60016,23.60016,0,0,1,2.45129,1.87909c.61352.54806,1.45837,1.25324,2.021,1.85338a46.517,46.517,0,0,1,3.25466,3.77361,25.33752,25.33752,0,0,1,1.49953,2.21316c.38981.68627.93355,1.58842,1.29507,2.29.34945.67818.75454,1.61234,1.073,2.30562a19.04439,19.04439,0,0,1,.9205,2.47522c.42482,1.49887.91414,3.52043,1.21221,5.04956A33.1417,33.1417,0,0,1,799.34355,133.33505Z" transform="translate(-430.27028 -99.98618)"/></g><g class="cls-5"><path class="cls-6" d="M922.06271,297.28536c2.6378.7068,3.17555,2.05991,1.20267,3.02621a13.92047,13.92047,0,0,1-8.34493.472c-2.63781-.7068-3.17735-2.06446-1.20447-3.03077A13.92792,13.92792,0,0,1,922.06271,297.28536Z" transform="translate(-430.27028 -99.98618)"/><path class="cls-6" d="M924.45429,299.00759l.45719,102.47752c.002.45227-.385.91023-1.18891,1.304a13.92047,13.92047,0,0,1-8.34493.472c-1.56347-.41893-2.38979-1.06652-2.39273-1.72574l-.4572-102.4775c.003.65921.82927,1.3068,2.39274,1.72573a13.92047,13.92047,0,0,0,8.34493-.472C924.06926,299.91783,924.45631,299.45987,924.45429,299.00759Z" transform="translate(-430.27028 -99.98618)"/></g><g class="cls-5"><path class="cls-8" d="M919.03643,328.06606c-.16511-.00306-.33273-.00778-.49728-.014a1.98422,1.98422,0,0,1,.65045-.05731C919.13894,328.01994,919.0873,328.044,919.03643,328.06606Z" transform="translate(-430.27028 -99.98618)"/><path class="cls-8" d="M919.03643,328.06606c.05087-.02209.10251-.04612.15317-.0713.27467.01038.42877.05286.3442.09488C919.36925,328.08343,919.20159,328.07548,919.03643,328.06606Z" transform="translate(-430.27028 -99.98618)"/><path class="cls-8" d="M919.03643,328.06606c-.05082.02845-.10242.05571-.15309.08089-.27466-.01037-.42876-.05286-.34419-.09488C918.7037,328.05828,918.87132,328.063,919.03643,328.06606Z" transform="translate(-430.27028 -99.98618)"/><path class="cls-8" d="M919.03643,328.06606c.16516.00942.33282.01737.49737.02358a1.98426,1.98426,0,0,1-.65046.05731C918.934,328.12177,918.98561,328.09451,919.03643,328.06606Z" transform="translate(-430.27028 -99.98618)"/><path class="cls-8" d="M931.7987,325.43933a25.24556,25.24556,0,0,1-12.2649,2.65031c.08457-.042-.06953-.0845-.3442-.09488a1.98422,1.98422,0,0,0-.65045.05731c-.08457.042.06953.08451.34419.09488a1.98426,1.98426,0,0,0,.65046-.05731,25.24556,25.24556,0,0,0,12.2649-2.65031,29.5656,29.5656,0,0,1-4.27248,1.71753,28.27715,28.27715,0,0,1-4.54076,1.01756,29.7355,29.7355,0,0,1-9.73669-.2356,28.1074,28.1074,0,0,1-8.47261-3.01623,31.44481,31.44481,0,0,1-4.05286-2.63793,32.14849,32.14849,0,0,1-3.77261-3.38867,35.51864,35.51864,0,0,1-3.31177-4.02894,37.07692,37.07692,0,0,1-2.75766-4.58307,39.3246,39.3246,0,0,1-3.55731-10.47164,40.90461,40.90461,0,0,1-.66412-10.10431c.03908-.50994.0705-1.1919.13079-1.69978.26854-2.26163.29661-2.498.46749-3.33983.43042-2.12025.43042-2.12025.73082-3.23288.381-1.41058.74277-2.45088.98179-3.11069a36.94023,36.94023,0,0,1,3.47991-7.15271c.50861-.7745,1.20995-1.79212,1.75244-2.54328.27417-.37963.66967-.86361.96843-1.2242.29915-.36106.70141-.84052,1.02423-1.18057.622-.65521,1.47208-1.50933,2.12357-2.13523a2.77544,2.77544,0,0,1,.63726-.41188c3.32021-1.64994,14.75325-2.65724,25.53642-2.24986,7.638.28856,12.90119,1.20949,14.14175,2.30853a33.96107,33.96107,0,0,1,6.00337,6.99794,37.53811,37.53811,0,0,1,4.14212,8.60752c.29536.84054.41382,1.2854.91238,3.1577.12888.484.254,1.14074.36243,1.62974.14629.66.46013,2.6523.52473,3.33093a41.29848,41.29848,0,0,1,.26918,5.1673c-.01,1.4752-.17527,3.43956-.33772,4.90582a26.41459,26.41459,0,0,1-.47348,2.8682c-.385,1.624-.92481,3.78891-1.47819,5.36355a37.48514,37.48514,0,0,1-3.54258,7.402c-.43633.65071-.99524,1.53438-1.45668,2.16754-.48037.65915-1.17391,1.49794-1.68051,2.13716a20.6627,20.6627,0,0,1-1.91879,2.07489,44.30213,44.30213,0,0,1-3.71817,3.18411A30.68573,30.68573,0,0,1,931.7987,325.43933Z" transform="translate(-430.27028 -99.98618)"/><path class="cls-8" d="M950.849,292.62678c-.0477,1.74156-.2222,4.06328-.4612,5.789a38.44413,38.44413,0,0,1-.98548,4.65692,37.78535,37.78535,0,0,1-1.83844,5.22665,36.6955,36.6955,0,0,1-5.5869,9.057,32.61681,32.61681,0,0,1-7.61711,6.64937,27.6173,27.6173,0,0,1-2.56112,1.43358c10.28844-5.11275,17.48894-17.06261,17.61994-31.385.10616-11.48755-4.379-21.96559-11.41276-28.90212.96843-.48124,1.13969-.964.62885-1.41658,1.24575,1.15553,1.66542,1.54479,2.19021,2.12934.61071.68017,1.40492,1.60532,1.98448,2.31222.29868.36429.66767.87339.94155,1.25667a38.08982,38.08982,0,0,1,3.87448,6.88383,39.7181,39.7181,0,0,1,2.42738,7.79987A41.73559,41.73559,0,0,1,950.849,292.62678Z" transform="translate(-430.27028 -99.98618)"/><path class="cls-8" d="M919.03643,328.06606l.64087-71.43333c.03973-.01974.05874-.03952.05893-.05882Q919.38657,292.322,919.03643,328.06606Z" transform="translate(-430.27028 -99.98618)"/><path class="cls-8" d="M917.08964,256.59712c.00231.0847.36717.15989.934.1813a5.04481,5.04481,0,0,0,1.65368-.14569l-.64087,71.43333Q918.06328,292.32994,917.08964,256.59712Z" transform="translate(-430.27028 -99.98618)"/><path class="cls-8" d="M917.60085,328.44326a32.00172,32.00172,0,0,1-5.35068-.7055c-1.40225-.32184-1.8058-.45445-1.95773-.5044-1.007-.33093-2.331-.82869-3.31293-1.2278a34.4643,34.4643,0,0,1-3.628-1.909,30.02962,30.02962,0,0,1-4.31536-3.19885,35.22283,35.22283,0,0,1-6.78491-8.15006,36.84448,36.84448,0,0,1-2.48034-4.84964,35.37422,35.37422,0,0,1-1.80829-5.27928,37.86282,37.86282,0,0,1-1.076-5.639,42.81447,42.81447,0,0,1-.28782-5.52933,43.26417,43.26417,0,0,1,.38964-5.10838,38.94854,38.94854,0,0,1,.99744-4.89516,40.78555,40.78555,0,0,1,1.56323-4.61979,39.85227,39.85227,0,0,1,2.08123-4.281c1.05548-1.77289,1.05548-1.77289,1.65951-2.65076.59625-.86654.59625-.86654,1.86243-2.46736a32.5894,32.5894,0,0,1,3.167-3.339c-1.64238,1.50712,4.26507,2.93977,14.15017,3.31323,10.78317.40738,22.21621-.59992,25.53641-2.24986,7.03377,6.93653,11.51892,17.41457,11.41276,28.90212-.131,14.32238-7.3315,26.27224-17.61994,31.385h0c-.96387.44276-2.25538,1.02607-3.25559,1.37915a28.08021,28.08021,0,0,1-3.39357.96807A30.15186,30.15186,0,0,1,917.60085,328.44326Z" transform="translate(-430.27028 -99.98618)"/><path class="cls-8" d="M948.16383,243.85267a29.40945,29.40945,0,0,0-.33258-4.64206,33.83831,33.83831,0,0,0-1.03589-4.35752,27.22034,27.22034,0,0,0-1.73618-4.17775,28.47867,28.47867,0,0,0-12.04272-12.16418,27.69807,27.69807,0,0,0-8.17345-2.82031,35.68161,35.68161,0,0,0-9.28518-.49292,30.65259,30.65259,0,0,0-8.67354,1.85675,28.4738,28.4738,0,0,0-15.56555,14.092,39.09533,39.09533,0,0,0-1.62639,4.08822,27.61934,27.61934,0,0,0-.99638,4.49436,39.82362,39.82362,0,0,0-.25307,4.59079,27.71222,27.71222,0,0,0,1.11653,7.22173,28.14528,28.14528,0,0,0,8.78834,13.5693c-.53518-.45761-.37214-.94662.60878-1.43406,2.57351-1.2789,10.02148-2.17143,18.26276-2.31859l-.12967-4.76125c.00227.08468.36716.15988.934.18129a5.04551,5.04551,0,0,0,1.65365-.14569c.03973-.01976.05877-.03952.05894-.05881l-.04664,4.76306c1.59643.0008,3.207.02983,4.80338.09016,9.92421.37491,15.83919,1.81745,14.13035,3.3311a30.40106,30.40106,0,0,0,2.46836-2.47131,28.36186,28.36186,0,0,0,4.46153-6.81627,28.061,28.061,0,0,0,2.34033-7.946A29.83229,29.83229,0,0,0,948.16383,243.85267Z" transform="translate(-430.27028 -99.98618)"/><path class="cls-8" d="M918.02361,256.77844a5.04488,5.04488,0,0,0,1.65368-.14569L919.58,267.47387l.04951-.00084q.05334-5.44963.10668-10.8991c.00082-.08515-.36474-.16091-.934-.18241a5.04484,5.04484,0,0,0-1.65368.14569c-.04049.02012-.05944.04029-.05893.05995l0,0C917.09193,256.68183,917.45681,256.757,918.02361,256.77844Z" transform="translate(-430.27028 -99.98618)"/><path class="cls-8" d="M920.18052,215.64847q-.222,20.46376-.44429,40.92547c.00092-.08516-.36466-.16093-.934-.18244a5.045,5.045,0,0,0-1.65368.1457c-.04051.02012-.05948.04029-.05892.06h0q-.57894-20.45644-1.15813-40.91142c-.00088-.03156.02957-.06394.0946-.09626a8.09991,8.09991,0,0,1,2.65492-.2339C919.59508,215.39011,920.182,215.51175,920.18052,215.64847Z" transform="translate(-430.27028 -99.98618)"/><path class="cls-8" d="M919.73623,256.57394c-.00021.01929-.01922.03906-.05893.05879l.40861-40.88987c.06375-.03168.09427-.06342.09461-.09439Q919.95851,236.11224,919.73623,256.57394Z" transform="translate(-430.27028 -99.98618)"/><path class="cls-8" d="M915.93152,215.68574c.00385.136.58958.25665,1.49947.291a8.0998,8.0998,0,0,0,2.65492-.23391l-.40861,40.88987a5.04481,5.04481,0,0,1-1.65368.14569c-.56674-.02141-.93158-.09658-.934-.18127Q916.5107,236.14072,915.93152,215.68574Z" transform="translate(-430.27028 -99.98618)"/><path class="cls-8" d="M948.16387,243.85264a28.03015,28.03015,0,0,1-2.60645,11.60893,28.56372,28.56372,0,0,1-6.93411,9.29666,2.85,2.85,0,0,1-.61743.394,26.85924,26.85924,0,0,0,8.82829-19.97236c.14071-15.40867-11.83138-28.58884-26.74826-29.437.34519-.17154-.2838-.34493-1.40488-.38728a8.09991,8.09991,0,0,0-2.65492.2339c-.34519.17154.2838.34494,1.40488.38729a8.0998,8.0998,0,0,0,2.65492-.23391c14.91688.84817,26.889,14.02834,26.74826,29.437a26.85924,26.85924,0,0,1-8.82829,19.97236c-3.3202,1.64994-14.75324,2.65724-25.53641,2.24986-7.59749-.287-12.84531-1.19975-14.12168-2.29107a28.23182,28.23182,0,0,1-9.09429-14.70827,29.07212,29.07212,0,0,1-.77893-8.34555,26.98462,26.98462,0,0,1,.61661-4.5468,24.82293,24.82293,0,0,1,1.31268-4.297,26.97829,26.97829,0,0,1,1.95168-3.9851,25.99516,25.99516,0,0,1,2.5335-3.61053,29.09473,29.09473,0,0,1,4.87421-4.65857,37.77732,37.77732,0,0,1,3.405-2.19792,29.09582,29.09582,0,0,1,4.13451-1.86028,31.50233,31.50233,0,0,1,8.75227-1.73665,35.8901,35.8901,0,0,1,5.83443.10366,33.21416,33.21416,0,0,1,6.12959,1.1844,27.78479,27.78479,0,0,1,4.5105,1.8078c1.06055.57711,2.451,1.3929,3.45864,2.05814a20.3535,20.3535,0,0,1,2.11354,1.62065c.529.47263,1.25738,1.08087,1.74249,1.59845a40.11129,40.11129,0,0,1,2.80595,3.25445,21.84362,21.84362,0,0,1,1.29265,1.90859c.336.5918.80474,1.36979,1.11636,1.9748.30123.58483.65038,1.39039.92489,1.98822a16.42325,16.42325,0,0,1,.79338,2.13439c.36612,1.29245.78781,3.0356,1.04467,4.35412A28.62592,28.62592,0,0,1,948.16387,243.85264Z" transform="translate(-430.27028 -99.98618)"/></g><g class="cls-5"><ellipse class="cls-6" cx="959.41927" cy="277.99465" rx="5.229" ry="1.90036" transform="translate(-431.50096 -95.70313) rotate(-0.25562)"/><path class="cls-6" d="M964.64909,277.97257l.68994,154.64789c.00177.39694-.33758.7988-1.04249,1.14406a12.21028,12.21028,0,0,1-7.31915.41195c-1.371-.36736-2.0954-.93443-2.098-1.51187l-.68995-154.64787c.00258.57744.727,1.1445,2.098,1.51186a12.21028,12.21028,0,0,0,7.31915-.41195C964.31151,278.77138,964.65086,278.36952,964.64909,277.97257Z" transform="translate(-430.27028 -99.98618)"/></g><g class="cls-5"><path class="cls-9" d="M960.40587,355.48774q-.21468-.004-.42857-.01218a1.71028,1.71028,0,0,1,.56058-.04939Q960.472,355.4589,960.40587,355.48774Z" transform="translate(-430.27028 -99.98618)"/><path class="cls-9" d="M960.40587,355.48774q.06615-.02877.132-.06157c.23672.00895.36953.04556.29664.08178Q960.62059,355.49987,960.40587,355.48774Z" transform="translate(-430.27028 -99.98618)"/><path class="cls-9" d="M960.40587,355.48774q-.06608.03693-.13193.0696c-.23672-.009-.36953-.04556-.29664-.08178Q960.19122,355.48365,960.40587,355.48774Z" transform="translate(-430.27028 -99.98618)"/><path class="cls-9" d="M960.40587,355.48774q.21475.0122.42865.02021a1.71035,1.71035,0,0,1-.56058.04939Q960.33981,355.5246,960.40587,355.48774Z" transform="translate(-430.27028 -99.98618)"/><path class="cls-9" d="M971.60377,353.18058a22.16793,22.16793,0,0,1-10.76925,2.32737c.07289-.03622-.05992-.07283-.29664-.08178a1.71028,1.71028,0,0,0-.56058.04939c-.07289.03622.05992.07283.29664.08178a1.71035,1.71035,0,0,0,.56058-.04939,22.16793,22.16793,0,0,0,10.76925-2.32737,25.10067,25.10067,0,0,1-7.7365,2.40115,26.0609,26.0609,0,0,1-8.53412-.20639,24.67088,24.67088,0,0,1-7.43475-2.64549,27.60955,27.60955,0,0,1-3.557-2.31371,28.17759,28.17759,0,0,1-3.31115-2.97218,31.21791,31.21791,0,0,1-2.90661-3.53382,32.50517,32.50517,0,0,1-2.42-4.01985,33.81072,33.81072,0,0,1-3.11984-9.18475,36.40938,36.40938,0,0,1-.05539-13.28351c.37746-1.86.37746-1.86.64075-2.836.33391-1.23734.65117-2.14978.86078-2.72849a32.40765,32.40765,0,0,1,3.05087-6.27322,33.10293,33.10293,0,0,1,2.38535-3.30425c.26223-.31666.61486-.73715.89784-1.03541.54531-.57476,1.29056-1.324,1.86171-1.87314a2.434,2.434,0,0,1,.55958-.36177c2.91359-1.44788,12.94649-2.33182,22.4091-1.97433,6.70334.25325,11.32227,1.06155,12.41025,2.02614a29.8607,29.8607,0,0,1,5.27181,6.15145,32.91717,32.91717,0,0,1,3.62273,7.53581,35.68645,35.68645,0,0,1,1.57786,7.122,36.252,36.252,0,0,1,.23619,4.53459c-.00837,1.29114-.15114,3.01056-.29344,4.29386a23.25019,23.25019,0,0,1-.41418,2.516c-.33725,1.42457-.81013,3.32354-1.29526,4.70476a32.86151,32.86151,0,0,1-3.10739,6.49326c-.38279.57085-.87322,1.346-1.27809,1.90143-.42154.57827-1.03013,1.31412-1.47467,1.8749a18.13049,18.13049,0,0,1-1.68378,1.82026,38.88252,38.88252,0,0,1-3.26289,2.79353A26.93372,26.93372,0,0,1,971.60377,353.18058Z" transform="translate(-430.27028 -99.98618)"/><path class="cls-9" d="M988.31326,324.40544c-.04149,1.52745-.19365,3.56377-.4027,5.07741a33.592,33.592,0,0,1-.8615,4.076,33.13125,33.13125,0,0,1-1.61183,4.58487,32.16889,32.16889,0,0,1-4.90169,7.94523,28.62664,28.62664,0,0,1-6.68455,5.83383,24.244,24.244,0,0,1-2.24722,1.25777c9.02634-4.48556,15.34584-14.96371,15.45476-27.52279a35.29113,35.29113,0,0,0-10.00607-25.35347c.8496-.4222,1-.84573.5522-1.24278,1.09225,1.01385,1.4602,1.35537,1.92007,1.86787a32.26517,32.26517,0,0,1,2.56521,3.13023,33.39179,33.39179,0,0,1,3.39682,6.03734,34.86267,34.86267,0,0,1,2.12825,6.84183A36.68494,36.68494,0,0,1,988.31326,324.40544Z" transform="translate(-430.27028 -99.98618)"/><path class="cls-9" d="M960.40587,355.48774l.56266-62.65752c.03487-.01733.05155-.03469.05172-.05162Q960.71305,324.13493,960.40587,355.48774Z" transform="translate(-430.27028 -99.98618)"/><path class="cls-9" d="M958.6977,292.799c.002.07433.32222.14031.81963.1591a4.4273,4.4273,0,0,0,1.4512-.12785l-.56266,62.65752Q959.55179,324.14193,958.6977,292.799Z" transform="translate(-430.27028 -99.98618)"/><path class="cls-9" d="M959.14807,355.81744a28.07694,28.07694,0,0,1-4.6925-.61877c-.81572-.18715-1.39305-.33583-1.716-.442-.8835-.29024-2.0453-.72663-2.90686-1.07669a30.26617,30.26617,0,0,1-3.18416-1.67438,26.30707,26.30707,0,0,1-3.78758-2.80572,30.908,30.908,0,0,1-5.955-7.14849,32.10868,32.10868,0,0,1-2.17644-4.25369,31.09767,31.09767,0,0,1-1.586-4.63055,33.1317,33.1317,0,0,1-.94251-4.94614,37.62739,37.62739,0,0,1-.25078-4.84826,35.32,35.32,0,0,1,1.21623-8.77683,32.85763,32.85763,0,0,1,3.19518-7.80673c.9248-1.55385.9248-1.55385,1.45489-2.32479.52236-.75946.52236-.75946,1.63279-2.164a28.60855,28.60855,0,0,1,2.77638-2.92889c-1.44,1.32242,3.74382,2.57945,12.41763,2.90714,9.46261.35749,19.49551-.52644,22.4091-1.97432a35.29113,35.29113,0,0,1,10.00607,25.35347c-.10892,12.55908-6.42842,23.03723-15.45476,27.52278-.84607.38866-1.97971.90072-2.85767,1.21066a24.66848,24.66848,0,0,1-2.98.85017,26.05057,26.05057,0,0,1-3.22577.49161c-.579.05041-1.15775.08275-1.72029.09615C959.91942,355.85054,959.15568,355.81778,959.14807,355.81744Z" transform="translate(-430.27028 -99.98618)"/><path class="cls-9" d="M985.95936,281.61692a25.76717,25.76717,0,0,0-.292-4.07155,29.6694,29.6694,0,0,0-.909-3.82189,23.87627,23.87627,0,0,0-1.52323-3.66416,24.984,24.984,0,0,0-10.5631-10.66847,24.292,24.292,0,0,0-7.16849-2.47363,31.33347,31.33347,0,0,0-8.15143-.43258,26.89505,26.89505,0,0,0-7.60905,1.62866,24.97861,24.97861,0,0,0-13.6532,12.35951,34.284,34.284,0,0,0-1.427,3.5856,24.21867,24.21867,0,0,0-.87434,3.94194,34.86152,34.86152,0,0,0-.22224,4.02652,24.35982,24.35982,0,0,0,.98184,6.342,24.69571,24.69571,0,0,0,7.70216,11.89869c-.46877-.4014-.32534-.83028.535-1.25781,2.25836-1.12229,8.7942-1.90553,16.0262-2.03466l-.1138-4.1761c.002.07434.32223.14031.81962.15912a4.42786,4.42786,0,0,0,1.45122-.12787c.03485-.01734.05155-.03469.05171-.05161q-.02047,2.089-.04091,4.17766c1.40094.00071,2.8142.02623,4.21507.07914,8.70738.329,13.89775,1.59445,12.40058,2.92251a26.62861,26.62861,0,0,0,2.16259-2.16813,24.74143,24.74143,0,0,0,5.96466-12.95234A25.81285,25.81285,0,0,0,985.95936,281.61692Z" transform="translate(-430.27028 -99.98618)"/><path class="cls-9" d="M959.51731,292.95808a4.42659,4.42659,0,0,0,1.45122-.12786c.03485-.01732.05154-.03468.05171-.05162.00072-.07472-.32007-.14118-.81963-.16006a4.42818,4.42818,0,0,0-1.45122.12786c-.03553.01766-.05217.03536-.05171.0526C958.6997,292.87334,959.0199,292.93929,959.51731,292.95808Z" transform="translate(-430.27028 -99.98618)"/><path class="cls-9" d="M961.41834,256.88091q-.19887,17.94974-.3981,35.89773c.00083-.07475-.32-.14124-.81963-.16012a4.42751,4.42751,0,0,0-1.4512.12786c-.03555.01767-.0522.03537-.0517.05262,0-.53848-.03586-1.256-.05122-1.79425l-.05121-1.79427q-.20484-7.17725-.4097-14.35409-.256-8.97161-.51211-17.94263c-.00078-.02783.02606-.05637.08338-.08485a7.13848,7.13848,0,0,1,2.33991-.20616C960.90238,256.65319,961.41967,256.7604,961.41834,256.88091Z" transform="translate(-430.27028 -99.98618)"/><path class="cls-9" d="M961.02025,292.77863c-.00019.01693-.01688.03427-.05172.05159l.36642-35.86613c.05618-.02792.08308-.05589.08339-.08318Q961.21947,274.83065,961.02025,292.77863Z" transform="translate(-430.27028 -99.98618)"/><path class="cls-9" d="M957.67348,256.91375c.00342.11983.51965.2262,1.32156.25649a7.13883,7.13883,0,0,0,2.33991-.20615l-.36642,35.86613a4.4273,4.4273,0,0,1-1.4512.12785c-.49734-.01879-.8175-.08475-.81962-.15907Q958.18577,274.8558,957.67348,256.91375Z" transform="translate(-430.27028 -99.98618)"/><path class="cls-9" d="M985.9594,281.61688a24.59982,24.59982,0,0,1-2.2868,10.184,25.08116,25.08116,0,0,1-6.07759,8.157,2.49876,2.49876,0,0,1-.54255.3464,23.59192,23.59192,0,0,0,7.7404-17.52305c.12288-13.51483-10.382-25.07415-23.45791-25.81719.30424-.15119-.25012-.304-1.23819-.34134a7.13848,7.13848,0,0,0-2.33991.20616c-.30423.15118.25012.304,1.23819.34133a7.13883,7.13883,0,0,0,2.33991-.20615c13.076.743,23.58079,12.30236,23.45791,25.81719a23.59192,23.59192,0,0,1-7.7404,17.52305c-2.91359,1.44788-12.94649,2.33181-22.4091,1.97432-6.66854-.25193-11.27426-1.05317-12.393-2.01112a24.80251,24.80251,0,0,1-7.97276-12.90524,25.505,25.505,0,0,1-.68338-7.32008,23.64807,23.64807,0,0,1,.54118-3.98793,21.7859,21.7859,0,0,1,1.1518-3.76879,23.66429,23.66429,0,0,1,1.71225-3.49516,22.80975,22.80975,0,0,1,2.22247-3.16659,25.51779,25.51779,0,0,1,4.27521-4.0857,33.15464,33.15464,0,0,1,2.98637-1.92769,25.51982,25.51982,0,0,1,3.62645-1.63172,27.64031,27.64031,0,0,1,7.67873-1.52343,31.519,31.519,0,0,1,5.12277.09093,29.16111,29.16111,0,0,1,5.37834,1.03928,24.919,24.919,0,0,1,3.95548,1.58549c.93014.50617,2.14964,1.22169,3.03337,1.80513a17.87036,17.87036,0,0,1,1.85356,1.42125c.464.41446,1.10284.94792,1.52833,1.40184a35.18877,35.18877,0,0,1,2.46132,2.85429,19.16584,19.16584,0,0,1,1.134,1.67391c.29479.519.706,1.20137.97937,1.732.26427.51293.5706,1.21945.81142,1.74379a14.40817,14.40817,0,0,1,.69612,1.872c.32125,1.13357.69128,2.66245.91668,3.8189A25.09131,25.09131,0,0,1,985.9594,281.61688Z" transform="translate(-430.27028 -99.98618)"/></g></g><g class="cls-5"><path class="cls-10" d="M755.99186,332.43494l-13.45815,6.56716a3.03175,3.03175,0,0,0,1.68523-2.89151l13.45815-6.56715A3.03173,3.03173,0,0,1,755.99186,332.43494Z" transform="translate(-430.27028 -99.98618)"/><path class="cls-10" d="M682.6261,211.80136l13.45813-6.56714a2.94874,2.94874,0,0,1,1.1906-.29779l-13.45815,6.56715A2.94888,2.94888,0,0,0,682.6261,211.80136Z" transform="translate(-430.27028 -99.98618)"/><path class="cls-10" d="M683.81668,211.50358l13.45815-6.56715a3.061,3.061,0,0,1,1.64542.42237L685.4621,211.926A3.06089,3.06089,0,0,0,683.81668,211.50358Z" transform="translate(-430.27028 -99.98618)"/><polygon class="cls-10" points="255.192 111.94 268.65 105.373 322.524 136.349 309.066 142.916 255.192 111.94"/><polygon class="cls-10" points="310.729 145.682 324.188 139.115 327.407 229.557 313.949 236.124 310.729 145.682"/><path class="cls-10" d="M683.81668,211.50358a3.06089,3.06089,0,0,1,1.64542.42238l53.87385,30.9761a3.31622,3.31622,0,0,1,1.66379,2.76641l3.2192,90.44212A3.00808,3.00808,0,0,1,741.342,339.3a3.06954,3.06954,0,0,1-1.67438-.43838l-53.89944-31.726a3.35823,3.35823,0,0,1-1.63732-2.75842l-3.19294-89.68327A3.01225,3.01225,0,0,1,683.81668,211.50358Z" transform="translate(-430.27028 -99.98618)"/><path class="cls-10" d="M739.336,242.90206l13.45815-6.56715a3.31622,3.31622,0,0,1,1.66379,2.76641l-13.45815,6.56715A3.31622,3.31622,0,0,0,739.336,242.90206Z" transform="translate(-430.27028 -99.98618)"/></g><path class="cls-11" d="M686.395,211.9278l53.70452,30.464a3.21627,3.21627,0,0,1,1.62571,2.644l4.30332,90.04649c.12155,2.54341-4.17317,5.15821-6.37687,3.8825L687.28235,306.804a3.21626,3.21626,0,0,1-1.60155-2.63651l-4.08565-89.2951A3.21628,3.21628,0,0,1,686.395,211.9278Z" transform="translate(-430.27028 -99.98618)"/><path class="cls-11" d="M597.86706,254.78411,681.7606,206.1729a3.10408,3.10408,0,0,1,3.11821.00331L746.086,241.81586a3.10413,3.10413,0,0,1,1.17112,1.21083h0a3.1041,3.1041,0,0,1-4.29326,4.15517l-58.08633-33.77112a3.10411,3.10411,0,0,0-3.11546-.00286l-80.62178,46.67577a3.1041,3.1041,0,0,1-4.28834-4.158l.1142-.21209A2.37622,2.37622,0,0,1,597.86706,254.78411Z" transform="translate(-430.27028 -99.98618)"/><polygon class="cls-12" points="253.05 110.911 172.643 157.547 230.536 190.514 310.943 144.682 253.05 110.911"/><polygon class="cls-13" points="253.757 177.524 311.789 144.445 253.896 110.674 253.325 111.006 253.757 177.524"/><path class="cls-10" d="M660.80668,290.50045l-57.8931-32.96691,10.95788,122.88487a6.43257,6.43257,0,0,0,3.22609,5.01961L657.591,408.47738a6.43255,6.43255,0,0,0,6.4142-.02995l63.07532-36.6717a6.43256,6.43256,0,0,0,3.17368-4.986l10.9596-122.12129Z" transform="translate(-430.27028 -99.98618)"/><path class="cls-14" d="M659.02492,402.61181l-45.41348-25.8387.325,3.64513a6.43258,6.43258,0,0,0,3.22611,5.01978L657.656,408.47739a6.43253,6.43253,0,0,0,6.41418-.03l63.07539-36.67169a6.43258,6.43258,0,0,0,3.1737-4.98616l.33165-3.69628-67.94228,39.50131A3.69422,3.69422,0,0,1,659.02492,402.61181Z" transform="translate(-430.27028 -99.98618)"/><path class="cls-15" d="M672.06367,284.06788,660.91131,290.762l-11.36162-6.69415-.6537,119.66439,8.79963,5.0067a6.43252,6.43252,0,0,0,6.41421-.03l7.95384-4.62434Z" transform="translate(-430.27028 -99.98618)"/><path class="cls-14" d="M740.906,247.27325l-78.39225,45.42353a3.21641,3.21641,0,0,1-3.23091-.00344l-56.08551-32.65743,1.20375,14.40128,54.88564,31.82872a3.21622,3.21622,0,0,0,3.22262.00256l77.2253-44.623Z" transform="translate(-430.27028 -99.98618)"/><path class="cls-16" d="M600.15878,255.18648l59.03345,34.37391a3.21627,3.21627,0,0,0,3.2309.00343l81.548-47.25212a3.21629,3.21629,0,0,1,4.44435,1.258l2.57554,4.78315a3.21628,3.21628,0,0,1-1.22271,4.30965l-87.34959,50.473a3.21629,3.21629,0,0,1-3.22262-.00251l-64.84372-37.60357a3.21628,3.21628,0,0,1-1.21836-4.30713l2.57451-4.78123A3.21628,3.21628,0,0,1,600.15878,255.18648Z" transform="translate(-430.27028 -99.98618)"/><g class="cls-5"><g class="cls-5"><g class="cls-17"><g class="cls-5"><path class="cls-18" d="M733.82873,357.56541,727.35,354.9479a8.00947,8.00947,0,0,1,1.30889-.16965l6.47871,2.61751a8.00947,8.00947,0,0,0-1.30889.16965" transform="translate(-430.27028 -99.98618)"/><path class="cls-19" d="M735.13762,357.39576l-6.47871-2.61751a7.15385,7.15385,0,0,1,1.15813.04086l6.47871,2.61751a7.15381,7.15381,0,0,0-1.15813-.04086" transform="translate(-430.27028 -99.98618)"/><path class="cls-20" d="M736.29575,357.43662l-6.47871-2.61751a6.71307,6.71307,0,0,1,.98546.19132l6.47871,2.61751a6.71307,6.71307,0,0,0-.98546-.19132" transform="translate(-430.27028 -99.98618)"/><path class="cls-21" d="M737.28121,357.62794l-6.47871-2.61751a6.56186,6.56186,0,0,1,.72677.24525l6.47871,2.61751a6.56186,6.56186,0,0,0-.72677-.24525" transform="translate(-430.27028 -99.98618)"/></g></g></g><g class="cls-5"><g class="cls-22"><g class="cls-5"><path class="cls-23" d="M728.37906,381.741l-6.47872-2.61751c-3.17393-1.28233-5.21655-4.999-4.96558-9.85872q.0067-.13.01555-.25991l6.47871,2.61751q-.00884.12985-.01555.25991c-.251,4.85975,1.79165,8.57639,4.96559,9.85872" transform="translate(-430.27028 -99.98618)"/><path class="cls-24" d="M723.429,371.62242l-6.47871-2.61751a16.46338,16.46338,0,0,1,.22464-1.80609l6.47871,2.61751a16.46338,16.46338,0,0,0-.22464,1.80609" transform="translate(-430.27028 -99.98618)"/><path class="cls-25" d="M723.65366,369.81633l-6.47871-2.61751q.13191-.73092.32629-1.44611l6.47871,2.61751q-.19367.71422-.32629,1.44611" transform="translate(-430.27028 -99.98618)"/><path class="cls-26" d="M723.98,368.37022l-6.47871-2.61751q.17943-.66172.40892-1.30509l6.47871,2.61752q-.22893.64257-.40892,1.30508" transform="translate(-430.27028 -99.98618)"/><path class="cls-27" d="M724.38887,367.06514l-6.47871-2.61752q.22231-.624.48868-1.22635l6.47872,2.61751q-.26586.60164-.48869,1.22636" transform="translate(-430.27028 -99.98618)"/><path class="cls-21" d="M724.87756,365.83878l-6.47872-2.61751q.27036-.61179.58305-1.19674l6.47871,2.61751q-.31215.58421-.583,1.19674" transform="translate(-430.27028 -99.98618)"/><path class="cls-20" d="M725.4606,364.642l-6.47871-2.61751q.3293-.61631.702-1.19764l6.47871,2.61751q-.3721.58047-.702,1.19764" transform="translate(-430.27028 -99.98618)"/><path class="cls-19" d="M726.16264,363.4444l-6.47871-2.61751q.42378-.66106.89872-1.26968l6.47871,2.61751q-.474.60732-.89872,1.26968" transform="translate(-430.27028 -99.98618)"/><path class="cls-18" d="M727.06136,362.17472l-6.47871-2.61751a15.52245,15.52245,0,0,1,1.275-1.44273l6.47871,2.61751a15.52245,15.52245,0,0,0-1.275,1.44273" transform="translate(-430.27028 -99.98618)"/><path class="cls-28" d="M728.33638,360.732l-6.47871-2.61751a11.37449,11.37449,0,0,1,5.26081-3.114l6.47871,2.61751a11.37449,11.37449,0,0,0-5.26081,3.114" transform="translate(-430.27028 -99.98618)"/><path class="cls-18" d="M733.59719,357.618l-6.47871-2.61751q.11553-.02787.23154-.05254l6.47871,2.61751q-.116.02466-.23154.05254" transform="translate(-430.27028 -99.98618)"/></g></g></g><path class="cls-29" d="M733.82873,357.56541c5.39793-1.14736,9.4934,3.40266,9.14447,10.15937-.34937,6.76528-5.01091,13.17667-10.40884,14.324-5.40475,1.14882-9.50026-3.4012-9.15089-10.16648C723.7624,365.12562,728.424,358.71423,733.82873,357.56541Z" transform="translate(-430.27028 -99.98618)"/></g><g class="cls-5"><g class="cls-5"><g class="cls-30"><g class="cls-5"><path class="cls-31" d="M735.00138,362.09886l-1.94361-.78525a5.75411,5.75411,0,0,1,.9405-.1219l1.94361.78525a5.75534,5.75534,0,0,0-.9405.1219" transform="translate(-430.27028 -99.98618)"/><path class="cls-32" d="M735.94188,361.977l-1.94361-.78525a5.14108,5.14108,0,0,1,.83225.02936l1.94361.78526a5.13989,5.13989,0,0,0-.83225-.02937" transform="translate(-430.27028 -99.98618)"/><path class="cls-33" d="M736.77413,362.00633l-1.94361-.78526a4.82427,4.82427,0,0,1,.7082.1375l1.94361.78525a4.82269,4.82269,0,0,0-.7082-.13749" transform="translate(-430.27028 -99.98618)"/><path class="cls-34" d="M737.48233,362.14382l-1.94361-.78525a4.71668,4.71668,0,0,1,.52233.17625l1.94361.78526a4.714,4.714,0,0,0-.52233-.17626" transform="translate(-430.27028 -99.98618)"/></g></g></g><g class="cls-5"><g class="cls-35"><g class="cls-5"><path class="cls-36" d="M731.08325,379.47591l-1.94361-.78525c-2.28156-.92179-3.74953-3.59338-3.5691-7.0873q.00483-.09345.01118-.18675l1.94361.78525q-.00635.0933-.01117.18675c-.18044,3.49392,1.28754,6.16551,3.56909,7.0873" transform="translate(-430.27028 -99.98618)"/><path class="cls-37" d="M727.52533,372.20186l-1.94361-.78525a11.82956,11.82956,0,0,1,.16141-1.29774l1.94361.78525a11.82986,11.82986,0,0,0-.16141,1.29774" transform="translate(-430.27028 -99.98618)"/><path class="cls-38" d="M727.68674,370.90412l-1.94361-.78525q.09479-.52518.23445-1.0391l1.94362.78526q-.13917.51321-.23446,1.03909" transform="translate(-430.27028 -99.98618)"/><path class="cls-39" d="M727.9212,369.865l-1.94362-.78526q.12894-.4755.29385-.9378l1.94361.78525q-.16451.46175-.29384.93781" transform="translate(-430.27028 -99.98618)"/><path class="cls-40" d="M728.215,368.92722l-1.94361-.78525q.15975-.44842.35117-.88127l1.94362.78525q-.19106.43234-.35118.88127" transform="translate(-430.27028 -99.98618)"/><path class="cls-34" d="M728.56622,368.046l-1.94362-.78525q.19429-.43967.419-.86l1.94361.78525q-.22432.41985-.419.86" transform="translate(-430.27028 -99.98618)"/><path class="cls-33" d="M728.98522,367.18591l-1.94361-.78525q.23666-.44292.50455-.86073l1.94361.78525q-.26744.41718-.50455.86073" transform="translate(-430.27028 -99.98618)"/><path class="cls-32" d="M729.48977,366.32518l-1.94361-.78525q.30457-.47513.64593-.91255l1.94361.78526q-.34068.43648-.64593.91254" transform="translate(-430.27028 -99.98618)"/><path class="cls-31" d="M730.1357,365.41264l-1.94361-.78526a11.15659,11.15659,0,0,1,.9165-1.037l1.94361.78525a11.15689,11.15689,0,0,0-.9165,1.03705" transform="translate(-430.27028 -99.98618)"/><path class="cls-41" d="M731.0522,364.37559l-1.94361-.78525a8.17833,8.17833,0,0,1,3.78266-2.239l1.94362.78525a8.17844,8.17844,0,0,0-3.78267,2.23895" transform="translate(-430.27028 -99.98618)"/><path class="cls-31" d="M734.83487,362.13664l-1.94362-.78525q.08308-.02.16652-.03778l1.94361.78525q-.08343.01774-.16651.03778" transform="translate(-430.27028 -99.98618)"/></g></g></g><path class="cls-42" d="M735.00138,362.09886c3.87914-.82453,6.82275,2.4458,6.572,7.30137-.2512,4.86414-3.60167,9.47235-7.48081,10.29688-3.88595.826-6.82961-2.44436-6.57841-7.3085C727.76491,367.533,731.11543,362.92485,735.00138,362.09886Z" transform="translate(-430.27028 -99.98618)"/></g><path class="cls-43" d="M635.94137,305.30316s34.29338,30.10632,65.674-3.87918Z" transform="translate(-430.27028 -99.98618)"/><path class="cls-44" d="M660.15137,443.44958c-10.46215-7.40717-3.55131-22.96265,1.52357-19.58339,0,0,15.918,12.17528,10.95591,17.90316C672.63085,441.76935,663.13424,445.56144,660.15137,443.44958Z" transform="translate(-430.27028 -99.98618)"/><path class="cls-44" d="M689.04982,441.813c3.38239-.18148,3.86347-22.95471-1.21141-19.57545,0,0-15.73569,7.402-10.766,17.34315C677.07244,439.58065,681.19,442.23466,689.04982,441.813Z" transform="translate(-430.27028 -99.98618)"/><polygon class="cls-45" points="228.155 319.291 230.629 336.055 240.22 336.055 241.769 317.015 228.155 319.291"/><polygon class="cls-45" points="246.271 319.291 248.744 336.055 258.336 336.055 259.884 317.015 246.271 319.291"/><path class="cls-46" d="M659.10485,424.27558c3.666.44759,7.80985.74313,12.2368.844l.7926-9.48037-13.994,2.276Z" transform="translate(-430.27028 -99.98618)"/><path class="cls-46" d="M677.38814,424.9897c2.27739.10966,4.64707.1695,7.08557.1695q2.617,0,5.12-.08814l.7933-9.43186-14.07825,2.276Z" transform="translate(-430.27028 -99.98618)"/><path class="cls-47" d="M647.46895,300.848s-1.72808,104.26061-8.06436,113.477,78.78288,11.782,73.15524,1.152c-5.18423-9.79243-20.16089-95.62023-21.889-118.66124S647.46895,300.848,647.46895,300.848Z" transform="translate(-430.27028 -99.98618)"/><path class="cls-48" d="M692.39894,311.94783c-.463-3.7661-.80347-8.09822-.99054-10.59271-1.76595-23.54591-44.14859,4.12053-44.14859,4.12053s.04343,3.22107-.05716,7.76958C654.42835,318.75181,670.25218,326.946,692.39894,311.94783Z" transform="translate(-430.27028 -99.98618)"/><path class="cls-49" d="M687.79073,236.3331s8.06436,11.52051,3.45616-19.58486l8.64038-1.72808s13.956,14.36531,10.36846,24.76909a50.0644,50.0644,0,0,1-19.00884,24.7691s1.72807,35.71358,9.2164,36.2896-28.80127,23.041-57.60254,6.91231c-14.37431-8.04961-4.60821,12.09653,5.76025-45.506,0,0-17.221,7.317,11.00423-38.189l9.03536,2.1s-29.832,13.624-17.73549,13.048S687.79073,236.3331,687.79073,236.3331Z" transform="translate(-430.27028 -99.98618)"/><ellipse class="cls-45" cx="686.82943" cy="209.22842" rx="1.90247" ry="2.79938" transform="translate(-377.04944 446.95715) rotate(-45)"/><rect class="cls-50" x="658.42564" y="435.4009" width="15.20951" height="8.39155" rx="4.19577" transform="translate(-486.96168 1.20993) rotate(-8.33537)"/><rect class="cls-50" x="679.15216" y="430.36322" width="8.39155" height="15.20951" rx="4.19577" transform="translate(-252.53652 972.91066) rotate(-84.12499)"/><path class="cls-51" d="M728.23612,135.25281c-10.94642-15.78246-43.57651-10.40087-73.07941,12.02011-29.689,22.421-45.16773,53.391-34.37458,69.17346,10.8258,15.78247,43.95437,10.40088,73.79667-12.0201C724.235,182.00529,739.21518,151.03528,728.23612,135.25281Z" transform="translate(-430.27028 -99.98618)"/><path class="cls-52" d="M705.98623,142.51168c15.33679-17.40235-49.02259,4.73236-48.87989,16.39178.14307,11.69226-24.66027,11.65833-20.11377,33.78272s-6.99786,6.59906.88074,34.16412c5.72479,20.02923,9.62848,20.44342,9.62848,20.44342l11.9516,5.507s9.16663-22.94251,19.38318-47.90186a9.5156,9.5156,0,0,0,7.29809-2.21527l9.36469-8.0285a9.57011,9.57011,0,0,0,1.39795-12.99121,18.84393,18.84393,0,0,0,6.34515-5.04676c4.03809-5.01941,4.15863-10.80151.68964-14.06329C709.96645,154.99,710.653,146.61989,705.98623,142.51168Z" transform="translate(-430.27028 -99.98618)"/><rect class="cls-53" x="648.97877" y="213.68752" width="4" height="5.09299" rx="2" transform="translate(-451.17267 254.47306) rotate(-30)"/><path class="cls-54" d="M660.71754,187.37094s16.12871-7.48833,20.16089,18.43281,19.58486,33.40948,16.12871,41.47384-22.67012,18.95755-33.9855,16.12871c-11.52051-2.88013-18.43282-10.94449-20.16089-18.43282-1.63838-7.09961,6.33628-11.52051,8.06435-18.43281S647.46895,194.28324,660.71754,187.37094Z" transform="translate(-430.27028 -99.98618)"/><path class="cls-45" d="M700.50918,217.70334s-4.30176-3.60393-4.45538-8.47162,1.96866-9.58733-4.59351-9.32408-4.22724,10.9695-4.22724,10.9695l8.16454,10.96951Z" transform="translate(-430.27028 -99.98618)"/><rect class="cls-53" x="242.38213" y="43.56907" width="5.09299" height="4" rx="2"/><rect class="cls-53" x="656.63158" y="178.8029" width="4" height="6.46016" rx="2" transform="translate(-390.14598 372.5297) rotate(-40.60693)"/><rect class="cls-53" x="206.13727" y="99.14101" width="5.09299" height="4" rx="2"/><rect class="cls-53" x="242.38213" y="85.47723" width="5.09299" height="4" rx="2"/><rect class="cls-53" x="259.44631" y="49.7342" width="5.09299" height="4" rx="2"/><rect class="cls-55" x="697.51693" y="152.15605" width="5.09299" height="4" rx="2" transform="translate(283.53232 770.87352) rotate(-103.51674)"/><rect class="cls-55" x="626.54495" y="185.46341" width="5.09299" height="4" rx="2" transform="translate(-31.04539 702.34303) rotate(-86.0954)"/><rect class="cls-55" x="681.69095" y="163.52214" width="4" height="6.46016" rx="2" transform="translate(251.08586 770.4948) rotate(-103.51674)"/><rect class="cls-55" x="634.45681" y="239.87765" width="5.09299" height="4" rx="2" transform="translate(120.44135 817.78477) rotate(-103.51674)"/><rect class="cls-55" x="656.76955" y="161.95122" width="5.09299" height="4" rx="2" transform="translate(223.73723 743.33936) rotate(-103.51674)"/><rect class="cls-55" x="687.53416" y="137.00549" width="5.09299" height="4" rx="2" transform="translate(285.94722 742.47556) rotate(-103.51674)"/><polygon class="cls-56" points="343.491 460.133 348.902 457.284 348.902 424.23 343.567 427.309 343.491 460.133"/><polygon class="cls-57" points="447.244 361.312 447.244 394.366 452.563 397.216 452.639 364.391 447.244 361.312"/><polygon class="cls-57" points="338.172 424.23 338.172 457.284 343.491 460.133 343.567 427.309 338.172 424.23"/><polygon class="cls-56" points="305.591 438.473 311.002 435.623 311.002 402.569 305.667 405.648 305.591 438.473"/><polygon class="cls-58" points="414.947 330.121 457.974 354.911 343.439 421.019 300.272 396.193 414.947 330.121"/><polygon class="cls-58" points="414.016 330.121 457.974 354.911 457.974 361.317 343.439 427.425 300.272 402.599 300.272 396.193 414.016 330.121"/><polygon class="cls-59" points="457.974 354.911 452.656 351.912 343.222 415.867 343.439 427.425 457.974 361.317 457.974 354.911"/><polygon class="cls-57" points="404.712 313.308 404.896 318.033 447.623 342.859 447.808 338.098 404.712 313.308"/><polygon class="cls-50" points="409.845 310.477 404.712 313.308 447.808 338.098 452.796 335.199 409.845 310.477"/><polygon class="cls-56" points="452.796 335.199 452.796 339.981 447.623 342.859 447.808 338.098 452.796 335.199"/><polygon class="cls-60" points="449.918 300.75 457.974 305.33 449.918 350.331 342.894 421.019 334.838 416.439 334.276 366.535 449.918 300.75"/><polygon class="cls-61" points="457.974 305.33 457.974 354.911 342.856 421.019 342.294 371.116 457.974 305.33"/><polygon class="cls-57" points="295.453 376.309 295.638 381.034 338.364 405.859 338.549 401.099 295.453 376.309"/><polygon class="cls-50" points="300.587 373.478 295.453 376.309 338.549 401.099 343.537 398.199 300.587 373.478"/><polygon class="cls-56" points="343.537 398.199 343.537 402.981 338.364 405.859 338.549 401.099 343.537 398.199"/><polygon class="cls-57" points="300.272 402.569 300.272 435.623 305.591 438.473 305.667 405.648 300.272 402.569"/><polygon class="cls-56" points="452.563 397.216 457.974 394.366 457.974 361.312 452.639 364.391 452.563 397.216"/><g class="cls-5"><path class="cls-62" d="M578.3779,435.55938c.01015,3.58018-5.77761,6.495-12.93262,6.51586-.00662-2.33376-1.50542-4.66688-4.515-6.47824,5.16307-2.87894,9.33723-8.109,9.32708-11.68913C575.67031,427.1657,578.366,431.362,578.3779,435.55938Z" transform="translate(-430.27028 -99.98618)"/><path class="cls-62" d="M552.89077,436.91358a2.827,2.827,0,0,1-1.32431-2.58365,1.60025,1.60025,0,0,1,.90951,1.305,1.82906,1.82906,0,0,0,.513,1.344C552.96034,436.95812,552.92085,436.93219,552.89077,436.91358Z" transform="translate(-430.27028 -99.98618)"/><path class="cls-62" d="M552.89077,436.91358a8.37623,8.37623,0,0,0-3.53578-.74929,10.5928,10.5928,0,0,0-2.31224.22852,4.86592,4.86592,0,0,0-1.60245.60439,1.85008,1.85008,0,0,0,.5018-1.34322,1.60027,1.60027,0,0,0,.90952,1.305,5.08878,5.08878,0,0,0,4.61915.04673,1.65761,1.65761,0,0,0,1.0052-1.37076,1.79685,1.79685,0,0,0,.513,1.344c-.02872-.02067-.0676-.04759-.09825-.06529,1.636.98464,4.62513.58727,8.03948-1.31658,3.00963,1.81136,4.50843,4.14448,4.515,6.47824.007,2.47464-1.66375,4.95-4.99009,6.80478-6.46329,3.60395-16.72968,3.5001-22.93062-.232-3.00962-1.81136-4.50843-4.14448-4.515-6.47824-.007-2.47464,1.66375-4.95,4.99008-6.80478,6.4633-3.60395,16.72969-3.5001,22.93062.232C557.51588,437.50085,554.52679,437.89822,552.89077,436.91358Z" transform="translate(-430.27028 -99.98618)"/><path class="cls-62" d="M545.60265,436.89481a1.64515,1.64515,0,0,0-.16235.10239,1.83093,1.83093,0,0,0,.5018-1.34322,1.65759,1.65759,0,0,1,1.00521-1.37077,5.08881,5.08881,0,0,1,4.61915.04672,2.827,2.827,0,0,0,1.32431,2.58365A9.38482,9.38482,0,0,0,545.60265,436.89481Z" transform="translate(-430.27028 -99.98618)"/><path class="cls-62" d="M533.00953,442.16982c-7.155.02087-12.9592-2.86015-12.96935-6.44032-.01262-4.45081,2.99236-8.90291,8.975-12.23883,11.62464-6.48193,30.08938-6.29515,41.24215.4172.01015,3.58017-4.164,8.81019-9.32708,11.68913-6.20093-3.73206-16.46732-3.83591-22.93062-.232C534.67328,437.21981,533.00251,439.69518,533.00953,442.16982Z" transform="translate(-430.27028 -99.98618)"/><path class="cls-62" d="M529.48508,449.96466a25.61313,25.61313,0,0,1-4.04638-3.01031,20.28674,20.28674,0,0,1-1.50905-1.55238c-.57031-.68888-1.27059-1.65717-1.765-2.40238a13.05928,13.05928,0,0,1-.95925-1.84163,18.965,18.965,0,0,1-.70317-1.998,10.01923,10.01923,0,0,1-.28642-1.32273c-.08469-.62882-.15524-1.47353-.17561-2.10771.01016,3.58016,5.81435,6.46118,12.96936,6.44031.00661,2.33376,1.50542,4.66688,4.515,6.47824,6.20094,3.73206,16.46733,3.83591,22.93062.232,3.32634-1.85477,4.9971-4.33014,4.99009-6.80478,7.155-.02087,12.94277-2.93568,12.93262-6.51586-.01948.40316-.00582.94458-.06492,1.34385-.11549.78019-.32255,1.81321-.51563,2.5779a16.08524,16.08524,0,0,1-1.06007,2.57611,11.35729,11.35729,0,0,1-1.16069,1.884c-.40106.51885-.9401,1.20832-1.37254,1.70132-.3151.35922-.78012.79659-1.11635,1.13611a26.21356,26.21356,0,0,1-5.02945,3.63113,33.2381,33.2381,0,0,1-7.34833,2.99048,38.80456,38.80456,0,0,1-3.99457.90415c-1.85725.32705-3.42674.45747-4.01761.50657a44.09691,44.09691,0,0,1-8.00346-.07939,41.80809,41.80809,0,0,1-7.83209-1.54,36.14084,36.14084,0,0,1-3.77191-1.37868A29.71713,29.71713,0,0,1,529.48508,449.96466Z" transform="translate(-430.27028 -99.98618)"/><path class="cls-62" d="M520.04018,435.7295c.0119,4.19741,2.70759,8.39367,8.12059,11.65151,11.15277,6.71234,29.61751,6.89913,41.24214.4172,5.98262-3.33593,8.9876-7.788,8.975-12.23883a16.38926,16.38926,0,0,1-.25189,2.60482,13.95888,13.95888,0,0,1-1.08816,3.28891,15.57766,15.57766,0,0,1-1.85637,3.02194,19.21214,19.21214,0,0,1-2.50774,2.68367,23.10611,23.10611,0,0,1-3.05485,2.31524,29.21266,29.21266,0,0,1-3.49651,1.92672,34.84725,34.84725,0,0,1-3.70544,1.47548c-.57732.17763-1.34045.43893-1.9265.58519-1.14662.28616-2.68239.64505-3.84532.85527-1.411.25508-3.36327.46163-3.97084.49626-1.19645.06822-2.794.1221-3.9923.13646-.60032.0072-1.40015-.04428-2.00017-.06463a43.19367,43.19367,0,0,1-7.9394-1.17528c-.61835-.16849-1.45063-.36837-2.05823-.57224-1.08935-.36551-2.52872-.89334-3.5939-1.32423a30.242,30.242,0,0,1-3.60521-1.8483,25.86637,25.86637,0,0,1-3.2637-2.31949,22.91463,22.91463,0,0,1-2.29172-2.2432,21.50507,21.50507,0,0,1-1.33861-1.73752c-.2518-.35731-.534-.869-.76134-1.24234a14.56035,14.56035,0,0,1-.90484-1.95324,12.12449,12.12449,0,0,1-.60318-2.06434A22.91462,22.91462,0,0,1,520.04018,435.7295Z" transform="translate(-430.27028 -99.98618)"/><path class="cls-62" d="M520.05742,436.2848q-1.71466-28.92594-3.42932-57.84963c-.30544-5.15283,3.03165-10.36328,9.96106-14.22714,12.92664-7.20793,33.45951-7.00023,45.86143.46392l-2.19328,59.23592c-11.15277-6.71235-29.61751-6.89913-41.24215-.4172C522.7837,426.96535,519.78273,431.651,520.05742,436.2848Z" transform="translate(-430.27028 -99.98618)"/><path class="cls-62" d="M550.58221,378.15315c.05682.03274.11328.06629.17308.09353a6.13408,6.13408,0,0,0-3.409.0061,5.12286,5.12286,0,0,0,1.6954-1.63017l0,0A4.34115,4.34115,0,0,0,550.58221,378.15315Z" transform="translate(-430.27028 -99.98618)"/><path class="cls-62" d="M547.42774,378.2099a5.15746,5.15746,0,0,0,1.614-1.58729v0h0a5.01516,5.01516,0,0,0,1.5405,1.53056v0c1.46649.8826,4.10544,1.39054,8.44983-1.03191,5.28443,3.18046,5.10318,8.2485-.40483,11.31978s-14.257,2.98278-19.54145-.19768-5.10318-8.24849.40483-11.31978,14.257-2.98278,19.54145.19768c-4.34439,2.42245-6.98334,1.91451-8.44982,1.0319.05644.03344.11408.06482.17308.09353a6.12118,6.12118,0,0,0-3.409.0061C547.37418,378.24,547.4011,378.22512,547.42774,378.2099Z" transform="translate(-430.27028 -99.98618)"/><path class="cls-62" d="M552.47411,435.57388a1.63546,1.63546,0,0,0-.90765-1.24395l-2.52476-57.70734h0C550.0714,394.308,551.44437,417.8885,552.47411,435.57388Z" transform="translate(-430.27028 -99.98618)"/><path class="cls-62" d="M549.04173,376.62259h0l2.52476,57.70734a5.08881,5.08881,0,0,0-4.61915-.04672,1.69478,1.69478,0,0,0-1.00369,1.3097C546.873,417.90182,548.11229,394.31369,549.04173,376.62259Z" transform="translate(-430.27028 -99.98618)"/><path class="cls-62" d="M545.94362,435.59291l3.0981-58.97032h0l3.43241,58.9513a1.62281,1.62281,0,0,1-1.00333,1.43178,5.08878,5.08878,0,0,1-4.61915-.04673A1.56748,1.56748,0,0,1,545.94362,435.59291Z" transform="translate(-430.27028 -99.98618)"/><path class="cls-62" d="M549.0417,376.62258a5.21782,5.21782,0,0,0,1.5405,1.53056A4.341,4.341,0,0,1,549.0417,376.62258Z" transform="translate(-430.27028 -99.98618)"/><path class="cls-62" d="M581.465,378.24619q-1.55066,28.936-3.10125,57.8687c.23478-4.38082-2.45466-8.80545-8.10648-12.207l2.19328-59.23592C578.73543,368.45451,581.72611,373.37472,581.465,378.24619Z" transform="translate(-430.27028 -99.98618)"/><path class="cls-62" d="M516.62812,378.43515c.26436,4.45963,3.25716,8.87609,9.01095,12.339,12.40193,7.46415,32.93479,7.67186,45.86143.46393,6.37589-3.55522,9.71044-8.25048,9.96454-12.99192q-1.55066,28.936-3.10125,57.8687c-.22849,4.26385-3.22718,8.4862-8.96088,11.68332-11.62463,6.48193-30.08937,6.29514-41.24214-.4172-5.17426-3.11415-7.86561-7.08576-8.10335-11.09621Q518.34276,407.35886,516.62812,378.43515Z" transform="translate(-430.27028 -99.98618)"/><path class="cls-62" d="M559.032,377.12125c-5.28443-3.18046-14.03344-3.269-19.54145-.19768s-5.68926,8.13932-.40483,11.31978,14.03344,3.269,19.54145.19768,5.68926-8.13932.40483-11.31978c3.38946-1.89,7.79149-5.614,13.41856-12.4493,12.40192,7.46415,11.97655,19.35823-.95009,26.56616s-33.4595,7.00022-45.86143-.46393-11.97655-19.35822.95009-26.56615,33.45951-7.00023,45.86143.46392C566.82352,371.50723,562.42149,375.23128,559.032,377.12125Z" transform="translate(-430.27028 -99.98618)"/></g><g class="cls-5"><path class="cls-51" d="M546.61622,380.8028a3.63528,3.63528,0,0,0,1.29495-1.43669,4.72594,4.72594,0,0,0,.36093-.94683,6.47732,6.47732,0,0,0,.12611-1.04353c.01389,4.8934-8.28693,8.39743-18.54265,7.83278.41837-2.47768,2.30786-4.88711,5.6514-6.75147,7.43533-4.146,19.24571-4.02649,26.37923.26684-5.02745,2.80332-9.41585,3.43657-11.73557,2.04044.02631.01572.05309.03083.08037.04485a6.32357,6.32357,0,0,0-3.63727.00608Z" transform="translate(-430.27028 -99.98618)"/><path class="cls-51" d="M550.15062,380.76434c.02657.01528.05258.03176.08037.04485a6.25057,6.25057,0,0,0-3.63789.00652,3.607,3.607,0,0,0,1.22274-1.27812,4.23879,4.23879,0,0,0,.58237-2.16184A3.70782,3.70782,0,0,0,550.15062,380.76434Z" transform="translate(-430.27028 -99.98618)"/><path class="cls-51" d="M550.15062,380.76434c2.31972,1.39613,6.70812.76288,11.73557-2.04044,2.99924,1.80511,4.69422,4.06065,5.09887,6.37691-10.25238.62415-18.573-2.83166-18.58684-7.72507A4.02665,4.02665,0,0,0,550.15062,380.76434Z" transform="translate(-430.27028 -99.98618)"/><path class="cls-51" d="M548.39822,377.37574a6.604,6.604,0,0,0,.15037,1.11177,4.1711,4.1711,0,0,0,.39979.97007,3.72043,3.72043,0,0,0,1.20223,1.30677A3.70784,3.70784,0,0,1,548.39822,377.37574Z" transform="translate(-430.27028 -99.98618)"/><path class="cls-51" d="M585.72112,377.2669c-.01522-5.37078-3.46448-10.74009-10.39066-14.90865l-.02509-8.84777c6.92618,4.16855,10.37544,9.53786,10.39067,14.90865C585.70356,371.07347,585.71359,374.61258,585.72112,377.2669Z" transform="translate(-430.27028 -99.98618)"/><path class="cls-51" d="M585.696,368.41913c-.01523-5.37079-3.46449-10.7401-10.39067-14.90865a3.69852,3.69852,0,0,0-1.74921-3.37978c1.10289.70995,2.55165,1.69349,3.59435,2.48921.6791.51823,1.50471,1.30752,2.13561,1.88347a23.88179,23.88179,0,0,1,3.11681,3.70349,20.68439,20.68439,0,0,1,1.4142,2.42251,32.77645,32.77645,0,0,1,1.286,3.38858,16.83659,16.83659,0,0,1,.496,2.642C585.66971,367.1838,585.667,367.89139,585.696,368.41913Z" transform="translate(-430.27028 -99.98618)"/><path class="cls-51" d="M573.55616,350.1307a3.69852,3.69852,0,0,1,1.74921,3.37978c-14.27048-8.58875-37.897-8.82775-52.77122-.53382-7.655,4.26846-11.5,9.96513-11.48391,15.66014a20.64637,20.64637,0,0,1,.31619-3.30608,17.13567,17.13567,0,0,1,1.39027-4.22856,22.41278,22.41278,0,0,1,4.10779-5.89923,30.422,30.422,0,0,1,7.44859-5.64452,41.13672,41.13672,0,0,1,4.715-2.23964,47.14394,47.14394,0,0,1,4.88627-1.64407,49.47067,49.47067,0,0,1,4.99239-1.11516c2.39511-.41638,4.39832-.57866,5.0566-.632a55.93186,55.93186,0,0,1,10.19483.10748,52.8642,52.8642,0,0,1,10.16668,2.02759A40.98649,40.98649,0,0,1,573.55616,350.1307Z" transform="translate(-430.27028 -99.98618)"/><path class="cls-51" d="M511.05024,368.6368c-.01614-5.695,3.82887-11.39168,11.48391-15.66014,14.87426-8.29393,38.50074-8.05493,52.77122.53382l.02509,8.84777c-14.27049-8.58875-37.897-8.82775-52.77123-.53382-7.655,4.26847-11.5,9.96514-11.4839,15.66015C511.06779,374.83025,511.05776,371.29114,511.05024,368.6368Z" transform="translate(-430.27028 -99.98618)"/><path class="cls-51" d="M548.39822,377.37574c.01388,4.89341,8.33446,8.34922,18.58684,7.72507.55778,3.19281-1.33617,6.501-5.64536,8.90379-7.43533,4.146-19.24571,4.02649-26.37923-.26685-3.92569-2.36269-5.61691-5.49707-5.10491-8.52922C540.11128,385.77318,548.4121,382.26915,548.39822,377.37574Z" transform="translate(-430.27028 -99.98618)"/><path class="cls-51" d="M511.07533,377.48458c-.01615-5.695,3.82886-11.39168,11.4839-15.66015,14.87426-8.29393,38.50074-8.05493,52.77123.53382.01387,4.89342-6.0082,12.21928-13.44427,16.36565-7.13352-4.29333-18.9439-4.4128-26.37923-.26684-3.34354,1.86436-5.233,4.27379-5.6514,6.75147-.512,3.03215,1.17922,6.16653,5.10491,8.52922,7.13352,4.29334,18.9439,4.41281,26.37923.26685,4.30919-2.40281,6.20314-5.711,5.64536-8.90379-.40465-2.31626-2.09963-4.5718-5.09887-6.37691,7.43607-4.14637,13.45814-11.47223,13.44427-16.36565,6.92618,4.16856,10.37544,9.53787,10.39066,14.90865a20.67267,20.67267,0,0,1-.31655,3.30914,17.99434,17.99434,0,0,1-1.39106,4.23048,20.18257,20.18257,0,0,1-2.38416,3.89337,24.713,24.713,0,0,1-3.22707,3.46006,29.662,29.662,0,0,1-3.93077,2.98262,37.59776,37.59776,0,0,1-4.49119,2.47668,44.91581,44.91581,0,0,1-4.747,1.8911c-.738.22724-1.7136.56125-2.46279.74829-1.46318.36529-3.42317.8222-4.907,1.09163-1.71115.31068-4.246.58569-5.056.63193-1.52216.08683-3.55461.15534-5.07913.17361-.76376.00916-1.78133-.0563-2.5447-.08223a54.77965,54.77965,0,0,1-10.11345-1.49753c-.78741-.21551-1.84791-.469-2.62187-.72868-1.39622-.46854-3.24131-1.14452-4.6065-1.697-.77982-.31558-1.78472-.81854-2.53331-1.20235-.63945-.32784-1.46435-.81676-2.091-1.16852a34.37011,34.37011,0,0,1-4.15959-2.95181,29.97162,29.97162,0,0,1-2.98276-2.91482,27.17976,27.17976,0,0,1-1.70557-2.21091c-.32879-.46656-.69789-1.1343-.99524-1.62151a18.40669,18.40669,0,0,1-1.151-2.47885,15.42323,15.42323,0,0,1-.77183-2.61261A30.042,30.042,0,0,1,511.07533,377.48458Z" transform="translate(-430.27028 -99.98618)"/><path class="cls-51" d="M566.91558,360.704c-10.25558-.56548-18.55629,2.93789-18.54244,7.824-.01385-4.88609,6.0017-12.20832,13.43777-16.3547C565.73725,354.53635,567.42838,357.67136,566.91558,360.704Z" transform="translate(-430.27028 -99.98618)"/><path class="cls-51" d="M548.37314,368.528c-.01385-4.88609-8.33432-8.34124-18.58655-7.71627-.55863-3.19326,1.33524-6.50209,5.6451-8.90527,7.43533-4.146,19.24571-4.02649,26.37922.26684C554.37484,356.31964,548.35929,363.64187,548.37314,368.528Z" transform="translate(-430.27028 -99.98618)"/><path class="cls-51" d="M548.37314,368.528a6.59132,6.59132,0,0,0-.15028-1.10987,4.23142,4.23142,0,0,0-.39917-.96781,3.57155,3.57155,0,0,0-1.28115-1.34937,6.24692,6.24692,0,0,0,3.6335-.00647,3.60384,3.60384,0,0,0-1.22178,1.27684,4.22423,4.22423,0,0,0-.58112,2.15669c-.01385-4.8861,8.28686-8.38947,18.54244-7.824-.41888,2.47715-2.30828,4.886-5.65115,6.75-7.43533,4.146-19.24571,4.02649-26.37923-.26684-2.99861-1.80473-4.6935-4.05969-5.09861-6.37543C540.03882,360.18672,548.35929,363.64187,548.37314,368.528Z" transform="translate(-430.27028 -99.98618)"/><path class="cls-51" d="M546.62316,365.14586c-.0261-.01634-.05326-.0309-.08062-.045a6.20948,6.20948,0,0,0,3.63286-.006,3.60746,3.60746,0,0,0-1.31546,1.446,4.6485,4.6485,0,0,0-.36075.94531,6.46045,6.46045,0,0,0-.126,1.04179A4.08282,4.08282,0,0,0,546.62316,365.14586Z" transform="translate(-430.27028 -99.98618)"/><path class="cls-51" d="M523.21762,395.7795a32.9291,32.9291,0,0,1-5.21724-3.88457,25.78847,25.78847,0,0,1-1.92512-1.98205c-.74273-.90018-1.65392-2.16551-2.29927-3.13787a16.50063,16.50063,0,0,1-1.21727-2.34979,24.06575,24.06575,0,0,1-.89017-2.53653,13.25174,13.25174,0,0,1-.37355-1.73367c-.10731-.79665-.19557-1.867-.21968-2.67044.01523,5.37078,3.46449,10.74009,10.39067,14.90864,14.27049,8.58876,37.897,8.82776,52.77123.53383,7.655-4.26847,11.5-9.96514,11.4839-15.66015a19.68885,19.68885,0,0,1-.3563,3.50665c-.25033.98369-.65144,2.27892-.99858,3.23276-.1888.51877-.54807,1.16573-.78386,1.66491a14.32321,14.32321,0,0,1-1.4777,2.38651c-.51208.6598-1.198,1.53842-1.74936,2.16575-.41.46645-1.0146,1.03454-1.45143,1.47594a33.57284,33.57284,0,0,1-6.448,4.65237,42.50868,42.50868,0,0,1-9.4137,3.83129,49.6114,49.6114,0,0,1-5.0915,1.15207c-2.36184.41592-4.36127.58214-5.114.64473a55.90489,55.90489,0,0,1-10.18232-.10109c-1.37273-.15178-2.92861-.32381-5.03273-.7377a48.77471,48.77471,0,0,1-4.95368-1.22655,45.77783,45.77783,0,0,1-4.82612-1.76416A38.08926,38.08926,0,0,1,523.21762,395.7795Z" transform="translate(-430.27028 -99.98618)"/><path class="cls-51" d="M511.07533,377.48458l-.0251-8.84777c.01524,5.37078,3.4645,10.74009,10.39068,14.90864,14.27048,8.58875,37.897,8.82775,52.77123.53382,7.655-4.26846,11.5-9.96513,11.4839-15.66014l.02508,8.84778c.01615,5.695-3.82887,11.39167-11.4839,15.66014-14.87426,8.29393-38.50074,8.05493-52.77123-.53383C514.53981,388.22467,511.09055,382.85536,511.07533,377.48458Z" transform="translate(-430.27028 -99.98618)"/><path class="cls-51" d="M524.31309,349.5584a38.76284,38.76284,0,0,1,4.715-2.23963c1.39452-.5205,3.27668-1.15411,4.69934-1.5919.77561-.23867,1.83288-.47588,2.62291-.66131a56.13773,56.13773,0,0,1,12.69273-1.31167,54.78886,54.78886,0,0,1,12.55089,1.55306,44.31511,44.31511,0,0,1,11.9622,4.82376c-2.32038-1.39655-6.71434-.76269-11.74524,2.04255-7.13351-4.29333-18.94389-4.4128-26.37922-.26684s-7.68,10.98736-.54649,15.2807,18.9439,4.4128,26.37923.26684,7.68-10.98736.54648-15.2807c5.0309-2.80524,9.42486-3.4391,11.74525-2.04256.5827.37731,1.38555.8431,1.94235,1.25767a38.39706,38.39706,0,0,1,3.27476,2.62683,25.77818,25.77818,0,0,1,1.92473,1.98166c.74265.90011,1.65366,2.16539,2.299,3.13762a16.48636,16.48636,0,0,1,1.21666,2.34877,24.05149,24.05149,0,0,1,.88949,2.53471,13.25068,13.25068,0,0,1,.37345,1.73342c.1072.79584.19536,1.86508.2194,2.66775.01615,5.695-3.82886,11.39168-11.48389,15.66014-14.87426,8.29393-38.50075,8.05493-52.77123-.53382-6.92618-4.16855-10.37544-9.53786-10.39067-14.90865h0c.02608-.528.00951-1.23709.08693-1.76005a21.09377,21.09377,0,0,1,.65807-3.27179,29.1294,29.1294,0,0,1,1.3932-3.36867,21.57561,21.57561,0,0,1,1.47689-2.385,20.12269,20.12269,0,0,1,1.74876-2.165c.86923-.91183,2.10287-2.05646,3.05821-2.87764A36.00917,36.00917,0,0,1,524.31309,349.5584Z" transform="translate(-430.27028 -99.98618)"/></g><rect class="cls-63" x="114.23576" y="254.15459" width="3.96329" height="8.50879" rx="1.98165"/><path class="cls-64" d="M583.54115,375.763c-4.37616,9.08252-19.23853,14.44952-19.23853,14.44952-24.27514,5.44953-35.00909-.99084-42.27514-4.95416s-10.54126-12.68042-10.54126-12.68042a13.973,13.973,0,0,1-.39105-3.652c-.02985.78009-.04932,1.652-.04932,2.62476,0,4.70642-.05249,9.79144.44037,10.9342,0,0,3.27527,8.71717,10.54126,12.68042s18,10.40369,42.27514,4.9541c0,0,14.86237-5.36694,19.23853-14.44946a17.54939,17.54939,0,0,0,2.16187-8.58716,65.20568,65.20568,0,0,0-.01215-9.43805A17.52706,17.52706,0,0,1,583.54115,375.763Z" transform="translate(-430.27028 -99.98618)"/></svg>