<svg id="logo" xmlns="http://www.w3.org/2000/svg" viewBox="0 0 1365.83427 162.85932"><defs><style>.cls-1{fill:#7f7d65;}.cls-2{fill:#51251d;stroke:#51251d;stroke-miterlimit:10;stroke-width:2px;}</style></defs><g id="leaf"><path class="cls-1" d="M350.86174,421.76969s-17.211,47.03507-84.5445-8.46678C266.31724,413.30291,334.41483,367.857,350.86174,421.76969Z" transform="translate(-266.31724 -374.37112)"/><path class="cls-1" d="M422.36425,375.09348S341.12335,364.968,350.57,420.53627c0,0,36.45757,34.34181,71.79423-45.44279" transform="translate(-266.31724 -374.37112)"/><path class="cls-1" d="M349.53408,416.79944s-2.19229,84.53527-9.33526,94.89149,24.34385,11.6385,19.17-.59067-7.18811-94.38237-7.18811-94.38237Z" transform="translate(-266.31724 -374.37112)"/></g><g id="textlogo"><path class="cls-2" d="M493.60561,501.05759q-5.10132,0-5.10108-2.81641,0-2.20752,2.8169-2.208l3.04541.38086a5.594,5.594,0,0,0,2.855-.64746,4.24247,4.24247,0,0,0,1.63672-2.77832q.98877-3.57714.98974-17.20605V436.04245l-7.15625-.15234q-1.29564,0-1.29443-1.44678,0-2.81543.95166-3.69189a2.659,2.659,0,0,1,1.56055-.876h5.93847v-.228q0-31.89843,13.39893-39.66406a21.48513,21.48513,0,0,1,11.11524-2.74072,22.43937,22.43937,0,0,1,8.33642,1.17968q2.77807,1.1814,4.07275,1.90333a17.87,17.87,0,0,1,2.436,1.63671q2.58765,2.28442,2.58838,4.45411a4.3051,4.3051,0,0,1-1.44629,3.42578,4.43706,4.43706,0,0,1-2.89307,1.25586,17.78234,17.78234,0,0,1-2.28369-.11426,4.75921,4.75921,0,0,1-1.751-.647,13.13378,13.13378,0,0,1-3.54-2.93116q-1.71314-1.94091-2.28418-2.58838a5.6441,5.6441,0,0,0-1.332-1.10351,9.889,9.889,0,0,0-4.83448-.98975,5.97912,5.97912,0,0,0-4.87256,2.16944,15.91085,15.91085,0,0,0-2.7788,6.66162q-1.52344,7.23339-1.52247,26.95019v1.37012h15.98731q2.436,0,2.43652,2.05566a5.0837,5.0837,0,0,1-1.02783,3.54q-1.02759,1.10449-1.63672,1.104l-15.75928-.30469v39.35937q0,14.08595.91358,16.8252.91334,2.74072,2.16992,3.27344a8.57873,8.57873,0,0,0,3.31152.5332l7.53711-.5332q3.42554,0,3.42578,2.665,0,2.66309-5.55761,2.66406L506.5475,499.916a41.04707,41.04707,0,0,0-7.11816.57129A33.92465,33.92465,0,0,1,493.60561,501.05759Z" transform="translate(-266.31724 -374.37112)"/><path class="cls-2" d="M540.42592,466.11423a39.52687,39.52687,0,0,1,2.66455-14.313,37.52294,37.52294,0,0,1,7.53662-12.18066,34.7427,34.7427,0,0,1,26.56983-11.4961q17.66088,0,27.17871,10.58252,8.60229,9.59253,8.60254,24.89453a38.32115,38.32115,0,0,1-10.27735,26.72168q-10.50659,11.4961-26.49365,11.4961-17.66309,0-27.10254-10.582Q540.42543,481.644,540.42592,466.11423Zm12.86572-3.19824a45.77641,45.77641,0,0,0,2.05567,13.93261A31.15024,31.15024,0,0,0,560.9811,487.583a22.126,22.126,0,0,0,17.89062,8.67871,18.97491,18.97491,0,0,0,15.60694-7.61328q6.24169-7.916,6.24267-20.40234,0-16.51978-7.61328-25.88477a22.4159,22.4159,0,0,0-17.9668-8.603,18.97694,18.97694,0,0,0-15.60693,7.61328Q553.29116,449.2905,553.29164,462.916Z" transform="translate(-266.31724 -374.37112)"/><path class="cls-2" d="M624.09389,466.11423a39.52687,39.52687,0,0,1,2.66455-14.313,37.52294,37.52294,0,0,1,7.53662-12.18066,34.7427,34.7427,0,0,1,26.56983-11.4961q17.66088,0,27.17871,10.58252,8.60229,9.59253,8.60254,24.89453a38.32115,38.32115,0,0,1-10.27735,26.72168q-10.50658,11.4961-26.49365,11.4961-17.66309,0-27.10254-10.582Q624.09341,481.644,624.09389,466.11423Zm12.86572-3.19824a45.77641,45.77641,0,0,0,2.05567,13.93261,31.15024,31.15024,0,0,0,5.63379,10.73438,22.126,22.126,0,0,0,17.89062,8.67871,18.97488,18.97488,0,0,0,15.60693-7.61328q6.24171-7.916,6.24268-20.40234,0-16.51978-7.61328-25.88477a22.4159,22.4159,0,0,0-17.9668-8.603,18.97694,18.97694,0,0,0-15.60693,7.61328Q636.95913,449.2905,636.95961,462.916Z" transform="translate(-266.31724 -374.37112)"/><path class="cls-2" d="M762.34682,493.1406q-8.14673,8.67919-21.39258,8.67871-15.531,0-24.51416-10.73438-8.29906-10.04883-8.29834-25.58008a37.22829,37.22829,0,0,1,10.20166-26.41748,33.62818,33.62818,0,0,1,25.58008-10.96289q10.04883,0,16.82471,3.80664V415.86765q0-7.155-1.14209-9.32617a7.15587,7.15587,0,0,0-2.436-2.93067,12.56169,12.56169,0,0,0-4.14892-1.21826q-2.855-.457-2.855-2.36035,0-1.74977,3.88232-2.51221,9.13623-1.90211,12.56152-3.88232,4.64283-2.58765,6.24317-2.58887a1.54845,1.54845,0,0,1,1.751,1.75146,5.55488,5.55488,0,0,1-.30468,1.751,30.06089,30.06089,0,0,0-1.67481,10.42969q-.0769,6.32007-.07617,10.27783v62.35059q0,8.376.98975,10.81054a7.46012,7.46012,0,0,0,1.97949,3.16016,3.8857,3.8857,0,0,0,2.35986.72266l4.56787-.98926q2.20752,0,2.208,1.97949a2.34516,2.34516,0,0,1-.95166,1.90332,15.19389,15.19389,0,0,1-3.23584,1.751,21.75223,21.75223,0,0,0-3.80664,2.05566q-1.52343,1.06641-2.66455,1.97852-2.58911,2.20752-4.03467,2.208Q765.0104,503.18942,762.34682,493.1406Zm-1.59863-49.86573q-6.92871-9.43944-19.18506-9.44043a17.834,17.834,0,0,0-14.769,7.08008q-5.93849,7.46192-5.93848,20.40332,0,15.074,7.68945,24.1333,7.155,8.52686,17.1294,8.52637,10.12427,0,15.45459-7.15625a49.275,49.275,0,0,1-.38086-6.54687Z" transform="translate(-266.31724 -374.37112)"/><path class="cls-2" d="M837.71645,501.05759q-5.10132,0-5.10108-2.81641,0-2.20752,2.8169-2.208l3.04541.38086a5.594,5.594,0,0,0,2.855-.64746,4.24247,4.24247,0,0,0,1.63672-2.77832q.98877-3.57714.98974-17.20605V436.04245l-7.15625-.15234q-1.29564,0-1.29443-1.44678,0-2.81543.95166-3.69189a2.659,2.659,0,0,1,1.56055-.876h5.93847v-.228q0-31.89843,13.39893-39.66406a21.48511,21.48511,0,0,1,11.11523-2.74072,22.4394,22.4394,0,0,1,8.33643,1.17968q2.77807,1.1814,4.07275,1.90333a17.87,17.87,0,0,1,2.436,1.63671q2.58765,2.28442,2.58838,4.45411a4.3051,4.3051,0,0,1-1.44629,3.42578,4.43706,4.43706,0,0,1-2.89307,1.25586,17.78234,17.78234,0,0,1-2.28369-.11426,4.75921,4.75921,0,0,1-1.751-.647,13.13378,13.13378,0,0,1-3.54-2.93116q-1.71314-1.94091-2.28418-2.58838a5.6441,5.6441,0,0,0-1.332-1.10351,9.889,9.889,0,0,0-4.83448-.98975,5.97912,5.97912,0,0,0-4.87256,2.16944,15.91085,15.91085,0,0,0-2.7788,6.66162q-1.52345,7.23339-1.52247,26.95019v1.37012h15.98731q2.436,0,2.43652,2.05566a5.0837,5.0837,0,0,1-1.02783,3.54q-1.02759,1.10449-1.63672,1.104l-15.75928-.30469v39.35937q0,14.08595.91358,16.8252.91333,2.74072,2.16992,3.27344a8.57873,8.57873,0,0,0,3.31152.5332l7.53711-.5332q3.42553,0,3.42578,2.665,0,2.66309-5.55761,2.66406l-17.51026-1.1416a41.04707,41.04707,0,0,0-7.11816.57129A33.92465,33.92465,0,0,1,837.71645,501.05759Z" transform="translate(-266.31724 -374.37112)"/><path class="cls-2" d="M884.53725,466.11423a39.52687,39.52687,0,0,1,2.66455-14.313,37.52294,37.52294,0,0,1,7.53662-12.18066,34.7427,34.7427,0,0,1,26.56983-11.4961q17.66088,0,27.17822,10.58252,8.603,9.59253,8.60351,24.89453a38.31943,38.31943,0,0,1-10.27783,26.72168q-10.50658,11.4961-26.49365,11.4961-17.66309,0-27.10254-10.582Q884.53677,481.644,884.53725,466.11423ZM897.403,462.916a45.77641,45.77641,0,0,0,2.05567,13.93261,31.15024,31.15024,0,0,0,5.63379,10.73438,22.126,22.126,0,0,0,17.89062,8.67871A18.97488,18.97488,0,0,0,938.59,488.64841q6.24171-7.916,6.24268-20.40234,0-16.51978-7.61328-25.88477a22.41591,22.41591,0,0,0-17.9668-8.603,18.97694,18.97694,0,0,0-15.60693,7.61328Q897.40248,449.2905,897.403,462.916Z" transform="translate(-266.31724 -374.37112)"/><path class="cls-2" d="M971.32631,501.05759q-5.10059,0-5.10058-2.81641,0-2.20752,2.8164-2.208l3.80664.38086a5.81277,5.81277,0,0,0,2.89356-.64746,4.413,4.413,0,0,0,1.751-2.77832q1.21583-3.88329,1.21778-17.20605V453.0195q0-7.76512-.95117-9.70654a5.79647,5.79647,0,0,0-2.28418-2.66455,14.196,14.196,0,0,0-4.33985-1.18018q-3.00879-.457-3.00683-2.36035,0-1.74975,3.88281-2.51221,9.05859-1.90209,12.48535-3.80664,4.6421-2.66381,6.35645-2.66455a1.53112,1.53112,0,0,1,1.71289,1.751,4.99988,4.99988,0,0,1-.3418,1.75146q-.34278.91334-.72363,2.20752a61.991,61.991,0,0,0-.91407,9.74463q6.624-11.11449,15.98829-13.85547a20.93218,20.93218,0,0,1,6.12793-.8374,8.59462,8.59462,0,0,1,6.01464,2.436,7.0658,7.0658,0,0,1,2.626,5.17676,10.027,10.027,0,0,1-.6084,4.03515,7.784,7.784,0,0,1-1.52246,2.20752q-1.98193,1.98046-3.54,1.97949a3.33794,3.33794,0,0,1-2.39844-.79931,11.091,11.091,0,0,1-1.90332-2.93116q-1.90429-3.80566-4.26367-3.80664a10.21113,10.21113,0,0,0-4.49121,1.02784,16.65922,16.65922,0,0,0-4.26367,3.08349,34.45647,34.45647,0,0,0-7.8418,11.80029V475.7822q0,14.46533.79981,17.01562.7998,2.55177,1.97949,3.04493a8.5473,8.5473,0,0,0,3.23535.49511l6.77539-.60937a3.82152,3.82152,0,0,1,2.43653.72363,2.20185,2.20185,0,0,1,.91406,1.78906q0,2.81544-5.55762,2.81641l-16.06445-1.1416a45.13031,45.13031,0,0,0-7.34571.57129A39.42207,39.42207,0,0,1,971.32631,501.05759Z" transform="translate(-266.31724 -374.37112)"/><path class="cls-2" d="M1111.63491,435.66159q0,2.05591-2.43653,2.05567l-21.62109-.22852V479.665q0,11.80224,5.71,14.00781a12.30527,12.30527,0,0,0,8.41211-.11328,25.97539,25.97539,0,0,0,3.46484-1.71387,30.45638,30.45638,0,0,0,2.58789-1.71289,3.4205,3.4205,0,0,1,2.01758-.79882,2.134,2.134,0,0,1,1.71289,1.06543,3.66237,3.66237,0,0,1,.76172,2.13183q0,2.666-6.77637,6.39551-5.17821,2.89159-13.01757,2.89258-7.84278,0-12.25782-5.59571t-4.415-15.49218V437.26023H1071.133q-5.48143,0-5.48144-2.8169,0-2.05518,3.0459-2.81641a12.3617,12.3617,0,0,0,5.25293-2.70263,17.16657,17.16657,0,0,0,3.61621-4.416,26.36156,26.36156,0,0,0,2.24609-5.13867q.83643-2.66382,1.52246-4.87256,1.67286-5.02442,3.80664-5.02441,2.43457,0,2.43555,4.33935v17.20557l21.39258-.45654q1.5996,0,2.51269,3.80664A7.786,7.786,0,0,1,1111.63491,435.66159Z" transform="translate(-266.31724 -374.37112)"/><path class="cls-2" d="M1125.18569,501.05759q-5.02442,0-5.02442-2.81641,0-2.20752,2.81739-2.208l3.80566.38086a5.81273,5.81273,0,0,0,2.89355-.64746,4.413,4.413,0,0,0,1.751-2.77832q1.21728-3.88329,1.21777-17.20605V415.94382q0-7.23194-1.1416-9.40234a7.16019,7.16019,0,0,0-2.43652-2.93067,12.55814,12.55814,0,0,0-4.14844-1.21826q-2.855-.457-2.85547-2.36035,0-1.74977,3.88282-2.51221,9.05859-1.90211,12.48535-3.80615,4.64355-2.66455,6.35742-2.665a1.53166,1.53166,0,0,1,1.71289,1.75146,5.5549,5.5549,0,0,1-.30469,1.751,30.04937,30.04937,0,0,0-1.6748,10.42969q-.07764,6.32007-.07617,10.354v29.69092q6.31786-12.10473,17.89062-15.75928a24.38482,24.38482,0,0,1,7.30859-1.14209q11.11377,0,17.20508,6.47119,6.09083,6.47169,6.09082,20.17481V475.7822q0,13.32421.91309,16.33008.91405,3.00879,2.05566,3.65429a5.80768,5.80768,0,0,0,2.89356.64746l3.80664-.38086q2.81542,0,2.8164,2.208,0,2.81544-5.10058,2.81641a36.033,36.033,0,0,1-6.167-.57031,40.98676,40.98676,0,0,0-7.042-.57129,43.00724,43.00724,0,0,0-7.15625.57129,38.04321,38.04321,0,0,1-6.28027.57031q-5.10205,0-5.10156-2.81641,0-2.20752,2.81738-2.208l3.80664.38086a5.8063,5.8063,0,0,0,2.89258-.64746,4.669,4.669,0,0,0,1.82715-2.77832q1.21728-3.80566,1.21777-17.20605V458.42478q0-21.69728-15.9873-21.69727-11.57228,0-17.58594,12.02881a34.85611,34.85611,0,0,0-3.12109,9.897V475.7822q0,13.32421.91308,16.33008.91407,3.00879,2.05567,3.65429a5.80626,5.80626,0,0,0,2.89257.64746l3.80664-.38086q2.8169,0,2.81739,2.208,0,2.81544-5.02442,2.81641a33.4777,33.4777,0,0,1-6.01464-.57031,40.07583,40.07583,0,0,0-7.15625-.57129,43.38026,43.38026,0,0,0-7.34668.57129A36.70813,36.70813,0,0,1,1125.18569,501.05759Z" transform="translate(-266.31724 -374.37112)"/><path class="cls-2" d="M1213.26967,466.11423a39.52637,39.52637,0,0,1,2.66406-14.313,37.54086,37.54086,0,0,1,7.53711-12.18066,34.74313,34.74313,0,0,1,26.56934-11.4961q17.66161,0,27.17871,10.58252,8.603,9.59253,8.60352,24.89453a38.31773,38.31773,0,0,1-10.27832,26.72168q-10.50587,11.4961-26.49317,11.4961-17.66308,0-27.10254-10.582Q1213.26919,481.644,1213.26967,466.11423Zm12.86621-3.19824a45.74625,45.74625,0,0,0,2.05567,13.93261,31.149,31.149,0,0,0,5.63281,10.73438,22.1278,22.1278,0,0,0,17.8916,8.67871,18.974,18.974,0,0,0,15.60645-7.61328q6.24169-7.916,6.24218-20.40234,0-16.51978-7.6123-25.88477a22.41725,22.41725,0,0,0-17.9668-8.603,18.9772,18.9772,0,0,0-15.60742,7.61328Q1226.1349,449.2905,1226.13588,462.916Z" transform="translate(-266.31724 -374.37112)"/><path class="cls-2" d="M1373.82924,489.86716q2.20752,0,2.208,1.97851a2.27193,2.27193,0,0,1-.95117,1.82715,12.08839,12.08839,0,0,1-2.93164,1.56153q-1.98048.79833-3.1211,1.332-1.14258.53321-2.13183,1.06543a36.5237,36.5237,0,0,0-3.502,2.13183q-3.19774,2.05518-4.37793,2.05567a4.05573,4.05573,0,0,1-2.13085-.57129,6.54362,6.54362,0,0,1-1.94141-2.09375q-2.28369-3.57716-2.43652-10.50586a28.26364,28.26364,0,0,1-16.59668,11.64844,31.13031,31.13031,0,0,1-7.3086.76074,28.60191,28.60191,0,0,1-8.64062-1.4082,18.55485,18.55485,0,0,1-7.65137-4.60547q-6.85107-6.624-6.85156-20.09864V453.0195q0-7.30884-.875-9.5166a6.80639,6.80639,0,0,0-1.90332-2.96875,6.43679,6.43679,0,0,0-2.70313-1.06592q-3.42627-.76024-3.42578-2.5122,0-1.90211,3.88281-2.66455,8.60157-1.7505,11.41993-3.42627,4.03418-2.28369,5.55664-2.2837,1.52343,0,1.52343,1.751a4.56067,4.56067,0,0,1-.38086,1.751,30.68724,30.68724,0,0,0-1.59863,10.20166q-.07764,6.09154-.07617,10.12549v19.48877q0,15.83642,10.20117,19.33789a19.36526,19.36526,0,0,0,6.01465.98925,20.98546,20.98546,0,0,0,5.5957-.72265,20.28622,20.28622,0,0,0,5.13867-2.2461,23.738,23.738,0,0,0,8.60254-10.0498l.22852-27.86328q0-6.47022-1.1416-8.33643a5.976,5.976,0,0,0-2.5127-2.47412,18.35982,18.35982,0,0,0-4.30176-1.06592q-2.93115-.457-2.93066-2.436,0-1.75049,3.69238-2.5127a51.64358,51.64358,0,0,0,6.81348-1.86523q3.12157-1.10229,5.51953-2.09326,2.39794-.98877,3.959-1.71289a6.42735,6.42735,0,0,1,2.16992-.72364,1.54811,1.54811,0,0,1,1.751,1.751,4.56479,4.56479,0,0,1-.38086,1.75146,31.46568,31.46568,0,0,0-1.59863,10.42969q-.07764,6.32007-.07617,10.354V480.959q0,5.86377.98926,7.46093a4.80635,4.80635,0,0,0,4.33984,2.5127Z" transform="translate(-266.31724 -374.37112)"/><path class="cls-2" d="M1406.4894,475.40232q-4.415,3.731-4.415,4.87207a3.61577,3.61577,0,0,0,.57031,2.01757,6.11265,6.11265,0,0,0,2.47461,1.78907q4.34034,1.90283,14.88379,3.083a107.35745,107.35745,0,0,1,17.624,3.23536,42.916,42.916,0,0,1,11.4961,4.94921q8.373,5.48145,8.374,15.22559,0,10.4297-11.03906,18.043-11.11524,7.61279-26.34082,7.61328-15.30323,0-24.89453-6.24316-9.66944-6.31934-9.66895-15.98731,0-12.33252,16.292-18.65137-8.90771-2.66454-10.42968-6.85253a6.91181,6.91181,0,0,1-.53321-2.66407q0-3.80566,10.81055-12.79-11.1167-7.08105-11.11523-20.47949a22.5098,22.5098,0,0,1,7.99414-17.20556q8.22216-7.23122,21.3164-7.23243a32.26668,32.26668,0,0,1,11.26758,2.05567,28.32216,28.32216,0,0,1,9.43945-11.87647,18.13221,18.13221,0,0,1,10.73536-3.80664q6.31786,0,8.75488,4.644a6.32732,6.32732,0,0,1,.76074,3.12159,4.07268,4.07268,0,0,1-1.86523,3.19726,5.88033,5.88033,0,0,1-3.54,1.44678,7.43343,7.43343,0,0,1-4.87207-1.44678,8.655,8.655,0,0,0-5.48145-2.35986,7.43878,7.43878,0,0,0-5.21484,2.55029,16,16,0,0,0-3.84473,6.96582q11.95165,7.30884,11.95215,20.17481,0,10.20264-8.29785,17.35742-8.60449,7.30957-21.01172,7.30859A33.29792,33.29792,0,0,1,1406.4894,475.40232Zm1.44726,21.46875q-10.812,4.188-10.81054,14.61718,0,6.7749,7.30761,11.876,7.76661,5.40528,19.56641,5.40527,17.20313,0,21.62109-7.53711a11.758,11.758,0,0,0,1.59864-6.166,13.91789,13.91789,0,0,0-1.14258-5.93848,10.69819,10.69819,0,0,0-4.11035-4.33984q-6.01466-3.95947-21.0127-5.86133A97.94982,97.94982,0,0,1,1407.93666,496.87107Zm.98926-30.49024a17.13611,17.13611,0,0,0,5.74805,4.33887,15.23228,15.23228,0,0,0,6.39453,1.48437,14.11328,14.11328,0,0,0,5.63379-1.06543,11.73386,11.73386,0,0,0,4.30176-3.19726,16.91158,16.91158,0,0,0,3.88281-11.34375,39.41668,39.41668,0,0,0-1.18066-10.77246,19.41509,19.41509,0,0,0-3.46387-6.814q-4.64357-5.70922-12.79-5.70947-9.36328,0-12.94238,9.66846a23.4414,23.4414,0,0,0-1.06543,7.65136,25.796,25.796,0,0,0,1.48437,8.75489A21.36508,21.36508,0,0,0,1408.92592,466.38083Z" transform="translate(-266.31724 -374.37112)"/><path class="cls-2" d="M1469.22084,501.05759q-5.02441,0-5.02441-2.81641,0-2.20752,2.81738-2.208l3.80567.38086a5.81276,5.81276,0,0,0,2.89355-.64746,4.413,4.413,0,0,0,1.751-2.77832q1.21728-3.88329,1.21777-17.20605V415.94382q0-7.23194-1.1416-9.40234a7.16019,7.16019,0,0,0-2.43652-2.93067,12.5583,12.5583,0,0,0-4.14844-1.21826q-2.855-.457-2.85547-2.36035,0-1.74977,3.88281-2.51221,9.05859-1.90211,12.48535-3.80615,4.64356-2.66455,6.35743-2.665a1.53166,1.53166,0,0,1,1.71289,1.75146,5.5549,5.5549,0,0,1-.30469,1.751,30.04935,30.04935,0,0,0-1.67481,10.42969q-.07762,6.32007-.07617,10.354v29.69092q6.31788-12.10473,17.89063-15.75928a24.38477,24.38477,0,0,1,7.30859-1.14209q11.11377,0,17.20508,6.47119,6.09082,6.47169,6.09082,20.17481V475.7822q0,13.32421.91309,16.33008.91406,3.00879,2.05566,3.65429a5.80766,5.80766,0,0,0,2.89355.64746l3.80664-.38086q2.81544,0,2.81641,2.208,0,2.81544-5.10058,2.81641a36.03307,36.03307,0,0,1-6.167-.57031,40.98656,40.98656,0,0,0-7.042-.57129,43.00715,43.00715,0,0,0-7.15625.57129,38.0434,38.0434,0,0,1-6.28027.57031q-5.10206,0-5.10157-2.81641,0-2.20752,2.81739-2.208l3.80664.38086a5.80633,5.80633,0,0,0,2.89258-.64746,4.669,4.669,0,0,0,1.82714-2.77832q1.21729-3.80566,1.21778-17.20605V458.42478q0-21.69728-15.98731-21.69727-11.57226,0-17.58593,12.02881a34.85611,34.85611,0,0,0-3.1211,9.897V475.7822q0,13.32421.91309,16.33008.91406,3.00879,2.05566,3.65429a5.8063,5.8063,0,0,0,2.89258.64746l3.80664-.38086q2.8169,0,2.81738,2.208,0,2.81544-5.02441,2.81641a33.47781,33.47781,0,0,1-6.01465-.57031,40.07575,40.07575,0,0,0-7.15625-.57129,43.38035,43.38035,0,0,0-7.34668.57129A36.70813,36.70813,0,0,1,1469.22084,501.05759Z" transform="translate(-266.31724 -374.37112)"/><path class="cls-2" d="M1600.39467,435.66159q0,2.05591-2.43652,2.05567l-21.6211-.22852V479.665q0,11.80224,5.71,14.00781a12.30525,12.30525,0,0,0,8.4121-.11328,25.97494,25.97494,0,0,0,3.46485-1.71387,30.458,30.458,0,0,0,2.58789-1.71289,3.42048,3.42048,0,0,1,2.01758-.79882,2.134,2.134,0,0,1,1.71289,1.06543,3.66244,3.66244,0,0,1,.76172,2.13183q0,2.666-6.77637,6.39551-5.17823,2.89159-13.01758,2.89258-7.84276,0-12.25781-5.59571t-4.415-15.49218V437.26023h-4.64453q-5.48145,0-5.48145-2.8169,0-2.05518,3.0459-2.81641a12.36158,12.36158,0,0,0,5.25293-2.70263,17.16636,17.16636,0,0,0,3.61621-4.416,26.361,26.361,0,0,0,2.2461-5.13867q.83641-2.66382,1.52246-4.87256,1.67285-5.02442,3.80664-5.02441,2.43456,0,2.43554,4.33935v17.20557l21.39258-.45654q1.59961,0,2.5127,3.80664A7.78575,7.78575,0,0,1,1600.39467,435.66159Z" transform="translate(-266.31724 -374.37112)"/><path class="cls-2" d="M1622.24428,501.81931a8.17186,8.17186,0,0,1-6.31933-2.47461,7.73609,7.73609,0,0,1-2.28321-5.3291,10.77872,10.77872,0,0,1,.72266-4.415,8.11544,8.11544,0,0,1,2.01758-2.70313,9.091,9.091,0,0,1,6.35644-2.35937,8.02949,8.02949,0,0,1,6.09082,2.43554,7.43459,7.43459,0,0,1,2.32227,5.17676,12.18249,12.18249,0,0,1-.60938,4.30176,8.00911,8.00911,0,0,1-1.82715,2.77832A8.46962,8.46962,0,0,1,1622.24428,501.81931Z" transform="translate(-266.31724 -374.37112)"/></g></svg>