<svg id="logo" xmlns="http://www.w3.org/2000/svg" viewBox="0 0 1144.64697 150.98779"><defs><style>.cls-1{fill:#51251d;stroke:#51251d;stroke-miterlimit:10;stroke-width:2px;}</style></defs><g id="textlogo"><path class="cls-1" d="M453.50729,503.47838q-5.10132,0-5.10108-2.81641,0-2.20752,2.8169-2.208l3.04541.38086a5.594,5.594,0,0,0,2.855-.64747,4.24247,4.24247,0,0,0,1.63672-2.77832q.98877-3.57714.98974-17.20605V438.46324l-7.15625-.15234q-1.29566,0-1.29443-1.44678,0-2.81543.95166-3.69189a2.659,2.659,0,0,1,1.56055-.876H459.75v-.228q0-31.89843,13.39893-39.66406a21.48509,21.48509,0,0,1,11.11523-2.74072,22.43919,22.43919,0,0,1,8.33643,1.17969q2.77808,1.18139,4.07275,1.90332a17.87,17.87,0,0,1,2.436,1.63671q2.58765,2.28443,2.58838,4.45411a4.30508,4.30508,0,0,1-1.44629,3.42578,4.43706,4.43706,0,0,1-2.89307,1.25586,17.78234,17.78234,0,0,1-2.28369-.11426,4.75913,4.75913,0,0,1-1.751-.647,13.13372,13.13372,0,0,1-3.54-2.93116q-1.71314-1.94091-2.28418-2.58837a5.644,5.644,0,0,0-1.332-1.10352,9.88889,9.88889,0,0,0-4.83447-.98975,5.97912,5.97912,0,0,0-4.87256,2.16944,15.91085,15.91085,0,0,0-2.77881,6.66162q-1.52343,7.23339-1.52246,26.95019v1.37012h15.98731q2.436,0,2.43652,2.05566a5.0837,5.0837,0,0,1-1.02783,3.54q-1.02759,1.10449-1.63672,1.104l-15.75928-.30469v39.35938q0,14.08593.91358,16.82519.91332,2.74073,2.16992,3.27344a8.57873,8.57873,0,0,0,3.31152.5332l7.53711-.5332q3.42553,0,3.42578,2.665,0,2.66309-5.55761,2.66406l-17.51026-1.1416a41.04707,41.04707,0,0,0-7.11816.57129A33.92465,33.92465,0,0,1,453.50729,503.47838Z" transform="translate(-447.40621 -388.66344)"/><path class="cls-1" d="M500.3276,468.535a39.52687,39.52687,0,0,1,2.66455-14.313,37.52294,37.52294,0,0,1,7.53662-12.18066,34.7427,34.7427,0,0,1,26.56983-11.4961q17.66088,0,27.17871,10.58252,8.60229,9.59253,8.60254,24.89454A38.32114,38.32114,0,0,1,562.6025,492.744q-10.50658,11.4961-26.49365,11.4961-17.66309,0-27.10254-10.582Q500.32712,484.06481,500.3276,468.535Zm12.86572-3.19824A45.77652,45.77652,0,0,0,515.249,479.2694a31.15028,31.15028,0,0,0,5.63379,10.73437,22.126,22.126,0,0,0,17.89062,8.67871,18.97491,18.97491,0,0,0,15.60694-7.61328q6.24169-7.916,6.24267-20.40234,0-16.51979-7.61328-25.88477a22.4159,22.4159,0,0,0-17.9668-8.603,18.97694,18.97694,0,0,0-15.60693,7.61328Q513.19284,451.71129,513.19332,465.33678Z" transform="translate(-447.40621 -388.66344)"/><path class="cls-1" d="M583.99557,468.535a39.52687,39.52687,0,0,1,2.66455-14.313,37.52294,37.52294,0,0,1,7.53662-12.18066,34.7427,34.7427,0,0,1,26.56983-11.4961q17.66088,0,27.17871,10.58252,8.60229,9.59253,8.60254,24.89454A38.32119,38.32119,0,0,1,646.27047,492.744q-10.50659,11.4961-26.49365,11.4961-17.66309,0-27.10254-10.582Q583.99509,484.06481,583.99557,468.535Zm12.86572-3.19824A45.77652,45.77652,0,0,0,598.917,479.2694a31.15011,31.15011,0,0,0,5.63379,10.73437,22.126,22.126,0,0,0,17.89062,8.67871,18.97488,18.97488,0,0,0,15.60693-7.61328q6.24171-7.916,6.24268-20.40234,0-16.51979-7.61328-25.88477a22.41591,22.41591,0,0,0-17.9668-8.603,18.97694,18.97694,0,0,0-15.60693,7.61328Q596.86081,451.71129,596.86129,465.33678Z" transform="translate(-447.40621 -388.66344)"/><path class="cls-1" d="M722.2485,495.56139q-8.14672,8.67919-21.39258,8.67871-15.531,0-24.51416-10.73438-8.29907-10.04883-8.29834-25.58007a37.2283,37.2283,0,0,1,10.20166-26.41749,33.62818,33.62818,0,0,1,25.58008-10.96289q10.04883,0,16.82471,3.80664V418.28844q0-7.155-1.14209-9.32617a7.15587,7.15587,0,0,0-2.436-2.93067,12.56169,12.56169,0,0,0-4.14892-1.21826q-2.855-.457-2.855-2.36035,0-1.74975,3.88232-2.51221,9.13623-1.90209,12.56152-3.88232,4.64283-2.58765,6.24317-2.58887a1.54846,1.54846,0,0,1,1.751,1.75147,5.55515,5.55515,0,0,1-.30468,1.751,30.06089,30.06089,0,0,0-1.67481,10.42969q-.07691,6.32007-.07617,10.27783v62.35059q0,8.376.98975,10.81054a7.46012,7.46012,0,0,0,1.97949,3.16016,3.8857,3.8857,0,0,0,2.35986.72266l4.56787-.98926q2.20752,0,2.208,1.97949a2.34514,2.34514,0,0,1-.95166,1.90332,15.19389,15.19389,0,0,1-3.23584,1.751,21.75223,21.75223,0,0,0-3.80664,2.05566q-1.52344,1.06641-2.66455,1.97852-2.58912,2.20752-4.03467,2.208Q724.91208,505.61022,722.2485,495.56139Zm-1.59863-49.86573q-6.92871-9.43944-19.18506-9.44042a17.83405,17.83405,0,0,0-14.76905,7.08007q-5.93847,7.46191-5.93847,20.40332,0,15.074,7.68945,24.1333,7.155,8.52686,17.1294,8.52637,10.12427,0,15.45459-7.15625a49.275,49.275,0,0,1-.38086-6.54687Z" transform="translate(-447.40621 -388.66344)"/><path class="cls-1" d="M797.61813,503.47838q-5.10132,0-5.10108-2.81641,0-2.20752,2.8169-2.208l3.04541.38086a5.594,5.594,0,0,0,2.855-.64747,4.24247,4.24247,0,0,0,1.63672-2.77832q.98877-3.57714.98974-17.20605V438.46324l-7.15625-.15234q-1.29566,0-1.29443-1.44678,0-2.81543.95166-3.69189a2.659,2.659,0,0,1,1.56055-.876h5.93847v-.228q0-31.89843,13.39893-39.66406a21.48509,21.48509,0,0,1,11.11523-2.74072,22.43919,22.43919,0,0,1,8.33643,1.17969q2.77807,1.18139,4.07275,1.90332a17.87,17.87,0,0,1,2.436,1.63671q2.58765,2.28443,2.58838,4.45411a4.30508,4.30508,0,0,1-1.44629,3.42578,4.43706,4.43706,0,0,1-2.89307,1.25586,17.78234,17.78234,0,0,1-2.28369-.11426,4.75913,4.75913,0,0,1-1.751-.647,13.13372,13.13372,0,0,1-3.54-2.93116q-1.71313-1.94091-2.28418-2.58837a5.644,5.644,0,0,0-1.332-1.10352,9.88889,9.88889,0,0,0-4.83447-.98975,5.97912,5.97912,0,0,0-4.87256,2.16944,15.91085,15.91085,0,0,0-2.77881,6.66162q-1.52343,7.23339-1.52246,26.95019v1.37012h15.98731q2.436,0,2.43652,2.05566a5.0837,5.0837,0,0,1-1.02783,3.54q-1.02759,1.10449-1.63672,1.104L816.27,438.69127v39.35938q0,14.08593.91358,16.82519.91332,2.74073,2.16992,3.27344a8.57873,8.57873,0,0,0,3.31152.5332l7.53711-.5332q3.42554,0,3.42578,2.665,0,2.66309-5.55761,2.66406L810.56,502.33678a41.04707,41.04707,0,0,0-7.11816.57129A33.92465,33.92465,0,0,1,797.61813,503.47838Z" transform="translate(-447.40621 -388.66344)"/><path class="cls-1" d="M844.43893,468.535a39.52687,39.52687,0,0,1,2.66455-14.313,37.52294,37.52294,0,0,1,7.53662-12.18066,34.7427,34.7427,0,0,1,26.56983-11.4961q17.66088,0,27.17822,10.58252,8.603,9.59253,8.60351,24.89454A38.31943,38.31943,0,0,1,906.71383,492.744q-10.50659,11.4961-26.49365,11.4961-17.66309,0-27.10254-10.582Q844.43845,484.06481,844.43893,468.535Zm12.86572-3.19824a45.77652,45.77652,0,0,0,2.05567,13.93262,31.15027,31.15027,0,0,0,5.63378,10.73437,22.126,22.126,0,0,0,17.89063,8.67871,18.97488,18.97488,0,0,0,15.60693-7.61328q6.24171-7.916,6.24268-20.40234,0-16.51979-7.61328-25.88477a22.41591,22.41591,0,0,0-17.9668-8.603,18.97694,18.97694,0,0,0-15.60693,7.61328Q857.30417,451.71129,857.30465,465.33678Z" transform="translate(-447.40621 -388.66344)"/><path class="cls-1" d="M931.228,503.47838q-5.10059,0-5.10058-2.81641,0-2.20752,2.8164-2.208l3.80664.38086a5.8128,5.8128,0,0,0,2.89356-.64747,4.413,4.413,0,0,0,1.751-2.77832q1.21582-3.88329,1.21778-17.20605v-22.7627q0-7.76513-.95117-9.70654a5.79652,5.79652,0,0,0-2.28418-2.66455,14.19613,14.19613,0,0,0-4.33985-1.18018q-3.00879-.457-3.00683-2.36035,0-1.74975,3.88281-2.5122,9.05859-1.90211,12.48535-3.80664,4.64209-2.66382,6.35645-2.66456a1.53112,1.53112,0,0,1,1.71289,1.751,5,5,0,0,1-.3418,1.75147q-.34278.91332-.72363,2.20752a61.99072,61.99072,0,0,0-.91407,9.74462q6.624-11.11449,15.98828-13.85546a20.93193,20.93193,0,0,1,6.12793-.83741,8.59462,8.59462,0,0,1,6.01465,2.436,7.0658,7.0658,0,0,1,2.626,5.17676,10.02714,10.02714,0,0,1-.6084,4.03515,7.78408,7.78408,0,0,1-1.52246,2.20752q-1.98193,1.98046-3.54,1.97949a3.33794,3.33794,0,0,1-2.39844-.79931,11.09086,11.09086,0,0,1-1.90332-2.93115q-1.9043-3.80567-4.26367-3.80665a10.21113,10.21113,0,0,0-4.49121,1.02784,16.65922,16.65922,0,0,0-4.26367,3.08349,34.45642,34.45642,0,0,0-7.8418,11.8003V478.203q0,14.46533.79981,17.01562.7998,2.55177,1.97949,3.04493a8.5473,8.5473,0,0,0,3.23535.49511l6.77539-.60937a3.82153,3.82153,0,0,1,2.43652.72363,2.20183,2.20183,0,0,1,.91407,1.78906q0,2.81544-5.55762,2.81641l-16.06445-1.1416a45.13031,45.13031,0,0,0-7.34571.57129A39.42207,39.42207,0,0,1,931.228,503.47838Z" transform="translate(-447.40621 -388.66344)"/><path class="cls-1" d="M1071.53659,438.08238q0,2.05591-2.43653,2.05567l-21.62109-.22852V482.0858q0,11.80226,5.71,14.00781a12.30527,12.30527,0,0,0,8.41211-.11328,25.97661,25.97661,0,0,0,3.46484-1.71386,30.4612,30.4612,0,0,0,2.58789-1.71289,3.42045,3.42045,0,0,1,2.01758-.79883,2.134,2.134,0,0,1,1.71289,1.06543,3.66237,3.66237,0,0,1,.76172,2.13183q0,2.666-6.77637,6.39551-5.17823,2.8916-13.01758,2.89258-7.84277,0-12.25781-5.5957t-4.415-15.49219V439.681h-4.64453q-5.48144,0-5.48144-2.8169,0-2.05518,3.0459-2.8164a12.36173,12.36173,0,0,0,5.25292-2.70264,17.16627,17.16627,0,0,0,3.61622-4.416,26.361,26.361,0,0,0,2.24609-5.13867q.83643-2.66382,1.52246-4.87256,1.67285-5.02441,3.80664-5.02441,2.43457,0,2.43555,4.33935v17.20557l21.39258-.45654q1.5996,0,2.51269,3.80664A7.786,7.786,0,0,1,1071.53659,438.08238Z" transform="translate(-447.40621 -388.66344)"/><path class="cls-1" d="M1085.08737,503.47838q-5.02442,0-5.02442-2.81641,0-2.20752,2.81739-2.208l3.80566.38086a5.81273,5.81273,0,0,0,2.89355-.64747,4.413,4.413,0,0,0,1.751-2.77832q1.21728-3.88329,1.21777-17.20605V418.36461q0-7.23194-1.1416-9.40234a7.16019,7.16019,0,0,0-2.43652-2.93067,12.55814,12.55814,0,0,0-4.14844-1.21826q-2.855-.457-2.85547-2.36035,0-1.74975,3.88282-2.51221,9.05859-1.90209,12.48535-3.80615,4.64355-2.66456,6.35742-2.665a1.53166,1.53166,0,0,1,1.71289,1.75147,5.55489,5.55489,0,0,1-.30469,1.751,30.04937,30.04937,0,0,0-1.6748,10.42969q-.07764,6.32007-.07617,10.354v29.69092q6.31786-12.10473,17.89062-15.75928a24.38482,24.38482,0,0,1,7.30859-1.14209q11.11377,0,17.20508,6.4712,6.09082,6.47167,6.09082,20.1748V478.203q0,13.32421.91309,16.33008.91405,3.00879,2.05566,3.65429a5.80767,5.80767,0,0,0,2.89356.64747l3.80664-.38086q2.81543,0,2.8164,2.208,0,2.81544-5.10058,2.81641a36.033,36.033,0,0,1-6.167-.57031,40.98676,40.98676,0,0,0-7.042-.57129,43.00724,43.00724,0,0,0-7.15625.57129,38.0434,38.0434,0,0,1-6.28027.57031q-5.10206,0-5.10156-2.81641,0-2.20752,2.81738-2.208l3.80664.38086a5.8063,5.8063,0,0,0,2.89258-.64747,4.669,4.669,0,0,0,1.82715-2.77832q1.21728-3.80566,1.21777-17.20605V460.84557q0-21.69728-15.9873-21.69727-11.57228,0-17.58594,12.02881a34.85579,34.85579,0,0,0-3.12109,9.897V478.203q0,13.32421.91308,16.33008.91407,3.00879,2.05567,3.65429a5.80623,5.80623,0,0,0,2.89257.64747l3.80664-.38086q2.8169,0,2.81739,2.208,0,2.81544-5.02442,2.81641a33.47789,33.47789,0,0,1-6.01465-.57031,40.07567,40.07567,0,0,0-7.15625-.57129,43.38035,43.38035,0,0,0-7.34668.57129A36.70792,36.70792,0,0,1,1085.08737,503.47838Z" transform="translate(-447.40621 -388.66344)"/><path class="cls-1" d="M1173.17135,468.535a39.52637,39.52637,0,0,1,2.66406-14.313,37.54086,37.54086,0,0,1,7.53711-12.18066,34.74313,34.74313,0,0,1,26.56934-11.4961q17.66161,0,27.17871,10.58252,8.603,9.59253,8.60352,24.89454a38.31768,38.31768,0,0,1-10.27833,26.72167q-10.50585,11.4961-26.49316,11.4961-17.66309,0-27.10254-10.582Q1173.17087,484.06481,1173.17135,468.535Zm12.86621-3.19824a45.74636,45.74636,0,0,0,2.05567,13.93262,31.14909,31.14909,0,0,0,5.63281,10.73437,22.1278,22.1278,0,0,0,17.8916,8.67871,18.974,18.974,0,0,0,15.60645-7.61328q6.24169-7.916,6.24218-20.40234,0-16.51979-7.6123-25.88477a22.41725,22.41725,0,0,0-17.9668-8.603,18.9772,18.9772,0,0,0-15.60742,7.61328Q1186.03658,451.71129,1186.03756,465.33678Z" transform="translate(-447.40621 -388.66344)"/><path class="cls-1" d="M1333.73092,492.288q2.20752,0,2.208,1.97852a2.27192,2.27192,0,0,1-.95117,1.82714,12.08858,12.08858,0,0,1-2.93164,1.56153q-1.98048.79833-3.1211,1.332-1.14258.53321-2.13183,1.06543a36.5237,36.5237,0,0,0-3.502,2.13183q-3.19774,2.05518-4.37793,2.05567a4.05577,4.05577,0,0,1-2.13086-.57129,6.54372,6.54372,0,0,1-1.9414-2.09375q-2.28369-3.57716-2.43653-10.50586a28.26359,28.26359,0,0,1-16.59667,11.64844,31.13031,31.13031,0,0,1-7.3086.76074,28.60191,28.60191,0,0,1-8.64062-1.4082,18.55485,18.55485,0,0,1-7.65137-4.60547q-6.85107-6.624-6.85156-20.09863V455.44029q0-7.30882-.875-9.5166a6.80639,6.80639,0,0,0-1.90332-2.96875,6.43679,6.43679,0,0,0-2.70313-1.06592q-3.42627-.76025-3.42578-2.5122,0-1.90211,3.88281-2.66455,8.60157-1.7505,11.41992-3.42627,4.03419-2.28369,5.55665-2.28369,1.52343,0,1.52343,1.751a4.56067,4.56067,0,0,1-.38086,1.751,30.68724,30.68724,0,0,0-1.59863,10.20166q-.07764,6.09154-.07617,10.12549v19.48877q0,15.83642,10.20117,19.33789a19.36528,19.36528,0,0,0,6.01465.98926,20.98546,20.98546,0,0,0,5.5957-.72266,20.28653,20.28653,0,0,0,5.13867-2.24609,23.738,23.738,0,0,0,8.60254-10.04981l.22852-27.86328q0-6.47022-1.1416-8.33643a5.976,5.976,0,0,0-2.5127-2.47412,18.35982,18.35982,0,0,0-4.30176-1.06592q-2.93115-.457-2.93066-2.436,0-1.75049,3.69238-2.5127a51.644,51.644,0,0,0,6.81348-1.86523q3.12157-1.10229,5.51953-2.09326,2.39794-.98877,3.959-1.71289a6.42745,6.42745,0,0,1,2.16993-.72364,1.54811,1.54811,0,0,1,1.751,1.751,4.56488,4.56488,0,0,1-.38086,1.75147,31.46557,31.46557,0,0,0-1.59863,10.42968q-.07764,6.32007-.07617,10.354v28.54834q0,5.86377.98926,7.46093a4.80635,4.80635,0,0,0,4.33984,2.5127Z" transform="translate(-447.40621 -388.66344)"/><path class="cls-1" d="M1366.39108,477.82311q-4.415,3.731-4.415,4.87207a3.61577,3.61577,0,0,0,.57031,2.01757,6.11265,6.11265,0,0,0,2.47461,1.78907q4.34032,1.90283,14.88379,3.083a107.3565,107.3565,0,0,1,17.624,3.23535,42.91572,42.91572,0,0,1,11.4961,4.94922q8.373,5.48144,8.374,15.22558,0,10.42969-11.03906,18.043-11.11524,7.6128-26.34082,7.61328-15.30323,0-24.89453-6.24316-9.66943-6.31933-9.66895-15.98731,0-12.33252,16.292-18.65136-8.9077-2.66456-10.42968-6.85254a6.91181,6.91181,0,0,1-.53321-2.66407q0-3.80566,10.81055-12.79-11.11669-7.08105-11.11524-20.47949a22.50985,22.50985,0,0,1,7.99415-17.20556q8.22216-7.2312,21.3164-7.23243a32.26673,32.26673,0,0,1,11.26758,2.05567,28.32216,28.32216,0,0,1,9.43945-11.87647,18.1322,18.1322,0,0,1,10.73535-3.80664q6.31788,0,8.75489,4.644a6.32728,6.32728,0,0,1,.76074,3.12158,4.07266,4.07266,0,0,1-1.86524,3.19726,5.8803,5.8803,0,0,1-3.54,1.44678,7.43343,7.43343,0,0,1-4.87207-1.44678,8.655,8.655,0,0,0-5.48145-2.35986,7.43878,7.43878,0,0,0-5.21484,2.55029,15.99985,15.99985,0,0,0-3.84473,6.96582q11.95165,7.30884,11.95215,20.17481,0,10.20264-8.29785,17.35742-8.6045,7.30957-21.01172,7.30859A33.29792,33.29792,0,0,1,1366.39108,477.82311Zm1.44726,21.46875q-10.812,4.188-10.81054,14.61718,0,6.77491,7.30761,11.876,7.76661,5.40528,19.56641,5.40527,17.20313,0,21.62109-7.53711a11.758,11.758,0,0,0,1.59864-6.166,13.91792,13.91792,0,0,0-1.14258-5.93848,10.69819,10.69819,0,0,0-4.11035-4.33984q-6.01465-3.95947-21.0127-5.86133A97.94951,97.94951,0,0,1,1367.83834,499.29186Zm.98926-30.49024a17.13588,17.13588,0,0,0,5.748,4.33887,15.23228,15.23228,0,0,0,6.39453,1.48437,14.11328,14.11328,0,0,0,5.63379-1.06543,11.73386,11.73386,0,0,0,4.30176-3.19726,16.91156,16.91156,0,0,0,3.88281-11.34375,39.41623,39.41623,0,0,0-1.18067-10.77246,19.41507,19.41507,0,0,0-3.46386-6.814q-4.64357-5.70923-12.79-5.70947-9.36328,0-12.94238,9.66846a23.4414,23.4414,0,0,0-1.06543,7.65136,25.796,25.796,0,0,0,1.48437,8.75489A21.36491,21.36491,0,0,0,1368.8276,468.80162Z" transform="translate(-447.40621 -388.66344)"/><path class="cls-1" d="M1429.12252,503.47838q-5.02441,0-5.02441-2.81641,0-2.20752,2.81738-2.208l3.80567.38086a5.81276,5.81276,0,0,0,2.89355-.64747,4.413,4.413,0,0,0,1.751-2.77832q1.21728-3.88329,1.21777-17.20605V418.36461q0-7.23194-1.1416-9.40234a7.16019,7.16019,0,0,0-2.43652-2.93067,12.5583,12.5583,0,0,0-4.14844-1.21826q-2.855-.457-2.85547-2.36035,0-1.74975,3.88281-2.51221,9.05859-1.90209,12.48535-3.80615,4.64357-2.66456,6.35742-2.665a1.53167,1.53167,0,0,1,1.7129,1.75147,5.55489,5.55489,0,0,1-.30469,1.751,30.04935,30.04935,0,0,0-1.67481,10.42969q-.07762,6.32007-.07617,10.354v29.69092q6.31788-12.10473,17.89063-15.75928a24.38477,24.38477,0,0,1,7.30859-1.14209q11.11377,0,17.20508,6.4712,6.09082,6.47167,6.09082,20.1748V478.203q0,13.32421.91308,16.33008.91407,3.00879,2.05567,3.65429a5.80766,5.80766,0,0,0,2.89355.64747l3.80664-.38086q2.81544,0,2.81641,2.208,0,2.81544-5.10059,2.81641a36.033,36.033,0,0,1-6.167-.57031,40.98664,40.98664,0,0,0-7.042-.57129,43.00707,43.00707,0,0,0-7.15625.57129,38.0434,38.0434,0,0,1-6.28027.57031q-5.10206,0-5.10157-2.81641,0-2.20752,2.81739-2.208l3.80664.38086a5.80632,5.80632,0,0,0,2.89258-.64747,4.669,4.669,0,0,0,1.82714-2.77832q1.2173-3.80566,1.21778-17.20605V460.84557q0-21.69728-15.98731-21.69727-11.57226,0-17.58593,12.02881a34.85611,34.85611,0,0,0-3.1211,9.897V478.203q0,13.32421.91309,16.33008.91405,3.00879,2.05566,3.65429a5.8063,5.8063,0,0,0,2.89258.64747l3.80664-.38086q2.81689,0,2.81738,2.208,0,2.81544-5.02441,2.81641a33.47781,33.47781,0,0,1-6.01465-.57031,40.07575,40.07575,0,0,0-7.15625-.57129,43.38035,43.38035,0,0,0-7.34668.57129A36.70813,36.70813,0,0,1,1429.12252,503.47838Z" transform="translate(-447.40621 -388.66344)"/><path class="cls-1" d="M1560.29635,438.08238q0,2.05591-2.43652,2.05567l-21.6211-.22852V482.0858q0,11.80226,5.71,14.00781a12.30527,12.30527,0,0,0,8.41211-.11328,25.97616,25.97616,0,0,0,3.46485-1.71386,30.46281,30.46281,0,0,0,2.58789-1.71289,3.42043,3.42043,0,0,1,2.01758-.79883,2.134,2.134,0,0,1,1.71289,1.06543,3.66244,3.66244,0,0,1,.76172,2.13183q0,2.666-6.77637,6.39551-5.17822,2.8916-13.01758,2.89258-7.84278,0-12.25781-5.5957t-4.415-15.49219V439.681h-4.64453q-5.48145,0-5.48145-2.8169,0-2.05518,3.0459-2.8164a12.36177,12.36177,0,0,0,5.25293-2.70264,17.166,17.166,0,0,0,3.61621-4.416,26.36107,26.36107,0,0,0,2.2461-5.13867q.83641-2.66382,1.52246-4.87256,1.67284-5.02441,3.80664-5.02441,2.43456,0,2.43554,4.33935v17.20557l21.39258-.45654q1.59961,0,2.5127,3.80664A7.78575,7.78575,0,0,1,1560.29635,438.08238Z" transform="translate(-447.40621 -388.66344)"/><path class="cls-1" d="M1582.146,504.2401a8.1719,8.1719,0,0,1-6.31934-2.47461,7.73612,7.73612,0,0,1-2.2832-5.3291,10.77872,10.77872,0,0,1,.72266-4.415,8.11531,8.11531,0,0,1,2.01758-2.70313,9.091,9.091,0,0,1,6.35644-2.35937,8.02946,8.02946,0,0,1,6.09082,2.43555,7.43456,7.43456,0,0,1,2.32227,5.17675,12.18249,12.18249,0,0,1-.60938,4.30176,8.00911,8.00911,0,0,1-1.82715,2.77832A8.46962,8.46962,0,0,1,1582.146,504.2401Z" transform="translate(-447.40621 -388.66344)"/></g></svg>