<svg id="Layer_2" data-name="Layer 2" xmlns="http://www.w3.org/2000/svg" viewBox="0 0 772.95759 783.98268"><defs><style>.cls-1{fill:#807e66;}.cls-2{fill:#7d4331;}.cls-3{fill:#d7a07f;}.cls-4{fill:#30453f;}.cls-5{fill:#dfac90;}.cls-6{fill:#da8527;}.cls-7{fill:#f2696c;opacity:0.5;}.cls-8{fill:#889693;}.cls-9{fill:#60736e;}.cls-10{fill:#a0634c;}</style></defs><path class="cls-1" d="M355.59294,241.82779c-103.49836,266.18913-45.36627,608.86529,2.19441,629.6824l8.09229-7.69514S241.8512,589.84918,359.47358,249.14488Z" transform="translate(-129.58617 -123.41695)"/><path class="cls-1" d="M361.80537,146.84619c52.63249-87.22282,35.08454,96.41855,4.79174,106.77936C350.09664,259.26908,309.17288,234.069,361.80537,146.84619Z" transform="translate(-129.58617 -123.41695)"/><path class="cls-1" d="M339.83362,304.65873s13.32822-48.73339,88.38269-26.37658S356.75314,339.60537,339.83362,304.65873Z" transform="translate(-129.58617 -123.41695)"/><path class="cls-1" d="M334.007,319.04446s20.66713-45.29461-58.47346-68.2024S294.52986,327.78521,334.007,319.04446Z" transform="translate(-129.58617 -123.41695)"/><path class="cls-1" d="M323.56835,391.60468s10.418-44.28843,66.15179-27.47356S390.76262,430.20608,323.56835,391.60468Z" transform="translate(-129.58617 -123.41695)"/><path class="cls-1" d="M314.77465,403.62105s-14.60348-68.69578-69.549-55.05776S248.32306,410.97293,314.77465,403.62105Z" transform="translate(-129.58617 -123.41695)"/><path class="cls-1" d="M316.11275,488.30962c83.7692-11.44181,127.92571-60.56623,127.92571-60.56623s-34.44325,23.25872-68.09258,38.5409C341.7518,481.81387,308.40333,489.36263,316.11275,488.30962Z" transform="translate(-129.58617 -123.41695)"/><path class="cls-1" d="M434.20751,437.002c-11.51618-38.89741,3.2713-49.5447,66.759-63.00981S442.60331,465.35991,434.20751,437.002Z" transform="translate(-129.58617 -123.41695)"/><path class="cls-1" d="M393.97065,463.82082s28.00038-15.80359,60.01388,33.54351S407.258,521.90119,393.97065,463.82082Z" transform="translate(-129.58617 -123.41695)"/><path class="cls-1" d="M359.652,475.92853s17.963-11.1323,4.92428-37.853S336.08256,463.3002,359.652,475.92853Z" transform="translate(-129.58617 -123.41695)"/><path class="cls-1" d="M339.34058,483.99738s57.06818,6.58239,57.1246,44.27851S339.34058,483.99738,339.34058,483.99738Z" transform="translate(-129.58617 -123.41695)"/><path class="cls-1" d="M306.981,519.53281c-49.85029-19.78079-70.30926-54.897-70.30926-54.897l-5.57419-2.22S316.86292,523.454,306.981,519.53281Z" transform="translate(-129.58617 -123.41695)"/><path class="cls-1" d="M245.89757,476.93192s10.06257-28.2948-47.16738-52.16386S215.56115,483.15929,245.89757,476.93192Z" transform="translate(-129.58617 -123.41695)"/><path class="cls-1" d="M270.76829,499.65174s-34.05623-8.09014-45.53431,15.32468S267.32551,515.41152,270.76829,499.65174Z" transform="translate(-129.58617 -123.41695)"/><path class="cls-1" d="M317.82356,590.60161s14.60293-44.77449,39.68678-34.78447S348.27645,589.81324,317.82356,590.60161Z" transform="translate(-129.58617 -123.41695)"/><path class="cls-1" d="M739.97683,283.08055c38.25341,270.23479-68.64565,577.30154-111.06437,586.56437l-5.26734-8.89995s148.742-228.95525,111.89559-571.67064Z" transform="translate(-129.58617 -123.41695)"/><path class="cls-1" d="M729.28067,192.7122c-65.3947-78.11231-22.30814,104.50169,9.18393,98.73544S794.67538,270.82451,729.28067,192.7122Z" transform="translate(-129.58617 -123.41695)"/><path class="cls-1" d="M743.39708,348.5576s-1.90983-50.487-80.08073-45.76351S718.9816,378.74737,743.39708,348.5576Z" transform="translate(-129.58617 -123.41695)"/><path class="cls-1" d="M745.80366,363.89083s-9.838-48.80518,72.43733-53.137S782.26329,381.37045,745.80366,363.89083Z" transform="translate(-129.58617 -123.41695)"/><path class="cls-1" d="M739.48707,436.92541s-.08534-45.49716-58.18179-41.782S665.28088,459.2543,739.48707,436.92541Z" transform="translate(-129.58617 -123.41695)"/><path class="cls-1" d="M745.32133,450.62518s29.82623-63.58277,80.23744-37.82019S808.3658,472.8796,745.32133,450.62518Z" transform="translate(-129.58617 -123.41695)"/><path class="cls-1" d="M726.58145,565.27723c53.04043-7.94,80.94135-37.49092,80.94135-37.49092l5.93276-.89577S716.06716,566.85119,726.58145,565.27723Z" transform="translate(-129.58617 -123.41695)"/><path class="cls-1" d="M795.74505,537.66531s-3.37225-29.8409,57.7836-40.086S823.87387,550.62092,795.74505,537.66531Z" transform="translate(-129.58617 -123.41695)"/><path class="cls-1" d="M766.36359,554.14173s35.00367-.14265,40.86293,25.26737S766.13648,570.27157,766.36359,554.14173Z" transform="translate(-129.58617 -123.41695)"/><path class="cls-1" d="M699.87879,632.02529s-4.0505-46.92114-30.7479-42.89016S670.40105,624.34005,699.87879,632.02529Z" transform="translate(-129.58617 -123.41695)"/><path class="cls-1" d="M514.07277,340.00276C498.21144,577.60048,630.02659,835.68191,673.0593,840.36527l4.51581-8.14222S510.49757,645.25572,518.987,344.85443Z" transform="translate(-129.58617 -123.41695)"/><path class="cls-1" d="M525.71662,258.58212c68.62058-75.29419,25.18106,92.14073-6.65459,88.75087S481.802,306.7676,525.71662,258.58212Z" transform="translate(-129.58617 -123.41695)"/><path class="cls-1" d="M518.4235,404.652s-1.87927-50.48815,76.42579-51.63644S545.03289,432.92705,518.4235,404.652Z" transform="translate(-129.58617 -123.41695)"/><path class="cls-1" d="M517.17284,420.12246s6.15267-49.40523-76.216-47.55881S482.12575,440.28539,517.17284,420.12246Z" transform="translate(-129.58617 -123.41695)"/><path class="cls-1" d="M528.94522,492.47826s-3.32467-45.37561,54.88683-46.02491S604.61616,509.183,528.94522,492.47826Z" transform="translate(-129.58617 -123.41695)"/><path class="cls-1" d="M524.1541,506.57674s-34.50755-61.16863-82.84622-31.70045S462.95478,533.49343,524.1541,506.57674Z" transform="translate(-129.58617 -123.41695)"/><path class="cls-1" d="M550.795,586.977c76.497-36.0055,103.91381-96.09982,103.91381-96.09982S628.81267,523.384,601.285,548.04269C573.31168,573.10055,543.75488,590.29068,550.795,586.977Z" transform="translate(-129.58617 -123.41695)"/><path class="cls-1" d="M690.43182,556.42988c-11.782-38.81772,2.9323-49.56591,66.32642-63.465S699.02142,584.72973,690.43182,556.42988Z" transform="translate(-129.58617 -123.41695)"/><path class="cls-1" d="M617.74456,540.29387s21.98187-23.46426,67.3053,14.02955S647.817,591.72857,617.74456,540.29387Z" transform="translate(-129.58617 -123.41695)"/><path class="cls-1" d="M588.62748,562.12426s13.80426-16.0012-6.63874-37.59017S562.35782,557.13466,588.62748,562.12426Z" transform="translate(-129.58617 -123.41695)"/><path class="cls-1" d="M571.6651,575.906s56.42-10.81171,67.7638,25.1371S571.6651,575.906,571.6651,575.906Z" transform="translate(-129.58617 -123.41695)"/><path class="cls-1" d="M551.43384,619.50191c-53.48633-3.94259-83.52347-31.31937-83.52347-31.31937l-5.9832-.44862S562.03652,620.28345,551.43384,619.50191Z" transform="translate(-129.58617 -123.41695)"/><path class="cls-1" d="M502.39944,597.64709s9.86878-28.363-47.52312-51.84S472.10633,604.08185,502.39944,597.64709Z" transform="translate(-129.58617 -123.41695)"/><path class="cls-1" d="M524.82525,525.5483s-33.7203-9.3925-46.08942,13.56408S520.77956,541.16419,524.82525,525.5483Z" transform="translate(-129.58617 -123.41695)"/><path class="cls-1" d="M583.06382,684.061s.52262-47.09275,27.447-45.07394S611.88269,674.1882,583.06382,684.061Z" transform="translate(-129.58617 -123.41695)"/><path class="cls-1" d="M668.163,775.91379c111.54645-28.13768,163.63544-101.04625,163.63544-101.04625s-42.97554,36.57479-86.11894,62.27909C701.83764,763.26705,657.89718,778.50336,668.163,775.91379Z" transform="translate(-129.58617 -123.41695)"/><path class="cls-1" d="M823.07813,685.17894c-15.84307-37.34472-2.35517-49.59669,59.20147-70.15831S834.62842,712.40491,823.07813,685.17894Z" transform="translate(-129.58617 -123.41695)"/><path class="cls-1" d="M786.1339,716.378s26.03258-18.87006,63.42363,26.53819S805.90708,772.58209,786.1339,716.378Z" transform="translate(-129.58617 -123.41695)"/><path class="cls-1" d="M753.40541,732.29074s16.58812-13.09315.61-38.167S728.55859,722.41012,753.40541,732.29074Z" transform="translate(-129.58617 -123.41695)"/><path class="cls-1" d="M734.13736,742.6058s57.44648.08346,61.76747,37.53115S734.13736,742.6058,734.13736,742.6058Z" transform="translate(-129.58617 -123.41695)"/><path class="cls-2" d="M466,549s110.68076,6,125.84038,0S540,615,540,615l-84-47Z" transform="translate(-129.58617 -123.41695)"/><path class="cls-3" d="M574,473s-1,61,10,90c8.86636,23.37494-37,94-81,45s2-63-11-141C480.10746,395.64478,574,473,574,473Z" transform="translate(-129.58617 -123.41695)"/><path class="cls-4" d="M561.73767,472.51782S551,504,562,502s120-115,69-180c-71.48278-91.1055-176-61-175-94s-56,40,0,73Z" transform="translate(-129.58617 -123.41695)"/><path class="cls-5" d="M447,322c-48,109-43,199,30,186s73-45,73-45,17,16,26-7-5-26-5-26l48-78L461,296Z" transform="translate(-129.58617 -123.41695)"/><path class="cls-4" d="M543,430s-21,41-6,37,29-32,29-32l74-78L466,275l-10,26s18,65,67,70C523,371,508,410,543,430Z" transform="translate(-129.58617 -123.41695)"/><polygon class="cls-6" points="301.414 273.583 277.414 298.583 295.414 308.583 301.414 273.583"/><circle class="cls-7" cx="362.91383" cy="332.08305" r="36.5"/><ellipse class="cls-5" cx="227.84013" cy="468.90293" rx="11.5" ry="8.67253" transform="translate(-378.57703 556.2306) rotate(-87.92882)"/><path class="cls-8" d="M258.41257,558.45544c-.12252-.38675-.24928-.7799-.37784-1.176-9.84475-30.51956-36.35428-100.74212-60.38618-163.29273.41571-67.23841-1.69287-135.31075-11.45762-145.98666,0,0-35.59465,3.384-47.9754,23.688-4.64712,7.62114,17.96282,58.63052,45.07527,116.96547L197.05309,438.092c-1.07663,53.61368-3.12419,97.54843-3.12419,97.54843s32.49947,18.612,57.261,38.91607c8.11779,6.65647,11.20324,5.3661,10.60089-1.74023.0255-.02076.05724-.02654.08029-.05308C262.43457,572.11353,261.12766,566.96286,258.41257,558.45544Z" transform="translate(-129.58617 -123.41695)"/><path class="cls-9" d="M197.65454,439.64194l-.20786.9574c-1.08445,52.92671-3.093,96.04575-3.093,96.04575s32.49942,18.612,57.26091,38.916a30.34708,30.34708,0,0,0,4.75876,3.31218C252.58574,559.62368,197.65454,439.64194,197.65454,439.64194Z" transform="translate(-129.58617 -123.41695)"/><path class="cls-5" d="M200.0377,448.24022c-13.646-49.04233-23.83165,19.03306-13.10741,49.486s-16.68215,104.04738-16.68215,104.04738L225.06094,617S219.103,516.75923,200.0377,448.24022Z" transform="translate(-129.58617 -123.41695)"/><path class="cls-9" d="M142.84174,265.85484c2.79015,35.93916,44.82893,109.8176,54.8128,127.36451C198.00749,328.4595,196.583,258.28067,186.93029,248,186.93029,248,160.71548,249.19032,142.84174,265.85484Z" transform="translate(-129.58617 -123.41695)"/><path class="cls-10" d="M391,770c-24.95312,59.09955-35.91565,97.50037-40.35535,122H752.33459C686.3205,739.14636,676,685,676,685s85.36835,121.83337,124.44708,207H902.54376c-25.44665-57.97455-122.15234-267.59076-218.56524-335.9696a89.85489,89.85489,0,0,0-99.4405-2.94361H584.538C581,552,548,609,498.99963,579,487.34106,571.86212,483.34912,554.59027,466,549c-90-29-263,268-248,197s20-127,29-139-100-36-95-14S88,898,170,907,391,770,391,770Z" transform="translate(-129.58617 -123.41695)"/></svg>