<svg id="Layer_3" data-name="Layer 3" xmlns="http://www.w3.org/2000/svg" viewBox="0 0 907.59424 137.53467"><defs><style>.cls-1{fill:#52261e;}.cls-2{fill:#a0634c;}</style></defs><path class="cls-1" d="M95.62012,405.24805q-.42554,0-.4253-.24268v-.04053q0-.14135.37452-.43554a.88342.88342,0,0,0,.37451-.71826V392.313a.795.795,0,0,0-.18213-.53662,1.9714,1.9714,0,0,0-.37451-.34424.35461.35461,0,0,1-.19239-.27295v-.061q0-.22264.36426-.22265h8.583a.49169.49169,0,0,1,.50635.44531l.48584,2.0044q.08056.405-.24317.40478H104.79q-.20288,0-.45557-.314a4.7952,4.7952,0,0,1-.46533-.69825,2.848,2.848,0,0,0-.54687-.69824,1.01389,1.01389,0,0,0-.69825-.314h-4.2915q-.5669,0-.5669.688v5.08106h3.68409a.60484.60484,0,0,0,.44531-.18213,1.19776,1.19776,0,0,0,.27344-.415,2.60685,2.60685,0,0,1,.20263-.415.30945.30945,0,0,1,.25293-.18213h.08106q.26294,0,.26318.34424v2.48975c0,.23-.08789.34424-.26318.34424H102.624a.30845.30845,0,0,1-.25293-.18213,3.0188,3.0188,0,0,1-.20263-.39453,1.25449,1.25449,0,0,0-.27344-.395.6048.6048,0,0,0-.44531-.18213H97.76562l-.02,5.24316a.98837.98837,0,0,0,.19189.61719.65677.65677,0,0,0,.55713.25293h4.75683a.9682.9682,0,0,0,.68848-.32373,2.67515,2.67515,0,0,0,.51611-.71875,4.01117,4.01117,0,0,1,.44532-.71875c.16845-.21533.32715-.32373.47558-.32373h.12159a.23081.23081,0,0,1,.2124.12158.36632.36632,0,0,1,.03027.2832l-.48584,2.04444a.50752.50752,0,0,1-.52637.46582Z" transform="translate(-94.08154 -390.69336)"/><path class="cls-1" d="M119.81006,390.87549q.38379,0,.38428.22265v.061q0,.16187-.38428.4248a1.55054,1.55054,0,0,0-.5669.7085l-5.22265,12.4292a.77906.77906,0,0,1-.729.52637.753.753,0,0,1-.688-.50586l-5.668-12.4292a1.90033,1.90033,0,0,0-.55664-.69873q-.3545-.2732-.3545-.45508v-.04053q0-.24316.4253-.24316h2.89453q.42554,0,.42529.24316v.04053a.32729.32729,0,0,1-.16211.24268,2.91731,2.91731,0,0,1-.32373.2124.75569.75569,0,0,0-.27344.27344.418.418,0,0,0,.01026.42529l4.69629,10.93115,4.41308-10.95166a.433.433,0,0,0-.08105-.50586,1.92843,1.92843,0,0,0-.47559-.34424c-.18262-.09424-.27344-.189-.27344-.2832v-.061q0-.22264.40479-.22265Z" transform="translate(-94.08154 -390.69336)"/><path class="cls-1" d="M121.85449,405.24805q-.42553,0-.42529-.24268v-.04053q0-.14135.37451-.43554a.88342.88342,0,0,0,.37451-.71826V392.313a.795.795,0,0,0-.18213-.53662,1.9714,1.9714,0,0,0-.37451-.34424.3546.3546,0,0,1-.19238-.27295v-.061q0-.22264.36426-.22265h8.583a.49169.49169,0,0,1,.50635.44531l.48584,2.0044q.08056.405-.24316.40478h-.10108q-.20287,0-.45556-.314a4.79439,4.79439,0,0,1-.46533-.69825,2.84784,2.84784,0,0,0-.54688-.69824,1.01389,1.01389,0,0,0-.69824-.314h-4.29151q-.5669,0-.56689.688v5.08106h3.68408a.60482.60482,0,0,0,.44531-.18213,1.19748,1.19748,0,0,0,.27344-.415,2.60685,2.60685,0,0,1,.20264-.415.30944.30944,0,0,1,.25293-.18213h.08105q.26295,0,.26319.34424v2.48975c0,.23-.08789.34424-.26319.34424h-.08105a.30844.30844,0,0,1-.25293-.18213,3.01883,3.01883,0,0,1-.20264-.39453,1.25416,1.25416,0,0,0-.27344-.395.60479.60479,0,0,0-.44531-.18213H124l-.02,5.24316a.98838.98838,0,0,0,.1919.61719.65675.65675,0,0,0,.55712.25293h4.75684a.96822.96822,0,0,0,.68848-.32373,2.67537,2.67537,0,0,0,.51611-.71875,4.0117,4.0117,0,0,1,.44531-.71875c.16846-.21533.32715-.32373.47559-.32373h.12158a.23079.23079,0,0,1,.2124.12158.36632.36632,0,0,1,.03028.2832l-.48584,2.04444a.50753.50753,0,0,1-.52637.46582Z" transform="translate(-94.08154 -390.69336)"/><path class="cls-1" d="M144.08105,403.83105a1.92047,1.92047,0,0,0,.55713.53663c.22266.1416.39746.24951.52588.32373a.32.32,0,0,1,.19239.27343v.04053q0,.24243-.40479.24268h-2.81348q-.40575,0-.40527-.24268v-.04053c0-.09423.0708-.1958.21289-.30371a1.19157,1.19157,0,0,0,.29346-.29345q.08056-.13184-.10108-.53663l-3.03662-4.19043a4.467,4.467,0,0,1-.50635.02051l-2.42871.04053v4.12939a.70354.70354,0,0,0,.1919.50586,2.58791,2.58791,0,0,0,.395.34424q.20214.14209.20215.28369v.04053q0,.24243-.40479.24268h-2.55029q-.40577,0-.40528-.24268v-.04053q0-.14135.36475-.43554a.87334.87334,0,0,0,.36426-.69825V392.29248a.87467.87467,0,0,0-.36426-.69824c-.24316-.19531-.36475-.34082-.36475-.43506v-.04053q0-.24316.40528-.24316h4.14941A7.80787,7.80787,0,0,1,142.563,391.999a4.03381,4.03381,0,0,1,.80957,5.81983,4.92821,4.92821,0,0,1-2.53027,1.53857Zm-5.668-4.98a4.47913,4.47913,0,0,0,2.87451-.87011,2.8861,2.8861,0,0,0,1.09326-2.38867,3.48189,3.48189,0,0,0-1.24512-2.895,4.80028,4.80028,0,0,0-3.08691-.9917h-1.35645q-.52661,0-.52588.688v5.50635q0,.95142.8501.95117Z" transform="translate(-94.08154 -390.69336)"/><path class="cls-1" d="M157.66406,390.87549q.40429,0,.40479.22265v.061c0,.12109-.13867.27-.415.44531a1.94252,1.94252,0,0,0-.65772.688l-4.37255,7.146v4.39257a.70391.70391,0,0,0,.19238.50586,2.87452,2.87452,0,0,0,.38428.34424.381.381,0,0,1,.19238.28369v.04053q0,.24243-.38477.24268h-2.55029q-.405,0-.40479-.24268v-.04053q0-.14135.36426-.43554a.87334.87334,0,0,0,.36426-.69825v-4.27148l-4.69629-7.26709a2.14826,2.14826,0,0,0-.668-.65771c-.29687-.19532-.44531-.3545-.44531-.47559v-.04053q0-.24316.40478-.24316H148.332q.4043,0,.40479.24316v.04053c0,.09424-.08448.19922-.25293.31348a2.28081,2.28081,0,0,0-.38477.314q-.13183.14136.01026.50586l3.94726,6.498,3.94727-6.498q.16187-.38379.01025-.52637a2.53671,2.53671,0,0,0-.42529-.30371c-.18213-.10742-.27295-.209-.27295-.30322v-.04053q0-.24316.36426-.24316Z" transform="translate(-94.08154 -390.69336)"/><path class="cls-1" d="M174.28369,390.87549q.4043,0,.40479.22265v.061c0,.12109-.13868.27-.415.44531a1.94252,1.94252,0,0,0-.65772.688l-4.37256,7.146v4.39257a.70392.70392,0,0,0,.19239.50586,2.87509,2.87509,0,0,0,.38427.34424.381.381,0,0,1,.19239.28369v.04053q0,.24243-.38477.24268h-2.55029q-.405,0-.40479-.24268v-.04053q0-.14135.36426-.43554a.87334.87334,0,0,0,.36426-.69825v-4.27148l-4.69629-7.26709a2.14826,2.14826,0,0,0-.668-.65771c-.29687-.19532-.44531-.3545-.44531-.47559v-.04053q0-.24316.40478-.24316h2.95557q.40429,0,.40479.24316v.04053c0,.09424-.08448.19922-.25293.31348a2.28081,2.28081,0,0,0-.38477.314q-.13183.14136.01025.50586l3.94727,6.498,3.94727-6.498q.16187-.38379.01025-.52637a2.53754,2.53754,0,0,0-.42529-.30371c-.18213-.10742-.27295-.209-.27295-.30322v-.04053q0-.24316.36425-.24316Z" transform="translate(-94.08154 -390.69336)"/><path class="cls-1" d="M176.48975,405.24805q-.42555,0-.4253-.24268v-.04053q0-.14135.37451-.43554a.8834.8834,0,0,0,.37452-.71826V392.313a.795.795,0,0,0-.18213-.53662,1.9714,1.9714,0,0,0-.37451-.34424.35461.35461,0,0,1-.19239-.27295v-.061q0-.22264.36426-.22265h8.583a.49169.49169,0,0,1,.50635.44531l.48584,2.0044q.08057.405-.24317.40478h-.10107q-.20289,0-.45557-.314a4.7952,4.7952,0,0,1-.46533-.69825,2.84784,2.84784,0,0,0-.54688-.69824,1.01385,1.01385,0,0,0-.69824-.314h-4.2915q-.56689,0-.5669.688v5.08106h3.68409a.60486.60486,0,0,0,.44531-.18213,1.19776,1.19776,0,0,0,.27344-.415,2.60685,2.60685,0,0,1,.20263-.415.30945.30945,0,0,1,.25293-.18213h.08106q.26293,0,.26318.34424v2.48975c0,.23-.08789.34424-.26318.34424h-.08106a.30845.30845,0,0,1-.25293-.18213,3.0188,3.0188,0,0,1-.20263-.39453,1.25449,1.25449,0,0,0-.27344-.395.60482.60482,0,0,0-.44531-.18213h-3.68409l-.02,5.24316a.98838.98838,0,0,0,.1919.61719.65677.65677,0,0,0,.55713.25293h4.75683a.9682.9682,0,0,0,.68848-.32373,2.67515,2.67515,0,0,0,.51611-.71875,4.01117,4.01117,0,0,1,.44532-.71875c.16845-.21533.32714-.32373.47558-.32373h.12158a.23081.23081,0,0,1,.21241.12158.36632.36632,0,0,1,.03027.2832l-.48584,2.04444a.50752.50752,0,0,1-.52637.46582Z" transform="translate(-94.08154 -390.69336)"/><path class="cls-1" d="M199.58643,403.83105a1.63438,1.63438,0,0,0,.57714.67823q.39479.2732.39454.45556v.04053q0,.24243-.38477.24268h-2.854q-.38452,0-.38477-.24268v-.04053a.33464.33464,0,0,1,.1416-.24316,1.59394,1.59394,0,0,1,.29395-.20215.64342.64342,0,0,0,.25293-.26318.47064.47064,0,0,0,0-.4253l-.97168-2.38867h-6.5586l-.89111,2.38867a.49473.49473,0,0,0-.00977.4253.58155.58155,0,0,0,.24268.26318,1.95111,1.95111,0,0,1,.30371.20215.33.33,0,0,1,.15186.24316v.04053q0,.24243-.4253.24268H187.542q-.405,0-.40478-.24268v-.04053q0-.16187.39453-.43554a1.47555,1.47555,0,0,0,.55664-.69825l4.49414-11.47753q.14136-.34425-.24316-.71875-.38452-.37428-.38428-.47559v-.061q0-.22264.2832-.22265h1.17432a.97525.97525,0,0,1,.95117.668Zm-9.14991-3.25927h5.87061l-3.03662-7.50977Z" transform="translate(-94.08154 -390.69336)"/><path class="cls-1" d="M212.2583,403.83105a1.92047,1.92047,0,0,0,.55713.53663c.22266.1416.39746.24951.52588.32373a.32.32,0,0,1,.19238.27343v.04053q0,.24243-.40478.24268h-2.81348q-.40577,0-.40527-.24268v-.04053c0-.09423.0708-.1958.21289-.30371a1.1915,1.1915,0,0,0,.29345-.29345q.08057-.13184-.10107-.53663l-3.03662-4.19043a4.46713,4.46713,0,0,1-.50635.02051l-2.42871.04053v4.12939a.70358.70358,0,0,0,.19189.50586,2.58838,2.58838,0,0,0,.395.34424q.20216.14209.20215.28369v.04053q0,.24243-.40478.24268h-2.5503q-.40575,0-.40527-.24268v-.04053q0-.14135.36475-.43554a.87336.87336,0,0,0,.36425-.69825V392.29248a.87469.87469,0,0,0-.36425-.69824c-.24317-.19531-.36475-.34082-.36475-.43506v-.04053q0-.24316.40527-.24316h4.14942a7.80784,7.80784,0,0,1,4.41308,1.12353,4.03379,4.03379,0,0,1,.80957,5.81983,4.92821,4.92821,0,0,1-2.53027,1.53857Zm-5.668-4.98a4.47911,4.47911,0,0,0,2.87451-.87011,2.88608,2.88608,0,0,0,1.09327-2.38867,3.48189,3.48189,0,0,0-1.24512-2.895,4.80031,4.80031,0,0,0-3.08692-.9917h-1.35644q-.52662,0-.52588.688v5.50635q0,.95142.8501.95117Z" transform="translate(-94.08154 -390.69336)"/><path class="cls-1" d="M219.44434,405.00537v-.04053q0-.14135.36474-.42529a.84669.84669,0,0,0,.36426-.68848V392.29248a.87467.87467,0,0,0-.36426-.69824c-.24316-.19531-.36474-.34082-.36474-.43506v-.04053q0-.24316.40527-.24316h2.53027q.40429,0,.40479.24316v.04053a.38088.38088,0,0,1-.19238.2832,2.97936,2.97936,0,0,0-.38477.34424.70436.70436,0,0,0-.1919.50586v11.55859a.83378.83378,0,0,0,.38428.68848q.38452.28345.38477.42529v.04053q0,.24243-.40479.24268h-2.53027Q219.44385,405.24805,219.44434,405.00537Z" transform="translate(-94.08154 -390.69336)"/><path class="cls-1" d="M237.66309,390.87549q.405,0,.40478.26318v.04053q0,.1421-.40478.42529a.82492.82492,0,0,0-.40479.688v12.40918q0,.54639-.50586.54639h-.50635q-.30321,0-.64746-.52637l-8.644-11.78125v10.83008a.72523.72523,0,0,0,.21289.53613,3.00453,3.00453,0,0,0,.43506.36426q.22266.15234.22266.29394v.04053q0,.24243-.4253.24268h-1.84179c-.27051,0-.40479-.08106-.40479-.24268v-.04053q0-.14135.38428-.45556a.93122.93122,0,0,0,.38476-.73877V392.313a.67269.67269,0,0,0-.19238-.4961,2.7526,2.7526,0,0,0-.38477-.32373.35451.35451,0,0,1-.19189-.27343v-.08106c0-.17529.13428-.26318.40479-.26318h1.53808a.85792.85792,0,0,1,.729.40478l8.40087,11.61963V392.29248a.82235.82235,0,0,0-.415-.688q-.41529-.28344-.415-.42529v-.04053q0-.26294.42529-.26318Z" transform="translate(-94.08154 -390.69336)"/><path class="cls-1" d="M247.94629,405.24805q-.405,0-.40479-.24268v-.04053q0-.14135.37452-.43554a.86614.86614,0,0,0,.37451-.69825v-12.085h-2.75342a.78307.78307,0,0,0-.61719.34424,2.55046,2.55046,0,0,0-.415.749,4.76709,4.76709,0,0,1-.334.74853c-.12842.23-.25293.34424-.37451.34424h-.18213q-.32373,0-.26319-.40479l.32373-2.20654a.46026.46026,0,0,1,.50635-.44531H254.2417a.50163.50163,0,0,1,.52637.44531l.44531,2.227q.08057.38452-.24268.38428h-.20263c-.12159,0-.25293-.11426-.39453-.34424a4.78075,4.78075,0,0,1-.37452-.74853,2.7055,2.7055,0,0,0-.45556-.749.83916.83916,0,0,0-.6377-.34424H250.1123v12.085a.70392.70392,0,0,0,.19239.50586,2.58523,2.58523,0,0,0,.39453.34424c.13476.09473.20264.18946.20264.28369v.04053q0,.24243-.4253.24268Z" transform="translate(-94.08154 -390.69336)"/><path class="cls-1" d="M257.05566,405.24805q-.40575,0-.40527-.24268v-.04053q0-.14135.36475-.43554a.87336.87336,0,0,0,.36425-.69825V392.29248a.87469.87469,0,0,0-.36425-.69824c-.24317-.19531-.36475-.34082-.36475-.43506v-.04053q0-.24316.40527-.24316h2.53028q.4043,0,.40478.24316v.04053a.38085.38085,0,0,1-.19238.2832,2.97936,2.97936,0,0,0-.38477.34424.7044.7044,0,0,0-.19189.50586l-.02051,5.18213h7.95557l-.02051-5.18213a.8733.8733,0,0,0-.36426-.69824c-.24267-.19531-.36426-.34082-.36426-.43506v-.04053q0-.24316.40479-.24316h2.53027q.42554,0,.4253.24316v.04053c0,.09424-.06787.189-.20264.2832a2.64074,2.64074,0,0,0-.39453.34424.70473.70473,0,0,0-.19238.50586v11.53857a.70391.70391,0,0,0,.19238.50586,2.58523,2.58523,0,0,0,.39453.34424c.13477.09473.20264.18946.20264.28369v.04053q0,.24243-.4253.24268H266.8125q-.405,0-.40479-.24268v-.04053q0-.14135.36426-.43554a.872.872,0,0,0,.36426-.69825l.02051-5.46582h-7.93506v5.46582a.70358.70358,0,0,0,.19189.50586,2.90751,2.90751,0,0,0,.38477.34424.38237.38237,0,0,1,.19238.28369v.04053q0,.24243-.40478.24268Z" transform="translate(-94.08154 -390.69336)"/><path class="cls-1" d="M272.582,405.24805q-.42553,0-.42529-.24268v-.04053q0-.14135.37451-.43554a.88342.88342,0,0,0,.37451-.71826V392.313a.795.795,0,0,0-.18213-.53662,1.9714,1.9714,0,0,0-.37451-.34424.3546.3546,0,0,1-.19238-.27295v-.061q0-.22264.36426-.22265h8.583a.49169.49169,0,0,1,.50635.44531l.48584,2.0044q.08057.405-.24316.40478H281.752q-.20288,0-.45556-.314a4.79524,4.79524,0,0,1-.46534-.69825,2.84779,2.84779,0,0,0-.54687-.69824,1.01389,1.01389,0,0,0-.69824-.314h-4.29151q-.56689,0-.56689.688v5.08106h3.68408a.60484.60484,0,0,0,.44531-.18213,1.19762,1.19762,0,0,0,.27344-.415,2.60685,2.60685,0,0,1,.20264-.415.30944.30944,0,0,1,.25293-.18213h.08105q.26295,0,.26319.34424v2.48975c0,.23-.08789.34424-.26319.34424h-.08105a.30844.30844,0,0,1-.25293-.18213,3.01883,3.01883,0,0,1-.20264-.39453,1.25433,1.25433,0,0,0-.27344-.395.6048.6048,0,0,0-.44531-.18213h-3.68408l-.02,5.24316a.98843.98843,0,0,0,.19189.61719.65678.65678,0,0,0,.55713.25293h4.75684a.96822.96822,0,0,0,.68848-.32373,2.67537,2.67537,0,0,0,.51611-.71875,4.0117,4.0117,0,0,1,.44531-.71875c.16846-.21533.32715-.32373.47559-.32373h.12158a.23079.23079,0,0,1,.2124.12158.36632.36632,0,0,1,.03027.2832l-.48583,2.04444a.50753.50753,0,0,1-.52637.46582Z" transform="translate(-94.08154 -390.69336)"/><path class="cls-1" d="M295.09131,405.45068a5.44261,5.44261,0,0,1-5.729-5.78955v-7.36865a.84588.84588,0,0,0-.36425-.688q-.364-.28344-.36426-.42529v-.06055q0-.24316.40478-.24316h2.55079q.40429,0,.40478.24316v.06055q0,.1421-.38476.42529a.83426.83426,0,0,0-.38428.688v7.36865a5.29106,5.29106,0,0,0,1.15381,3.583,3.8385,3.8385,0,0,0,3.05664,1.33594,3.69761,3.69761,0,0,0,2.854-1.30567,5.21015,5.21015,0,0,0,1.17432-3.61328v-7.36865a.83481.83481,0,0,0-.38477-.688q-.38452-.28344-.38476-.42529v-.06055q0-.24316.42529-.24316h1.78125q.42554,0,.42529.24316v.06055q0,.1421-.415.42529a.82126.82126,0,0,0-.415.688v7.38867a5.83775,5.83775,0,0,1-1.498,4.19043A5.139,5.139,0,0,1,295.09131,405.45068Z" transform="translate(-94.08154 -390.69336)"/><path class="cls-1" d="M315.90088,390.87549q.405,0,.40478.26318v.04053q0,.1421-.40478.42529a.82492.82492,0,0,0-.40479.688v12.40918q0,.54639-.50586.54639h-.50634q-.30322,0-.64746-.52637l-8.644-11.78125v10.83008a.72523.72523,0,0,0,.21289.53613,3.0056,3.0056,0,0,0,.43506.36426q.22266.15234.22266.29394v.04053q0,.24243-.42529.24268h-1.8418c-.27051,0-.40479-.08106-.40479-.24268v-.04053q0-.14135.38428-.45556a.93123.93123,0,0,0,.38477-.73877V392.313a.6727.6727,0,0,0-.19239-.4961,2.752,2.752,0,0,0-.38476-.32373.3545.3545,0,0,1-.1919-.27343v-.08106c0-.17529.13428-.26318.40479-.26318H305.334a.85792.85792,0,0,1,.729.40478l8.40088,11.61963V392.29248a.82234.82234,0,0,0-.415-.688q-.41529-.28344-.415-.42529v-.04053q0-.26294.42529-.26318Z" transform="translate(-94.08154 -390.69336)"/><path class="cls-1" d="M318.61328,405.00537v-.04053q0-.14135.36475-.42529a.84672.84672,0,0,0,.36426-.68848V392.29248a.8747.8747,0,0,0-.36426-.69824c-.24317-.19531-.36475-.34082-.36475-.43506v-.04053q0-.24316.40527-.24316h2.53028q.40429,0,.40478.24316v.04053a.38085.38085,0,0,1-.19238.2832,2.97936,2.97936,0,0,0-.38477.34424.7044.7044,0,0,0-.19189.50586v11.55859a.83378.83378,0,0,0,.38428.68848q.38452.28345.38476.42529v.04053q0,.24243-.40478.24268h-2.53028Q318.6128,405.24805,318.61328,405.00537Z" transform="translate(-94.08154 -390.69336)"/><path class="cls-1" d="M327.96582,405.24805q-.405,0-.40478-.24268v-.04053q0-.14135.37451-.43554a.86614.86614,0,0,0,.37451-.69825v-12.085h-2.75342a.78307.78307,0,0,0-.61719.34424,2.55046,2.55046,0,0,0-.415.749,4.76709,4.76709,0,0,1-.334.74853c-.12842.23-.25293.34424-.37451.34424h-.18213q-.32373,0-.26318-.40479l.32373-2.20654a.46024.46024,0,0,1,.50634-.44531h10.06055a.50163.50163,0,0,1,.52637.44531l.44531,2.227q.08057.38452-.24268.38428h-.20263c-.12158,0-.25293-.11426-.39453-.34424a4.78075,4.78075,0,0,1-.37452-.74853,2.70526,2.70526,0,0,0-.45556-.749.83915.83915,0,0,0-.6377-.34424h-2.79345v12.085a.70391.70391,0,0,0,.19238.50586,2.58523,2.58523,0,0,0,.39453.34424c.13477.09473.20264.18946.20264.28369v.04053q0,.24243-.4253.24268Z" transform="translate(-94.08154 -390.69336)"/><path class="cls-1" d="M337.07471,405.24805q-.42553,0-.4253-.24268v-.04053q0-.14135.37452-.43554a.88342.88342,0,0,0,.37451-.71826V392.313a.795.795,0,0,0-.18213-.53662,1.9714,1.9714,0,0,0-.37451-.34424.35461.35461,0,0,1-.19239-.27295v-.061q0-.22264.36426-.22265h8.583a.49169.49169,0,0,1,.50635.44531l.48584,2.0044q.08057.405-.24317.40478h-.10107q-.20288,0-.45557-.314a4.7952,4.7952,0,0,1-.46533-.69825,2.848,2.848,0,0,0-.54687-.69824,1.01389,1.01389,0,0,0-.69825-.314h-4.2915q-.56689,0-.5669.688v5.08106h3.68409a.60484.60484,0,0,0,.44531-.18213,1.19776,1.19776,0,0,0,.27344-.415,2.60685,2.60685,0,0,1,.20263-.415.30945.30945,0,0,1,.25293-.18213h.08106q.26294,0,.26318.34424v2.48975c0,.23-.08789.34424-.26318.34424h-.08106a.30845.30845,0,0,1-.25293-.18213,3.0188,3.0188,0,0,1-.20263-.39453,1.25449,1.25449,0,0,0-.27344-.395.6048.6048,0,0,0-.44531-.18213h-3.68409l-.02,5.24316a.98837.98837,0,0,0,.19189.61719.65677.65677,0,0,0,.55713.25293h4.75683a.9682.9682,0,0,0,.68848-.32373,2.67515,2.67515,0,0,0,.51611-.71875,4.01117,4.01117,0,0,1,.44532-.71875c.16845-.21533.32715-.32373.47558-.32373h.12158a.23081.23081,0,0,1,.21241.12158.36632.36632,0,0,1,.03027.2832l-.48584,2.04444a.50752.50752,0,0,1-.52637.46582Z" transform="translate(-94.08154 -390.69336)"/><path class="cls-1" d="M349.2207,405.24805q-.42554,0-.42529-.24268v-.04053q0-.16187.37451-.45556a.85116.85116,0,0,0,.37451-.67823V392.29248a.86745.86745,0,0,0-.37451-.69824c-.25-.19531-.37451-.34082-.37451-.43506v-.04053q0-.24316.42529-.24316h4.43311a8.78433,8.78433,0,0,1,5.79931,1.97363,6.31279,6.31279,0,0,1,2.37891,5.09131,6.95016,6.95016,0,0,1-2.11572,5.32373,7.48951,7.48951,0,0,1-5.334,1.98389Zm3.07666-.83008h1.96387a5.48533,5.48533,0,0,0,5.688-5.83008,6.61114,6.61114,0,0,0-1.97363-4.96924,6.45666,6.45666,0,0,0-4.646-1.91308h-1.417q-.56689,0-.56641.64795v10.95117a1.21388,1.21388,0,0,0,.25293.81982A.8723.8723,0,0,0,352.29736,404.418Z" transform="translate(-94.08154 -390.69336)"/><path class="cls-1" d="M373.53174,405.45068a6.57361,6.57361,0,0,1-4.19043-1.20459,3.23843,3.23843,0,0,1-1.51807-2.35839.83777.83777,0,0,1,.20264-.58692.72633.72633,0,0,1,.56641-.22266.91663.91663,0,0,1,.67822.39454,5.79206,5.79206,0,0,1,.56689.90088,7.63478,7.63478,0,0,0,.65772,1.04248,2.97069,2.97069,0,0,0,1.18457.88037,4.63453,4.63453,0,0,0,1.9331.36474,3.50324,3.50324,0,0,0,2.33789-.75927,2.43712,2.43712,0,0,0,.90088-1.95362,2.60513,2.60513,0,0,0-1.71045-2.60107,10.13588,10.13588,0,0,0-1.68017-.47559q-.92139-.18237-1.85205-.40478a8.03157,8.03157,0,0,1-1.69043-.59717,2.92836,2.92836,0,0,1-1.23487-1.18457,3.98287,3.98287,0,0,1-.47558-2.04444,3.5096,3.5096,0,0,1,1.34619-2.84423,5.66159,5.66159,0,0,1,3.69434-1.103,6.28552,6.28552,0,0,1,3.81542,1.05273,2.88963,2.88963,0,0,1,1.42725,2.24707.7249.7249,0,0,1-.83008.80957.83341.83341,0,0,1-.67773-.34423,3.99183,3.99183,0,0,1-.4961-.83008,7.19305,7.19305,0,0,0-.54638-.97168,2.54066,2.54066,0,0,0-1.02246-.82959,3.89648,3.89648,0,0,0-1.731-.34424,3.266,3.266,0,0,0-2.30762.769,2.56032,2.56032,0,0,0-.83008,1.96387,2.45073,2.45073,0,0,0,.47608,1.55859,2.75091,2.75091,0,0,0,1.24463.89063,11.9174,11.9174,0,0,0,1.69043.47558q.92065.19263,1.84228.43555a8.33933,8.33933,0,0,1,1.68994.6377,3.00428,3.00428,0,0,1,1.24512,1.23437,4.16241,4.16241,0,0,1,.47559,2.0752,3.34409,3.34409,0,0,1-1.498,2.854A6.15787,6.15787,0,0,1,373.53174,405.45068Z" transform="translate(-94.08154 -390.69336)"/><path class="cls-1" d="M384.01758,405.24805q-.405,0-.40479-.24268v-.04053q0-.14135.37451-.43554a.86612.86612,0,0,0,.37452-.69825v-12.085H381.6084a.78307.78307,0,0,0-.61719.34424,2.55046,2.55046,0,0,0-.415.749,4.76709,4.76709,0,0,1-.334.74853c-.12842.23-.25293.34424-.37451.34424h-.18213q-.32373,0-.26319-.40479l.32373-2.20654a.46026.46026,0,0,1,.50635-.44531H390.313a.50163.50163,0,0,1,.52637.44531l.44531,2.227q.08056.38452-.24268.38428h-.20263c-.12159,0-.25293-.11426-.39454-.34424a4.78072,4.78072,0,0,1-.37451-.74853,2.7055,2.7055,0,0,0-.45556-.749.83916.83916,0,0,0-.6377-.34424h-2.79346v12.085a.70392.70392,0,0,0,.19239.50586,2.58523,2.58523,0,0,0,.39453.34424c.13476.09473.20263.18946.20263.28369v.04053q0,.24243-.42529.24268Z" transform="translate(-94.08154 -390.69336)"/><path class="cls-1" d="M402.41846,403.83105a1.63433,1.63433,0,0,0,.57715.67823q.39477.2732.39453.45556v.04053q0,.24243-.38477.24268h-2.854q-.38452,0-.38477-.24268v-.04053a.33464.33464,0,0,1,.1416-.24316,1.59428,1.59428,0,0,1,.29395-.20215.64342.64342,0,0,0,.25293-.26318.47064.47064,0,0,0,0-.4253l-.97168-2.38867h-6.5586l-.89111,2.38867a.49469.49469,0,0,0-.00976.4253.58148.58148,0,0,0,.24267.26318,1.95064,1.95064,0,0,1,.30371.20215.33.33,0,0,1,.15186.24316v.04053q0,.24243-.42529.24268H390.374q-.405,0-.40478-.24268v-.04053q0-.16187.39453-.43554a1.47555,1.47555,0,0,0,.55664-.69825l4.49414-11.47753q.14136-.34425-.24316-.71875-.38452-.37428-.38428-.47559v-.061q0-.22264.2832-.22265h1.17432a.97524.97524,0,0,1,.95117.668Zm-9.14991-3.25927h5.87061l-3.03662-7.50977Z" transform="translate(-94.08154 -390.69336)"/><path class="cls-1" d="M406.4873,405.24805q-.405,0-.40478-.24268v-.04053q0-.14135.37451-.43554a.86614.86614,0,0,0,.37451-.69825v-12.085h-2.75342a.78305.78305,0,0,0-.61718.34424,2.55046,2.55046,0,0,0-.415.749,4.768,4.768,0,0,1-.334.74853c-.12841.23-.25293.34424-.37451.34424h-.18213q-.32373,0-.26318-.40479l.32373-2.20654a.46025.46025,0,0,1,.50635-.44531h10.06054a.50162.50162,0,0,1,.52637.44531l.44531,2.227q.08058.38452-.24267.38428h-.20264c-.12158,0-.25293-.11426-.39453-.34424a4.78072,4.78072,0,0,1-.37451-.74853,2.7053,2.7053,0,0,0-.45557-.749.83915.83915,0,0,0-.63769-.34424h-2.79346v12.085a.704.704,0,0,0,.19238.50586,2.58571,2.58571,0,0,0,.39453.34424c.13477.09473.20264.18946.20264.28369v.04053q0,.24243-.42529.24268Z" transform="translate(-94.08154 -390.69336)"/><path class="cls-1" d="M415.59668,405.24805q-.42553,0-.42529-.24268v-.04053q0-.14135.37451-.43554a.88342.88342,0,0,0,.37451-.71826V392.313a.795.795,0,0,0-.18213-.53662,1.9714,1.9714,0,0,0-.37451-.34424.3546.3546,0,0,1-.19238-.27295v-.061q0-.22264.36425-.22265h8.583a.49169.49169,0,0,1,.50635.44531l.48584,2.0044q.08057.405-.24316.40478h-.10108q-.20288,0-.45556-.314a4.79443,4.79443,0,0,1-.46534-.69825,2.848,2.848,0,0,0-.54687-.69824,1.01389,1.01389,0,0,0-.69824-.314h-4.29151q-.56689,0-.56689.688v5.08106h3.68408a.60484.60484,0,0,0,.44531-.18213,1.19776,1.19776,0,0,0,.27344-.415,2.60685,2.60685,0,0,1,.20264-.415.30944.30944,0,0,1,.25293-.18213h.08105q.26293,0,.26318.34424v2.48975c0,.23-.08789.34424-.26318.34424h-.08105a.30844.30844,0,0,1-.25293-.18213,3.01883,3.01883,0,0,1-.20264-.39453,1.25449,1.25449,0,0,0-.27344-.395.6048.6048,0,0,0-.44531-.18213h-3.68408l-.02,5.24316a.98837.98837,0,0,0,.19189.61719.65678.65678,0,0,0,.55713.25293H423.228a.96818.96818,0,0,0,.68847-.32373,2.67519,2.67519,0,0,0,.51612-.71875,4.01114,4.01114,0,0,1,.44531-.71875c.16846-.21533.32715-.32373.47559-.32373h.12158a.23079.23079,0,0,1,.2124.12158.36632.36632,0,0,1,.03027.2832l-.48584,2.04444a.50751.50751,0,0,1-.52636.46582Z" transform="translate(-94.08154 -390.69336)"/><path class="cls-1" d="M432.499,405.45068a6.57361,6.57361,0,0,1-4.19043-1.20459,3.23845,3.23845,0,0,1-1.51806-2.35839.83781.83781,0,0,1,.20263-.58692.72635.72635,0,0,1,.56641-.22266.91661.91661,0,0,1,.67822.39454,5.79207,5.79207,0,0,1,.5669.90088,7.63469,7.63469,0,0,0,.65771,1.04248,2.97084,2.97084,0,0,0,1.18457.88037,4.63461,4.63461,0,0,0,1.93311.36474,3.50326,3.50326,0,0,0,2.33789-.75927,2.43715,2.43715,0,0,0,.90088-1.95362,2.60516,2.60516,0,0,0-1.71045-2.60107,10.136,10.136,0,0,0-1.68018-.47559q-.92139-.18237-1.85205-.40478a8.03177,8.03177,0,0,1-1.69043-.59717,2.92828,2.92828,0,0,1-1.23486-1.18457,3.98287,3.98287,0,0,1-.47559-2.04444,3.50962,3.50962,0,0,1,1.34619-2.84423,5.66161,5.66161,0,0,1,3.69434-1.103,6.28553,6.28553,0,0,1,3.81543,1.05273,2.88963,2.88963,0,0,1,1.42725,2.24707.7249.7249,0,0,1-.83008.80957.83343.83343,0,0,1-.67774-.34423,3.99225,3.99225,0,0,1-.49609-.83008,7.19315,7.19315,0,0,0-.54639-.97168,2.54066,2.54066,0,0,0-1.02246-.82959,3.89646,3.89646,0,0,0-1.731-.34424,3.266,3.266,0,0,0-2.30762.769,2.56032,2.56032,0,0,0-.83008,1.96387,2.45073,2.45073,0,0,0,.47607,1.55859,2.751,2.751,0,0,0,1.24463.89063,11.91778,11.91778,0,0,0,1.69043.47558q.92066.19263,1.84229.43555a8.33955,8.33955,0,0,1,1.68994.6377,3.0044,3.0044,0,0,1,1.24512,1.23437,4.16252,4.16252,0,0,1,.47558,2.0752,3.34411,3.34411,0,0,1-1.498,2.854A6.15792,6.15792,0,0,1,432.499,405.45068Z" transform="translate(-94.08154 -390.69336)"/><path class="cls-1" d="M440.77832,398.30469a1.33512,1.33512,0,0,1-.9209-.314,1.11355,1.11355,0,0,1-.35449-.88037,1.17292,1.17292,0,0,1,.35449-.91113,1.4578,1.4578,0,0,1,1.832,0,1.15721,1.15721,0,0,1,.36426.91113,1.10748,1.10748,0,0,1-.36426.87061A1.32222,1.32222,0,0,1,440.77832,398.30469Zm0,7.146a1.33752,1.33752,0,0,1-.9209-.314,1.11356,1.11356,0,0,1-.35449-.88037,1.17154,1.17154,0,0,1,.35449-.91114,1.4578,1.4578,0,0,1,1.832,0,1.15586,1.15586,0,0,1,.36426.91114,1.10642,1.10642,0,0,1-.36426.87011A1.32251,1.32251,0,0,1,440.77832,405.45068Z" transform="translate(-94.08154 -390.69336)"/><path class="cls-1" d="M120.07324,466.97266a4.919,4.919,0,0,0,1.31592,1.78125q.91113.81078.91113,1.29589v.1211q0,.68921-.89111.68848H112.543q-.89062,0-.89063-.68848v-.1211a1.13942,1.13942,0,0,1,.54639-.83007,4.98057,4.98057,0,0,0,.95166-.97168,1.256,1.256,0,0,0,.12158-1.27539l-1.21484-3.23877H100.76172l-1.17432,3.23877a1.25374,1.25374,0,0,0,.12158,1.27539,4.96728,4.96728,0,0,0,.95166.97168,1.13942,1.13942,0,0,1,.54639.83007v.1211q0,.68921-.93115.68848H94.97217q-.89136,0-.89063-.68848v-.1211q0-.48631.89063-1.27539a4.76124,4.76124,0,0,0,1.29541-1.80175l8.05664-20.688a2.06738,2.06738,0,0,0-.54639-1.98389,4.43225,4.43225,0,0,1-.8706-1.37646v-.16211q0-.64746.81006-.64795h4.21044a2.57322,2.57322,0,0,1,2.46973,1.74121Zm-18.33984-5.87061h9.352l-4.73682-12.59082Z" transform="translate(-94.08154 -390.69336)"/><path class="cls-1" d="M156.95557,466.93213a3.29062,3.29062,0,0,0,.769,1.82178,2.49924,2.49924,0,0,1,.68848,1.29589v.16163q0,.68921-.89063.68847h-7.00439q-.93165,0-.93116-.68847v-.16163a2.45755,2.45755,0,0,1,.749-1.25537,2.39278,2.39278,0,0,0,.668-1.82177l-.40479-7.4087a11.01915,11.01915,0,0,0-1.01221-4.79785,2.88479,2.88479,0,0,0-4.81787-.26318,5.28758,5.28758,0,0,0-.97168,3.03662,10.06646,10.06646,0,0,1,.16211,1.94336v7.48975a2.7941,2.7941,0,0,0,.7085,1.82177,2.49918,2.49918,0,0,1,.70849,1.25537v.16163q0,.68921-.89062.68847h-7.00391q-.93237,0-.93115-.68847v-.16163a2.476,2.476,0,0,1,.72852-1.25537,2.7525,2.7525,0,0,0,.729-1.82177v-7.89454a7.80561,7.80561,0,0,0-.97168-4.251,2.93239,2.93239,0,0,0-2.55078-1.49805,3.004,3.004,0,0,0-2.55078,1.25488,5.29536,5.29536,0,0,0-.93115,3.23877v9.14991a2.52628,2.52628,0,0,0,.8706,1.82177q.87012.85035.87061,1.25537v.16163q0,.68921-.93116.68847H124.2832q-.93163,0-.93115-.68847v-.16163q0-.4043.87061-1.25537a2.52814,2.52814,0,0,0,.8706-1.82177v-9.43311a1.8406,1.8406,0,0,0-.48584-1.29541,7.76433,7.76433,0,0,0-.99219-.91113,1.04211,1.04211,0,0,1-.50585-.78955v-.16162q0-.44532.85009-.85059l5.10108-2.34814a1.02812,1.02812,0,0,1,1.05273-.06055,1.04946,1.04946,0,0,1,.36426.91113v1.90283a6.25012,6.25012,0,0,1,5.5874-2.915,7.187,7.187,0,0,1,6.7207,3.64356,6.08174,6.08174,0,0,1,2.44922-2.67188,7.12672,7.12672,0,0,1,3.70459-.97168,7.01629,7.01629,0,0,1,5.1416,2.04444q2.0647,2.04492,2.38868,6.65967Z" transform="translate(-94.08154 -390.69336)"/><path class="cls-1" d="M176.75293,464.70557a.75848.75848,0,0,1,.89062-.32373.66671.66671,0,0,1,.48584.769,6.52038,6.52038,0,0,1-2.42919,4.10937,8.3262,8.3262,0,0,1-5.78956,2.00391,9.39237,9.39237,0,0,1-7.04443-2.834,10.23354,10.23354,0,0,1-2.75293-7.44922,9.71563,9.71563,0,0,1,9.79736-9.95948,8.33129,8.33129,0,0,1,5.668,1.74073,5.21554,5.21554,0,0,1,1.98389,4.0083,2.75288,2.75288,0,0,1-1.78125,2.67187l-8.98779,4.08887a5.55654,5.55654,0,0,0,5.34424,3.52246,5.73461,5.73461,0,0,0,2.77294-.668A4.66457,4.66457,0,0,0,176.75293,464.70557Zm-7.5708-11.90284a2.83317,2.83317,0,0,0-2.51025,1.51807,7.28956,7.28956,0,0,0-.93116,3.8667,13.39989,13.39989,0,0,0,.40479,3.48145l5.22265-2.63135a1.93623,1.93623,0,0,0,1.05274-1.90283,5.54191,5.54191,0,0,0-.89063-2.8545A2.66733,2.66733,0,0,0,169.18213,452.80273Z" transform="translate(-94.08154 -390.69336)"/><path class="cls-1" d="M192.542,451.02148a3.61166,3.61166,0,0,1,2.73291,1.03223,3.67191,3.67191,0,0,1,.99219,2.65186q0,3.19848-2.59131,3.19824a2.3135,2.3135,0,0,1-1.63965-.54639,2.18115,2.18115,0,0,1-.70849-1.19433,3.19789,3.19789,0,0,0-.48584-1.19434,1.22622,1.22622,0,0,0-1.09326-.54639,1.73441,1.73441,0,0,0-1.61915,1.29541,8.39927,8.39927,0,0,0-.52636,3.15772v8.09717a1.81558,1.81558,0,0,0,.50586,1.27539,9.22592,9.22592,0,0,0,1.0122.95117,1.09956,1.09956,0,0,1,.50635.81006v.16162q0,.68921-.89111.68848h-7.48975q-.93163,0-.93115-.68848v-.16162q0-.40429.78955-1.25537a2.599,2.599,0,0,0,.78955-1.78125V457.499a2.23231,2.23231,0,0,0-.93115-1.74072q-.93163-.769-.93115-1.17432v-.16162q0-.5669.85009-.97168l4.8584-2.26757q1.29492-.60719,1.29541.81v3.03614A5.378,5.378,0,0,1,192.542,451.02148Z" transform="translate(-94.08154 -390.69336)"/><path class="cls-1" d="M198.5332,470.85938q-.89062,0-.89062-.68848v-.16162a2.4416,2.4416,0,0,1,.76953-1.25537,2.67734,2.67734,0,0,0,.769-1.82178v-9.1499a2.87077,2.87077,0,0,0-.769-1.90284q-.76977-.88989-.76953-1.21435v-.12158q0-.40429.8501-.8501l5.061-2.51025a1.34563,1.34563,0,0,1,1.21436-.06055.93135.93135,0,0,1,.44531.8706v14.939a2.55228,2.55228,0,0,0,.85058,1.82178q.84961.85033.8501,1.25537v.16162q0,.68921-.93115.68848Zm6.53858-23.29981a4.03491,4.03491,0,0,1-2.854.99219,4.18459,4.18459,0,0,1-2.895-.99219,3.28055,3.28055,0,0,1-1.11328-2.5708,3.23745,3.23745,0,0,1,1.11328-2.53027,4.18893,4.18893,0,0,1,2.895-.9917,4.039,4.039,0,0,1,2.854.9917,3.296,3.296,0,0,1,1.07275,2.53027A3.341,3.341,0,0,1,205.07178,447.55957Z" transform="translate(-94.08154 -390.69336)"/><path class="cls-1" d="M219.26172,471.26416a10.0929,10.0929,0,0,1-7.46973-2.99609,9.81224,9.81224,0,0,1-2.97558-7.166,9.45763,9.45763,0,0,1,2.97558-7.28711,10.41057,10.41057,0,0,1,7.227-2.79346,10.10786,10.10786,0,0,1,5.93116,1.61914,4.819,4.819,0,0,1,2.44921,4.04883,1.96608,1.96608,0,0,1-.60742,1.47754,2.53474,2.53474,0,0,1-1.90283.54688,2.65241,2.65241,0,0,1-1.7002-.68848,5.55881,5.55881,0,0,1-1.19433-1.49805q-.46583-.85033-.95117-1.70019a5.03432,5.03432,0,0,0-1.21485-1.4375,2.63433,2.63433,0,0,0-1.70019-.58692,3.15448,3.15448,0,0,0-2.73291,1.53858,6.75273,6.75273,0,0,0-1.03223,3.84619,10.29617,10.29617,0,0,0,1.88233,6.47754,6.01013,6.01013,0,0,0,5,2.4292,5.31033,5.31033,0,0,0,4.85839-2.834.9274.9274,0,0,1,.58692-.38476.70947.70947,0,0,1,.60742.16211.68259.68259,0,0,1,.22266.62744,6.76138,6.76138,0,0,1-2.36866,4.65576A8.49541,8.49541,0,0,1,219.26172,471.26416Z" transform="translate(-94.08154 -390.69336)"/><path class="cls-1" d="M248.00684,466.811a3.83918,3.83918,0,0,0,.46533,1.49755,1.59745,1.59745,0,0,0,.70849.7085,2.98114,2.98114,0,0,1,.648.34424.65826.65826,0,0,1,.28369.56689q0,1.17481-3.88671,1.17383a5.56359,5.56359,0,0,1-2.61133-.46533,2.13175,2.13175,0,0,1-.99219-1.7207q-1.57909,2.34886-5.38428,2.34814a8.94179,8.94179,0,0,1-5.50634-1.5791,5.9733,5.9733,0,0,1-.04053-9.06836,8.3778,8.3778,0,0,1,5.26318-1.61963,7.53756,7.53756,0,0,1,4.41309,1.21436l-.04053-.48584a19.03975,19.03975,0,0,0-1.13379-5.42481,2.52493,2.52493,0,0,0-2.46924-1.5791,2.23039,2.23039,0,0,0-1.78174.80957,4.80542,4.80542,0,0,0-.97168,1.78174,5.13,5.13,0,0,1-.93115,1.78125,2.03226,2.03226,0,0,1-1.65967.80957,2.46488,2.46488,0,0,1-1.76123-.62744,2.14546,2.14546,0,0,1-.668-1.63965,3.77066,3.77066,0,0,1,2.24707-3.36035,11.19358,11.19358,0,0,1,5.52636-1.25489,9.3425,9.3425,0,0,1,6.437,2.22657,9.20106,9.20106,0,0,1,2.95557,6.07275Zm-8.9878,2.67187a2.52676,2.52676,0,0,0,2.14551-1.11328,3.80816,3.80816,0,0,0,.729-2.53027l-.12158-1.417a4.40011,4.40011,0,0,0-1.03222-2.67236,2.84613,2.84613,0,0,0-2.166-.93115,2.71806,2.71806,0,0,0-2.12549.93115,3.573,3.573,0,0,0-.83008,2.46973,6.94554,6.94554,0,0,0,.95118,3.72461A2.81552,2.81552,0,0,0,239.019,469.48291Z" transform="translate(-94.08154 -390.69336)"/><path class="cls-1" d="M272.41943,466.93213a3.28794,3.28794,0,0,0,.76953,1.82178,2.49733,2.49733,0,0,1,.688,1.29589v.16163q0,.68921-.93115.68847h-7.00391q-.93163,0-.93115-.68847v-.16163a2.45383,2.45383,0,0,1,.749-1.25537,2.595,2.595,0,0,0,.70849-1.8623l-.40478-7.48975q-.28419-6.11279-3.52246-6.11328a2.98425,2.98425,0,0,0-2.53028,1.21436,5.27032,5.27032,0,0,0-.91113,3.23877v9.19043a2.52628,2.52628,0,0,0,.8706,1.82177q.87012.85035.87061,1.25537v.16163q0,.68921-.93115.68847h-7.53076q-.93165,0-.93116-.68847v-.16163q0-.4043.87061-1.25537a2.5281,2.5281,0,0,0,.8706-1.82177v-9.43311a2.02382,2.02382,0,0,0-.30371-1.09326,2.05027,2.05027,0,0,0-.68847-.7085,2.95562,2.95562,0,0,1-.688-.54638.95674.95674,0,0,1-.30371-.648v-.16162q0-.44532.80957-.85059l4.81787-2.34814q.68775-.323,1.03223-.06055a1.08129,1.08129,0,0,1,.34423.91113v2.26709q1.74024-3.27978,5.99219-3.2793a7.3226,7.3226,0,0,1,5.24268,2.06446q2.165,2.06469,2.48974,6.55908Z" transform="translate(-94.08154 -390.69336)"/><path class="cls-1" d="M284.24121,471.22363a12.5416,12.5416,0,0,1-6.23486-1.37646q-2.42944-1.37549-2.4292-3.31983a2.0553,2.0553,0,0,1,.668-1.65966,2.629,2.629,0,0,1,1.76123-.5669,2.413,2.413,0,0,1,1.90283.83008,4.90869,4.90869,0,0,1,1.03223,1.8418,4.36209,4.36209,0,0,0,1.13379,1.84228,2.92844,2.92844,0,0,0,2.166.83008,3.21674,3.21674,0,0,0,2.12549-.68848,2.43106,2.43106,0,0,0,.82959-1.98388,2.71528,2.71528,0,0,0-1.15381-2.30762,8.06461,8.06461,0,0,0-2.81348-1.27539q-1.66039-.4248-3.31982-.97168a6.15481,6.15481,0,0,1-2.814-1.90283,5.27856,5.27856,0,0,1-1.1538-3.54248,5.0993,5.0993,0,0,1,2.28759-4.271,9.77377,9.77377,0,0,1,5.93116-1.68018,11.30758,11.30758,0,0,1,6.0122,1.437Q292.5,453.89624,292.5,455.87939a1.94406,1.94406,0,0,1-.668,1.498,2.3483,2.3483,0,0,1-1.63965.60742,2.24728,2.24728,0,0,1-1.82177-.83007,4.94774,4.94774,0,0,1-.97168-1.82178,4.70221,4.70221,0,0,0-1.01221-1.82178,2.4139,2.4139,0,0,0-1.90283-.83008,2.46836,2.46836,0,0,0-1.90284.78955,2.73272,2.73272,0,0,0-.72851,1.92285,2.97339,2.97339,0,0,0,.60693,1.90284,3.85231,3.85231,0,0,0,1.5791,1.17431,20.66266,20.66266,0,0,0,2.146.749q1.17334.34424,2.36816.769a11.12155,11.12155,0,0,1,2.166,1.03271,4.53718,4.53718,0,0,1,1.5791,1.72071,5.55152,5.55152,0,0,1,.60694,2.69189,4.89966,4.89966,0,0,1-2.34815,4.1499A10.84462,10.84462,0,0,1,284.24121,471.22363Z" transform="translate(-94.08154 -390.69336)"/><path class="cls-1" d="M323.26855,466.97266a2.6371,2.6371,0,0,0,.80957,1.80175q.80934.87086.80958,1.27539v.1211q0,.68921-.80958.68848h-5.02q-.93239,0-.93116-.89063l-.08105-.89063a6.53607,6.53607,0,0,1-5.26319,2.186,9.26377,9.26377,0,0,1-6.7207-2.73291,11.03324,11.03324,0,0,1,0-14.67578,9.1437,9.1437,0,0,1,6.76123-2.834,7.17293,7.17293,0,0,1,4.73682,1.57862v-6.47754a1.84994,1.84994,0,0,0-.50635-1.33594,7.48209,7.48209,0,0,0-1.01221-.89062.99357.99357,0,0,1-.50586-.76954v-.12158q0-.68774.8501-.93115l5.30371-1.61914q1.57911-.52589,1.5791.80957Zm-9.1499,2.55078a3.14468,3.14468,0,0,0,2.40869-1.15381,4.59473,4.59473,0,0,0,1.03272-3.17822v-7.12549a5.68321,5.68321,0,0,0-1.33594-3.64356,3.89331,3.89331,0,0,0-3.07715-1.66015,3.43121,3.43121,0,0,0-2.95556,1.55859,7.77376,7.77376,0,0,0-1.1333,4.39307,18.53409,18.53409,0,0,0,.46533,4.73681,12.09358,12.09358,0,0,0,1.78125,4.23047A3.58,3.58,0,0,0,314.11865,469.52344Z" transform="translate(-94.08154 -390.69336)"/><path class="cls-1" d="M328.04492,470.85938q-.89062,0-.89062-.68848v-.16162a2.44152,2.44152,0,0,1,.76953-1.25537,2.67734,2.67734,0,0,0,.769-1.82178v-9.1499a2.87077,2.87077,0,0,0-.769-1.90284q-.76979-.88989-.76953-1.21435v-.12158q0-.40429.85009-.8501l5.061-2.51025a1.34563,1.34563,0,0,1,1.21436-.06055.93135.93135,0,0,1,.44531.8706v14.939a2.55228,2.55228,0,0,0,.85058,1.82178q.84962.85033.8501,1.25537v.16162q0,.68921-.93115.68848Zm6.53858-23.29981a4.035,4.035,0,0,1-2.854.99219,4.18457,4.18457,0,0,1-2.895-.99219,3.28055,3.28055,0,0,1-1.11328-2.5708,3.23745,3.23745,0,0,1,1.11328-2.53027,4.18891,4.18891,0,0,1,2.895-.9917,4.039,4.039,0,0,1,2.854.9917,3.296,3.296,0,0,1,1.07275,2.53027A3.341,3.341,0,0,1,334.5835,447.55957Z" transform="translate(-94.08154 -390.69336)"/><path class="cls-1" d="M347.19482,471.22363a12.54162,12.54162,0,0,1-6.23486-1.37646q-2.42945-1.37549-2.4292-3.31983a2.05533,2.05533,0,0,1,.668-1.65966,2.62906,2.62906,0,0,1,1.76123-.5669,2.413,2.413,0,0,1,1.90283.83008,4.90869,4.90869,0,0,1,1.03223,1.8418,4.36229,4.36229,0,0,0,1.13379,1.84228,2.92844,2.92844,0,0,0,2.166.83008,3.21672,3.21672,0,0,0,2.12549-.68848,2.431,2.431,0,0,0,.82959-1.98388,2.71528,2.71528,0,0,0-1.15381-2.30762,8.06464,8.06464,0,0,0-2.81347-1.27539q-1.66041-.4248-3.31983-.97168a6.15473,6.15473,0,0,1-2.814-1.90283,5.27856,5.27856,0,0,1-1.15381-3.54248,5.09931,5.09931,0,0,1,2.2876-4.271,9.77372,9.77372,0,0,1,5.93115-1.68018,11.30762,11.30762,0,0,1,6.01221,1.437q2.32762,1.43773,2.32763,3.42089a1.944,1.944,0,0,1-.668,1.498,2.34828,2.34828,0,0,1-1.63964.60742,2.2473,2.2473,0,0,1-1.82178-.83007,4.948,4.948,0,0,1-.97168-1.82178,4.70221,4.70221,0,0,0-1.01221-1.82178,2.4139,2.4139,0,0,0-1.90283-.83008,2.46835,2.46835,0,0,0-1.90283.78955,2.73273,2.73273,0,0,0-.72852,1.92285,2.97334,2.97334,0,0,0,.60694,1.90284,3.85224,3.85224,0,0,0,1.5791,1.17431,20.66245,20.66245,0,0,0,2.146.749q1.17335.34424,2.36817.769a11.12146,11.12146,0,0,1,2.166,1.03271,4.53718,4.53718,0,0,1,1.5791,1.72071,5.55152,5.55152,0,0,1,.60694,2.69189,4.89966,4.89966,0,0,1-2.34815,4.1499A10.8446,10.8446,0,0,1,347.19482,471.22363Z" transform="translate(-94.08154 -390.69336)"/><path class="cls-1" d="M368.166,471.26416a10.0929,10.0929,0,0,1-7.46973-2.99609,9.81225,9.81225,0,0,1-2.97559-7.166,9.45764,9.45764,0,0,1,2.97559-7.28711,10.41057,10.41057,0,0,1,7.22705-2.79346,10.1078,10.1078,0,0,1,5.93115,1.61914,4.819,4.819,0,0,1,2.44922,4.04883,1.96612,1.96612,0,0,1-.60742,1.47754,2.53476,2.53476,0,0,1-1.90283.54688,2.65241,2.65241,0,0,1-1.7002-.68848,5.55862,5.55862,0,0,1-1.19433-1.49805q-.46583-.85033-.95118-1.70019a5.03412,5.03412,0,0,0-1.21484-1.4375,2.63433,2.63433,0,0,0-1.7002-.58692,3.1545,3.1545,0,0,0-2.73291,1.53858,6.7528,6.7528,0,0,0-1.03222,3.84619,10.29623,10.29623,0,0,0,1.88232,6.47754,6.01016,6.01016,0,0,0,5,2.4292,5.31033,5.31033,0,0,0,4.8584-2.834.92738.92738,0,0,1,.58691-.38476.70948.70948,0,0,1,.60743.16211.68256.68256,0,0,1,.22265.62744,6.76133,6.76133,0,0,1-2.36865,4.65576A8.49543,8.49543,0,0,1,368.166,471.26416Z" transform="translate(-94.08154 -390.69336)"/><path class="cls-1" d="M396.91064,466.811a3.83917,3.83917,0,0,0,.46534,1.49755,1.59745,1.59745,0,0,0,.70849.7085,2.98114,2.98114,0,0,1,.64795.34424.65826.65826,0,0,1,.28369.56689q0,1.17481-3.88672,1.17383a5.56357,5.56357,0,0,1-2.61132-.46533,2.13175,2.13175,0,0,1-.99219-1.7207q-1.57911,2.34886-5.38428,2.34814a8.94182,8.94182,0,0,1-5.50635-1.5791,5.97331,5.97331,0,0,1-.04052-9.06836,8.3778,8.3778,0,0,1,5.26318-1.61963,7.53756,7.53756,0,0,1,4.41309,1.21436l-.04053-.48584a19.03975,19.03975,0,0,0-1.13379-5.42481,2.52493,2.52493,0,0,0-2.46924-1.5791,2.23039,2.23039,0,0,0-1.78174.80957,4.80542,4.80542,0,0,0-.97168,1.78174,5.13,5.13,0,0,1-.93115,1.78125,2.03226,2.03226,0,0,1-1.65967.80957,2.46488,2.46488,0,0,1-1.76123-.62744,2.14546,2.14546,0,0,1-.668-1.63965,3.77067,3.77067,0,0,1,2.24707-3.36035,11.19365,11.19365,0,0,1,5.52637-1.25489,9.34251,9.34251,0,0,1,6.437,2.22657A9.20106,9.20106,0,0,1,396.02,459.3208Zm-8.98779,2.67187a2.52676,2.52676,0,0,0,2.14551-1.11328,3.80822,3.80822,0,0,0,.729-2.53027l-.12158-1.417a4.40006,4.40006,0,0,0-1.03223-2.67236,2.84609,2.84609,0,0,0-2.166-.93115,2.71806,2.71806,0,0,0-2.12549.93115,3.573,3.573,0,0,0-.83008,2.46973,6.94563,6.94563,0,0,0,.95117,3.72461A2.81555,2.81555,0,0,0,387.92285,469.48291Z" transform="translate(-94.08154 -390.69336)"/><path class="cls-1" d="M412.65967,451.02148a3.61168,3.61168,0,0,1,2.73291,1.03223,3.672,3.672,0,0,1,.99219,2.65186q0,3.19848-2.59131,3.19824a2.31348,2.31348,0,0,1-1.63965-.54639,2.18123,2.18123,0,0,1-.7085-1.19433,3.19756,3.19756,0,0,0-.48584-1.19434,1.2262,1.2262,0,0,0-1.09326-.54639,1.73441,1.73441,0,0,0-1.61914,1.29541,8.39926,8.39926,0,0,0-.52637,3.15772v8.09717a1.81558,1.81558,0,0,0,.50586,1.27539,9.226,9.226,0,0,0,1.01221.95117,1.09959,1.09959,0,0,1,.50635.81006v.16162q0,.68921-.89112.68848h-7.48974q-.93165,0-.93115-.68848v-.16162q0-.40429.78955-1.25537a2.59908,2.59908,0,0,0,.78955-1.78125V457.499a2.23229,2.23229,0,0,0-.93116-1.74072q-.93163-.769-.93115-1.17432v-.16162q0-.5669.8501-.97168l4.8584-2.26757q1.29492-.60719,1.29541.81v3.03614A5.378,5.378,0,0,1,412.65967,451.02148Z" transform="translate(-94.08154 -390.69336)"/><path class="cls-1" d="M437.15332,466.97266a2.63705,2.63705,0,0,0,.80957,1.80175q.80932.87086.80957,1.27539v.1211q0,.68921-.80957.68848h-5.02q-.93237,0-.93115-.89063l-.08106-.89063a6.536,6.536,0,0,1-5.26318,2.186,9.26376,9.26376,0,0,1-6.7207-2.73291,11.03324,11.03324,0,0,1,0-14.67578,9.14369,9.14369,0,0,1,6.76123-2.834,7.17291,7.17291,0,0,1,4.73681,1.57862v-6.47754a1.84993,1.84993,0,0,0-.50634-1.33594,7.4833,7.4833,0,0,0-1.01221-.89062.99357.99357,0,0,1-.50586-.76954v-.12158q0-.68774.8501-.93115l5.30371-1.61914q1.57909-.52589,1.5791.80957Zm-9.1499,2.55078a3.1447,3.1447,0,0,0,2.40869-1.15381,4.59472,4.59472,0,0,0,1.03271-3.17822v-7.12549a5.68326,5.68326,0,0,0-1.33593-3.64356,3.89334,3.89334,0,0,0-3.07715-1.66015,3.43124,3.43124,0,0,0-2.95557,1.55859,7.77392,7.77392,0,0,0-1.1333,4.39307,18.53453,18.53453,0,0,0,.46533,4.73681,12.09358,12.09358,0,0,0,1.78125,4.23047A3.58,3.58,0,0,0,428.00342,469.52344Z" transform="translate(-94.08154 -390.69336)"/><path class="cls-1" d="M470.26953,466.93213a3.28794,3.28794,0,0,0,.76953,1.82178,2.49733,2.49733,0,0,1,.688,1.29589v.16163q0,.68921-.93115.68847H463.792q-.93163,0-.93115-.68847v-.16163a2.45378,2.45378,0,0,1,.749-1.25537,2.59494,2.59494,0,0,0,.7085-1.8623l-.40479-7.48975q-.28417-6.11279-3.52246-6.11328a2.98424,2.98424,0,0,0-2.53027,1.21436,5.27032,5.27032,0,0,0-.91113,3.23877v9.19043a2.52628,2.52628,0,0,0,.8706,1.82177q.87012.85035.87061,1.25537v.16163q0,.68921-.93115.68847H450.229q-.93163,0-.93115-.68847v-.16163q0-.4043.87061-1.25537a2.5281,2.5281,0,0,0,.8706-1.82177v-9.43311a2.02382,2.02382,0,0,0-.30371-1.09326,2.05036,2.05036,0,0,0-.68847-.7085,2.95562,2.95562,0,0,1-.688-.54638.95674.95674,0,0,1-.30371-.648v-.16162q0-.44532.80957-.85059l4.81787-2.34814q.68774-.323,1.03222-.06055a1.08126,1.08126,0,0,1,.34424.91113v2.26709q1.74024-3.27978,5.99219-3.2793a7.3226,7.3226,0,0,1,5.24268,2.06446q2.165,2.06469,2.48974,6.55908Z" transform="translate(-94.08154 -390.69336)"/><path class="cls-1" d="M490.06689,464.70557a.75849.75849,0,0,1,.89063-.32373.66671.66671,0,0,1,.48584.769,6.52036,6.52036,0,0,1-2.4292,4.10937,8.32616,8.32616,0,0,1-5.78955,2.00391,9.39236,9.39236,0,0,1-7.04443-2.834,10.23354,10.23354,0,0,1-2.75293-7.44922,9.71563,9.71563,0,0,1,9.79736-9.95948,8.33133,8.33133,0,0,1,5.668,1.74073,5.21556,5.21556,0,0,1,1.98388,4.0083,2.75288,2.75288,0,0,1-1.78125,2.67187l-8.98779,4.08887a5.55655,5.55655,0,0,0,5.34424,3.52246,5.73465,5.73465,0,0,0,2.77295-.668A4.66454,4.66454,0,0,0,490.06689,464.70557Zm-7.5708-11.90284a2.83319,2.83319,0,0,0-2.51025,1.51807,7.28965,7.28965,0,0,0-.93115,3.8667,13.39992,13.39992,0,0,0,.40478,3.48145l5.22266-2.63135a1.93623,1.93623,0,0,0,1.05273-1.90283,5.542,5.542,0,0,0-.89062-2.8545A2.66735,2.66735,0,0,0,482.49609,452.80273Z" transform="translate(-94.08154 -390.69336)"/><path class="cls-1" d="M511.80762,466.811a3.83918,3.83918,0,0,0,.46533,1.49755,1.59741,1.59741,0,0,0,.7085.7085,2.98129,2.98129,0,0,1,.64794.34424.65827.65827,0,0,1,.2837.56689q0,1.17481-3.88672,1.17383a5.56359,5.56359,0,0,1-2.61133-.46533,2.13175,2.13175,0,0,1-.99219-1.7207q-1.57909,2.34886-5.38428,2.34814a8.94181,8.94181,0,0,1-5.50634-1.5791,5.97332,5.97332,0,0,1-.04053-9.06836,8.3778,8.3778,0,0,1,5.26318-1.61963,7.53756,7.53756,0,0,1,4.41309,1.21436l-.04053-.48584a19.03975,19.03975,0,0,0-1.13379-5.42481,2.52493,2.52493,0,0,0-2.46924-1.5791,2.23036,2.23036,0,0,0-1.78173.80957,4.80514,4.80514,0,0,0-.97168,1.78174,5.1302,5.1302,0,0,1-.93116,1.78125,2.03225,2.03225,0,0,1-1.65966.80957,2.46485,2.46485,0,0,1-1.76123-.62744,2.14543,2.14543,0,0,1-.668-1.63965,3.77066,3.77066,0,0,1,2.24707-3.36035,11.19361,11.19361,0,0,1,5.52636-1.25489,9.34254,9.34254,0,0,1,6.437,2.22657,9.201,9.201,0,0,1,2.95556,6.07275Zm-8.9878,2.67187a2.52676,2.52676,0,0,0,2.14551-1.11328,3.80822,3.80822,0,0,0,.729-2.53027l-.12159-1.417a4.4,4.4,0,0,0-1.03222-2.67236,2.84613,2.84613,0,0,0-2.166-.93115,2.71806,2.71806,0,0,0-2.12549.93115,3.573,3.573,0,0,0-.83007,2.46973,6.94554,6.94554,0,0,0,.95117,3.72461A2.81552,2.81552,0,0,0,502.81982,469.48291Z" transform="translate(-94.08154 -390.69336)"/><path class="cls-1" d="M527.55615,451.02148a3.61166,3.61166,0,0,1,2.73291,1.03223,3.67191,3.67191,0,0,1,.99219,2.65186q0,3.19848-2.59131,3.19824a2.3135,2.3135,0,0,1-1.63965-.54639,2.18115,2.18115,0,0,1-.70849-1.19433,3.19789,3.19789,0,0,0-.48584-1.19434,1.22622,1.22622,0,0,0-1.09326-.54639,1.73441,1.73441,0,0,0-1.61915,1.29541,8.39927,8.39927,0,0,0-.52636,3.15772v8.09717a1.81558,1.81558,0,0,0,.50586,1.27539,9.22592,9.22592,0,0,0,1.0122.95117,1.09956,1.09956,0,0,1,.50635.81006v.16162q0,.68921-.89111.68848h-7.48975q-.93164,0-.93115-.68848v-.16162q0-.40429.78955-1.25537a2.599,2.599,0,0,0,.78955-1.78125V457.499a2.23231,2.23231,0,0,0-.93115-1.74072q-.93164-.769-.93115-1.17432v-.16162q0-.5669.85009-.97168l4.8584-2.26757q1.29492-.60719,1.29541.81v3.03614A5.378,5.378,0,0,1,527.55615,451.02148Z" transform="translate(-94.08154 -390.69336)"/><path class="cls-1" d="M533.30469,470.85938q-.93165,0-.93115-.68848v-.16162q0-.40429.78955-1.25537a2.5984,2.5984,0,0,0,.78906-1.78125V447.05371a2.72883,2.72883,0,0,0-.78906-1.90283q-.78956-.85035-.78955-1.17432v-.16162c0-.32422.26953-.59326.80957-.81006l5.10107-2.50976a1.44716,1.44716,0,0,1,1.23486-.08106.85785.85785,0,0,1,.4253.80957v25.749a2.48857,2.48857,0,0,0,.8706,1.78125q.87012.85033.87012,1.25537v.16162q0,.68921-.93115.68848Z" transform="translate(-94.08154 -390.69336)"/><path class="cls-1" d="M564.15527,451.42627q.80933,0,.80957.64746v.20264a2.48,2.48,0,0,1-.83007,1.417,7.06311,7.06311,0,0,0-1.23487,1.74072l-7.65136,16.63965q-.52662,1.17408-.89112,1.90283-.364.72876-1.11328,1.92334a9.64223,9.64223,0,0,1-1.47754,1.88233,7.14711,7.14711,0,0,1-1.82178,1.21484,5.1735,5.1735,0,0,1-2.26757.52637,6.64811,6.64811,0,0,1-4.271-1.33594,3.81831,3.81831,0,0,1-1.68018-2.99609,2.42322,2.42322,0,0,1,.64795-1.76123,2.36445,2.36445,0,0,1,1.78125-.668,2.23,2.23,0,0,1,1.78125.749,3.75783,3.75783,0,0,1,.8501,1.68018,5.93194,5.93194,0,0,0,.62793,1.68017,1.26181,1.26181,0,0,0,1.11328.749q1.86181,0,4.16992-5.668l-8.05664-16.51856a6.9053,6.9053,0,0,0-1.31591-1.76074,2.38076,2.38076,0,0,1-.87061-1.397v-.20264q0-.64673.85059-.64746h7.5708q.7683,0,.769.688v.16211a1.41587,1.41587,0,0,1-.36426.83008,2.73169,2.73169,0,0,0-.48584.87011,3.14812,3.14812,0,0,0,.24268,1.53858l4.73681,10.97168L560.147,456.082q.4043-1.37622,0-1.90283a5.43612,5.43612,0,0,0-1.09277-1.03223q-.68921-.5061-.68848-.8706v-.16211q0-.68775.8501-.688Z" transform="translate(-94.08154 -390.69336)"/><path class="cls-2" d="M594.1543,461.38574a.64379.64379,0,0,1,.72851.72852v1.17431a.64379.64379,0,0,1-.72851.72852h-2.71241v2.87451a2.57663,2.57663,0,0,0,.89063,1.90283q.88989.85035.89062,1.25537v.1211q0,.68921-.89062.68848h-7.73291q-.89136,0-.89063-.68848v-.1211q0-.4043.80957-1.25537a2.694,2.694,0,0,0,.80957-1.90283v-2.87451H573.95166q-1.61938,0-1.61914-1.29541v-.20215a3.61363,3.61363,0,0,1,.56689-1.98389l11.25489-16.88281a3.10644,3.10644,0,0,1,2.7124-1.53857h3.644a.82315.82315,0,0,1,.93115.93115v18.34033Zm-18.54248,0h9.7163l.04053-14.53467Z" transform="translate(-94.08154 -390.69336)"/><path class="cls-2" d="M609.82178,471.26416a11.54357,11.54357,0,0,1-9.0083-4.02832q-3.583-4.02759-3.583-10.749,0-6.761,3.33984-10.76905a12.0751,12.0751,0,0,1,18.09717.14161,15.86352,15.86352,0,0,1,3.583,10.749q0,6.64014-3.5625,10.64795A11.38168,11.38168,0,0,1,609.82178,471.26416Zm.93115-2.34814a4.19051,4.19051,0,0,0,3.68408-2.51026,14.463,14.463,0,0,0,1.417-7.04443,29.79442,29.79442,0,0,0-.85009-7.166,16.57207,16.57207,0,0,0-2.49024-5.72851,4.603,4.603,0,0,0-3.7041-2.2876q-2.34888,0-3.76514,2.61133a15.92456,15.92456,0,0,0-1.417,7.46972,27.999,27.999,0,0,0,.87012,7.12549,14.87023,14.87023,0,0,0,2.51025,5.4253A4.70961,4.70961,0,0,0,610.75293,468.916Z" transform="translate(-94.08154 -390.69336)"/><path class="cls-2" d="M666.8252,466.93213a3.29062,3.29062,0,0,0,.769,1.82178,2.49928,2.49928,0,0,1,.68847,1.29589v.16163q0,.68921-.89062.68847H660.3877q-.93165,0-.93116-.68847v-.16163a2.45747,2.45747,0,0,1,.749-1.25537,2.39278,2.39278,0,0,0,.668-1.82177l-.40479-7.4087a11.01915,11.01915,0,0,0-1.01221-4.79785,2.88479,2.88479,0,0,0-4.81787-.26318,5.28758,5.28758,0,0,0-.97168,3.03662,10.06646,10.06646,0,0,1,.16211,1.94336v7.48975a2.7941,2.7941,0,0,0,.7085,1.82177,2.49918,2.49918,0,0,1,.70849,1.25537v.16163q0,.68921-.89062.68847h-7.00391q-.93237,0-.93115-.68847v-.16163a2.476,2.476,0,0,1,.72852-1.25537,2.7525,2.7525,0,0,0,.729-1.82177v-7.89454a7.80561,7.80561,0,0,0-.97168-4.251,2.93239,2.93239,0,0,0-2.55078-1.49805,3.004,3.004,0,0,0-2.55078,1.25488,5.29536,5.29536,0,0,0-.93115,3.23877v9.14991a2.52624,2.52624,0,0,0,.8706,1.82177q.87012.85035.87061,1.25537v.16163q0,.68921-.93116.68847h-7.53076q-.93163,0-.93115-.68847v-.16163q0-.4043.87061-1.25537a2.52814,2.52814,0,0,0,.8706-1.82177v-9.43311a1.8406,1.8406,0,0,0-.48584-1.29541,7.76433,7.76433,0,0,0-.99219-.91113,1.04212,1.04212,0,0,1-.50586-.78955v-.16162q0-.44532.8501-.85059l5.10108-2.34814a1.02812,1.02812,0,0,1,1.05273-.06055,1.04948,1.04948,0,0,1,.36426.91113v1.90283a6.25012,6.25012,0,0,1,5.5874-2.915,7.187,7.187,0,0,1,6.7207,3.64356,6.08168,6.08168,0,0,1,2.44922-2.67188,7.12672,7.12672,0,0,1,3.70459-.97168,7.01629,7.01629,0,0,1,5.1416,2.04444q2.0647,2.04492,2.38868,6.65967Z" transform="translate(-94.08154 -390.69336)"/><path class="cls-2" d="M671.15625,470.85938q-.89062,0-.89063-.68848v-.16162a2.44157,2.44157,0,0,1,.76954-1.25537,2.67738,2.67738,0,0,0,.769-1.82178v-9.1499a2.87082,2.87082,0,0,0-.769-1.90284q-.76979-.88989-.76954-1.21435v-.12158q0-.40429.8501-.8501l5.061-2.51025a1.34561,1.34561,0,0,1,1.21435-.06055.93134.93134,0,0,1,.44532.8706v14.939a2.55228,2.55228,0,0,0,.85058,1.82178q.84961.85033.8501,1.25537v.16162q0,.68921-.93115.68848Zm6.53857-23.29981a4.03491,4.03491,0,0,1-2.854.99219,4.18457,4.18457,0,0,1-2.895-.99219,3.28052,3.28052,0,0,1-1.11328-2.5708,3.23741,3.23741,0,0,1,1.11328-2.53027,4.18891,4.18891,0,0,1,2.895-.9917,4.039,4.039,0,0,1,2.854.9917,3.29594,3.29594,0,0,1,1.07276,2.53027A3.341,3.341,0,0,1,677.69482,447.55957Z" transform="translate(-94.08154 -390.69336)"/><path class="cls-2" d="M682.57373,470.85938q-.93164,0-.93115-.68848v-.16162q0-.40429.78955-1.25537a2.59836,2.59836,0,0,0,.78906-1.78125V447.05371a2.72878,2.72878,0,0,0-.78906-1.90283q-.78956-.85035-.78955-1.17432v-.16162c0-.32422.26953-.59326.80957-.81006l5.10107-2.50976a1.44718,1.44718,0,0,1,1.23487-.08106.85785.85785,0,0,1,.42529.80957v25.749a2.48857,2.48857,0,0,0,.8706,1.78125q.87012.85033.87012,1.25537v.16162q0,.68921-.93115.68848Z" transform="translate(-94.08154 -390.69336)"/><path class="cls-2" d="M693.90967,470.85938q-.93165,0-.93115-.68848v-.16162q0-.40429.78955-1.25537a2.5984,2.5984,0,0,0,.78906-1.78125V447.05371a2.72883,2.72883,0,0,0-.78906-1.90283q-.78955-.85035-.78955-1.17432v-.16162c0-.32422.26953-.59326.80957-.81006l5.10107-2.50976a1.44716,1.44716,0,0,1,1.23486-.08106.85785.85785,0,0,1,.4253.80957v25.749a2.48857,2.48857,0,0,0,.8706,1.78125q.87012.85033.87012,1.25537v.16162q0,.68921-.93115.68848Z" transform="translate(-94.08154 -390.69336)"/><path class="cls-2" d="M705.48828,470.85938q-.89062,0-.89062-.68848v-.16162a2.44152,2.44152,0,0,1,.76953-1.25537,2.67738,2.67738,0,0,0,.769-1.82178v-9.1499a2.87082,2.87082,0,0,0-.769-1.90284q-.76979-.88989-.76953-1.21435v-.12158q0-.40429.85009-.8501l5.061-2.51025a1.3456,1.3456,0,0,1,1.21435-.06055.93134.93134,0,0,1,.44532.8706v14.939a2.55228,2.55228,0,0,0,.85058,1.82178q.84961.85033.8501,1.25537v.16162q0,.68921-.93115.68848Zm6.53858-23.29981a4.035,4.035,0,0,1-2.854.99219,4.18457,4.18457,0,0,1-2.895-.99219,3.28055,3.28055,0,0,1-1.11328-2.5708,3.23745,3.23745,0,0,1,1.11328-2.53027,4.18891,4.18891,0,0,1,2.895-.9917,4.039,4.039,0,0,1,2.854.9917,3.296,3.296,0,0,1,1.07275,2.53027A3.341,3.341,0,0,1,712.02686,447.55957Z" transform="translate(-94.08154 -390.69336)"/><path class="cls-2" d="M727.02686,471.26416a11.09618,11.09618,0,0,1-7.95557-2.97559,9.63189,9.63189,0,0,1-3.1377-7.26709,9.32244,9.32244,0,0,1,3.07666-7.166,10.55037,10.55037,0,0,1,7.40918-2.834,10.903,10.903,0,0,1,7.77344,2.93506,10.1448,10.1448,0,0,1,.18213,14.45362A10.12,10.12,0,0,1,727.02686,471.26416Zm.72851-1.78125a2.84436,2.84436,0,0,0,2.5708-1.53857,8.5502,8.5502,0,0,0,.91113-4.332,18.04773,18.04773,0,0,0-.668-4.75683,12.64337,12.64337,0,0,0-2.0044-4.251,3.73346,3.73346,0,0,0-2.95508-1.80176q-3.72582,0-3.72509,5.91114a17.42128,17.42128,0,0,0,.668,4.61523,12.68266,12.68266,0,0,0,2.06495,4.29151A3.94066,3.94066,0,0,0,727.75537,469.48291Z" transform="translate(-94.08154 -390.69336)"/><path class="cls-2" d="M760.66943,466.93213a3.28794,3.28794,0,0,0,.76953,1.82178,2.49733,2.49733,0,0,1,.688,1.29589v.16163q0,.68921-.93115.68847h-7.00391q-.93164,0-.93115-.68847v-.16163a2.45383,2.45383,0,0,1,.749-1.25537,2.595,2.595,0,0,0,.70849-1.8623l-.40478-7.48975q-.28419-6.11279-3.52246-6.11328a2.98425,2.98425,0,0,0-2.53028,1.21436,5.27032,5.27032,0,0,0-.91113,3.23877v9.19043a2.52628,2.52628,0,0,0,.8706,1.82177q.87012.85035.87061,1.25537v.16163q0,.68921-.93115.68847h-7.53076q-.93165,0-.93116-.68847v-.16163q0-.4043.87061-1.25537a2.5281,2.5281,0,0,0,.8706-1.82177v-9.43311a2.02382,2.02382,0,0,0-.30371-1.09326,2.05027,2.05027,0,0,0-.68847-.7085,2.95562,2.95562,0,0,1-.688-.54638.95674.95674,0,0,1-.30371-.648v-.16162q0-.44532.80957-.85059l4.81787-2.34814q.68775-.323,1.03223-.06055a1.08129,1.08129,0,0,1,.34423.91113v2.26709q1.74024-3.27978,5.99219-3.2793a7.3226,7.3226,0,0,1,5.24268,2.06446q2.165,2.06469,2.48974,6.55908Z" transform="translate(-94.08154 -390.69336)"/><path class="cls-2" d="M780.062,471.26416a5.74423,5.74423,0,0,1-4.47363-1.80176,7.46929,7.46929,0,0,1-1.63965-5.20215V453.77441H772.0459a.71546.71546,0,0,1-.81006-.80957v-.68847q0-.85035.81006-.8501h1.01172a3.939,3.939,0,0,0,2.814-1.09326,5.11931,5.11931,0,0,0,1.47754-2.915q.20216-.97119.93115-.97168h.81006q.88989,0,.89063.97168l.04052,4.0083h4.65577a.77843.77843,0,0,1,.56689.24268.82594.82594,0,0,1,.24268.60742v.68847a.75881.75881,0,0,1-.24268.58692.81313.81313,0,0,1-.56689.22265h-4.65577v10.5669a2.85253,2.85253,0,0,0,.58692,1.88232,1.83813,1.83813,0,0,0,1.47754.7085,2.63416,2.63416,0,0,0,2.75342-1.82178.86258.86258,0,0,1,.91064-.42529.60953.60953,0,0,1,.54688.66846,5.83712,5.83712,0,0,1-1.68018,4.12939A5.96085,5.96085,0,0,1,780.062,471.26416Z" transform="translate(-94.08154 -390.69336)"/><path class="cls-2" d="M798.52344,471.26416a11.09619,11.09619,0,0,1-7.95557-2.97559,9.63191,9.63191,0,0,1-3.13769-7.26709,9.32244,9.32244,0,0,1,3.07666-7.166,10.55036,10.55036,0,0,1,7.40918-2.834,10.903,10.903,0,0,1,7.77343,2.93506,10.1448,10.1448,0,0,1,.18213,14.45362A10.12,10.12,0,0,1,798.52344,471.26416Zm.72851-1.78125a2.84436,2.84436,0,0,0,2.5708-1.53857,8.55009,8.55009,0,0,0,.91114-4.332,18.04775,18.04775,0,0,0-.668-4.75683,12.64318,12.64318,0,0,0-2.0044-4.251,3.73344,3.73344,0,0,0-2.95507-1.80176q-3.72583,0-3.7251,5.91114a17.4209,17.4209,0,0,0,.668,4.61523,12.68264,12.68264,0,0,0,2.06494,4.29151A3.94066,3.94066,0,0,0,799.252,469.48291Z" transform="translate(-94.08154 -390.69336)"/><path class="cls-2" d="M832.166,466.93213a3.28787,3.28787,0,0,0,.76953,1.82178,2.49741,2.49741,0,0,1,.688,1.29589v.16163q0,.68921-.93116.68847h-7.0039q-.93165,0-.93116-.68847v-.16163a2.45383,2.45383,0,0,1,.749-1.25537,2.595,2.595,0,0,0,.70849-1.8623l-.40478-7.48975q-.28418-6.11279-3.52246-6.11328a2.98426,2.98426,0,0,0-2.53028,1.21436,5.27032,5.27032,0,0,0-.91113,3.23877v9.19043a2.52626,2.52626,0,0,0,.87061,1.82177q.87012.85035.8706,1.25537v.16163q0,.68921-.93115.68847h-7.53076q-.93165,0-.93115-.68847v-.16163q0-.4043.8706-1.25537a2.52811,2.52811,0,0,0,.87061-1.82177v-9.43311a2.02391,2.02391,0,0,0-.30371-1.09326,2.05029,2.05029,0,0,0-.68848-.7085,2.95562,2.95562,0,0,1-.688-.54638.95674.95674,0,0,1-.30371-.648v-.16162q0-.44532.80957-.85059l4.81787-2.34814q.68775-.323,1.03223-.06055a1.08129,1.08129,0,0,1,.34424.91113v2.26709q1.74023-3.27978,5.99218-3.2793a7.32258,7.32258,0,0,1,5.24268,2.06446q2.165,2.06469,2.48975,6.55908Z" transform="translate(-94.08154 -390.69336)"/><path class="cls-2" d="M843.98779,471.22363a12.54162,12.54162,0,0,1-6.23486-1.37646q-2.42945-1.37549-2.4292-3.31983a2.05533,2.05533,0,0,1,.668-1.65966,2.62906,2.62906,0,0,1,1.76123-.5669,2.413,2.413,0,0,1,1.90283.83008,4.90869,4.90869,0,0,1,1.03223,1.8418,4.36219,4.36219,0,0,0,1.13379,1.84228,2.92844,2.92844,0,0,0,2.166.83008,3.21674,3.21674,0,0,0,2.12549-.68848,2.431,2.431,0,0,0,.82959-1.98388,2.71528,2.71528,0,0,0-1.15381-2.30762,8.06464,8.06464,0,0,0-2.81347-1.27539q-1.66041-.4248-3.31983-.97168a6.15473,6.15473,0,0,1-2.814-1.90283,5.27851,5.27851,0,0,1-1.15381-3.54248,5.09931,5.09931,0,0,1,2.2876-4.271,9.77372,9.77372,0,0,1,5.93115-1.68018,11.30765,11.30765,0,0,1,6.01221,1.437q2.32762,1.43773,2.32763,3.42089a1.944,1.944,0,0,1-.668,1.498,2.3483,2.3483,0,0,1-1.63965.60742,2.24729,2.24729,0,0,1-1.82177-.83007,4.94774,4.94774,0,0,1-.97168-1.82178,4.70221,4.70221,0,0,0-1.01221-1.82178,2.4139,2.4139,0,0,0-1.90283-.83008,2.46835,2.46835,0,0,0-1.90283.78955,2.73273,2.73273,0,0,0-.72852,1.92285,2.97339,2.97339,0,0,0,.60693,1.90284,3.85234,3.85234,0,0,0,1.57911,1.17431,20.66245,20.66245,0,0,0,2.146.749q1.17335.34424,2.36817.769a11.12174,11.12174,0,0,1,2.166,1.03271,4.53718,4.53718,0,0,1,1.5791,1.72071,5.55152,5.55152,0,0,1,.60694,2.69189,4.89966,4.89966,0,0,1-2.34815,4.1499A10.84462,10.84462,0,0,1,843.98779,471.22363Z" transform="translate(-94.08154 -390.69336)"/><path class="cls-1" d="M874.06787,471.26416a11.09619,11.09619,0,0,1-7.95557-2.97559,9.63191,9.63191,0,0,1-3.13769-7.26709,9.32244,9.32244,0,0,1,3.07666-7.166,10.55037,10.55037,0,0,1,7.40918-2.834,10.903,10.903,0,0,1,7.77344,2.93506,10.14482,10.14482,0,0,1,.18213,14.45362A10.12,10.12,0,0,1,874.06787,471.26416Zm.72852-1.78125a2.84437,2.84437,0,0,0,2.5708-1.53857,8.5502,8.5502,0,0,0,.91113-4.332,18.04775,18.04775,0,0,0-.668-4.75683,12.64335,12.64335,0,0,0-2.00439-4.251,3.73347,3.73347,0,0,0-2.95508-1.80176q-3.72583,0-3.7251,5.91114a17.42131,17.42131,0,0,0,.668,4.61523,12.68264,12.68264,0,0,0,2.06494,4.29151A3.94066,3.94066,0,0,0,874.79639,469.48291Z" transform="translate(-94.08154 -390.69336)"/><path class="cls-1" d="M896.57764,441.18311a6.76566,6.76566,0,0,1,4.31152,1.417,4.14814,4.14814,0,0,1,1.80176,3.31982,2.11408,2.11408,0,0,1-.5874,1.45752,2.1496,2.1496,0,0,1-1.67969.648,3.06315,3.06315,0,0,1-1.90283-.52637,2.35787,2.35787,0,0,1-.89112-1.27539q-.20287-.74853-.34375-1.498a2.86145,2.86145,0,0,0-.5874-1.29541,1.5744,1.5744,0,0,0-1.29541-.54639,1.60326,1.60326,0,0,0-1.49805.87012,4.19665,4.19665,0,0,0-.4248,2.24707,19.07567,19.07567,0,0,0,.32373,2.75293,19.34148,19.34148,0,0,0,.7085,2.67236h4.93945a.83026.83026,0,0,1,.80957.80957v.769a.71105.71105,0,0,1-.24317.54688.812.812,0,0,1-.5664.22265H894.6748v13.15772a1.88841,1.88841,0,0,0,.50586,1.2959,8.31434,8.31434,0,0,0,1.01221.97119,1.10023,1.10023,0,0,1,.50586.81006v.16162q0,.68921-.769.68848h-7.89453q-.85035,0-.85059-.68848v-.16162q0-.40429.81006-1.25537a2.60951,2.60951,0,0,0,.80957-1.82178V453.77441h-2.87451q-.85035,0-.8501-.76953v-.769a.77841.77841,0,0,1,.24268-.56689.82514.82514,0,0,1,.60742-.24268h2.87451v-2.55078a7.84651,7.84651,0,0,1,1.98389-5.54639A7.49642,7.49642,0,0,1,896.57764,441.18311Z" transform="translate(-94.08154 -390.69336)"/><path class="cls-1" d="M919.65381,441.18311a6.76566,6.76566,0,0,1,4.31152,1.417,4.14811,4.14811,0,0,1,1.80176,3.31982,2.11408,2.11408,0,0,1-.5874,1.45752,2.14958,2.14958,0,0,1-1.67969.648,3.06315,3.06315,0,0,1-1.90283-.52637,2.35792,2.35792,0,0,1-.89112-1.27539q-.20288-.74853-.34375-1.498a2.86145,2.86145,0,0,0-.5874-1.29541,1.57438,1.57438,0,0,0-1.29541-.54639,1.60324,1.60324,0,0,0-1.498.87012,4.19655,4.19655,0,0,0-.42481,2.24707,19.07567,19.07567,0,0,0,.32373,2.75293,19.34148,19.34148,0,0,0,.7085,2.67236h4.93945a.83024.83024,0,0,1,.80957.80957v.769a.711.711,0,0,1-.24316.54688.812.812,0,0,1-.56641.22265H917.751v13.15772a1.88841,1.88841,0,0,0,.50586,1.2959,8.31357,8.31357,0,0,0,1.0122.97119,1.10023,1.10023,0,0,1,.50586.81006v.16162q0,.68921-.769.68848h-7.89453q-.85035,0-.85059-.68848v-.16162q0-.40429.81006-1.25537a2.60951,2.60951,0,0,0,.80957-1.82178V453.77441h-2.87451q-.85035,0-.8501-.76953v-.769a.77845.77845,0,0,1,.24268-.56689.82515.82515,0,0,1,.60742-.24268h2.87451v-2.55078a7.84651,7.84651,0,0,1,1.98389-5.54639A7.49643,7.49643,0,0,1,919.65381,441.18311Z" transform="translate(-94.08154 -390.69336)"/><path class="cls-1" d="M934.34961,471.26416a11.09619,11.09619,0,0,1-7.95557-2.97559,9.63191,9.63191,0,0,1-3.13769-7.26709,9.32244,9.32244,0,0,1,3.07666-7.166,10.55037,10.55037,0,0,1,7.40918-2.834,10.903,10.903,0,0,1,7.77343,2.93506,10.1448,10.1448,0,0,1,.18213,14.45362A10.12,10.12,0,0,1,934.34961,471.26416Zm.72851-1.78125a2.84438,2.84438,0,0,0,2.57081-1.53857,8.5502,8.5502,0,0,0,.91113-4.332,18.04775,18.04775,0,0,0-.668-4.75683,12.64335,12.64335,0,0,0-2.00439-4.251,3.73347,3.73347,0,0,0-2.95508-1.80176q-3.72584,0-3.7251,5.91114a17.42131,17.42131,0,0,0,.668,4.61523,12.68264,12.68264,0,0,0,2.06494,4.29151A3.94066,3.94066,0,0,0,935.07812,469.48291Z" transform="translate(-94.08154 -390.69336)"/><path class="cls-1" d="M957.83105,471.26416a11.09617,11.09617,0,0,1-7.95556-2.97559,9.63189,9.63189,0,0,1-3.1377-7.26709,9.32244,9.32244,0,0,1,3.07666-7.166,10.55037,10.55037,0,0,1,7.40918-2.834,10.903,10.903,0,0,1,7.77344,2.93506,10.1448,10.1448,0,0,1,.18213,14.45362A10.12,10.12,0,0,1,957.83105,471.26416Zm.72852-1.78125a2.84436,2.84436,0,0,0,2.5708-1.53857,8.5502,8.5502,0,0,0,.91113-4.332,18.04773,18.04773,0,0,0-.668-4.75683,12.64337,12.64337,0,0,0-2.0044-4.251,3.73346,3.73346,0,0,0-2.95508-1.80176q-3.72582,0-3.7251,5.91114a17.42131,17.42131,0,0,0,.668,4.61523,12.68247,12.68247,0,0,0,2.06495,4.29151A3.94066,3.94066,0,0,0,958.55957,469.48291Z" transform="translate(-94.08154 -390.69336)"/><path class="cls-1" d="M990.25977,466.97266a2.63705,2.63705,0,0,0,.80957,1.80175q.80932.87086.80957,1.27539v.1211q0,.68921-.80957.68848h-5.02q-.93238,0-.93116-.89063l-.08105-.89063a6.536,6.536,0,0,1-5.26318,2.186,9.26378,9.26378,0,0,1-6.72071-2.73291,11.03327,11.03327,0,0,1,0-14.67578,9.14372,9.14372,0,0,1,6.76123-2.834,7.17293,7.17293,0,0,1,4.73682,1.57862v-6.47754a1.84994,1.84994,0,0,0-.50635-1.33594,7.48209,7.48209,0,0,0-1.01221-.89062.99356.99356,0,0,1-.50585-.76954v-.12158q0-.68774.85009-.93115l5.30371-1.61914q1.57911-.52589,1.57911.80957Zm-9.14991,2.55078a3.14468,3.14468,0,0,0,2.40869-1.15381,4.59473,4.59473,0,0,0,1.03272-3.17822v-7.12549a5.68321,5.68321,0,0,0-1.33594-3.64356,3.89331,3.89331,0,0,0-3.07715-1.66015,3.43121,3.43121,0,0,0-2.95556,1.55859,7.77376,7.77376,0,0,0-1.1333,4.39307,18.53409,18.53409,0,0,0,.46533,4.73681,12.09358,12.09358,0,0,0,1.78125,4.23047A3.58,3.58,0,0,0,981.10986,469.52344Z" transform="translate(-94.08154 -390.69336)"/><path class="cls-1" d="M997.9917,471.26416a4.05287,4.05287,0,0,1-2.67188-.87061,3.47053,3.47053,0,0,1,0-4.97949,4.05287,4.05287,0,0,1,2.67188-.8706,3.994,3.994,0,0,1,2.63184.8706,3.47166,3.47166,0,0,1,0,4.97949A3.99405,3.99405,0,0,1,997.9917,471.26416Z" transform="translate(-94.08154 -390.69336)"/><path class="cls-1" d="M122.09766,490.69727q.9309,0,.93115.68847v.12158q0,.405-.87061,1.27491a2.55749,2.55749,0,0,0-.87011,1.80175v23.23877a1.61284,1.61284,0,0,1-.4253,1.19434,1.55767,1.55767,0,0,1-1.15381.42529h-1.90283q-.89136,0-1.78125-1.25488L100.59961,497.499v17.97559a2.60764,2.60764,0,0,0,.91113,1.8623q.91041.89136.91065,1.2959v.1211q0,.68921-.93116.68847H96.794q-.93165,0-.93116-.68847v-.1211q0-.40429.80957-1.2959a2.749,2.749,0,0,0,.81006-1.8623v-20.8501a2.611,2.611,0,0,0-.81006-1.82178q-.81006-.85033-.80957-1.25488v-.16211q0-.68773.93116-.68847h5.061a2.25476,2.25476,0,0,1,1.90283,1.13378l14.4126,20V494.584a2.55942,2.55942,0,0,0-.87012-1.80175q-.87158-.87012-.8706-1.27491v-.12158q0-.68773.93115-.68847Z" transform="translate(-94.08154 -390.69336)"/><path class="cls-1" d="M141.53076,513.28857a.75849.75849,0,0,1,.89063-.32373.66674.66674,0,0,1,.48584.769,6.52047,6.52047,0,0,1-2.4292,4.10937,8.32618,8.32618,0,0,1-5.78955,2.00391,9.39235,9.39235,0,0,1-7.04444-2.834,10.23357,10.23357,0,0,1-2.75293-7.44922,9.71563,9.71563,0,0,1,9.79737-9.95947,8.33138,8.33138,0,0,1,5.668,1.74072,5.21559,5.21559,0,0,1,1.98388,4.00831,2.75289,2.75289,0,0,1-1.78125,2.67187l-8.98779,4.08887a5.55654,5.55654,0,0,0,5.34424,3.52246,5.73465,5.73465,0,0,0,2.773-.668A4.66448,4.66448,0,0,0,141.53076,513.28857ZM133.96,501.38574a2.83318,2.83318,0,0,0-2.51025,1.51807,7.28956,7.28956,0,0,0-.93116,3.8667,13.39976,13.39976,0,0,0,.40479,3.48144l5.22266-2.63134a1.93623,1.93623,0,0,0,1.05273-1.90284,5.542,5.542,0,0,0-.89062-2.85449A2.66735,2.66735,0,0,0,133.96,501.38574Z" transform="translate(-94.08154 -390.69336)"/><path class="cls-1" d="M163.27148,515.394a3.83917,3.83917,0,0,0,.46534,1.49756,1.59745,1.59745,0,0,0,.70849.7085,2.98114,2.98114,0,0,1,.64795.34424.65826.65826,0,0,1,.28369.56689q0,1.1748-3.88672,1.17383a5.56357,5.56357,0,0,1-2.61132-.46533,2.13175,2.13175,0,0,1-.99219-1.72071q-1.57911,2.34888-5.38428,2.34815a8.94182,8.94182,0,0,1-5.50635-1.5791,5.97331,5.97331,0,0,1-.04052-9.06836,8.3778,8.3778,0,0,1,5.26318-1.61963,7.53756,7.53756,0,0,1,4.41309,1.21435l-.04053-.48584a19.03966,19.03966,0,0,0-1.13379-5.4248,2.52492,2.52492,0,0,0-2.46924-1.5791,2.23039,2.23039,0,0,0-1.78174.80957,4.80542,4.80542,0,0,0-.97168,1.78174,5.13,5.13,0,0,1-.93115,1.78125,2.03226,2.03226,0,0,1-1.65967.80957,2.46487,2.46487,0,0,1-1.76123-.62744,2.14546,2.14546,0,0,1-.668-1.63965,3.77067,3.77067,0,0,1,2.24707-3.36035,11.19365,11.19365,0,0,1,5.52637-1.25489,9.34256,9.34256,0,0,1,6.437,2.22656,9.20108,9.20108,0,0,1,2.95557,6.07276Zm-8.98779,2.67188a2.52676,2.52676,0,0,0,2.14551-1.11328,3.80823,3.80823,0,0,0,.729-2.53028l-.12158-1.417a4.40006,4.40006,0,0,0-1.03223-2.67236,2.84609,2.84609,0,0,0-2.166-.93115,2.718,2.718,0,0,0-2.12549.93115,3.57293,3.57293,0,0,0-.83008,2.46972,6.94563,6.94563,0,0,0,.95117,3.72461A2.81554,2.81554,0,0,0,154.28369,518.06592Z" transform="translate(-94.08154 -390.69336)"/><path class="cls-1" d="M179.02,499.60449a3.61166,3.61166,0,0,1,2.73291,1.03223,3.67194,3.67194,0,0,1,.99219,2.65185q0,3.1985-2.59131,3.19825a2.31348,2.31348,0,0,1-1.63965-.54639,2.18122,2.18122,0,0,1-.7085-1.19434,3.19752,3.19752,0,0,0-.48584-1.19433,1.2262,1.2262,0,0,0-1.09326-.54639,1.73441,1.73441,0,0,0-1.61914,1.29541,8.39926,8.39926,0,0,0-.52637,3.15772v8.09716a1.81557,1.81557,0,0,0,.50586,1.27539,9.227,9.227,0,0,0,1.01221.95118,1.09955,1.09955,0,0,1,.50635.81006v.16162q0,.68921-.89111.68847h-7.48975q-.93163,0-.93115-.68847v-.16162q0-.40431.78955-1.25538a2.599,2.599,0,0,0,.78955-1.78125V506.082a2.2323,2.2323,0,0,0-.93115-1.74072q-.93165-.769-.93116-1.17432v-.16162q0-.5669.8501-.97168l4.8584-2.26758q1.29492-.60717,1.29541.81006v3.03613A5.378,5.378,0,0,1,179.02,499.60449Z" transform="translate(-94.08154 -390.69336)"/><path class="cls-1" d="M184.769,519.44238q-.93163,0-.93115-.68847v-.16162q0-.40431.78955-1.25538a2.59832,2.59832,0,0,0,.78906-1.78125V495.63672a2.72878,2.72878,0,0,0-.78906-1.90283q-.78956-.85035-.78955-1.17432V492.398c0-.32422.26953-.59326.80957-.81006l5.10108-2.50977a1.44715,1.44715,0,0,1,1.23486-.08105.85785.85785,0,0,1,.42529.80957v25.749a2.48851,2.48851,0,0,0,.87061,1.78125q.87012.85035.87011,1.25538v.16162q0,.68921-.93115.68847Z" transform="translate(-94.08154 -390.69336)"/><path class="cls-1" d="M215.61914,500.00928q.80933,0,.80957.64746v.20264a2.48,2.48,0,0,1-.83008,1.417,7.06313,7.06313,0,0,0-1.23486,1.74072l-7.65137,16.63965q-.5266,1.17406-.89111,1.90283-.364.72876-1.11328,1.92334a9.64183,9.64183,0,0,1-1.47754,1.88232,7.14713,7.14713,0,0,1-1.82178,1.21485,5.17365,5.17365,0,0,1-2.26758.52637,6.64808,6.64808,0,0,1-4.271-1.33594,3.81833,3.81833,0,0,1-1.68018-2.9961,2.42325,2.42325,0,0,1,.64795-1.76123,2.36447,2.36447,0,0,1,1.78125-.668,2.23,2.23,0,0,1,1.78125.749,3.758,3.758,0,0,1,.8501,1.68017,5.93159,5.93159,0,0,0,.62793,1.68018,1.26182,1.26182,0,0,0,1.11328.749q1.86182,0,4.16992-5.668L196.105,504.01709a6.905,6.905,0,0,0-1.31592-1.76074,2.38079,2.38079,0,0,1-.8706-1.397v-.20264q0-.64673.85058-.64746h7.5708q.76831,0,.769.688v.16211a1.41591,1.41591,0,0,1-.36426.83007,2.73144,2.73144,0,0,0-.48584.87012,3.148,3.148,0,0,0,.24267,1.53857l4.73682,10.97168,4.37256-10.40478q.40429-1.37622,0-1.90283a5.43639,5.43639,0,0,0-1.09277-1.03223q-.68922-.5061-.68848-.8706v-.16211q0-.68775.8501-.688Z" transform="translate(-94.08154 -390.69336)"/><path class="cls-2" d="M245.61816,509.96875a.6438.6438,0,0,1,.72852.72852v1.17431a.6438.6438,0,0,1-.72852.72852h-2.7124v2.87451a2.57663,2.57663,0,0,0,.89063,1.90283q.88989.85035.89062,1.25537v.1211q0,.68921-.89062.68847h-7.73291q-.89136,0-.89063-.68847v-.1211q0-.40429.80957-1.25537a2.69407,2.69407,0,0,0,.80957-1.90283V512.6001H225.41553q-1.61938,0-1.61914-1.29541v-.20215a3.61354,3.61354,0,0,1,.56689-1.98389l11.25488-16.88281a3.10647,3.10647,0,0,1,2.71241-1.53857h3.644a.82316.82316,0,0,1,.93115.93115v18.34033Zm-18.54248,0H236.792l.04053-14.53467Z" transform="translate(-94.08154 -390.69336)"/><path class="cls-2" d="M261.28564,519.84717a11.54363,11.54363,0,0,1-9.0083-4.02832q-3.583-4.02759-3.583-10.749,0-6.761,3.33984-10.769a12.07511,12.07511,0,0,1,18.09717.1416,15.86357,15.86357,0,0,1,3.583,10.749q0,6.64012-3.5625,10.648A11.38168,11.38168,0,0,1,261.28564,519.84717Zm.93116-2.34815a4.1905,4.1905,0,0,0,3.68408-2.51025,14.46316,14.46316,0,0,0,1.417-7.04443,29.79386,29.79386,0,0,0-.8501-7.166,16.57193,16.57193,0,0,0-2.49023-5.72852,4.60307,4.60307,0,0,0-3.7041-2.28759q-2.34888,0-3.76514,2.61133a15.92456,15.92456,0,0,0-1.417,7.46972,27.999,27.999,0,0,0,.87012,7.12549,14.86994,14.86994,0,0,0,2.51025,5.42529A4.70961,4.70961,0,0,0,262.2168,517.499Z" transform="translate(-94.08154 -390.69336)"/><path class="cls-2" d="M283.71436,505.63672a7.43465,7.43465,0,0,1-7.53028-7.61133,7.73914,7.73914,0,0,1,2.06446-5.56689,7.1042,7.1042,0,0,1,5.38476-2.166,7.22293,7.22293,0,0,1,5.32373,2.227,7.56352,7.56352,0,0,1,2.20654,5.54639,7.21066,7.21066,0,0,1-2.20654,5.46533A7.3343,7.3343,0,0,1,283.71436,505.63672Zm.56689-1.5791a1.84521,1.84521,0,0,0,1.74072-1.11328,6.28,6.28,0,0,0,.5669-2.854,14.56156,14.56156,0,0,0-1.07276-5.54687q-1.07373-2.63086-2.73291-2.63135a1.8804,1.8804,0,0,0-1.76123,1.17383,6.69087,6.69087,0,0,0-.58691,2.99609,13.49293,13.49293,0,0,0,1.09326,5.48584Q282.6211,504.05811,284.28125,504.05762Zm.2832,15.38476a.60361.60361,0,0,1-.58691-.26318.71144.71144,0,0,1,.06055-.668l14.69629-27.2876a.78085.78085,0,0,1,.729-.52636h2.14551a.60684.60684,0,0,1,.5874.26318.71445.71445,0,0,1-.061.668l-14.5747,27.2876a1.09434,1.09434,0,0,1-.93116.52636Zm18.21875.40479a7.4686,7.4686,0,0,1-7.53027-7.65186,7.6673,7.6673,0,0,1,2.06445-5.54638,7.13768,7.13768,0,0,1,5.38477-2.146,7.23672,7.23672,0,0,1,5.34424,2.20654,7.53454,7.53454,0,0,1,2.186,5.52637,7.40013,7.40013,0,0,1-7.44922,7.61133Zm.5669-1.5791a1.84522,1.84522,0,0,0,1.74072-1.11328,6.27856,6.27856,0,0,0,.56689-2.854,14.66308,14.66308,0,0,0-1.07275-5.58691q-1.07373-2.6316-2.73291-2.63184a1.87981,1.87981,0,0,0-1.76123,1.19434,6.822,6.822,0,0,0-.58691,3.01611,13.4911,13.4911,0,0,0,1.09326,5.48584Q301.68994,518.26856,303.3501,518.26807Z" transform="translate(-94.08154 -390.69336)"/><path class="cls-2" d="M331.64941,519.84717a11.09617,11.09617,0,0,1-7.95556-2.97559,9.63189,9.63189,0,0,1-3.1377-7.26709,9.32242,9.32242,0,0,1,3.07666-7.166,10.55037,10.55037,0,0,1,7.40918-2.834,10.903,10.903,0,0,1,7.77344,2.93506,10.14478,10.14478,0,0,1,.18213,14.45361A10.12,10.12,0,0,1,331.64941,519.84717Zm.72852-1.78125a2.84435,2.84435,0,0,0,2.5708-1.53858,8.55016,8.55016,0,0,0,.91113-4.332,18.04734,18.04734,0,0,0-.668-4.75683,12.64326,12.64326,0,0,0-2.00439-4.251,3.73346,3.73346,0,0,0-2.95508-1.80176q-3.72582,0-3.7251,5.91114a17.42131,17.42131,0,0,0,.668,4.61523,12.6825,12.6825,0,0,0,2.06494,4.2915A3.94068,3.94068,0,0,0,332.37793,518.06592Z" transform="translate(-94.08154 -390.69336)"/><path class="cls-2" d="M354.15918,489.76611a6.76567,6.76567,0,0,1,4.31152,1.417,4.1481,4.1481,0,0,1,1.80176,3.31982,2.11408,2.11408,0,0,1-.5874,1.45752,2.14957,2.14957,0,0,1-1.67969.648,3.06317,3.06317,0,0,1-1.90283-.52637,2.35785,2.35785,0,0,1-.89111-1.27539q-.20289-.74853-.34375-1.49805a2.86167,2.86167,0,0,0-.58741-1.29541,1.57441,1.57441,0,0,0-1.29541-.54638,1.60326,1.60326,0,0,0-1.498.87011,4.19669,4.19669,0,0,0-.42481,2.24707,19.0755,19.0755,0,0,0,.32373,2.75293,19.34445,19.34445,0,0,0,.7085,2.67237h4.93945a.83022.83022,0,0,1,.80957.80957v.769a.711.711,0,0,1-.24316.54688.812.812,0,0,1-.56641.22265h-4.77734v13.15772a1.88841,1.88841,0,0,0,.50586,1.2959,8.31509,8.31509,0,0,0,1.0122.97119,1.1002,1.1002,0,0,1,.50586.81006v.16162q0,.68921-.769.68847H345.6167q-.85035,0-.85059-.68847v-.16162q0-.40431.81006-1.25538a2.60947,2.60947,0,0,0,.80957-1.82177V502.35742h-2.87451q-.85034,0-.8501-.76953v-.769a.77849.77849,0,0,1,.24268-.5669.82518.82518,0,0,1,.60742-.24267h2.87451V497.4585a7.84654,7.84654,0,0,1,1.98389-5.54639A7.4964,7.4964,0,0,1,354.15918,489.76611Z" transform="translate(-94.08154 -390.69336)"/><path class="cls-2" d="M385.17041,515.394a3.83918,3.83918,0,0,0,.46533,1.49756,1.59746,1.59746,0,0,0,.7085.7085,2.98161,2.98161,0,0,1,.64795.34424.65828.65828,0,0,1,.28369.56689q0,1.1748-3.88672,1.17383a5.56362,5.56362,0,0,1-2.61133-.46533,2.13178,2.13178,0,0,1-.99219-1.72071q-1.57909,2.34888-5.38427,2.34815a8.94182,8.94182,0,0,1-5.50635-1.5791,5.97332,5.97332,0,0,1-.04053-9.06836,8.37783,8.37783,0,0,1,5.26319-1.61963,7.5375,7.5375,0,0,1,4.41308,1.21435l-.04053-.48584a19.03974,19.03974,0,0,0-1.13378-5.4248,2.52493,2.52493,0,0,0-2.46924-1.5791,2.23036,2.23036,0,0,0-1.78174.80957,4.80528,4.80528,0,0,0-.97168,1.78174,5.13017,5.13017,0,0,1-.93115,1.78125,2.03226,2.03226,0,0,1-1.65967.80957,2.46485,2.46485,0,0,1-1.76123-.62744,2.14546,2.14546,0,0,1-.668-1.63965,3.77066,3.77066,0,0,1,2.24707-3.36035,11.19362,11.19362,0,0,1,5.52637-1.25489,9.34257,9.34257,0,0,1,6.437,2.22656,9.20113,9.20113,0,0,1,2.95557,6.07276Zm-8.98779,2.67188a2.52674,2.52674,0,0,0,2.1455-1.11328,3.80818,3.80818,0,0,0,.729-2.53028l-.12158-1.417a4.40006,4.40006,0,0,0-1.03223-2.67236,2.8461,2.8461,0,0,0-2.166-.93115,2.718,2.718,0,0,0-2.12548.93115,3.57293,3.57293,0,0,0-.83008,2.46972,6.94554,6.94554,0,0,0,.95117,3.72461A2.81553,2.81553,0,0,0,376.18262,518.06592Z" transform="translate(-94.08154 -390.69336)"/><path class="cls-2" d="M389.2998,519.44238q-.93163,0-.93115-.68847v-.16162q0-.40431.78955-1.25538a2.59834,2.59834,0,0,0,.78907-1.78125V495.63672a2.72879,2.72879,0,0,0-.78907-1.90283q-.78954-.85035-.78955-1.17432V492.398c0-.32422.26953-.59326.80957-.81006l5.10108-2.50977a1.44715,1.44715,0,0,1,1.23486-.08105.85785.85785,0,0,1,.42529.80957v25.749a2.48851,2.48851,0,0,0,.87061,1.78125q.87012.85035.87012,1.25538v.16162q0,.68921-.93116.68847Z" transform="translate(-94.08154 -390.69336)"/><path class="cls-2" d="M400.63574,519.44238q-.93163,0-.93115-.68847v-.16162q0-.40431.78955-1.25538a2.59832,2.59832,0,0,0,.78906-1.78125V495.63672a2.72878,2.72878,0,0,0-.78906-1.90283q-.78956-.85035-.78955-1.17432V492.398c0-.32422.26953-.59326.80957-.81006l5.10107-2.50977a1.44717,1.44717,0,0,1,1.23487-.08105.85785.85785,0,0,1,.42529.80957v25.749a2.48851,2.48851,0,0,0,.87061,1.78125q.8701.85035.87011,1.25538v.16162q0,.68921-.93115.68847Z" transform="translate(-94.08154 -390.69336)"/><path class="cls-2" d="M429.90674,489.76611a6.76567,6.76567,0,0,1,4.31152,1.417,4.1481,4.1481,0,0,1,1.80176,3.31982,2.11408,2.11408,0,0,1-.5874,1.45752,2.14958,2.14958,0,0,1-1.67969.648,3.06315,3.06315,0,0,1-1.90283-.52637,2.35787,2.35787,0,0,1-.89112-1.27539q-.20287-.74853-.34375-1.49805a2.86155,2.86155,0,0,0-.5874-1.29541,1.57441,1.57441,0,0,0-1.29541-.54638,1.60325,1.60325,0,0,0-1.498.87011,4.19659,4.19659,0,0,0-.42481,2.24707,19.0755,19.0755,0,0,0,.32373,2.75293,19.34162,19.34162,0,0,0,.7085,2.67237h4.93945a.83022.83022,0,0,1,.80957.80957v.769a.711.711,0,0,1-.24316.54688.812.812,0,0,1-.56641.22265h-4.77734v13.15772a1.88841,1.88841,0,0,0,.50586,1.2959,8.31509,8.31509,0,0,0,1.0122.97119,1.1002,1.1002,0,0,1,.50586.81006v.16162q0,.68921-.769.68847h-7.89453q-.85035,0-.85059-.68847v-.16162q0-.40431.81006-1.25538a2.60947,2.60947,0,0,0,.80957-1.82177V502.35742h-2.87451q-.85035,0-.8501-.76953v-.769a.77849.77849,0,0,1,.24268-.5669.82517.82517,0,0,1,.60742-.24267h2.87451V497.4585a7.84649,7.84649,0,0,1,1.98389-5.54639A7.49638,7.49638,0,0,1,429.90674,489.76611Z" transform="translate(-94.08154 -390.69336)"/><path class="cls-2" d="M444.60254,519.84717a11.09619,11.09619,0,0,1-7.95557-2.97559,9.63191,9.63191,0,0,1-3.13769-7.26709,9.32242,9.32242,0,0,1,3.07666-7.166,10.55037,10.55037,0,0,1,7.40918-2.834,10.903,10.903,0,0,1,7.77343,2.93506,10.14478,10.14478,0,0,1,.18213,14.45361A10.12,10.12,0,0,1,444.60254,519.84717Zm.72851-1.78125a2.84438,2.84438,0,0,0,2.57081-1.53858,8.55016,8.55016,0,0,0,.91113-4.332,18.04775,18.04775,0,0,0-.668-4.75683,12.64308,12.64308,0,0,0-2.0044-4.251,3.73344,3.73344,0,0,0-2.95507-1.80176q-3.72583,0-3.7251,5.91114a17.42131,17.42131,0,0,0,.668,4.61523,12.6825,12.6825,0,0,0,2.06494,4.2915A3.94065,3.94065,0,0,0,445.33105,518.06592Z" transform="translate(-94.08154 -390.69336)"/><path class="cls-2" d="M468.084,519.84717a11.09617,11.09617,0,0,1-7.95556-2.97559,9.63189,9.63189,0,0,1-3.1377-7.26709,9.32242,9.32242,0,0,1,3.07666-7.166,10.55037,10.55037,0,0,1,7.40918-2.834,10.903,10.903,0,0,1,7.77344,2.93506,10.14478,10.14478,0,0,1,.18213,14.45361A10.12,10.12,0,0,1,468.084,519.84717Zm.72852-1.78125a2.84435,2.84435,0,0,0,2.5708-1.53858,8.55016,8.55016,0,0,0,.91113-4.332,18.04734,18.04734,0,0,0-.668-4.75683,12.64307,12.64307,0,0,0-2.00439-4.251,3.73346,3.73346,0,0,0-2.95508-1.80176q-3.72582,0-3.7251,5.91114a17.42131,17.42131,0,0,0,.668,4.61523,12.6825,12.6825,0,0,0,2.06494,4.2915A3.94068,3.94068,0,0,0,468.8125,518.06592Z" transform="translate(-94.08154 -390.69336)"/><path class="cls-2" d="M500.5127,515.55566a2.63707,2.63707,0,0,0,.80957,1.80176q.80933.87085.80957,1.27539v.1211q0,.68921-.80957.68847h-5.02q-.93239,0-.93116-.89062l-.08105-.89063a6.536,6.536,0,0,1-5.26318,2.186,9.26382,9.26382,0,0,1-6.72071-2.73291,11.03327,11.03327,0,0,1,0-14.67578,9.14372,9.14372,0,0,1,6.76123-2.834,7.17293,7.17293,0,0,1,4.73682,1.57862v-6.47754a1.84992,1.84992,0,0,0-.50635-1.33594,7.4822,7.4822,0,0,0-1.01221-.89063.99353.99353,0,0,1-.50585-.76953v-.12158q0-.68775.85009-.93115l5.30371-1.61914q1.57911-.52589,1.57911.80957Zm-9.14991,2.55079a3.14468,3.14468,0,0,0,2.40869-1.15381,4.59474,4.59474,0,0,0,1.03272-3.17823v-7.12548a5.68319,5.68319,0,0,0-1.33594-3.64356,3.89332,3.89332,0,0,0-3.07715-1.66016,3.4312,3.4312,0,0,0-2.95556,1.5586,7.77373,7.77373,0,0,0-1.1333,4.39307,18.53409,18.53409,0,0,0,.46533,4.73681,12.09358,12.09358,0,0,0,1.78125,4.23047A3.58,3.58,0,0,0,491.36279,518.10645Z" transform="translate(-94.08154 -390.69336)"/><path class="cls-2" d="M521.07861,519.80664a12.54173,12.54173,0,0,1-6.23486-1.37646q-2.42944-1.3755-2.4292-3.31983a2.05536,2.05536,0,0,1,.668-1.65967,2.62906,2.62906,0,0,1,1.76123-.56689,2.413,2.413,0,0,1,1.90283.83008,4.90872,4.90872,0,0,1,1.03223,1.84179,4.36227,4.36227,0,0,0,1.13379,1.84229,2.92844,2.92844,0,0,0,2.166.83008,3.21679,3.21679,0,0,0,2.12549-.68848,2.43105,2.43105,0,0,0,.82959-1.98389,2.71526,2.71526,0,0,0-1.15381-2.30761,8.06464,8.06464,0,0,0-2.81347-1.27539q-1.66041-.42481-3.31983-.97168a6.15467,6.15467,0,0,1-2.814-1.90284,5.27849,5.27849,0,0,1-1.15381-3.54248,5.0993,5.0993,0,0,1,2.2876-4.271,9.77372,9.77372,0,0,1,5.93115-1.68018,11.30765,11.30765,0,0,1,6.01221,1.437q2.32763,1.43775,2.32763,3.4209a1.944,1.944,0,0,1-.668,1.498,2.34834,2.34834,0,0,1-1.63964.60742,2.24731,2.24731,0,0,1-1.82178-.83008,4.94777,4.94777,0,0,1-.97168-1.82177,4.70214,4.70214,0,0,0-1.01221-1.82178,2.41387,2.41387,0,0,0-1.90283-.83008,2.46832,2.46832,0,0,0-1.90283.78955,2.73273,2.73273,0,0,0-.72852,1.92285,2.97329,2.97329,0,0,0,.60694,1.90283,3.85218,3.85218,0,0,0,1.5791,1.17432,20.66017,20.66017,0,0,0,2.146.749q1.17335.34425,2.36817.769a11.12146,11.12146,0,0,1,2.166,1.03271,4.53718,4.53718,0,0,1,1.5791,1.72071,5.55149,5.55149,0,0,1,.60694,2.69189,4.89966,4.89966,0,0,1-2.34815,4.1499A10.84469,10.84469,0,0,1,521.07861,519.80664Z" transform="translate(-94.08154 -390.69336)"/><path class="cls-2" d="M551.76611,515.313a3.47043,3.47043,0,0,0,.30371,1.63965q.30322.54637.668.60693a1.69792,1.69792,0,0,1,.668.26318.76632.76632,0,0,1,.30371.68848q0,1.1748-3.60351,1.17383a4.79635,4.79635,0,0,1-2.65186-.58692,2.45892,2.45892,0,0,1-.95117-2.04443q-1.70068,2.79346-5.87061,2.79346a7.17916,7.17916,0,0,1-5.40478-2.20655,8.59213,8.59213,0,0,1-2.12549-6.21435V504.584a2.75559,2.75559,0,0,0-.78955-1.88232q-.78956-.87012-.78955-1.19434v-.12158q0-.72876.85059-.8501l5.10107-.76953q1.65966-.20214,1.65967.729l-.1211,11.53857q0,5.50635,3.36036,5.50586a3.00613,3.00613,0,0,0,2.48974-1.31592,5.53176,5.53176,0,0,0,.9917-3.4209V504.584a2.72187,2.72187,0,0,0-.80957-1.88232q-.81006-.87012-.80957-1.19434v-.12158q0-.72876.80957-.8501l5.18213-.76953q1.53809-.16113,1.53857.729Z" transform="translate(-94.08154 -390.69336)"/><path class="cls-2" d="M567.63623,499.60449a9.44727,9.44727,0,0,1,6.63965,2.63135,9.30344,9.30344,0,0,1,2.834,7.166,10.49679,10.49679,0,0,1-2.773,7.51025,8.83884,8.83884,0,0,1-6.66015,2.93506,7.168,7.168,0,0,1-4.73682-1.5791v6.03271a2.55521,2.55521,0,0,0,.8501,1.82178q.85034.85033.85058,1.25488v.16211q0,.68775-.93115.68848h-7.32812q-.93165,0-.93115-.68848v-.16211q0-.405.78955-1.25488a2.64206,2.64206,0,0,0,.78955-1.82178V506.082a2.1194,2.1194,0,0,0-.93116-1.63965q-.93237-.74853-.93164-1.19433v-.20264q0-.56616.81006-.97168l4.53418-2.22656q1.53808-.76831,1.53858.729l-.04053,1.7002Q563.70947,499.6045,567.63623,499.60449Zm-.56689,18.502a3.41727,3.41727,0,0,0,3.0166-1.61963,8.42808,8.42808,0,0,0,1.07275-4.65577,18.72527,18.72527,0,0,0-1.33594-7.30761q-1.33593-3.178-3.60351-3.17823a3.02411,3.02411,0,0,0-2.186.91114,3.77445,3.77445,0,0,0-1.09326,2.36816v7.73291a6.62616,6.62616,0,0,0,1.25537,4.04834A3.56586,3.56586,0,0,0,567.06934,518.10645Z" transform="translate(-94.08154 -390.69336)"/><path class="cls-2" d="M591.44141,499.60449a9.44725,9.44725,0,0,1,6.63964,2.63135,9.30344,9.30344,0,0,1,2.834,7.166,10.49683,10.49683,0,0,1-2.77295,7.51025,8.83886,8.83886,0,0,1-6.66016,2.93506,7.168,7.168,0,0,1-4.73681-1.5791v6.03271a2.55523,2.55523,0,0,0,.85009,1.82178q.85035.85033.85059,1.25488v.16211q0,.68775-.93115.68848h-7.32813q-.93163,0-.93115-.68848v-.16211q0-.405.78955-1.25488a2.642,2.642,0,0,0,.78955-1.82178V506.082a2.11938,2.11938,0,0,0-.93115-1.63965q-.93237-.74853-.93164-1.19433v-.20264q0-.56616.81006-.97168l4.53418-2.22656q1.53809-.76831,1.53857.729l-.04053,1.7002Q587.51465,499.6045,591.44141,499.60449Zm-.5669,18.502a3.41726,3.41726,0,0,0,3.0166-1.61963,8.428,8.428,0,0,0,1.07276-4.65577,18.72546,18.72546,0,0,0-1.33594-7.30761q-1.33594-3.178-3.60352-3.17823a3.02408,3.02408,0,0,0-2.186.91114,3.77445,3.77445,0,0,0-1.09326,2.36816v7.73291a6.62609,6.62609,0,0,0,1.25537,4.04834A3.56584,3.56584,0,0,0,590.87451,518.10645Z" transform="translate(-94.08154 -390.69336)"/><path class="cls-2" d="M604.03271,519.44238q-.93163,0-.93115-.68847v-.16162q0-.40431.78955-1.25538a2.59834,2.59834,0,0,0,.78907-1.78125V495.63672a2.72879,2.72879,0,0,0-.78907-1.90283q-.78954-.85035-.78955-1.17432V492.398c0-.32422.26953-.59326.80957-.81006l5.10108-2.50977a1.44715,1.44715,0,0,1,1.23486-.08105.85785.85785,0,0,1,.42529.80957v25.749a2.48851,2.48851,0,0,0,.87061,1.78125q.87012.85035.87012,1.25538v.16162q0,.68921-.93116.68847Z" transform="translate(-94.08154 -390.69336)"/><path class="cls-2" d="M634.88281,500.00928q.80933,0,.80957.64746v.20264a2.48,2.48,0,0,1-.83008,1.417,7.06313,7.06313,0,0,0-1.23486,1.74072l-7.65137,16.63965q-.52661,1.17406-.89111,1.90283-.364.72876-1.11328,1.92334a9.64183,9.64183,0,0,1-1.47754,1.88232,7.14713,7.14713,0,0,1-1.82178,1.21485,5.17364,5.17364,0,0,1-2.26757.52637,6.64811,6.64811,0,0,1-4.271-1.33594,3.81833,3.81833,0,0,1-1.68018-2.9961,2.42325,2.42325,0,0,1,.64795-1.76123,2.36447,2.36447,0,0,1,1.78125-.668,2.23,2.23,0,0,1,1.78125.749,3.75785,3.75785,0,0,1,.8501,1.68017,5.93189,5.93189,0,0,0,.62793,1.68018,1.26182,1.26182,0,0,0,1.11328.749q1.86182,0,4.16992-5.668l-8.05664-16.51855a6.905,6.905,0,0,0-1.31592-1.76074,2.38079,2.38079,0,0,1-.8706-1.397v-.20264q0-.64673.85058-.64746h7.57081q.7683,0,.769.688v.16211a1.41584,1.41584,0,0,1-.36426.83007,2.73183,2.73183,0,0,0-.48584.87012,3.14808,3.14808,0,0,0,.24268,1.53857l4.73681,10.97168,4.37256-10.40478q.4043-1.37622,0-1.90283a5.43639,5.43639,0,0,0-1.09277-1.03223q-.68921-.5061-.68848-.8706v-.16211q0-.68775.8501-.688Z" transform="translate(-94.08154 -390.69336)"/><path class="cls-1" d="M645.16553,519.44238q-.89062,0-.89063-.68847v-.16162a2.44161,2.44161,0,0,1,.76953-1.25538,2.67731,2.67731,0,0,0,.769-1.82177v-9.14991a2.87078,2.87078,0,0,0-.769-1.90283q-.76977-.88989-.76953-1.21435v-.12159q0-.4043.8501-.85009l5.061-2.51026a1.3456,1.3456,0,0,1,1.21435-.06054.93133.93133,0,0,1,.44531.8706v14.939a2.55221,2.55221,0,0,0,.85059,1.82177q.84961.85035.8501,1.25538v.16162q0,.68921-.93116.68847Zm6.53857-23.2998a4.03491,4.03491,0,0,1-2.854.99219,4.18457,4.18457,0,0,1-2.895-.99219,3.28054,3.28054,0,0,1-1.11328-2.5708,3.23743,3.23743,0,0,1,1.11328-2.53028,4.189,4.189,0,0,1,2.895-.9917,4.03906,4.03906,0,0,1,2.854.9917,3.296,3.296,0,0,1,1.07276,2.53028A3.341,3.341,0,0,1,651.7041,496.14258Z" transform="translate(-94.08154 -390.69336)"/><path class="cls-1" d="M664.31543,519.80664a12.5417,12.5417,0,0,1-6.23486-1.37646q-2.42944-1.3755-2.4292-3.31983a2.05532,2.05532,0,0,1,.668-1.65967,2.629,2.629,0,0,1,1.76123-.56689,2.413,2.413,0,0,1,1.90283.83008,4.90856,4.90856,0,0,1,1.03222,1.84179,4.36227,4.36227,0,0,0,1.13379,1.84229,2.92847,2.92847,0,0,0,2.166.83008,3.21679,3.21679,0,0,0,2.12549-.68848,2.43108,2.43108,0,0,0,.82959-1.98389,2.71526,2.71526,0,0,0-1.15381-2.30761,8.06461,8.06461,0,0,0-2.81348-1.27539q-1.6604-.42481-3.31982-.97168a6.15475,6.15475,0,0,1-2.814-1.90284,5.27854,5.27854,0,0,1-1.15381-3.54248,5.0993,5.0993,0,0,1,2.2876-4.271,9.77377,9.77377,0,0,1,5.93116-1.68018,11.30759,11.30759,0,0,1,6.0122,1.437q2.32764,1.43775,2.32764,3.4209a1.94408,1.94408,0,0,1-.668,1.498,2.34835,2.34835,0,0,1-1.63965.60742,2.24732,2.24732,0,0,1-1.82178-.83008,4.94791,4.94791,0,0,1-.97168-1.82177,4.702,4.702,0,0,0-1.0122-1.82178,2.41387,2.41387,0,0,0-1.90283-.83008,2.46833,2.46833,0,0,0-1.90284.78955,2.73272,2.73272,0,0,0-.72851,1.92285,2.97334,2.97334,0,0,0,.60693,1.90283,3.85224,3.85224,0,0,0,1.5791,1.17432,20.66038,20.66038,0,0,0,2.146.749q1.17335.34425,2.36816.769a11.12155,11.12155,0,0,1,2.166,1.03271,4.53718,4.53718,0,0,1,1.5791,1.72071,5.55149,5.55149,0,0,1,.60693,2.69189,4.89965,4.89965,0,0,1-2.34814,4.1499A10.84469,10.84469,0,0,1,664.31543,519.80664Z" transform="translate(-94.08154 -390.69336)"/><path class="cls-1" d="M710.832,500.00928q.80932,0,.81006.64746v.20264q0,.48559-.95166,1.29541a4.03777,4.03777,0,0,0-1.27539,1.78173l-5.22266,14.53418a1.26985,1.26985,0,0,1-1.29541.97168H701.561a1.25575,1.25575,0,0,1-1.33594-.97168L696.5,506.48682l-3.76514,11.98388a1.29523,1.29523,0,0,1-1.33593.97168h-.93116a1.26949,1.26949,0,0,1-1.29541-.97168l-5.91113-14.53418a5.41633,5.41633,0,0,0-1.1333-1.7207,2.43152,2.43152,0,0,1-.81006-1.35644v-.20264q0-.64673.81006-.64746H689.334q.769,0,.76954.688v.16211a.91929.91929,0,0,1-.2837.62744,5.51015,5.51015,0,0,1-.58691.54687,1.42359,1.42359,0,0,0-.44531.769,2.04177,2.04177,0,0,0,.10107,1.21436l3.23926,9.51416,3.76514-12.59082a.9389.9389,0,0,1,.93115-.76953l2.22656-.04a.92912.92912,0,0,1,.93115.72852l3.68409,12.67187,3.11767-8.98779a2.12357,2.12357,0,0,0,.10108-1.47754,1.87237,1.87237,0,0,0-.60743-.91113,7.91827,7.91827,0,0,1-.749-.62745.95754.95754,0,0,1-.36426-.668v-.16211q0-.68775.80957-.688Z" transform="translate(-94.08154 -390.69336)"/><path class="cls-1" d="M730.63037,515.394a3.83934,3.83934,0,0,0,.46533,1.49756,1.59746,1.59746,0,0,0,.7085.7085,2.98161,2.98161,0,0,1,.64795.34424.65828.65828,0,0,1,.28369.56689q0,1.1748-3.88672,1.17383a5.56362,5.56362,0,0,1-2.61133-.46533,2.13174,2.13174,0,0,1-.99218-1.72071q-1.57911,2.34888-5.38428,2.34815a8.94182,8.94182,0,0,1-5.50635-1.5791,5.97332,5.97332,0,0,1-.04053-9.06836,8.37783,8.37783,0,0,1,5.26319-1.61963,7.5375,7.5375,0,0,1,4.41308,1.21435l-.04052-.48584a19.03966,19.03966,0,0,0-1.13379-5.4248,2.52493,2.52493,0,0,0-2.46924-1.5791,2.23036,2.23036,0,0,0-1.78174.80957,4.80542,4.80542,0,0,0-.97168,1.78174,5.13,5.13,0,0,1-.93115,1.78125,2.03226,2.03226,0,0,1-1.65967.80957,2.46487,2.46487,0,0,1-1.76123-.62744,2.14546,2.14546,0,0,1-.668-1.63965,3.77066,3.77066,0,0,1,2.24707-3.36035,11.19362,11.19362,0,0,1,5.52637-1.25489,9.34257,9.34257,0,0,1,6.437,2.22656,9.20113,9.20113,0,0,1,2.95557,6.07276Zm-8.98779,2.67188a2.52677,2.52677,0,0,0,2.14551-1.11328,3.80823,3.80823,0,0,0,.729-2.53028l-.12158-1.417a4.40006,4.40006,0,0,0-1.03223-2.67236,2.84609,2.84609,0,0,0-2.166-.93115,2.718,2.718,0,0,0-2.12549.93115,3.57293,3.57293,0,0,0-.83008,2.46972,6.94554,6.94554,0,0,0,.95117,3.72461A2.81553,2.81553,0,0,0,721.64258,518.06592Z" transform="translate(-94.08154 -390.69336)"/><path class="cls-1" d="M742.49268,519.80664a12.54174,12.54174,0,0,1-6.23487-1.37646q-2.42944-1.3755-2.4292-3.31983a2.05536,2.05536,0,0,1,.668-1.65967,2.62906,2.62906,0,0,1,1.76123-.56689,2.413,2.413,0,0,1,1.90283.83008,4.90872,4.90872,0,0,1,1.03223,1.84179,4.36227,4.36227,0,0,0,1.13379,1.84229,2.92844,2.92844,0,0,0,2.166.83008,3.21676,3.21676,0,0,0,2.12548-.68848,2.43105,2.43105,0,0,0,.82959-1.98389,2.71526,2.71526,0,0,0-1.1538-2.30761,8.06478,8.06478,0,0,0-2.81348-1.27539q-1.66039-.42481-3.31983-.97168a6.15467,6.15467,0,0,1-2.814-1.90284,5.27854,5.27854,0,0,1-1.15381-3.54248,5.0993,5.0993,0,0,1,2.2876-4.271,9.77372,9.77372,0,0,1,5.93115-1.68018,11.30762,11.30762,0,0,1,6.01221,1.437q2.32764,1.43775,2.32763,3.4209a1.94407,1.94407,0,0,1-.668,1.498,2.34836,2.34836,0,0,1-1.63965.60742,2.24732,2.24732,0,0,1-1.82178-.83008,4.94791,4.94791,0,0,1-.97168-1.82177,4.702,4.702,0,0,0-1.01221-1.82178,2.41386,2.41386,0,0,0-1.90283-.83008,2.46832,2.46832,0,0,0-1.90283.78955,2.73273,2.73273,0,0,0-.72852,1.92285,2.97329,2.97329,0,0,0,.60694,1.90283,3.85218,3.85218,0,0,0,1.5791,1.17432,20.65956,20.65956,0,0,0,2.146.749q1.17333.34425,2.36816.769a11.12119,11.12119,0,0,1,2.166,1.03271,4.53729,4.53729,0,0,1,1.57911,1.72071,5.5516,5.5516,0,0,1,.60693,2.69189,4.89965,4.89965,0,0,1-2.34814,4.1499A10.84469,10.84469,0,0,1,742.49268,519.80664Z" transform="translate(-94.08154 -390.69336)"/><path class="cls-1" d="M761.27783,519.84717a5.74423,5.74423,0,0,1-4.47363-1.80176,7.46929,7.46929,0,0,1-1.63965-5.20215V502.35742h-1.90283a.71546.71546,0,0,1-.81006-.80957v-.68847q0-.85035.81006-.8501h1.01172a3.939,3.939,0,0,0,2.814-1.09326,5.11925,5.11925,0,0,0,1.47754-2.915q.20215-.97119.93115-.97168h.81006q.88989,0,.89063.97168l.04052,4.0083h4.65577a.77846.77846,0,0,1,.56689.24267.826.826,0,0,1,.24268.60743v.68847a.75881.75881,0,0,1-.24268.58692.81317.81317,0,0,1-.56689.22265H761.2373v10.5669a2.85253,2.85253,0,0,0,.58692,1.88232,1.83813,1.83813,0,0,0,1.47754.7085,2.63418,2.63418,0,0,0,2.75342-1.82178.86256.86256,0,0,1,.91064-.42529.60952.60952,0,0,1,.54688.66845,5.83715,5.83715,0,0,1-1.68018,4.1294A5.96085,5.96085,0,0,1,761.27783,519.84717Z" transform="translate(-94.08154 -390.69336)"/><path class="cls-1" d="M785.32568,513.28857a.75849.75849,0,0,1,.89063-.32373.66673.66673,0,0,1,.48584.769,6.52043,6.52043,0,0,1-2.4292,4.10937,8.32616,8.32616,0,0,1-5.78955,2.00391,9.39237,9.39237,0,0,1-7.04444-2.834A10.23356,10.23356,0,0,1,768.686,509.564a9.71563,9.71563,0,0,1,9.79736-9.95947,8.33138,8.33138,0,0,1,5.668,1.74072,5.21559,5.21559,0,0,1,1.98388,4.00831,2.75289,2.75289,0,0,1-1.78125,2.67187l-8.98779,4.08887a5.55655,5.55655,0,0,0,5.34424,3.52246,5.73465,5.73465,0,0,0,2.77295-.668A4.66448,4.66448,0,0,0,785.32568,513.28857Zm-7.5708-11.90283a2.83318,2.83318,0,0,0-2.51025,1.51807,7.28965,7.28965,0,0,0-.93115,3.8667,13.39978,13.39978,0,0,0,.40478,3.48144l5.22266-2.63134a1.93623,1.93623,0,0,0,1.05273-1.90284,5.542,5.542,0,0,0-.89062-2.85449A2.66735,2.66735,0,0,0,777.75488,501.38574Z" transform="translate(-94.08154 -390.69336)"/><path class="cls-1" d="M808.56445,515.55566a2.63707,2.63707,0,0,0,.80957,1.80176q.80933.87085.80957,1.27539v.1211q0,.68921-.80957.68847h-5.02q-.93237,0-.93115-.89062l-.08105-.89063a6.53607,6.53607,0,0,1-5.26319,2.186,9.2638,9.2638,0,0,1-6.7207-2.73291,11.03324,11.03324,0,0,1,0-14.67578,9.14369,9.14369,0,0,1,6.76123-2.834,7.173,7.173,0,0,1,4.73682,1.57862v-6.47754a1.84992,1.84992,0,0,0-.50635-1.33594,7.4828,7.4828,0,0,0-1.01221-.89063.99355.99355,0,0,1-.50586-.76953v-.12158q0-.68775.8501-.93115l5.30371-1.61914q1.57911-.52589,1.5791.80957Zm-9.1499,2.55079a3.1447,3.1447,0,0,0,2.40869-1.15381,4.59474,4.59474,0,0,0,1.03272-3.17823v-7.12548a5.68325,5.68325,0,0,0-1.33594-3.64356,3.89332,3.89332,0,0,0-3.07715-1.66016,3.43123,3.43123,0,0,0-2.95557,1.5586,7.77389,7.77389,0,0,0-1.1333,4.39307,18.53455,18.53455,0,0,0,.46534,4.73681,12.09321,12.09321,0,0,0,1.78125,4.23047A3.58,3.58,0,0,0,799.41455,518.10645Z" transform="translate(-94.08154 -390.69336)"/><path class="cls-1" d="M816.29688,519.84717a4.05286,4.05286,0,0,1-2.67188-.87061,3.47053,3.47053,0,0,1,0-4.97949,4.05286,4.05286,0,0,1,2.67188-.87061,3.994,3.994,0,0,1,2.63183.87061,3.47164,3.47164,0,0,1,0,4.97949A3.994,3.994,0,0,1,816.29688,519.84717Z" transform="translate(-94.08154 -390.69336)"/></svg>