<svg id="Layer_3" data-name="Layer 3" xmlns="http://www.w3.org/2000/svg" viewBox="0 0 802.77783 86.01416"><defs><style>.cls-1{fill:#52261e;}.cls-2{fill:#a0634c;}</style></defs><path class="cls-1" d="M107.05225,573.45654a1.63438,1.63438,0,0,0,.57714.67823q.39478.27318.39454.45556v.04053q0,.24243-.38477.24268h-2.854q-.38453,0-.38477-.24268v-.04053a.33464.33464,0,0,1,.1416-.24316,1.59428,1.59428,0,0,1,.29395-.20215.64342.64342,0,0,0,.25293-.26318.47064.47064,0,0,0,0-.4253l-.97168-2.38867h-6.5586l-.89111,2.38867a.49473.49473,0,0,0-.00977.4253.58155.58155,0,0,0,.24268.26318,1.95111,1.95111,0,0,1,.30371.20215.33.33,0,0,1,.15186.24316v.04053q0,.24243-.4253.24268H95.00781q-.405,0-.40478-.24268v-.04053q0-.16186.39453-.43554a1.47555,1.47555,0,0,0,.55664-.69825l4.49414-11.47754q.14136-.34424-.24316-.71875-.38452-.37426-.38428-.47558v-.061q0-.22264.2832-.22265h1.17432a.97525.97525,0,0,1,.95117.668Zm-9.14991-3.25927H103.773l-3.03662-7.50977Z" transform="translate(-94.60303 -560.29883)"/><path class="cls-1" d="M109.64355,574.87354q-.40575,0-.40527-.24268v-.04053q0-.16186.36475-.44531a.84739.84739,0,0,0,.36426-.68848V561.918a.83817.83817,0,0,0-.36426-.69824q-.36476-.27319-.36475-.43506v-.04053q0-.24316.40527-.24316h2.5503q.405,0,.40478.24316v.04053q0,.16186-.39453.43506a.82013.82013,0,0,0-.39453.69824v11.33594q0,.78954.64746.78955h4.49414a.9788.9788,0,0,0,.72852-.34424,2.62485,2.62485,0,0,0,.50635-.769,4.19623,4.19623,0,0,1,.4248-.769c.16211-.22949.31689-.34424.46582-.34424h.16162q.32373,0,.22266.36426l-.50586,2.22656q-.1018.46656-.50586.46583Z" transform="translate(-94.60303 -560.29883)"/><path class="cls-1" d="M125.87793,575.07617a6.57367,6.57367,0,0,1-4.19043-1.20459,3.23843,3.23843,0,0,1-1.51807-2.3584.8378.8378,0,0,1,.20264-.58691.72635.72635,0,0,1,.56641-.22266.91664.91664,0,0,1,.67822.39453,5.79254,5.79254,0,0,1,.56689.90088,7.63356,7.63356,0,0,0,.65772,1.04248,2.97076,2.97076,0,0,0,1.18457.88038,4.63453,4.63453,0,0,0,1.9331.36474,3.50324,3.50324,0,0,0,2.3379-.75928,2.43712,2.43712,0,0,0,.90087-1.95361,2.60513,2.60513,0,0,0-1.71045-2.60107,10.13463,10.13463,0,0,0-1.68017-.47559q-.92139-.18237-1.85205-.40478a8.03157,8.03157,0,0,1-1.69043-.59717,2.92828,2.92828,0,0,1-1.23486-1.18457,3.98277,3.98277,0,0,1-.47559-2.04444,3.50958,3.50958,0,0,1,1.34619-2.84423,5.66154,5.66154,0,0,1,3.69434-1.103,6.28557,6.28557,0,0,1,3.81543,1.05273,2.88962,2.88962,0,0,1,1.42724,2.24707.7249.7249,0,0,1-.83008.80957.8334.8334,0,0,1-.67773-.34424,3.9913,3.9913,0,0,1-.49609-.83007,7.19424,7.19424,0,0,0-.54639-.97168,2.54066,2.54066,0,0,0-1.02246-.82959,3.89634,3.89634,0,0,0-1.731-.34424,3.266,3.266,0,0,0-2.30762.769,2.56029,2.56029,0,0,0-.83007,1.96387,2.45073,2.45073,0,0,0,.47607,1.55859,2.75091,2.75091,0,0,0,1.24463.89063,11.91873,11.91873,0,0,0,1.69043.47558q.92066.19263,1.84228.43555a8.33964,8.33964,0,0,1,1.68995.6377,3.00432,3.00432,0,0,1,1.24511,1.23437,4.16238,4.16238,0,0,1,.47559,2.0752,3.34409,3.34409,0,0,1-1.49805,2.854A6.15787,6.15787,0,0,1,125.87793,575.07617Z" transform="translate(-94.60303 -560.29883)"/><path class="cls-1" d="M139.74414,575.07617a6.73413,6.73413,0,0,1-5.16162-2.20654,7.42606,7.42606,0,0,1-2.04492-5.22266,7.33026,7.33026,0,0,1,1.98388-5.26318,6.70439,6.70439,0,0,1,5.08106-2.085,6.50835,6.50835,0,0,1,5.04053,2.186,7.586,7.586,0,0,1,1.98388,5.28321,7.31518,7.31518,0,0,1-1.99414,5.16211A6.41523,6.41523,0,0,1,139.74414,575.07617Zm.44531-.8706a4.14112,4.14112,0,0,0,3.29981-1.5586,5.50342,5.50342,0,0,0,1.31592-3.66406,9.21267,9.21267,0,0,0-1.63965-5.54639,4.97569,4.97569,0,0,0-4.19043-2.26757,4.19093,4.19093,0,0,0-3.31983,1.498,5.52179,5.52179,0,0,0-1.29541,3.74512,9.15834,9.15834,0,0,0,1.64942,5.50586A4.97149,4.97149,0,0,0,140.18945,574.20557Z" transform="translate(-94.60303 -560.29883)"/><path class="cls-1" d="M153.16455,574.63086v-.04053q0-.14136.36475-.42529a.84672.84672,0,0,0,.36425-.68848V561.918a.87469.87469,0,0,0-.36425-.69824c-.24317-.19532-.36475-.34082-.36475-.43506v-.04053q0-.24316.40527-.24316h2.53028q.40429,0,.40478.24316v.04053a.38085.38085,0,0,1-.19238.2832,2.97862,2.97862,0,0,0-.38477.34424.7044.7044,0,0,0-.19189.50586v11.55859a.8338.8338,0,0,0,.38428.68848q.38451.28344.38476.42529v.04053q0,.24243-.40478.24268h-2.53028Q153.16407,574.87354,153.16455,574.63086Z" transform="translate(-94.60303 -560.29883)"/><path class="cls-1" d="M171.3833,560.501q.405,0,.40479.26318v.04053q0,.14208-.40479.42529a.82491.82491,0,0,0-.40478.688v12.40918q0,.54639-.50586.54639h-.50635q-.30322,0-.64746-.52637l-8.644-11.78125V573.396a.72524.72524,0,0,0,.2129.53613,3.005,3.005,0,0,0,.43505.36426q.22266.15234.22266.29394v.04053q0,.24243-.42529.24268h-1.8418c-.27051,0-.40478-.08106-.40478-.24268v-.04053q0-.14136.38427-.45556a.93123.93123,0,0,0,.38477-.73877V561.93848a.67273.67273,0,0,0-.19238-.4961,2.7526,2.7526,0,0,0-.38477-.32373.35449.35449,0,0,1-.19189-.27344v-.08105c0-.17529.13427-.26318.40478-.26318h1.53809a.85791.85791,0,0,1,.729.40478l8.40088,11.61963V561.918a.82234.82234,0,0,0-.415-.688q-.41529-.28344-.415-.42529v-.04053q0-.26293.42529-.26318Z" transform="translate(-94.60303 -560.29883)"/><path class="cls-1" d="M181.667,574.87354q-.405,0-.40478-.24268v-.04053q0-.14136.37451-.43554a.86614.86614,0,0,0,.37451-.69825v-12.085h-2.75342a.78307.78307,0,0,0-.61719.34424,2.55038,2.55038,0,0,0-.415.749,4.76815,4.76815,0,0,1-.334.74854c-.12842.23-.25293.34424-.37451.34424H177.335q-.32373,0-.26318-.40479l.32373-2.20654a.46025.46025,0,0,1,.50635-.44531H187.9624a.50163.50163,0,0,1,.52637.44531l.44531,2.22705q.08056.38452-.24267.38428h-.20264c-.12158,0-.25293-.11426-.39453-.34424a4.78083,4.78083,0,0,1-.37451-.74854,2.70548,2.70548,0,0,0-.45557-.749.83915.83915,0,0,0-.6377-.34424H183.833v12.085a.70391.70391,0,0,0,.19238.50586,2.58571,2.58571,0,0,0,.39453.34424c.13477.09473.20264.18945.20264.28369v.04053q0,.24243-.42529.24268Z" transform="translate(-94.60303 -560.29883)"/><path class="cls-1" d="M190.77588,574.87354q-.40577,0-.40527-.24268v-.04053q0-.14136.36474-.43554a.87334.87334,0,0,0,.36426-.69825V561.918a.87467.87467,0,0,0-.36426-.69824c-.24316-.19532-.36474-.34082-.36474-.43506v-.04053q0-.24316.40527-.24316h2.53027q.40429,0,.40479.24316v.04053a.38087.38087,0,0,1-.19239.2832,2.97923,2.97923,0,0,0-.38476.34424.70436.70436,0,0,0-.1919.50586l-.0205,5.18213H200.877l-.0205-5.18213a.87333.87333,0,0,0-.36426-.69824c-.24268-.19532-.36426-.34082-.36426-.43506v-.04053q0-.24316.40478-.24316H203.063q.42553,0,.42529.24316v.04053c0,.09424-.06787.189-.20264.2832a2.64067,2.64067,0,0,0-.39453.34424.70477.70477,0,0,0-.19238.50586v11.53857a.704.704,0,0,0,.19238.50586,2.58571,2.58571,0,0,0,.39453.34424c.13477.09473.20264.18945.20264.28369v.04053q0,.24243-.42529.24268h-2.53028q-.405,0-.40478-.24268v-.04053q0-.14136.36426-.43554a.872.872,0,0,0,.36426-.69825l.0205-5.46582h-7.93506v5.46582a.70354.70354,0,0,0,.1919.50586,2.90809,2.90809,0,0,0,.38476.34424.38237.38237,0,0,1,.19239.28369v.04053q0,.24243-.40479.24268Z" transform="translate(-94.60303 -560.29883)"/><path class="cls-1" d="M206.30225,574.87354q-.42555,0-.4253-.24268v-.04053q0-.14136.37451-.43554a.88341.88341,0,0,0,.37452-.71827v-11.498a.795.795,0,0,0-.18213-.53662,1.97107,1.97107,0,0,0-.37451-.34424.35463.35463,0,0,1-.19239-.273v-.061q0-.22264.36426-.22265h8.583a.49169.49169,0,0,1,.50635.44531l.48584,2.00439q.08057.405-.24317.40479h-.10107q-.20289,0-.45557-.314a4.79455,4.79455,0,0,1-.46533-.69824,2.84746,2.84746,0,0,0-.54688-.69824,1.01387,1.01387,0,0,0-.69824-.314h-4.2915q-.56689,0-.5669.688v5.08106h3.68409a.60486.60486,0,0,0,.44531-.18213,1.19776,1.19776,0,0,0,.27344-.415,2.60643,2.60643,0,0,1,.20263-.415.30945.30945,0,0,1,.25293-.18213h.08106q.26293,0,.26318.34424v2.48975c0,.23-.08789.34423-.26318.34423h-.08106a.30844.30844,0,0,1-.25293-.18212,3.01894,3.01894,0,0,1-.20263-.39454,1.2546,1.2546,0,0,0-.27344-.395.60485.60485,0,0,0-.44531-.18212h-3.68409l-.02,5.24316a.98838.98838,0,0,0,.1919.61719.65677.65677,0,0,0,.55713.25293h4.75683a.9682.9682,0,0,0,.68848-.32373,2.67515,2.67515,0,0,0,.51611-.71875,4.01117,4.01117,0,0,1,.44532-.71875c.16845-.21534.32714-.32373.47558-.32373h.12158a.2308.2308,0,0,1,.21241.12158.36632.36632,0,0,1,.03027.2832l-.48584,2.04443a.50752.50752,0,0,1-.52637.46583Z" transform="translate(-94.60303 -560.29883)"/><path class="cls-1" d="M228.812,575.07617a5.4426,5.4426,0,0,1-5.729-5.78955V561.918a.84589.84589,0,0,0-.36426-.688q-.364-.28344-.36426-.42529v-.06055q0-.24316.40479-.24316h2.55078q.4043,0,.40478.24316v.06055q0,.14208-.38476.42529a.83426.83426,0,0,0-.38428.688v7.36865a5.29108,5.29108,0,0,0,1.15381,3.583,3.83855,3.83855,0,0,0,3.05664,1.33594,3.69761,3.69761,0,0,0,2.854-1.30567,5.21015,5.21015,0,0,0,1.17432-3.61328V561.918a.83481.83481,0,0,0-.38477-.688q-.38451-.28344-.38476-.42529v-.06055q0-.24316.42529-.24316h1.78125q.42554,0,.4253.24316v.06055q0,.14208-.415.42529a.82124.82124,0,0,0-.415.688v7.38867a5.83772,5.83772,0,0,1-1.49805,4.19043A5.139,5.139,0,0,1,228.812,575.07617Z" transform="translate(-94.60303 -560.29883)"/><path class="cls-1" d="M249.62109,560.501q.405,0,.40479.26318v.04053q0,.14208-.40479.42529a.82491.82491,0,0,0-.40478.688v12.40918q0,.54639-.50586.54639h-.50635q-.30323,0-.64746-.52637l-8.644-11.78125V573.396a.72523.72523,0,0,0,.21289.53613,3.00453,3.00453,0,0,0,.43506.36426q.22264.15234.22265.29394v.04053q0,.24243-.42529.24268h-1.8418c-.2705,0-.40478-.08106-.40478-.24268v-.04053q0-.14136.38428-.45556a.93125.93125,0,0,0,.38476-.73877V561.93848a.67269.67269,0,0,0-.19238-.4961,2.7526,2.7526,0,0,0-.38477-.32373.35449.35449,0,0,1-.19189-.27344v-.08105c0-.17529.13428-.26318.40478-.26318h1.53809a.85791.85791,0,0,1,.729.40478l8.40088,11.61963V561.918a.82234.82234,0,0,0-.415-.688q-.41527-.28344-.415-.42529v-.04053q0-.26293.4253-.26318Z" transform="translate(-94.60303 -560.29883)"/><path class="cls-1" d="M252.3335,574.63086v-.04053q0-.14136.36474-.42529a.84671.84671,0,0,0,.36426-.68848V561.918a.87467.87467,0,0,0-.36426-.69824c-.24316-.19532-.36474-.34082-.36474-.43506v-.04053q0-.24316.40527-.24316H255.269q.4043,0,.40479.24316v.04053a.38085.38085,0,0,1-.19238.2832,2.97862,2.97862,0,0,0-.38477.34424.70436.70436,0,0,0-.19189.50586v11.55859a.83378.83378,0,0,0,.38427.68848q.38452.28344.38477.42529v.04053q0,.24243-.40479.24268h-2.53027Q252.333,574.87354,252.3335,574.63086Z" transform="translate(-94.60303 -560.29883)"/><path class="cls-1" d="M261.686,574.87354q-.405,0-.40479-.24268v-.04053q0-.14136.37451-.43554a.86614.86614,0,0,0,.37451-.69825v-12.085h-2.75341a.78305.78305,0,0,0-.61719.34424,2.55041,2.55041,0,0,0-.415.749,4.76815,4.76815,0,0,1-.334.74854c-.12841.23-.25293.34424-.37451.34424H257.354q-.32373,0-.26318-.40479l.32373-2.20654a.46025.46025,0,0,1,.50635-.44531h10.06055a.50162.50162,0,0,1,.52636.44531l.44531,2.22705q.08058.38452-.24267.38428h-.20264c-.12158,0-.25293-.11426-.39453-.34424a4.78083,4.78083,0,0,1-.37451-.74854,2.70524,2.70524,0,0,0-.45557-.749.83915.83915,0,0,0-.63769-.34424h-2.79346v12.085a.704.704,0,0,0,.19238.50586,2.58571,2.58571,0,0,0,.39453.34424c.13477.09473.20264.18945.20264.28369v.04053q0,.24243-.42529.24268Z" transform="translate(-94.60303 -560.29883)"/><path class="cls-1" d="M270.79541,574.87354q-.42553,0-.42529-.24268v-.04053q0-.14136.37451-.43554a.88343.88343,0,0,0,.37451-.71827v-11.498a.795.795,0,0,0-.18213-.53662,1.97107,1.97107,0,0,0-.37451-.34424.35461.35461,0,0,1-.19238-.273v-.061q0-.22264.36426-.22265h8.583a.49169.49169,0,0,1,.50635.44531l.48584,2.00439q.08056.405-.24316.40479h-.10108q-.20287,0-.45556-.314a4.79459,4.79459,0,0,1-.46534-.69824,2.84766,2.84766,0,0,0-.54687-.69824,1.0139,1.0139,0,0,0-.69824-.314h-4.29151q-.56689,0-.56689.688v5.08106H276.625a.60484.60484,0,0,0,.44531-.18213,1.19776,1.19776,0,0,0,.27344-.415,2.60643,2.60643,0,0,1,.20264-.415.30944.30944,0,0,1,.25293-.18213h.08105q.26293,0,.26318.34424v2.48975c0,.23-.08789.34423-.26318.34423h-.08105a.30842.30842,0,0,1-.25293-.18212,3.019,3.019,0,0,1-.20264-.39454,1.2546,1.2546,0,0,0-.27344-.395.60483.60483,0,0,0-.44531-.18212h-3.68408l-.02,5.24316a.98843.98843,0,0,0,.19189.61719.65678.65678,0,0,0,.55713.25293h4.75684a.96818.96818,0,0,0,.68847-.32373,2.67519,2.67519,0,0,0,.51612-.71875,4.01114,4.01114,0,0,1,.44531-.71875c.16846-.21534.32715-.32373.47559-.32373h.12158a.23077.23077,0,0,1,.2124.12158.36632.36632,0,0,1,.03027.2832l-.48584,2.04443a.50752.50752,0,0,1-.52636.46583Z" transform="translate(-94.60303 -560.29883)"/><path class="cls-1" d="M282.94092,574.87354q-.42553,0-.4253-.24268v-.04053q0-.16186.37452-.45556a.85117.85117,0,0,0,.37451-.67823V561.918a.86745.86745,0,0,0-.37451-.69824c-.25-.19532-.37452-.34082-.37452-.43506v-.04053q0-.24316.4253-.24316h4.4331a8.78436,8.78436,0,0,1,5.79932,1.97363,6.31279,6.31279,0,0,1,2.37891,5.09131,6.95013,6.95013,0,0,1-2.11573,5.32373,7.48947,7.48947,0,0,1-5.334,1.98389Zm3.07666-.83008h1.96387a5.48531,5.48531,0,0,0,5.688-5.83008,6.6111,6.6111,0,0,0-1.97363-4.96924,6.45667,6.45667,0,0,0-4.646-1.91309h-1.417q-.56689,0-.5664.648v10.95118a1.21383,1.21383,0,0,0,.25293.81982A.87227.87227,0,0,0,286.01758,574.04346Z" transform="translate(-94.60303 -560.29883)"/><path class="cls-1" d="M307.252,575.07617a6.57367,6.57367,0,0,1-4.19043-1.20459,3.23841,3.23841,0,0,1-1.51806-2.3584.8378.8378,0,0,1,.20263-.58691.72635.72635,0,0,1,.56641-.22266.91663.91663,0,0,1,.67822.39453,5.79254,5.79254,0,0,1,.5669.90088,7.63347,7.63347,0,0,0,.65771,1.04248,2.97076,2.97076,0,0,0,1.18457.88038,4.63461,4.63461,0,0,0,1.93311.36474,3.50321,3.50321,0,0,0,2.33789-.75928,2.43713,2.43713,0,0,0,.90088-1.95361,2.60516,2.60516,0,0,0-1.71045-2.60107,10.135,10.135,0,0,0-1.68018-.47559q-.92139-.18237-1.85205-.40478a8.03177,8.03177,0,0,1-1.69043-.59717,2.92828,2.92828,0,0,1-1.23486-1.18457,3.98287,3.98287,0,0,1-.47559-2.04444,3.50958,3.50958,0,0,1,1.34619-2.84423,5.66156,5.66156,0,0,1,3.69434-1.103,6.28553,6.28553,0,0,1,3.81543,1.05273,2.88963,2.88963,0,0,1,1.42725,2.24707.7249.7249,0,0,1-.83008.80957.83341.83341,0,0,1-.67774-.34424,3.99216,3.99216,0,0,1-.49609-.83007,7.19424,7.19424,0,0,0-.54639-.97168,2.54066,2.54066,0,0,0-1.02246-.82959,3.89634,3.89634,0,0,0-1.731-.34424,3.266,3.266,0,0,0-2.30761.769,2.5603,2.5603,0,0,0-.83008,1.96387,2.45073,2.45073,0,0,0,.47607,1.55859,2.751,2.751,0,0,0,1.24463.89063,11.91911,11.91911,0,0,0,1.69043.47558q.92066.19263,1.84229.43555a8.33955,8.33955,0,0,1,1.68994.6377,3.0044,3.0044,0,0,1,1.24512,1.23437,4.16249,4.16249,0,0,1,.47558,2.0752,3.34411,3.34411,0,0,1-1.498,2.854A6.15792,6.15792,0,0,1,307.252,575.07617Z" transform="translate(-94.60303 -560.29883)"/><path class="cls-1" d="M317.73828,574.87354q-.405,0-.40478-.24268v-.04053q0-.14136.37451-.43554a.86614.86614,0,0,0,.37451-.69825v-12.085H315.3291a.78307.78307,0,0,0-.61719.34424,2.55038,2.55038,0,0,0-.415.749,4.76815,4.76815,0,0,1-.334.74854c-.12842.23-.25293.34424-.37451.34424h-.18213q-.32373,0-.26318-.40479l.32373-2.20654a.46024.46024,0,0,1,.50634-.44531h10.06055a.50163.50163,0,0,1,.52637.44531l.44531,2.22705q.08056.38452-.24267.38428h-.20264c-.12158,0-.25293-.11426-.39453-.34424a4.78083,4.78083,0,0,1-.37451-.74854,2.70548,2.70548,0,0,0-.45557-.749.83915.83915,0,0,0-.6377-.34424H319.9043v12.085a.70391.70391,0,0,0,.19238.50586,2.58571,2.58571,0,0,0,.39453.34424c.13477.09473.20264.18945.20264.28369v.04053q0,.24243-.4253.24268Z" transform="translate(-94.60303 -560.29883)"/><path class="cls-1" d="M336.13867,573.45654a1.6344,1.6344,0,0,0,.57715.67823q.39477.27318.39453.45556v.04053q0,.24243-.38476.24268h-2.854q-.38452,0-.38476-.24268v-.04053a.33464.33464,0,0,1,.1416-.24316,1.59422,1.59422,0,0,1,.29394-.20215.64336.64336,0,0,0,.25293-.26318.47058.47058,0,0,0,0-.4253l-.97168-2.38867H326.645l-.89111,2.38867a.49469.49469,0,0,0-.00977.4253.58149.58149,0,0,0,.24268.26318,1.95158,1.95158,0,0,1,.30371.20215.33.33,0,0,1,.15185.24316v.04053q0,.24243-.42529.24268h-1.92285q-.405,0-.40479-.24268v-.04053q0-.16186.39453-.43554a1.47549,1.47549,0,0,0,.55664-.69825l4.49415-11.47754q.14135-.34424-.24317-.71875-.38452-.37426-.38428-.47558v-.061q0-.22264.28321-.22265h1.17431a.97525.97525,0,0,1,.95118.668Zm-9.1499-3.25927h5.87061l-3.03663-7.50977Z" transform="translate(-94.60303 -560.29883)"/><path class="cls-1" d="M340.20752,574.87354q-.405,0-.40479-.24268v-.04053q0-.14136.37452-.43554a.86614.86614,0,0,0,.37451-.69825v-12.085h-2.75342a.78307.78307,0,0,0-.61719.34424,2.55041,2.55041,0,0,0-.415.749,4.76721,4.76721,0,0,1-.334.74854c-.12842.23-.25293.34424-.37451.34424h-.18213q-.32373,0-.26319-.40479l.32374-2.20654a.46024.46024,0,0,1,.50634-.44531h10.06055a.50163.50163,0,0,1,.52637.44531l.44531,2.22705q.08057.38452-.24268.38428h-.20263c-.12159,0-.25293-.11426-.39453-.34424a4.78086,4.78086,0,0,1-.37452-.74854,2.70521,2.70521,0,0,0-.45556-.749.83916.83916,0,0,0-.6377-.34424h-2.79345v12.085a.70391.70391,0,0,0,.19238.50586,2.58523,2.58523,0,0,0,.39453.34424c.13476.09473.20264.18945.20264.28369v.04053q0,.24243-.4253.24268Z" transform="translate(-94.60303 -560.29883)"/><path class="cls-1" d="M349.31689,574.87354q-.42553,0-.42529-.24268v-.04053q0-.14136.37451-.43554a.88343.88343,0,0,0,.37451-.71827v-11.498a.795.795,0,0,0-.18212-.53662,1.97141,1.97141,0,0,0-.37452-.34424.35464.35464,0,0,1-.19238-.273v-.061q0-.22264.36426-.22265h8.583a.49168.49168,0,0,1,.50634.44531l.48584,2.00439q.08058.405-.24316.40479h-.10107q-.20289,0-.45557-.314a4.79374,4.79374,0,0,1-.46533-.69824,2.84746,2.84746,0,0,0-.54688-.69824,1.01387,1.01387,0,0,0-.69824-.314h-4.2915q-.56689,0-.5669.688v5.08106h3.68408a.60486.60486,0,0,0,.44532-.18213,1.19759,1.19759,0,0,0,.27343-.415,2.60643,2.60643,0,0,1,.20264-.415.30944.30944,0,0,1,.25293-.18213h.08106q.26294,0,.26318.34424v2.48975c0,.23-.08789.34423-.26318.34423h-.08106a.30842.30842,0,0,1-.25293-.18212,3.019,3.019,0,0,1-.20264-.39454,1.2544,1.2544,0,0,0-.27343-.395.60485.60485,0,0,0-.44532-.18212H351.4624l-.02,5.24316a.98838.98838,0,0,0,.1919.61719.65677.65677,0,0,0,.55713.25293h4.75683a.9682.9682,0,0,0,.68848-.32373,2.67537,2.67537,0,0,0,.51611-.71875,4.0117,4.0117,0,0,1,.44531-.71875c.16846-.21534.32715-.32373.47559-.32373h.12158a.23077.23077,0,0,1,.2124.12158.36632.36632,0,0,1,.03028.2832l-.48584,2.04443a.50752.50752,0,0,1-.52637.46583Z" transform="translate(-94.60303 -560.29883)"/><path class="cls-1" d="M366.21924,575.07617a6.57367,6.57367,0,0,1-4.19043-1.20459,3.23843,3.23843,0,0,1-1.51807-2.3584.83776.83776,0,0,1,.20264-.58691.72633.72633,0,0,1,.56641-.22266.91664.91664,0,0,1,.67822.39453,5.79254,5.79254,0,0,1,.56689.90088,7.63356,7.63356,0,0,0,.65772,1.04248,2.97062,2.97062,0,0,0,1.18457.88038,4.63453,4.63453,0,0,0,1.9331.36474,3.50319,3.50319,0,0,0,2.33789-.75928,2.4371,2.4371,0,0,0,.90088-1.95361,2.60513,2.60513,0,0,0-1.71045-2.60107,10.13491,10.13491,0,0,0-1.68017-.47559q-.92139-.18237-1.85205-.40478a8.03157,8.03157,0,0,1-1.69043-.59717,2.92836,2.92836,0,0,1-1.23487-1.18457,3.98287,3.98287,0,0,1-.47558-2.04444,3.50958,3.50958,0,0,1,1.34619-2.84423,5.66154,5.66154,0,0,1,3.69434-1.103,6.28552,6.28552,0,0,1,3.81542,1.05273,2.88963,2.88963,0,0,1,1.42725,2.24707.7249.7249,0,0,1-.83008.80957.8334.8334,0,0,1-.67773-.34424,3.99174,3.99174,0,0,1-.4961-.83007,7.19305,7.19305,0,0,0-.54638-.97168,2.54066,2.54066,0,0,0-1.02246-.82959,3.89634,3.89634,0,0,0-1.731-.34424,3.266,3.266,0,0,0-2.30762.769,2.5603,2.5603,0,0,0-.83008,1.96387,2.45073,2.45073,0,0,0,.47608,1.55859,2.75091,2.75091,0,0,0,1.24463.89063,11.91873,11.91873,0,0,0,1.69043.47558q.92065.19263,1.84228.43555a8.33933,8.33933,0,0,1,1.68994.6377,3.00428,3.00428,0,0,1,1.24512,1.23437,4.16238,4.16238,0,0,1,.47559,2.0752,3.34409,3.34409,0,0,1-1.498,2.854A6.15787,6.15787,0,0,1,366.21924,575.07617Z" transform="translate(-94.60303 -560.29883)"/><path class="cls-1" d="M374.49854,567.93018a1.33517,1.33517,0,0,1-.9209-.314,1.11355,1.11355,0,0,1-.3545-.88037,1.17293,1.17293,0,0,1,.3545-.91113,1.4578,1.4578,0,0,1,1.832,0,1.15724,1.15724,0,0,1,.36426.91113,1.10752,1.10752,0,0,1-.36426.87061A1.32226,1.32226,0,0,1,374.49854,567.93018Zm0,7.146a1.33752,1.33752,0,0,1-.9209-.314,1.11357,1.11357,0,0,1-.3545-.88037,1.17152,1.17152,0,0,1,.3545-.91114,1.4578,1.4578,0,0,1,1.832,0,1.15586,1.15586,0,0,1,.36426.91114,1.10646,1.10646,0,0,1-.36426.87011A1.3226,1.3226,0,0,1,374.49854,575.07617Z" transform="translate(-94.60303 -560.29883)"/><path class="cls-2" d="M116.4248,631.00928a.64379.64379,0,0,1,.72852.72851v1.17432a.64379.64379,0,0,1-.72852.72851h-2.7124v2.87452a2.57664,2.57664,0,0,0,.89063,1.90283q.88989.85034.89062,1.25537v.12109q0,.68922-.89062.68848h-7.73291q-.89136,0-.89063-.68848v-.12109q0-.4043.80957-1.25537a2.69409,2.69409,0,0,0,.80957-1.90283v-2.87452H96.22217q-1.61939,0-1.61914-1.29541v-.20214a3.61352,3.61352,0,0,1,.56689-1.98389l11.25488-16.88281a3.10648,3.10648,0,0,1,2.71241-1.53858h3.644a.82316.82316,0,0,1,.93115.93116v18.34033Zm-18.54248,0h9.71631l.04053-14.53467Z" transform="translate(-94.60303 -560.29883)"/><path class="cls-2" d="M140.71533,632.91211a.69739.69739,0,0,1,.729.89062l-1.21485,5.749q-.28344.93164-1.01172.93115H120.27a.99675.99675,0,0,1-.668-.26318.80555.80555,0,0,1-.30371-.62744v-.48584a8.55564,8.55564,0,0,1,1.478-4.65577,20.2463,20.2463,0,0,1,3.583-4.19043q2.10424-1.88232,4.21044-3.72461a23.44675,23.44675,0,0,0,3.583-3.88671,6.88054,6.88054,0,0,0,1.47754-4.02832,5.3227,5.3227,0,0,0-1.11328-3.52247,3.283,3.283,0,0,0-2.5708-1.33593,2.89481,2.89481,0,0,0-2.32813,1.17431,7.59311,7.59311,0,0,0-1.37646,2.5503,7.58127,7.58127,0,0,1-1.37647,2.55078,2.89335,2.89335,0,0,1-2.32763,1.17383,3.07511,3.07511,0,0,1-2.146-.769,2.69439,2.69439,0,0,1-.8501-2.105q0-2.75318,2.9961-4.8789a14.26494,14.26494,0,0,1,14.71631-.16162,6.77944,6.77944,0,0,1,2.73291,5.89062,7.18238,7.18238,0,0,1-.749,3.21826,9.96029,9.96029,0,0,1-1.96338,2.71289,25.89239,25.89239,0,0,1-2.71289,2.30762q-1.49779,1.114-3.07666,2.14551-1.57909,1.03271-2.95556,2.04492a15.07792,15.07792,0,0,0-2.40869,2.186,6.46693,6.46693,0,0,0-1.397,2.38868H136.1001a2.90679,2.90679,0,0,0,1.70068-.50586,3.007,3.007,0,0,0,1.03223-1.13379,6.65282,6.65282,0,0,1,.688-1.13379,1.02881,1.02881,0,0,1,.749-.50586Z" transform="translate(-94.60303 -560.29883)"/><path class="cls-2" d="M185.69482,636.55566a3.29068,3.29068,0,0,0,.769,1.82178,2.4993,2.4993,0,0,1,.68847,1.2959v.16162q0,.68921-.89062.68848h-7.0044q-.93163,0-.93115-.68848v-.16162a2.45743,2.45743,0,0,1,.749-1.25537,2.39277,2.39277,0,0,0,.668-1.82178l-.40478-7.40869a11.01911,11.01911,0,0,0-1.01221-4.79785,2.8848,2.8848,0,0,0-4.81787-.26319,5.28764,5.28764,0,0,0-.97168,3.03663,10.06632,10.06632,0,0,1,.16211,1.94336v7.48974a2.79414,2.79414,0,0,0,.7085,1.82178,2.49922,2.49922,0,0,1,.70849,1.25537v.16162q0,.68921-.89062.68848h-7.00391q-.93237,0-.93115-.68848v-.16162a2.47587,2.47587,0,0,1,.72851-1.25537,2.75255,2.75255,0,0,0,.729-1.82178v-7.89453a7.80564,7.80564,0,0,0-.97168-4.251,2.9324,2.9324,0,0,0-2.55078-1.498,3.004,3.004,0,0,0-2.55078,1.25488,5.29532,5.29532,0,0,0-.93116,3.23877v9.1499a2.52629,2.52629,0,0,0,.87061,1.82178q.87012.85034.87061,1.25537v.16162q0,.68921-.93116.68848h-7.53076q-.93163,0-.93115-.68848v-.16162q0-.4043.8706-1.25537a2.52815,2.52815,0,0,0,.87061-1.82178v-9.4331a1.8406,1.8406,0,0,0-.48584-1.29541,7.76583,7.76583,0,0,0-.99219-.91114,1.04211,1.04211,0,0,1-.50586-.78955v-.16162q0-.44531.8501-.85058l5.10107-2.34815a1.02816,1.02816,0,0,1,1.05274-.06055,1.04951,1.04951,0,0,1,.36426.91114v1.90283a6.25012,6.25012,0,0,1,5.5874-2.915,7.187,7.187,0,0,1,6.7207,3.64355,6.08171,6.08171,0,0,1,2.44922-2.67187,7.12672,7.12672,0,0,1,3.70459-.97168,7.01632,7.01632,0,0,1,5.1416,2.04443q2.0647,2.04492,2.38867,6.65967Z" transform="translate(-94.60303 -560.29883)"/><path class="cls-2" d="M190.02637,640.48291q-.89062,0-.89063-.68848v-.16162a2.44163,2.44163,0,0,1,.76953-1.25537,2.67733,2.67733,0,0,0,.769-1.82178v-9.1499a2.87078,2.87078,0,0,0-.769-1.90283q-.76977-.88989-.76953-1.21436V624.167q0-.4043.8501-.8501l5.061-2.51025a1.34564,1.34564,0,0,1,1.21435-.06055.93136.93136,0,0,1,.44531.87061v14.939a2.55223,2.55223,0,0,0,.85059,1.82178q.84962.85035.8501,1.25537v.16162q0,.68922-.93116.68848Zm6.53857-23.2998a4.03494,4.03494,0,0,1-2.854.99218,4.18461,4.18461,0,0,1-2.895-.99218,3.28054,3.28054,0,0,1-1.11328-2.57081,3.23741,3.23741,0,0,1,1.11328-2.53027,4.189,4.189,0,0,1,2.895-.9917,4.03906,4.03906,0,0,1,2.854.9917,3.29594,3.29594,0,0,1,1.07276,2.53027A3.341,3.341,0,0,1,196.56494,617.18311Z" transform="translate(-94.60303 -560.29883)"/><path class="cls-2" d="M201.44336,640.48291q-.93163,0-.93115-.68848v-.16162q0-.40429.78955-1.25537a2.59837,2.59837,0,0,0,.78906-1.78125V616.67725a2.72887,2.72887,0,0,0-.78906-1.90284q-.78956-.85033-.78955-1.17431v-.16162c0-.32422.26953-.59327.80957-.81006l5.10107-2.50977a1.44715,1.44715,0,0,1,1.23486-.08105.85784.85784,0,0,1,.4253.80957v25.749a2.48853,2.48853,0,0,0,.8706,1.78125q.87012.85035.87012,1.25537v.16162q0,.68922-.93115.68848Z" transform="translate(-94.60303 -560.29883)"/><path class="cls-2" d="M212.7793,640.48291q-.93165,0-.93116-.68848v-.16162q0-.40429.78956-1.25537a2.59837,2.59837,0,0,0,.78906-1.78125V616.67725a2.72887,2.72887,0,0,0-.78906-1.90284q-.78955-.85033-.78956-1.17431v-.16162c0-.32422.26954-.59327.80957-.81006l5.10108-2.50977a1.44715,1.44715,0,0,1,1.23486-.08105.85785.85785,0,0,1,.4253.80957v25.749a2.48853,2.48853,0,0,0,.8706,1.78125q.87012.85035.87012,1.25537v.16162q0,.68922-.93115.68848Z" transform="translate(-94.60303 -560.29883)"/><path class="cls-2" d="M224.35791,640.48291q-.89062,0-.89062-.68848v-.16162a2.44156,2.44156,0,0,1,.76953-1.25537,2.67736,2.67736,0,0,0,.769-1.82178v-9.1499a2.87081,2.87081,0,0,0-.769-1.90283q-.76978-.88989-.76953-1.21436V624.167q0-.4043.85009-.8501l5.061-2.51025a1.34564,1.34564,0,0,1,1.21435-.06055.93136.93136,0,0,1,.44532.87061v14.939a2.55226,2.55226,0,0,0,.85058,1.82178q.84962.85035.8501,1.25537v.16162q0,.68922-.93115.68848Zm6.53857-23.2998a4.03494,4.03494,0,0,1-2.854.99218,4.18461,4.18461,0,0,1-2.895-.99218,3.28057,3.28057,0,0,1-1.11328-2.57081,3.23745,3.23745,0,0,1,1.11328-2.53027,4.189,4.189,0,0,1,2.895-.9917,4.03906,4.03906,0,0,1,2.854.9917,3.29594,3.29594,0,0,1,1.07276,2.53027A3.341,3.341,0,0,1,230.89648,617.18311Z" transform="translate(-94.60303 -560.29883)"/><path class="cls-2" d="M245.89648,640.8877a11.09617,11.09617,0,0,1-7.95556-2.97559,9.6319,9.6319,0,0,1-3.1377-7.26709,9.32246,9.32246,0,0,1,3.07666-7.166,10.55036,10.55036,0,0,1,7.40918-2.834,10.903,10.903,0,0,1,7.77344,2.93506,10.14478,10.14478,0,0,1,.18213,14.45361A10.12,10.12,0,0,1,245.89648,640.8877Zm.72852-1.78125a2.84435,2.84435,0,0,0,2.5708-1.53858,8.55019,8.55019,0,0,0,.91113-4.332,18.04741,18.04741,0,0,0-.668-4.75684,12.64311,12.64311,0,0,0-2.00439-4.251,3.73343,3.73343,0,0,0-2.95508-1.80176q-3.72582,0-3.7251,5.91113a17.42139,17.42139,0,0,0,.668,4.61524,12.6825,12.6825,0,0,0,2.06494,4.2915A3.94068,3.94068,0,0,0,246.625,639.10645Z" transform="translate(-94.60303 -560.29883)"/><path class="cls-2" d="M279.53955,636.55566a3.28791,3.28791,0,0,0,.76953,1.82178,2.49735,2.49735,0,0,1,.688,1.2959v.16162q0,.68921-.93115.68848H273.062q-.93163,0-.93115-.68848v-.16162a2.45375,2.45375,0,0,1,.749-1.25537,2.595,2.595,0,0,0,.7085-1.86231l-.40479-7.48974q-.28417-6.1128-3.52246-6.11328a2.98422,2.98422,0,0,0-2.53027,1.21435,5.27032,5.27032,0,0,0-.91113,3.23877v9.19043a2.52632,2.52632,0,0,0,.8706,1.82178q.87012.85034.87061,1.25537v.16162q0,.68921-.93115.68848H259.499q-.93163,0-.93115-.68848v-.16162q0-.4043.87061-1.25537a2.52817,2.52817,0,0,0,.8706-1.82178v-9.4331a2.02383,2.02383,0,0,0-.30371-1.09327,2.05017,2.05017,0,0,0-.68848-.70849,2.95534,2.95534,0,0,1-.688-.54639.95674.95674,0,0,1-.30371-.64795v-.16162q0-.44531.80957-.85058l4.81787-2.34815q.68774-.323,1.03222-.06055a1.08129,1.08129,0,0,1,.34424.91114v2.26709q1.74024-3.27979,5.99219-3.2793a7.32259,7.32259,0,0,1,5.24267,2.06445q2.165,2.06471,2.48975,6.55908Z" transform="translate(-94.60303 -560.29883)"/><path class="cls-2" d="M314.7207,636.59619a4.919,4.919,0,0,0,1.31592,1.78125q.91113.81079.91113,1.2959v.12109q0,.68922-.89111.68848h-8.86621q-.89062,0-.89063-.68848v-.12109a1.13943,1.13943,0,0,1,.54639-.83008,4.98,4.98,0,0,0,.95166-.97168,1.256,1.256,0,0,0,.12158-1.27539l-1.21484-3.23877H295.40918l-1.17432,3.23877a1.25374,1.25374,0,0,0,.12159,1.27539,4.96616,4.96616,0,0,0,.95166.97168,1.13945,1.13945,0,0,1,.54638.83008v.12109q0,.68922-.93115.68848h-5.30371q-.89136,0-.89063-.68848v-.12109q0-.48633.89063-1.27539a4.76135,4.76135,0,0,0,1.29541-1.80176l8.05664-20.688a2.06737,2.06737,0,0,0-.54639-1.98388,4.43224,4.43224,0,0,1-.8706-1.37647v-.16211q0-.64746.81006-.648h4.21045a2.57323,2.57323,0,0,1,2.46972,1.74121Zm-18.33984-5.8706h9.35205l-4.73682-12.59082Z" transform="translate(-94.60303 -560.29883)"/><path class="cls-2" d="M351.603,636.55566a3.29066,3.29066,0,0,0,.769,1.82178,2.49926,2.49926,0,0,1,.68848,1.2959v.16162q0,.68921-.89063.68848h-7.00439q-.93165,0-.93115-.68848v-.16162a2.45747,2.45747,0,0,1,.749-1.25537,2.39282,2.39282,0,0,0,.668-1.82178l-.40479-7.40869a11.01928,11.01928,0,0,0-1.0122-4.79785,2.88481,2.88481,0,0,0-4.81788-.26319,5.28764,5.28764,0,0,0-.97168,3.03663,10.06632,10.06632,0,0,1,.16211,1.94336v7.48974a2.79414,2.79414,0,0,0,.7085,1.82178,2.49918,2.49918,0,0,1,.7085,1.25537v.16162q0,.68921-.89063.68848h-7.00391q-.93237,0-.93115-.68848v-.16162a2.47591,2.47591,0,0,1,.72852-1.25537,2.75254,2.75254,0,0,0,.729-1.82178v-7.89453a7.80564,7.80564,0,0,0-.97168-4.251,2.93239,2.93239,0,0,0-2.55078-1.498,3.004,3.004,0,0,0-2.55078,1.25488,5.29538,5.29538,0,0,0-.93115,3.23877v9.1499a2.52632,2.52632,0,0,0,.8706,1.82178q.87012.85034.87061,1.25537v.16162q0,.68921-.93115.68848h-7.53077q-.93163,0-.93115-.68848v-.16162q0-.4043.87061-1.25537a2.52813,2.52813,0,0,0,.8706-1.82178v-9.4331a1.8406,1.8406,0,0,0-.48584-1.29541,7.76578,7.76578,0,0,0-.99218-.91114,1.04208,1.04208,0,0,1-.50586-.78955v-.16162q0-.44531.85009-.85058l5.10108-2.34815a1.02814,1.02814,0,0,1,1.05273-.06055,1.04949,1.04949,0,0,1,.36426.91114v1.90283a6.25012,6.25012,0,0,1,5.5874-2.915,7.187,7.187,0,0,1,6.72071,3.64355,6.08169,6.08169,0,0,1,2.44921-2.67187,7.12674,7.12674,0,0,1,3.70459-.97168,7.01635,7.01635,0,0,1,5.14161,2.04443q2.06469,2.04492,2.38867,6.65967Z" transform="translate(-94.60303 -560.29883)"/><path class="cls-2" d="M371.40039,634.3291a.75849.75849,0,0,1,.89063-.32373.66673.66673,0,0,1,.48584.769,6.52049,6.52049,0,0,1-2.4292,4.10938,8.32618,8.32618,0,0,1-5.78955,2.00391,9.39235,9.39235,0,0,1-7.04444-2.834,10.23353,10.23353,0,0,1-2.75293-7.44922,9.71563,9.71563,0,0,1,9.79737-9.95947,8.33133,8.33133,0,0,1,5.668,1.74072A5.21555,5.21555,0,0,1,372.21,626.394a2.75289,2.75289,0,0,1-1.78125,2.67188l-8.98779,4.08887a5.55654,5.55654,0,0,0,5.34424,3.52246,5.73465,5.73465,0,0,0,2.77295-.668A4.66456,4.66456,0,0,0,371.40039,634.3291Zm-7.5708-11.90283a2.83318,2.83318,0,0,0-2.51025,1.51807,7.28954,7.28954,0,0,0-.93116,3.8667,13.39981,13.39981,0,0,0,.40479,3.48144l5.22265-2.63135a1.9362,1.9362,0,0,0,1.05274-1.90283,5.54188,5.54188,0,0,0-.89063-2.85449A2.66733,2.66733,0,0,0,363.82959,622.42627Z" transform="translate(-94.60303 -560.29883)"/><path class="cls-2" d="M387.18945,620.645a3.61166,3.61166,0,0,1,2.73291,1.03223,3.67188,3.67188,0,0,1,.99219,2.65185q0,3.19849-2.59131,3.19824a2.31354,2.31354,0,0,1-1.63965-.54638,2.18114,2.18114,0,0,1-.70849-1.19434,3.19778,3.19778,0,0,0-.48584-1.19433,1.22622,1.22622,0,0,0-1.09326-.54639,1.73439,1.73439,0,0,0-1.61914,1.29541,8.399,8.399,0,0,0-.52637,3.15771v8.09717a1.81558,1.81558,0,0,0,.50586,1.27539,9.225,9.225,0,0,0,1.0122.95117,1.09956,1.09956,0,0,1,.50635.81006v.16162q0,.68922-.89111.68848H375.894q-.93164,0-.93115-.68848v-.16162q0-.40429.78955-1.25537a2.599,2.599,0,0,0,.78955-1.78125v-9.47363a2.23227,2.23227,0,0,0-.93115-1.74072q-.93163-.769-.93115-1.17432v-.16162q0-.5669.8501-.97168l4.85839-2.26758q1.29492-.60717,1.29541.81006v3.03613A5.378,5.378,0,0,1,387.18945,620.645Z" transform="translate(-94.60303 -560.29883)"/><path class="cls-2" d="M393.18066,640.48291q-.89062,0-.89062-.68848v-.16162a2.44163,2.44163,0,0,1,.76953-1.25537,2.67732,2.67732,0,0,0,.769-1.82178v-9.1499a2.87076,2.87076,0,0,0-.769-1.90283q-.76977-.88989-.76953-1.21436V624.167q0-.4043.8501-.8501l5.061-2.51025a1.34566,1.34566,0,0,1,1.21436-.06055.93138.93138,0,0,1,.44531.87061v14.939a2.55223,2.55223,0,0,0,.85059,1.82178q.8496.85035.85009,1.25537v.16162q0,.68922-.93115.68848Zm6.53858-23.2998a4.035,4.035,0,0,1-2.854.99218,4.18463,4.18463,0,0,1-2.895-.99218,3.28057,3.28057,0,0,1-1.11328-2.57081,3.23745,3.23745,0,0,1,1.11328-2.53027,4.189,4.189,0,0,1,2.895-.9917,4.03906,4.03906,0,0,1,2.854.9917,3.296,3.296,0,0,1,1.07275,2.53027A3.341,3.341,0,0,1,399.71924,617.18311Z" transform="translate(-94.60303 -560.29883)"/><path class="cls-2" d="M413.90918,640.8877a10.09287,10.09287,0,0,1-7.46973-2.9961,9.81221,9.81221,0,0,1-2.97558-7.166,9.45762,9.45762,0,0,1,2.97558-7.28711,10.41057,10.41057,0,0,1,7.227-2.79346,10.10769,10.10769,0,0,1,5.93116,1.61914,4.819,4.819,0,0,1,2.44922,4.04883,1.96611,1.96611,0,0,1-.60743,1.47754,2.5347,2.5347,0,0,1-1.90283.54687,2.65238,2.65238,0,0,1-1.70019-.68847,5.559,5.559,0,0,1-1.19434-1.498q-.46582-.85035-.95117-1.7002a5.03459,5.03459,0,0,0-1.21485-1.4375,2.63437,2.63437,0,0,0-1.70019-.58691,3.15447,3.15447,0,0,0-2.73291,1.53857,6.75274,6.75274,0,0,0-1.03223,3.8462,10.29614,10.29614,0,0,0,1.88233,6.47753,6.01013,6.01013,0,0,0,5,2.4292,5.31032,5.31032,0,0,0,4.85839-2.834.92742.92742,0,0,1,.58692-.38477.7095.7095,0,0,1,.60742.16211.68259.68259,0,0,1,.22266.62744,6.76139,6.76139,0,0,1-2.36866,4.65577A8.49546,8.49546,0,0,1,413.90918,640.8877Z" transform="translate(-94.60303 -560.29883)"/><path class="cls-2" d="M442.6543,636.43457a3.83923,3.83923,0,0,0,.46533,1.49756,1.59736,1.59736,0,0,0,.70849.70849,2.982,2.982,0,0,1,.64795.34424.65829.65829,0,0,1,.2837.5669q0,1.1748-3.88672,1.17383a5.56357,5.56357,0,0,1-2.61133-.46534,2.13173,2.13173,0,0,1-.99219-1.7207q-1.57909,2.34888-5.38428,2.34815a8.94175,8.94175,0,0,1-5.50634-1.57911,5.97332,5.97332,0,0,1-.04053-9.06836,8.3778,8.3778,0,0,1,5.26318-1.61962,7.53756,7.53756,0,0,1,4.41309,1.21435l-.04053-.48584a19.03958,19.03958,0,0,0-1.13379-5.4248,2.52493,2.52493,0,0,0-2.46924-1.57911,2.23034,2.23034,0,0,0-1.78173.80958,4.805,4.805,0,0,0-.97168,1.78173,5.1302,5.1302,0,0,1-.93116,1.78125,2.03225,2.03225,0,0,1-1.65966.80957,2.46485,2.46485,0,0,1-1.76124-.62744,2.14544,2.14544,0,0,1-.668-1.63965,3.77067,3.77067,0,0,1,2.24707-3.36035,11.19372,11.19372,0,0,1,5.52636-1.25488,9.34258,9.34258,0,0,1,6.437,2.22656,9.20107,9.20107,0,0,1,2.95556,6.07276Zm-8.9878,2.67188a2.52674,2.52674,0,0,0,2.14551-1.11329,3.80821,3.80821,0,0,0,.729-2.53027l-.12159-1.417a4.4,4.4,0,0,0-1.03222-2.67236,2.84614,2.84614,0,0,0-2.166-.93116,2.71807,2.71807,0,0,0-2.12549.93116,3.57293,3.57293,0,0,0-.83008,2.46972,6.94554,6.94554,0,0,0,.95118,3.72461A2.81551,2.81551,0,0,0,433.6665,639.10645Z" transform="translate(-94.60303 -560.29883)"/><path class="cls-2" d="M467.06689,636.55566a3.28793,3.28793,0,0,0,.76954,1.82178,2.49739,2.49739,0,0,1,.688,1.2959v.16162q0,.68921-.93115.68848h-7.0039q-.93165,0-.93116-.68848v-.16162a2.45379,2.45379,0,0,1,.749-1.25537,2.595,2.595,0,0,0,.70849-1.86231l-.40478-7.48974q-.28419-6.1128-3.52246-6.11328a2.98424,2.98424,0,0,0-2.53028,1.21435,5.27032,5.27032,0,0,0-.91113,3.23877v9.19043a2.52629,2.52629,0,0,0,.87061,1.82178q.8701.85034.8706,1.25537v.16162q0,.68921-.93115.68848h-7.53076q-.93165,0-.93116-.68848v-.16162q0-.4043.87061-1.25537a2.52815,2.52815,0,0,0,.87061-1.82178v-9.4331a2.02384,2.02384,0,0,0-.30372-1.09327,2.05006,2.05006,0,0,0-.68847-.70849,2.9554,2.9554,0,0,1-.688-.54639.95674.95674,0,0,1-.30371-.64795v-.16162q0-.44531.80957-.85058l4.81787-2.34815q.68775-.323,1.03223-.06055a1.08132,1.08132,0,0,1,.34424.91114v2.26709q1.74023-3.27979,5.99218-3.2793a7.32263,7.32263,0,0,1,5.24268,2.06445q2.165,2.06471,2.48974,6.55908Z" transform="translate(-94.60303 -560.29883)"/><path class="cls-2" d="M478.88867,640.84717a12.54159,12.54159,0,0,1-6.23486-1.37647q-2.42945-1.37548-2.4292-3.31982a2.05534,2.05534,0,0,1,.668-1.65967,2.629,2.629,0,0,1,1.76123-.56689,2.413,2.413,0,0,1,1.90283.83007,4.90884,4.90884,0,0,1,1.03223,1.8418,4.36229,4.36229,0,0,0,1.13379,1.84229,2.92843,2.92843,0,0,0,2.166.83007,3.21679,3.21679,0,0,0,2.12549-.68847,2.43108,2.43108,0,0,0,.82959-1.98389,2.71529,2.71529,0,0,0-1.15381-2.30762,8.065,8.065,0,0,0-2.81348-1.27539q-1.6604-.4248-3.31982-.97168a6.15458,6.15458,0,0,1-2.814-1.90283,5.27851,5.27851,0,0,1-1.15381-3.54248,5.09927,5.09927,0,0,1,2.28759-4.271,9.77377,9.77377,0,0,1,5.93116-1.68018,11.30759,11.30759,0,0,1,6.0122,1.437q2.32764,1.43775,2.32764,3.4209a1.94408,1.94408,0,0,1-.668,1.49805,2.34835,2.34835,0,0,1-1.63965.60742,2.24729,2.24729,0,0,1-1.82177-.83008,4.94766,4.94766,0,0,1-.97168-1.82178,4.70217,4.70217,0,0,0-1.01221-1.82177,2.41387,2.41387,0,0,0-1.90283-.83008,2.46831,2.46831,0,0,0-1.90283.78955,2.73273,2.73273,0,0,0-.72852,1.92285,2.97336,2.97336,0,0,0,.60693,1.90283,3.85227,3.85227,0,0,0,1.57911,1.17432,20.65934,20.65934,0,0,0,2.146.749q1.17335.34424,2.36817.769a11.12176,11.12176,0,0,1,2.166,1.03272,4.53715,4.53715,0,0,1,1.5791,1.7207,5.55156,5.55156,0,0,1,.60694,2.6919,4.89966,4.89966,0,0,1-2.34815,4.1499A10.84469,10.84469,0,0,1,478.88867,640.84717Z" transform="translate(-94.60303 -560.29883)"/><path class="cls-1" d="M516.418,636.43457a3.83923,3.83923,0,0,0,.46533,1.49756,1.59733,1.59733,0,0,0,.7085.70849,2.98247,2.98247,0,0,1,.64795.34424.6583.6583,0,0,1,.28369.5669q0,1.1748-3.88672,1.17383a5.56357,5.56357,0,0,1-2.61133-.46534,2.13173,2.13173,0,0,1-.99219-1.7207q-1.57909,2.34888-5.38427,2.34815a8.94176,8.94176,0,0,1-5.50635-1.57911,5.97332,5.97332,0,0,1-.04053-9.06836,8.3778,8.3778,0,0,1,5.26318-1.61962,7.53754,7.53754,0,0,1,4.41309,1.21435l-.04053-.48584a19.03958,19.03958,0,0,0-1.13379-5.4248,2.52493,2.52493,0,0,0-2.46923-1.57911,2.23034,2.23034,0,0,0-1.78174.80958,4.805,4.805,0,0,0-.97168,1.78173,5.13017,5.13017,0,0,1-.93115,1.78125,2.03227,2.03227,0,0,1-1.65967.80957,2.46481,2.46481,0,0,1-1.76123-.62744,2.14541,2.14541,0,0,1-.668-1.63965,3.77067,3.77067,0,0,1,2.24707-3.36035,11.19373,11.19373,0,0,1,5.52637-1.25488,9.34257,9.34257,0,0,1,6.437,2.22656,9.20107,9.20107,0,0,1,2.95556,6.07276Zm-8.98779,2.67188a2.52674,2.52674,0,0,0,2.1455-1.11329,3.80821,3.80821,0,0,0,.729-2.53027l-.12158-1.417a4.4,4.4,0,0,0-1.03223-2.67236,2.84614,2.84614,0,0,0-2.166-.93116,2.718,2.718,0,0,0-2.12548.93116,3.57288,3.57288,0,0,0-.83008,2.46972,6.94554,6.94554,0,0,0,.95117,3.72461A2.81553,2.81553,0,0,0,507.43018,639.10645Z" transform="translate(-94.60303 -560.29883)"/><path class="cls-1" d="M532.1665,620.645a3.61166,3.61166,0,0,1,2.73291,1.03223,3.67188,3.67188,0,0,1,.99219,2.65185q0,3.19849-2.59131,3.19824a2.31354,2.31354,0,0,1-1.63965-.54638,2.18114,2.18114,0,0,1-.70849-1.19434,3.19778,3.19778,0,0,0-.48584-1.19433,1.22622,1.22622,0,0,0-1.09326-.54639,1.73439,1.73439,0,0,0-1.61914,1.29541,8.399,8.399,0,0,0-.52637,3.15771v8.09717a1.81558,1.81558,0,0,0,.50586,1.27539,9.22411,9.22411,0,0,0,1.01221.95117,1.09957,1.09957,0,0,1,.50634.81006v.16162q0,.68922-.89111.68848h-7.48975q-.93164,0-.93115-.68848v-.16162q0-.40429.78955-1.25537a2.599,2.599,0,0,0,.78955-1.78125v-9.47363a2.23227,2.23227,0,0,0-.93115-1.74072q-.93163-.769-.93115-1.17432v-.16162q0-.5669.8501-.97168l4.85839-2.26758q1.29494-.60717,1.29541.81006v3.03613A5.378,5.378,0,0,1,532.1665,620.645Z" transform="translate(-94.60303 -560.29883)"/><path class="cls-1" d="M553.34082,634.3291a.75849.75849,0,0,1,.89063-.32373.66673.66673,0,0,1,.48584.769,6.52049,6.52049,0,0,1-2.4292,4.10938,8.32618,8.32618,0,0,1-5.78955,2.00391,9.39235,9.39235,0,0,1-7.04444-2.834,10.23353,10.23353,0,0,1-2.75293-7.44922,9.71563,9.71563,0,0,1,9.79737-9.95947,8.33133,8.33133,0,0,1,5.668,1.74072,5.21555,5.21555,0,0,1,1.98389,4.0083,2.75289,2.75289,0,0,1-1.78125,2.67188l-8.98779,4.08887a5.55654,5.55654,0,0,0,5.34424,3.52246,5.73468,5.73468,0,0,0,2.773-.668A4.66456,4.66456,0,0,0,553.34082,634.3291ZM545.77,622.42627a2.83318,2.83318,0,0,0-2.51025,1.51807,7.28954,7.28954,0,0,0-.93116,3.8667,13.39981,13.39981,0,0,0,.40479,3.48144l5.22265-2.63135a1.93622,1.93622,0,0,0,1.05274-1.90283,5.54188,5.54188,0,0,0-.89063-2.85449A2.66733,2.66733,0,0,0,545.77,622.42627Z" transform="translate(-94.60303 -560.29883)"/><path class="cls-1" d="M583.38037,636.43457a3.8394,3.8394,0,0,0,.46533,1.49756,1.59738,1.59738,0,0,0,.7085.70849,2.98247,2.98247,0,0,1,.64795.34424.6583.6583,0,0,1,.28369.5669q0,1.1748-3.88672,1.17383a5.5636,5.5636,0,0,1-2.61133-.46534,2.13172,2.13172,0,0,1-.99218-1.7207q-1.57911,2.34888-5.38428,2.34815a8.94176,8.94176,0,0,1-5.50635-1.57911,5.97332,5.97332,0,0,1-.04053-9.06836,8.37783,8.37783,0,0,1,5.26319-1.61962,7.5375,7.5375,0,0,1,4.41308,1.21435l-.04052-.48584a19.03958,19.03958,0,0,0-1.13379-5.4248,2.52494,2.52494,0,0,0-2.46924-1.57911,2.23034,2.23034,0,0,0-1.78174.80958,4.80531,4.80531,0,0,0-.97168,1.78173,5.13,5.13,0,0,1-.93115,1.78125,2.03226,2.03226,0,0,1-1.65967.80957,2.46482,2.46482,0,0,1-1.76123-.62744,2.14545,2.14545,0,0,1-.668-1.63965,3.77067,3.77067,0,0,1,2.24707-3.36035,11.19373,11.19373,0,0,1,5.52637-1.25488,9.34257,9.34257,0,0,1,6.437,2.22656,9.20113,9.20113,0,0,1,2.95557,6.07276Zm-8.98779,2.67188a2.52675,2.52675,0,0,0,2.14551-1.11329,3.8082,3.8082,0,0,0,.729-2.53027l-.12158-1.417a4.4,4.4,0,0,0-1.03223-2.67236,2.8461,2.8461,0,0,0-2.166-.93116,2.71805,2.71805,0,0,0-2.12549.93116,3.57293,3.57293,0,0,0-.83008,2.46972,6.94554,6.94554,0,0,0,.95117,3.72461A2.81553,2.81553,0,0,0,574.39258,639.10645Z" transform="translate(-94.60303 -560.29883)"/><path class="cls-1" d="M594.51416,640.8877a5.74423,5.74423,0,0,1-4.47363-1.80176,7.4693,7.4693,0,0,1-1.63965-5.20215V623.398h-1.90283a.71546.71546,0,0,1-.81006-.80957v-.68848q0-.85034.81006-.8501h1.01172a3.939,3.939,0,0,0,2.814-1.09326,5.11925,5.11925,0,0,0,1.47754-2.915q.20216-.97119.93115-.97168h.81006q.88989,0,.89063.97168l.04052,4.0083h4.65576a.77849.77849,0,0,1,.5669.24268.826.826,0,0,1,.24267.60742v.68848a.75879.75879,0,0,1-.24267.58691.81316.81316,0,0,1-.5669.22266h-4.65576v10.56689a2.85254,2.85254,0,0,0,.58692,1.88233,1.83815,1.83815,0,0,0,1.47754.70849,2.63415,2.63415,0,0,0,2.75341-1.82177.86261.86261,0,0,1,.91065-.4253.60952.60952,0,0,1,.54687.66846,5.83714,5.83714,0,0,1-1.68017,4.1294A5.96088,5.96088,0,0,1,594.51416,640.8877Z" transform="translate(-94.60303 -560.29883)"/><path class="cls-1" d="M622.93408,620.645a3.61166,3.61166,0,0,1,2.73291,1.03223,3.67193,3.67193,0,0,1,.99219,2.65185q0,3.19849-2.59131,3.19824a2.31354,2.31354,0,0,1-1.63965-.54638,2.18114,2.18114,0,0,1-.70849-1.19434,3.19778,3.19778,0,0,0-.48584-1.19433,1.22623,1.22623,0,0,0-1.09327-.54639,1.73441,1.73441,0,0,0-1.61914,1.29541,8.39922,8.39922,0,0,0-.52636,3.15771v8.09717a1.81558,1.81558,0,0,0,.50586,1.27539,9.225,9.225,0,0,0,1.0122.95117,1.09956,1.09956,0,0,1,.50635.81006v.16162q0,.68922-.89111.68848h-7.48975q-.93164,0-.93115-.68848v-.16162q0-.40429.78955-1.25537a2.599,2.599,0,0,0,.78955-1.78125v-9.47363a2.2323,2.2323,0,0,0-.93115-1.74072q-.93163-.769-.93115-1.17432v-.16162q0-.5669.85009-.97168l4.8584-2.26758q1.29492-.60717,1.29541.81006v3.03613A5.378,5.378,0,0,1,622.93408,620.645Z" transform="translate(-94.60303 -560.29883)"/><path class="cls-1" d="M628.92529,640.48291q-.89062,0-.89062-.68848v-.16162a2.44163,2.44163,0,0,1,.76953-1.25537,2.67732,2.67732,0,0,0,.769-1.82178v-9.1499a2.87076,2.87076,0,0,0-.769-1.90283q-.76977-.88989-.76953-1.21436V624.167q0-.4043.8501-.8501l5.061-2.51025a1.34566,1.34566,0,0,1,1.21436-.06055.93138.93138,0,0,1,.44531.87061v14.939a2.55226,2.55226,0,0,0,.85058,1.82178q.84962.85035.8501,1.25537v.16162q0,.68922-.93115.68848Zm6.53858-23.2998a4.035,4.035,0,0,1-2.854.99218,4.18463,4.18463,0,0,1-2.895-.99218,3.28057,3.28057,0,0,1-1.11328-2.57081,3.23745,3.23745,0,0,1,1.11328-2.53027,4.189,4.189,0,0,1,2.895-.9917,4.03906,4.03906,0,0,1,2.854.9917,3.296,3.296,0,0,1,1.07275,2.53027A3.341,3.341,0,0,1,635.46387,617.18311Z" transform="translate(-94.60303 -560.29883)"/><path class="cls-1" d="M648.0752,640.84717a12.54163,12.54163,0,0,1-6.23487-1.37647q-2.42944-1.37548-2.4292-3.31982a2.05534,2.05534,0,0,1,.668-1.65967,2.62906,2.62906,0,0,1,1.76123-.56689,2.413,2.413,0,0,1,1.90283.83007,4.90884,4.90884,0,0,1,1.03223,1.8418,4.36239,4.36239,0,0,0,1.13379,1.84229,2.92844,2.92844,0,0,0,2.166.83007,3.21676,3.21676,0,0,0,2.12548-.68847,2.43105,2.43105,0,0,0,.82959-1.98389,2.71527,2.71527,0,0,0-1.15381-2.30762,8.065,8.065,0,0,0-2.81347-1.27539q-1.66041-.4248-3.31983-.97168a6.15458,6.15458,0,0,1-2.814-1.90283,5.27856,5.27856,0,0,1-1.15381-3.54248,5.09928,5.09928,0,0,1,2.2876-4.271,9.77372,9.77372,0,0,1,5.93115-1.68018,11.30762,11.30762,0,0,1,6.01221,1.437q2.32764,1.43775,2.32763,3.4209a1.94407,1.94407,0,0,1-.668,1.49805,2.34836,2.34836,0,0,1-1.63965.60742,2.24732,2.24732,0,0,1-1.82178-.83008,4.948,4.948,0,0,1-.97168-1.82178,4.702,4.702,0,0,0-1.01221-1.82177,2.41386,2.41386,0,0,0-1.90283-.83008,2.46832,2.46832,0,0,0-1.90283.78955,2.73273,2.73273,0,0,0-.72852,1.92285,2.97331,2.97331,0,0,0,.60694,1.90283,3.85218,3.85218,0,0,0,1.5791,1.17432,20.66017,20.66017,0,0,0,2.146.749q1.17335.34424,2.36817.769a11.12121,11.12121,0,0,1,2.166,1.03272,4.53726,4.53726,0,0,1,1.57911,1.7207,5.55167,5.55167,0,0,1,.60693,2.6919,4.89966,4.89966,0,0,1-2.34815,4.1499A10.84464,10.84464,0,0,1,648.0752,640.84717Z" transform="translate(-94.60303 -560.29883)"/><path class="cls-1" d="M679.24854,637.44629a5.953,5.953,0,0,0,1.21435.99219q.97193.668.97168,1.23486v.12109q0,.68922-.80957.68848h-7.53027q-.81079,0-.81006-.72852v-.081a1.81824,1.81824,0,0,1,.5874-1.05273q.58594-.64748.22266-1.17432l-4.37256-6.15381-2.38867,2.22705v3.07666a2.48853,2.48853,0,0,0,.8706,1.78125q.87012.85035.87012,1.25537v.16162q0,.68922-.93115.68848h-7.44922q-.89136,0-.89063-.68848v-.16162a2.43955,2.43955,0,0,1,.769-1.25537,2.63308,2.63308,0,0,0,.76953-1.78125V616.67725a2.55608,2.55608,0,0,0-.91114-1.90284q-.91113-.85033-.91113-1.17431v-.16162c0-.32422.26953-.59327.81006-.81006l5.38428-2.50977a1.31576,1.31576,0,0,1,1.17431-.08105.84933.84933,0,0,1,.44532.80957v19.59521l6.397-5.54638a.71426.71426,0,0,0,.34375-.76954,1.59655,1.59655,0,0,0-.38428-.749,9.44425,9.44425,0,0,1-.60742-.72851,1.30007,1.30007,0,0,1-.32373-.749v-.16211q0-.68773.80957-.688h5.78955q.80933,0,.80957.64747v.16211a1.17516,1.17516,0,0,1-.50586.8706,14.57133,14.57133,0,0,1-1.45752,1.03223,13.65393,13.65393,0,0,0-1.51855,1.09326l-3.2793,3.03613Z" transform="translate(-94.60303 -560.29883)"/><path class="cls-1" d="M700.50293,640.8877a11.09619,11.09619,0,0,1-7.95557-2.97559,9.63193,9.63193,0,0,1-3.13769-7.26709,9.32246,9.32246,0,0,1,3.07666-7.166,10.55036,10.55036,0,0,1,7.40918-2.834,10.90306,10.90306,0,0,1,7.77344,2.93506,10.1448,10.1448,0,0,1,.18212,14.45361A10.12,10.12,0,0,1,700.50293,640.8877Zm.72852-1.78125a2.84437,2.84437,0,0,0,2.5708-1.53858,8.55019,8.55019,0,0,0,.91113-4.332,18.04782,18.04782,0,0,0-.668-4.75684,12.6433,12.6433,0,0,0-2.00439-4.251,3.73344,3.73344,0,0,0-2.95508-1.80176q-3.72584,0-3.7251,5.91113a17.42139,17.42139,0,0,0,.668,4.61524,12.6825,12.6825,0,0,0,2.06494,4.2915A3.94065,3.94065,0,0,0,701.23145,639.10645Z" transform="translate(-94.60303 -560.29883)"/><path class="cls-1" d="M723.0127,610.80664a6.76572,6.76572,0,0,1,4.31152,1.417,4.14816,4.14816,0,0,1,1.80176,3.31983,2.11408,2.11408,0,0,1-.58741,1.45752,2.14956,2.14956,0,0,1-1.67968.64795,3.06327,3.06327,0,0,1-1.90284-.52637,2.35793,2.35793,0,0,1-.89111-1.27539q-.20287-.74855-.34375-1.49805a2.86166,2.86166,0,0,0-.5874-1.29541,1.5744,1.5744,0,0,0-1.29541-.54639,1.60325,1.60325,0,0,0-1.49805.87012,4.19669,4.19669,0,0,0-.4248,2.24707,19.0741,19.0741,0,0,0,.32373,2.75293,19.34249,19.34249,0,0,0,.70849,2.67236h4.93946a.83026.83026,0,0,1,.80957.80958v.769a.711.711,0,0,1-.24317.54687.812.812,0,0,1-.5664.22266h-4.77735v13.15771a1.88841,1.88841,0,0,0,.50586,1.2959,8.31362,8.31362,0,0,0,1.01221.97119,1.10026,1.10026,0,0,1,.50586.81006v.16162q0,.68922-.769.68848h-7.89454q-.85033,0-.85058-.68848v-.16162q0-.40429.81006-1.25537a2.60949,2.60949,0,0,0,.80957-1.82178V623.398h-2.87451q-.85035,0-.8501-.76953v-.769a.77847.77847,0,0,1,.24267-.5669.8252.8252,0,0,1,.60743-.24268h2.87451V618.499a7.8465,7.8465,0,0,1,1.98388-5.54638A7.49642,7.49642,0,0,1,723.0127,610.80664Z" transform="translate(-94.60303 -560.29883)"/><path class="cls-1" d="M744.18555,640.84717a12.54163,12.54163,0,0,1-6.23487-1.37647q-2.42945-1.37548-2.4292-3.31982a2.05534,2.05534,0,0,1,.668-1.65967,2.62907,2.62907,0,0,1,1.76123-.56689,2.413,2.413,0,0,1,1.90284.83007,4.90868,4.90868,0,0,1,1.03222,1.8418,4.36239,4.36239,0,0,0,1.13379,1.84229,2.92845,2.92845,0,0,0,2.166.83007,3.2168,3.2168,0,0,0,2.12549-.68847,2.43108,2.43108,0,0,0,.82958-1.98389,2.71529,2.71529,0,0,0-1.1538-2.30762,8.06506,8.06506,0,0,0-2.81348-1.27539q-1.6604-.4248-3.31982-.97168a6.15455,6.15455,0,0,1-2.814-1.90283,5.27856,5.27856,0,0,1-1.15381-3.54248,5.09928,5.09928,0,0,1,2.2876-4.271,9.77372,9.77372,0,0,1,5.93115-1.68018,11.30762,11.30762,0,0,1,6.01221,1.437q2.32764,1.43775,2.32764,3.4209a1.94408,1.94408,0,0,1-.668,1.49805,2.34836,2.34836,0,0,1-1.63965.60742,2.24732,2.24732,0,0,1-1.82178-.83008,4.948,4.948,0,0,1-.97168-1.82178,4.702,4.702,0,0,0-1.01221-1.82177,2.41386,2.41386,0,0,0-1.90283-.83008,2.46832,2.46832,0,0,0-1.90283.78955,2.73272,2.73272,0,0,0-.72851,1.92285,2.9733,2.9733,0,0,0,.60693,1.90283,3.85218,3.85218,0,0,0,1.5791,1.17432,20.65956,20.65956,0,0,0,2.146.749q1.17333.34424,2.36816.769a11.12158,11.12158,0,0,1,2.166,1.03272,4.53723,4.53723,0,0,1,1.5791,1.7207,5.55167,5.55167,0,0,1,.60693,2.6919,4.89965,4.89965,0,0,1-2.34814,4.1499A10.84469,10.84469,0,0,1,744.18555,640.84717Z" transform="translate(-94.60303 -560.29883)"/><path class="cls-1" d="M762.9707,640.8877a5.74423,5.74423,0,0,1-4.47363-1.80176,7.4693,7.4693,0,0,1-1.63965-5.20215V623.398h-1.90283a.71546.71546,0,0,1-.81006-.80957v-.68848q0-.85034.81006-.8501h1.01172a3.939,3.939,0,0,0,2.814-1.09326,5.11919,5.11919,0,0,0,1.47754-2.915q.20216-.97119.93115-.97168h.81006q.88991,0,.89063.97168l.04053,4.0083h4.65576a.77847.77847,0,0,1,.56689.24268.826.826,0,0,1,.24268.60742v.68848a.7588.7588,0,0,1-.24268.58691.81314.81314,0,0,1-.56689.22266h-4.65576v10.56689a2.85254,2.85254,0,0,0,.58691,1.88233,1.83815,1.83815,0,0,0,1.47754.70849,2.63417,2.63417,0,0,0,2.75342-1.82177.86259.86259,0,0,1,.91064-.4253.60953.60953,0,0,1,.54688.66846,5.83715,5.83715,0,0,1-1.68018,4.1294A5.96087,5.96087,0,0,1,762.9707,640.8877Z" transform="translate(-94.60303 -560.29883)"/><path class="cls-1" d="M789.043,636.43457a3.83923,3.83923,0,0,0,.46533,1.49756,1.59733,1.59733,0,0,0,.7085.70849,2.98247,2.98247,0,0,1,.64795.34424.6583.6583,0,0,1,.28369.5669q0,1.1748-3.88672,1.17383a5.56357,5.56357,0,0,1-2.61133-.46534,2.13173,2.13173,0,0,1-.99219-1.7207q-1.57909,2.34888-5.38427,2.34815a8.94176,8.94176,0,0,1-5.50635-1.57911,5.97332,5.97332,0,0,1-.04053-9.06836,8.3778,8.3778,0,0,1,5.26318-1.61962,7.53754,7.53754,0,0,1,4.41309,1.21435l-.04053-.48584a19.03958,19.03958,0,0,0-1.13379-5.4248,2.52493,2.52493,0,0,0-2.46923-1.57911,2.23034,2.23034,0,0,0-1.78174.80958,4.805,4.805,0,0,0-.97168,1.78173,5.13017,5.13017,0,0,1-.93115,1.78125,2.03227,2.03227,0,0,1-1.65967.80957,2.46481,2.46481,0,0,1-1.76123-.62744,2.14541,2.14541,0,0,1-.668-1.63965,3.77067,3.77067,0,0,1,2.24707-3.36035,11.19373,11.19373,0,0,1,5.52637-1.25488,9.34257,9.34257,0,0,1,6.437,2.22656,9.20107,9.20107,0,0,1,2.95556,6.07276Zm-8.98779,2.67188a2.52674,2.52674,0,0,0,2.1455-1.11329,3.80821,3.80821,0,0,0,.729-2.53027l-.12158-1.417a4.4,4.4,0,0,0-1.03223-2.67236,2.84614,2.84614,0,0,0-2.166-.93116,2.718,2.718,0,0,0-2.12548.93116,3.57288,3.57288,0,0,0-.83008,2.46972,6.94554,6.94554,0,0,0,.95117,3.72461A2.81553,2.81553,0,0,0,780.05518,639.10645Z" transform="translate(-94.60303 -560.29883)"/><path class="cls-1" d="M804.7915,620.645a3.61166,3.61166,0,0,1,2.73291,1.03223,3.67188,3.67188,0,0,1,.99219,2.65185q0,3.19849-2.59131,3.19824a2.31354,2.31354,0,0,1-1.63965-.54638,2.18114,2.18114,0,0,1-.70849-1.19434,3.19778,3.19778,0,0,0-.48584-1.19433,1.22622,1.22622,0,0,0-1.09326-.54639,1.73439,1.73439,0,0,0-1.61914,1.29541,8.399,8.399,0,0,0-.52637,3.15771v8.09717a1.81558,1.81558,0,0,0,.50586,1.27539,9.22411,9.22411,0,0,0,1.01221.95117,1.09957,1.09957,0,0,1,.50634.81006v.16162q0,.68922-.89111.68848h-7.48975q-.93164,0-.93115-.68848v-.16162q0-.40429.78955-1.25537a2.599,2.599,0,0,0,.78955-1.78125v-9.47363a2.23227,2.23227,0,0,0-.93115-1.74072q-.93163-.769-.93115-1.17432v-.16162q0-.5669.8501-.97168l4.85839-2.26758q1.29494-.60717,1.29541.81006v3.03613A5.378,5.378,0,0,1,804.7915,620.645Z" transform="translate(-94.60303 -560.29883)"/><path class="cls-1" d="M829.89209,621.0498q.84961,0,.8501.64747v.16211q0,.4856-1.09326,1.35644a4.2984,4.2984,0,0,0-1.417,1.7207L822.645,639.51123a1.29523,1.29523,0,0,1-1.33594.97168h-2.63183a1.35625,1.35625,0,0,1-1.29541-.97168l-6.72071-14.57471a6.48309,6.48309,0,0,0-1.15381-1.63964,2.5543,2.5543,0,0,1-.83007-1.4375v-.16211q0-.64674.80957-.64747H817.544q.80932,0,.80957.688v.16211a1.47609,1.47609,0,0,1-.36426.80957,5.44512,5.44512,0,0,0-.5669.91114,2.24344,2.24344,0,0,0,.08106,1.437l4.251,10.89111,3.80567-10.12158a2.91263,2.91263,0,0,0,.08105-2.02442A4.18863,4.18863,0,0,0,824.73,622.73q-.5874-.5061-.58691-.83008v-.16211q0-.68773.85009-.688Z" transform="translate(-94.60303 -560.29883)"/><path class="cls-1" d="M832.564,640.48291q-.89062,0-.89062-.68848v-.16162a2.44163,2.44163,0,0,1,.76953-1.25537,2.67732,2.67732,0,0,0,.769-1.82178v-9.1499a2.87076,2.87076,0,0,0-.769-1.90283q-.76977-.88989-.76953-1.21436V624.167q0-.4043.8501-.8501l5.061-2.51025a1.34566,1.34566,0,0,1,1.21436-.06055.93138.93138,0,0,1,.44531.87061v14.939a2.55223,2.55223,0,0,0,.85059,1.82178q.8496.85035.85009,1.25537v.16162q0,.68922-.93115.68848Zm6.53858-23.2998a4.03494,4.03494,0,0,1-2.854.99218,4.1846,4.1846,0,0,1-2.895-.99218,3.28055,3.28055,0,0,1-1.11329-2.57081,3.23742,3.23742,0,0,1,1.11329-2.53027,4.18894,4.18894,0,0,1,2.895-.9917,4.03906,4.03906,0,0,1,2.854.9917,3.296,3.296,0,0,1,1.07275,2.53027A3.341,3.341,0,0,1,839.10254,617.18311Z" transform="translate(-94.60303 -560.29883)"/><path class="cls-1" d="M864.26416,636.55566a3.28791,3.28791,0,0,0,.76953,1.82178,2.49735,2.49735,0,0,1,.688,1.2959v.16162q0,.68921-.93115.68848h-7.00391q-.93164,0-.93115-.68848v-.16162a2.45375,2.45375,0,0,1,.749-1.25537,2.595,2.595,0,0,0,.7085-1.86231l-.40479-7.48974q-.28417-6.1128-3.52246-6.11328a2.98422,2.98422,0,0,0-2.53027,1.21435,5.27032,5.27032,0,0,0-.91113,3.23877v9.19043a2.52632,2.52632,0,0,0,.8706,1.82178q.87012.85034.87061,1.25537v.16162q0,.68921-.93116.68848h-7.53076q-.93163,0-.93115-.68848v-.16162q0-.4043.87061-1.25537a2.52817,2.52817,0,0,0,.8706-1.82178v-9.4331a2.02383,2.02383,0,0,0-.30371-1.09327,2.05017,2.05017,0,0,0-.68848-.70849,2.95534,2.95534,0,0,1-.688-.54639.95676.95676,0,0,1-.30372-.64795v-.16162q0-.44531.80958-.85058l4.81787-2.34815q.68774-.323,1.03222-.06055a1.08129,1.08129,0,0,1,.34424.91114v2.26709q1.74024-3.27979,5.99219-3.2793a7.32259,7.32259,0,0,1,5.24267,2.06445q2.165,2.06471,2.48975,6.55908Z" transform="translate(-94.60303 -560.29883)"/><path class="cls-1" d="M885.15479,621.0498a4.52363,4.52363,0,0,1,2.04443.30372.69588.69588,0,0,1,.30371.91064,1.27855,1.27855,0,0,1-.52637.87061,3.83673,3.83673,0,0,1-1.37646.42529,8.47776,8.47776,0,0,0-1.17432.24267,7.31744,7.31744,0,0,1,2.26709,5.18213,7.53438,7.53438,0,0,1-1.19433,4.19043,7.87549,7.87549,0,0,1-3.33985,2.854q4.85816,1.0935,4.8584,4.61572,0,2.55028-2.895,4.10937a15.21309,15.21309,0,0,1-7.26709,1.5586,12.97041,12.97041,0,0,1-6.90283-1.5791,4.639,4.639,0,0,1-2.53027-4.0083,2.19364,2.19364,0,0,1,2.38867-2.26709,2.323,2.323,0,0,1,1.8623.95166,7.41006,7.41006,0,0,1,1.19434,2.105,5.31807,5.31807,0,0,0,1.47754,2.10547,3.938,3.938,0,0,0,2.63183.99169,4.15719,4.15719,0,0,0,2.97559-1.05224,3.61671,3.61671,0,0,0,1.11328-2.75342q0-3.19776-2.51025-3.72461-1.05322.082-1.57862.08106a10.10666,10.10666,0,0,1-6.78174-2.2876,7.20689,7.20689,0,0,1-2.69189-5.72852,7.80073,7.80073,0,0,1,2.67187-6.15381,10.10444,10.10444,0,0,1,6.92286-2.34814q1.0935,0,3.4414.20215Q882.88647,621.05,885.15479,621.0498Zm-11.94336,5.42481a13.348,13.348,0,0,0,1.39648,6.09326q1.39673,2.77368,3.25928,2.77344a2.656,2.656,0,0,0,2.24707-1.11328,4.7956,4.7956,0,0,0,.82959-2.93555,14.8326,14.8326,0,0,0-.56641-4.00781,9.57914,9.57914,0,0,0-1.70068-3.44141,3.19218,3.19218,0,0,0-2.46973-1.417,2.57923,2.57923,0,0,0-2.186,1.09326A4.8585,4.8585,0,0,0,873.21143,626.47461Z" transform="translate(-94.60303 -560.29883)"/><path class="cls-1" d="M893.69678,640.8877a4.05286,4.05286,0,0,1-2.67188-.87061,3.47053,3.47053,0,0,1,0-4.97949,4.05286,4.05286,0,0,1,2.67188-.87061,3.994,3.994,0,0,1,2.63183.87061,3.47164,3.47164,0,0,1,0,4.97949A3.994,3.994,0,0,1,893.69678,640.8877Z" transform="translate(-94.60303 -560.29883)"/></svg>