<svg id="Layer_2" data-name="Layer 2" xmlns="http://www.w3.org/2000/svg" viewBox="0 0 529.86719 94.2446"><defs><style>.cls-1{fill:#a0624b;}.cls-2{fill:#182827;}</style></defs><g id="Layer_5" data-name="Layer 5"><path class="cls-1" d="M1135.51367,176.86426q.81593,0,.81641.71972v1.2002q0,.72-.81641.72021h-3.55176v4.03174A2.19829,2.19829,0,0,0,1132.46582,185a5.83538,5.83538,0,0,0,1.03223.98438,1.051,1.051,0,0,1,.52734.81591v.14405q0,.67236-.96.67187h-7.87207q-.96094,0-.96-.67187v-.14405a1.06729,1.06729,0,0,1,.48047-.81591,6.26607,6.26607,0,0,0,.96-.98438,2.27124,2.27124,0,0,0,.47949-1.46387v-4.03174h-14.39941q-1.585,0-1.584-1.29638v-.1919a3.3195,3.3195,0,0,1,.57617-1.96777l14.25586-20.92822a3.10223,3.10223,0,0,1,2.63965-1.584h3.36035q.95947,0,.96,1.0083v22.31983Zm-22.12793,0h12.76758l.04883-18.67188Z" transform="translate(-1110.16992 -151.45169)"/><path class="cls-1" d="M1153.65723,188.09619a12.89462,12.89462,0,0,1-10.29688-4.7998q-4.05615-4.79957-4.05566-12.81641,0-8.064,3.74414-12.74365a13.41209,13.41209,0,0,1,20.54394.21582q4.03272,4.89624,4.03223,12.72021,0,8.01636-3.93652,12.71973A12.50356,12.50356,0,0,1,1153.65723,188.09619Zm.86328-2.35205q3.21532,0,5.30469-3.38379,2.0874-3.38452,2.08789-9.09619a30.97443,30.97443,0,0,0-1.17676-8.66406,17.22931,17.22931,0,0,0-3.35938-6.57569,6.37766,6.37766,0,0,0-4.87207-2.52q-3.312,0-5.40039,3.45606-2.0874,3.45557-2.08789,9.40771a25.95764,25.95764,0,0,0,2.68848,12.312Q1150.3916,185.74487,1154.52051,185.74414Z" transform="translate(-1110.16992 -151.45169)"/><path class="cls-1" d="M1179.57715,171.24805a8.424,8.424,0,0,1-6.21582-2.5918,8.83207,8.83207,0,0,1-2.56836-6.48,9.19362,9.19362,0,0,1,2.40039-6.57617,8.6635,8.6635,0,0,1,12.38379.12011,9.12822,9.12822,0,0,1,2.54394,6.55176,8.789,8.789,0,0,1-2.49609,6.45606A8.19772,8.19772,0,0,1,1179.57715,171.24805Zm.52832-1.63184a2.72142,2.72142,0,0,0,2.49512-1.53613,7.96214,7.96214,0,0,0,.86425-3.936,15.406,15.406,0,0,0-1.34375-6.456q-1.34472-2.95167-3.5039-2.95166a2.78328,2.78328,0,0,0-2.5918,1.584,8.47709,8.47709,0,0,0-.86426,4.08008,14.44713,14.44713,0,0,0,1.36817,6.40772Q1177.89747,169.61622,1180.10547,169.61621Zm.43164,18a.62811.62811,0,0,1-.624-.28809.6678.6678,0,0,1,.0957-.67187l18-32.5918a.86376.86376,0,0,1,.76855-.52832h2.06348a.5806.5806,0,0,1,.57617.28809.73109.73109,0,0,1-.04785.67187l-17.9043,32.59229a1.07138,1.07138,0,0,1-.96.52783Zm21.64844.48a8.42776,8.42776,0,0,1-6.2168-2.5918,8.8943,8.8943,0,0,1-2.56738-6.52832,9.12681,9.12681,0,0,1,2.39941-6.52783,8.69249,8.69249,0,0,1,12.38477.09619,9.04543,9.04543,0,0,1,2.54394,6.52784,8.80321,8.80321,0,0,1-2.52051,6.5039A8.22,8.22,0,0,1,1202.18555,188.09619Zm.52734-1.63183a2.72279,2.72279,0,0,0,2.49609-1.53614,7.96327,7.96327,0,0,0,.86426-3.936,15.51943,15.51943,0,0,0-1.34375-6.50391q-1.34472-2.95239-3.50488-2.95215a2.78123,2.78123,0,0,0-2.5918,1.60791,8.50983,8.50983,0,0,0-.86328,4.05616,14.60246,14.60246,0,0,0,1.36719,6.43212Q1200.50488,186.46461,1202.71289,186.46436Z" transform="translate(-1110.16992 -151.45169)"/><path class="cls-1" d="M1236.74414,188.09619a12.6846,12.6846,0,0,1-9.45605-3.6001,11.85883,11.85883,0,0,1-3.55274-8.63964,11.23546,11.23546,0,0,1,3.45606-8.4004,11.6655,11.6655,0,0,1,8.44824-3.35986,12.39194,12.39194,0,0,1,9.12012,3.52783,11.68164,11.68164,0,0,1,3.55175,8.61621,11.83657,11.83657,0,0,1-3.21582,8.44776A10.95861,10.95861,0,0,1,1236.74414,188.09619Zm.71973-1.82422a4.3484,4.3484,0,0,0,3.74414-2.13574,10.50914,10.50914,0,0,0,1.43945-5.92822,16.44642,16.44642,0,0,0-2.18359-8.688q-2.18555-3.59985-5.44825-3.59961a4.8028,4.8028,0,0,0-4.10351,2.08789,10.07576,10.07576,0,0,0-1.5127,5.97608,16.15913,16.15913,0,0,0,2.28028,8.4956Q1233.959,186.27246,1237.46387,186.272Z" transform="translate(-1110.16992 -151.45169)"/><path class="cls-1" d="M1262.51953,152.33643a7.61891,7.61891,0,0,1,4.752,1.53564,4.497,4.497,0,0,1,2.01661,3.64795,2.0476,2.0476,0,0,1-.60059,1.416,2.08474,2.08474,0,0,1-1.60742.64794,2.87755,2.87755,0,0,1-2.30469-.83984,3.02922,3.02922,0,0,1-.76758-1.87207,3.67069,3.67069,0,0,0-.624-1.896,2.13621,2.13621,0,0,0-1.91992-.86377q-2.30421-.0476-2.73633,3.21582a18.22091,18.22091,0,0,0,.67187,7.248h6.33594a.82027.82027,0,0,1,.81641.81592v.76807q0,.7683-.81641.76806h-6.14355V183.584a2.362,2.362,0,0,0,1.15136,1.896q1.15284.84082,1.15235,1.27246v.1919q0,.67236-.81543.67187h-8.11231q-.86426,0-.86425-.67187v-.1919q0-.43212.93652-1.27246a2.49912,2.49912,0,0,0,.93555-1.896V166.92822h-3.69629q-.8628,0-.86328-.76806v-.76807a.74972.74972,0,0,1,.26367-.57568.86645.86645,0,0,1,.59961-.24024h3.69629v-3.6001a8.8518,8.8518,0,0,1,2.208-6.23974A8.17818,8.17818,0,0,1,1262.51953,152.33643Z" transform="translate(-1110.16992 -151.45169)"/><path class="cls-1" d="M1298.377,183.29639a3.15992,3.15992,0,0,0,.55176,1.65576,1.971,1.971,0,0,0,.91211.74414,3.18692,3.18692,0,0,1,.81543.38379.72406.72406,0,0,1,.36035.624q0,1.20043-3.88769,1.2002a5.123,5.123,0,0,1-2.8086-.6001,2.8813,2.8813,0,0,1-1.03125-2.27979q-1.9204,3.07179-6.67285,3.07178a10.39917,10.39917,0,0,1-6.50391-1.896,6.35054,6.35054,0,0,1-2.47168-5.35206,6.16092,6.16092,0,0,1,2.44825-5.30371,10.095,10.095,0,0,1,6.28808-1.896,8.8622,8.8622,0,0,1,5.56739,1.63183l-.09571-.96a17.72152,17.72152,0,0,0-1.53613-6.43213,3.71325,3.71325,0,0,0-3.50391-2.01611,3.49623,3.49623,0,0,0-2.47168.91211,4.79469,4.79469,0,0,0-1.34472,1.99219,7.1391,7.1391,0,0,1-1.03125,1.9917,2.01836,2.01836,0,0,1-1.68067.91211,2.40777,2.40777,0,0,1-1.7041-.6001,2.08573,2.08573,0,0,1-.64746-1.60791,4.46506,4.46506,0,0,1,2.51953-3.83985,12.0428,12.0428,0,0,1,6.36035-1.53613,10.11533,10.11533,0,0,1,7.2959,2.66406,11.55425,11.55425,0,0,1,3.3125,7.31983ZM1288.2002,186.272a3.99059,3.99059,0,0,0,3.19238-1.43994,4.71645,4.71645,0,0,0,1.12793-3.40771l-.14356-1.48828a4.81045,4.81045,0,0,0-1.39257-3.26368,4.80238,4.80238,0,0,0-6.43165.07178,4.68479,4.68479,0,0,0-1.248,3.43213,6.86579,6.86579,0,0,0,1.36816,4.31982A4.25619,4.25619,0,0,0,1288.2002,186.272Z" transform="translate(-1110.16992 -151.45169)"/><path class="cls-1" d="M1303.6084,187.61621q-1.00782,0-1.00781-.72021v-.14356q0-.47973.88769-1.29639a2.43527,2.43527,0,0,0,.8877-1.82373V158.33643a2.886,2.886,0,0,0-.8877-2.06446q-.88915-.91113-.88769-1.1997v-.144q0-.43212.81543-.86377l4.84863-2.40039a1.447,1.447,0,0,1,1.27148-.07177.9.9,0,0,1,.45606.83984v31.20019a2.41768,2.41768,0,0,0,.98437,1.84766q.98292.84082.98438,1.27246v.14356q0,.72-1.05664.72021Z" transform="translate(-1110.16992 -151.45169)"/><path class="cls-1" d="M1315.94336,187.61621q-1.00782,0-1.00781-.72021v-.14356q0-.47973.88769-1.29639a2.43527,2.43527,0,0,0,.8877-1.82373V158.33643a2.886,2.886,0,0,0-.8877-2.06446q-.88916-.91113-.88769-1.1997v-.144q0-.43212.81543-.86377l4.84863-2.40039a1.447,1.447,0,0,1,1.27148-.07177.9.9,0,0,1,.45606.83984v31.20019a2.41768,2.41768,0,0,0,.98437,1.84766q.98292.84082.98438,1.27246v.14356q0,.72-1.05664.72021Z" transform="translate(-1110.16992 -151.45169)"/><path class="cls-1" d="M1349.35059,152.33643a7.61893,7.61893,0,0,1,4.752,1.53564,4.497,4.497,0,0,1,2.0166,3.64795,2.04755,2.04755,0,0,1-.60059,1.416,2.08472,2.08472,0,0,1-1.60742.64794,2.87752,2.87752,0,0,1-2.30468-.83984,3.02916,3.02916,0,0,1-.76758-1.87207,3.67079,3.67079,0,0,0-.624-1.896,2.13621,2.13621,0,0,0-1.91992-.86377q-2.30419-.0476-2.73633,3.21582a18.22092,18.22092,0,0,0,.67188,7.248h6.33594a.82025.82025,0,0,1,.8164.81592v.76807q0,.7683-.8164.76806h-6.14356V183.584a2.362,2.362,0,0,0,1.15137,1.896q1.15283.84082,1.15234,1.27246v.1919q0,.67236-.81543.67187h-8.1123q-.86426,0-.86426-.67187v-.1919q0-.43212.93652-1.27246a2.49908,2.49908,0,0,0,.93555-1.896V166.92822h-3.69629q-.86279,0-.86328-.76806v-.76807a.74972.74972,0,0,1,.26367-.57568.86647.86647,0,0,1,.59961-.24024h3.69629v-3.6001a8.85176,8.85176,0,0,1,2.208-6.23974A8.17817,8.17817,0,0,1,1349.35059,152.33643Z" transform="translate(-1110.16992 -151.45169)"/><path class="cls-1" d="M1366.4873,188.09619a12.68462,12.68462,0,0,1-9.45605-3.6001,11.85882,11.85882,0,0,1-3.55273-8.63964,11.23545,11.23545,0,0,1,3.45605-8.4004,11.66553,11.66553,0,0,1,8.44824-3.35986,12.39191,12.39191,0,0,1,9.12012,3.52783,11.68165,11.68165,0,0,1,3.55176,8.61621,11.83662,11.83662,0,0,1-3.21582,8.44776A10.95863,10.95863,0,0,1,1366.4873,188.09619Zm.71973-1.82422a4.3484,4.3484,0,0,0,3.74414-2.13574,10.50914,10.50914,0,0,0,1.43945-5.92822,16.44633,16.44633,0,0,0-2.18359-8.688q-2.18555-3.59985-5.44824-3.59961a4.80282,4.80282,0,0,0-4.10352,2.08789,10.07576,10.07576,0,0,0-1.51269,5.97608,16.15912,16.15912,0,0,0,2.28027,8.4956Q1363.70215,186.27246,1367.207,186.272Z" transform="translate(-1110.16992 -151.45169)"/><path class="cls-1" d="M1393.94238,188.09619a12.68462,12.68462,0,0,1-9.45605-3.6001,11.85883,11.85883,0,0,1-3.55274-8.63964,11.23546,11.23546,0,0,1,3.45606-8.4004,11.66553,11.66553,0,0,1,8.44824-3.35986,12.39194,12.39194,0,0,1,9.12012,3.52783,11.68165,11.68165,0,0,1,3.55176,8.61621,11.83662,11.83662,0,0,1-3.21582,8.44776A10.95864,10.95864,0,0,1,1393.94238,188.09619Zm.71973-1.82422a4.3484,4.3484,0,0,0,3.74414-2.13574,10.50914,10.50914,0,0,0,1.43945-5.92822,16.44642,16.44642,0,0,0-2.18359-8.688q-2.18555-3.59985-5.44824-3.59961a4.8028,4.8028,0,0,0-4.10352,2.08789,10.07576,10.07576,0,0,0-1.51269,5.97608,16.15912,16.15912,0,0,0,2.28027,8.4956Q1391.15723,186.27246,1394.66211,186.272Z" transform="translate(-1110.16992 -151.45169)"/><path class="cls-1" d="M1431.42969,183.63232a2.599,2.599,0,0,0,.91211,1.91993q.91113.86426.91211,1.248v.14405q0,.67236-.81543.67187h-4.99219a.8845.8845,0,0,1-.96-.91211l-.14453-1.67969a8.04208,8.04208,0,0,1-6.71973,3.07178,10.73007,10.73007,0,0,1-7.89648-3.312,13.13354,13.13354,0,0,1-.04786-17.32813,10.721,10.721,0,0,1,8.04-3.35986,8.71708,8.71708,0,0,1,6.28809,2.44824V157.52a2.06511,2.06511,0,0,0-.55176-1.48779,6.3859,6.3859,0,0,0-1.10449-.936.98922.98922,0,0,1-.55176-.792V154.208q0-.62329.86426-.96l5.08789-1.63184q1.68018-.57568,1.67969.86377ZM1420.918,186.272a4.77157,4.77157,0,0,0,3.52832-1.63183,6.33494,6.33494,0,0,0,1.55957-4.56006v-7.67969a6.53718,6.53718,0,0,0-1.82422-4.43994,5.56921,5.56921,0,0,0-4.27148-2.04,5.1334,5.1334,0,0,0-4.32032,2.18359,9.99743,9.99743,0,0,0-1.67968,5.97608,16.96686,16.96686,0,0,0,1.84765,8.59228Q1417.70166,186.22461,1420.918,186.272Z" transform="translate(-1110.16992 -151.45169)"/><path class="cls-1" d="M1447.75,187.61621q-1.00782,0-1.00781-.72021v-.1919q0-.43212.88769-1.24805a2.47984,2.47984,0,0,0,.8877-1.87207V171.0083a2.99647,2.99647,0,0,0-.8877-2.064q-.88915-.95948-.88769-1.24805v-.144q0-.38379.86426-.86426l4.7998-2.3999a1.44705,1.44705,0,0,1,1.27148-.07178.94371.94371,0,0,1,.45606.88769v18.48a2.38991,2.38991,0,0,0,.98437,1.87207q.98292.81666.9834,1.24805v.1919q0,.72-1.05566.72021Zm3.55176-27.02392a4.10439,4.10439,0,0,1-2.87988-1.00831,3.59538,3.59538,0,0,1,0-5.18359,4.10443,4.10443,0,0,1,2.87988-1.0083,3.95087,3.95087,0,0,1,2.80859,1.0083,3.64972,3.64972,0,0,1,0,5.18359A3.95084,3.95084,0,0,1,1451.30176,160.59229Z" transform="translate(-1110.16992 -151.45169)"/><path class="cls-1" d="M1469.01367,188.04834a13.72765,13.72765,0,0,1-7.24805-1.7041q-2.78466-1.70361-2.78417-3.81592a2.06909,2.06909,0,0,1,.64843-1.63232,2.54106,2.54106,0,0,1,1.752-.57569,2.22825,2.22825,0,0,1,1.60742.624,4.54713,4.54713,0,0,1,1.03222,1.53564,16.80084,16.80084,0,0,0,.88868,1.80029,4.20333,4.20333,0,0,0,1.53515,1.51172,4.8821,4.8821,0,0,0,2.56836.624,5.02148,5.02148,0,0,0,3.19238-.96,3.27391,3.27391,0,0,0,1.22364-2.73584,3.15529,3.15529,0,0,0-1.44043-2.75976,10.30009,10.30009,0,0,0-3.47949-1.46436q-2.04054-.479-4.1045-1.104a7.54212,7.54212,0,0,1-3.5039-2.23193,6.12745,6.12745,0,0,1-1.43946-4.248,5.84756,5.84756,0,0,1,2.63965-4.87207,11.12085,11.12085,0,0,1,6.76856-1.94385,12.42186,12.42186,0,0,1,6.93554,1.75195q2.66456,1.75269,2.66407,3.96a1.93663,1.93663,0,0,1-.624,1.48828,2.24558,2.24558,0,0,1-1.584.57568,2.00516,2.00516,0,0,1-1.51172-.624,5.41635,5.41635,0,0,1-1.00879-1.51172q-.40722-.8877-.86328-1.77588a4.042,4.042,0,0,0-1.39258-1.51221,4.53924,4.53924,0,0,0-5.208.43213A3.43322,3.43322,0,0,0,1465.126,169.52a3.21318,3.21318,0,0,0,1.43945,2.78418,10.34017,10.34017,0,0,0,3.48047,1.51221q2.03905.5039,4.10351,1.12793a7.633,7.633,0,0,1,3.50391,2.208,6.03838,6.03838,0,0,1,1.44043,4.22364,5.62832,5.62832,0,0,1-2.75977,4.77636A12.70534,12.70534,0,0,1,1469.01367,188.04834Z" transform="translate(-1110.16992 -151.45169)"/><path class="cls-1" d="M1524.59766,164.57617q.81444,0,.81543.67188v.19238q0,.47973-1.00782,1.2959a4.30615,4.30615,0,0,0-1.39257,1.87207l-6.4795,17.95166a1.32712,1.32712,0,0,1-1.34375,1.05615h-1.248a1.34007,1.34007,0,0,1-1.44043-1.05615l-4.94336-15.55176-4.94434,15.55176a1.35559,1.35559,0,0,1-1.39258,1.05615h-.86328a1.48433,1.48433,0,0,1-1.44043-1.05615l-7.20019-17.95166a5.251,5.251,0,0,0-1.22364-1.84815q-.84081-.83936-.83984-1.31982v-.19238q0-.67164.86426-.67188h7.3916q.81591,0,.81641.72022v.144a.82785.82785,0,0,1-.33594.624q-.33691.28785-.64844.55176a1.706,1.706,0,0,0-.4082,2.04l4.51172,13.104,4.99218-16.17627q.28858-.86352.96-.86377l2.30468-.04785a.96609.96609,0,0,1,.96.81592l4.89551,16.31983,4.416-12.67188a2.04175,2.04175,0,0,0,.0957-1.48779,1.85145,1.85145,0,0,0-.67187-.91211,10.20816,10.20816,0,0,1-.83985-.624.913.913,0,0,1-.4082-.67187v-.144q0-.72.86426-.72022Z" transform="translate(-1110.16992 -151.45169)"/><path class="cls-1" d="M1547.20605,183.29639a3.15992,3.15992,0,0,0,.55176,1.65576,1.971,1.971,0,0,0,.91211.74414,3.18692,3.18692,0,0,1,.81543.38379.724.724,0,0,1,.36035.624q0,1.20043-3.88769,1.2002a5.123,5.123,0,0,1-2.8086-.6001,2.8813,2.8813,0,0,1-1.03125-2.27979q-1.9204,3.07179-6.67285,3.07178a10.39912,10.39912,0,0,1-6.5039-1.896,6.35052,6.35052,0,0,1-2.47168-5.35206,6.16091,6.16091,0,0,1,2.44824-5.30371,10.095,10.095,0,0,1,6.28808-1.896,8.86218,8.86218,0,0,1,5.56739,1.63183l-.09571-.96a17.72152,17.72152,0,0,0-1.53613-6.43213,3.71324,3.71324,0,0,0-3.5039-2.01611,3.4962,3.4962,0,0,0-2.47168.91211,4.79472,4.79472,0,0,0-1.34473,1.99219,7.1391,7.1391,0,0,1-1.03125,1.9917,2.01834,2.01834,0,0,1-1.68066.91211,2.40778,2.40778,0,0,1-1.70411-.6001,2.08573,2.08573,0,0,1-.64746-1.60791,4.46508,4.46508,0,0,1,2.51953-3.83985,12.04281,12.04281,0,0,1,6.36036-1.53613,10.11532,10.11532,0,0,1,7.29589,2.66406,11.55425,11.55425,0,0,1,3.3125,7.31983ZM1537.0293,186.272a3.99059,3.99059,0,0,0,3.19238-1.43994,4.71636,4.71636,0,0,0,1.12793-3.40771l-.14356-1.48828a4.8104,4.8104,0,0,0-1.39257-3.26368,4.80237,4.80237,0,0,0-6.43164.07178,4.68475,4.68475,0,0,0-1.248,3.43213,6.86579,6.86579,0,0,0,1.36816,4.31982A4.25619,4.25619,0,0,0,1537.0293,186.272Z" transform="translate(-1110.16992 -151.45169)"/><path class="cls-1" d="M1561.26953,188.04834a13.72765,13.72765,0,0,1-7.248-1.7041q-2.78466-1.70361-2.78418-3.81592a2.06906,2.06906,0,0,1,.64844-1.63232,2.54106,2.54106,0,0,1,1.752-.57569,2.22825,2.22825,0,0,1,1.60742.624,4.54727,4.54727,0,0,1,1.03222,1.53564,16.80084,16.80084,0,0,0,.88868,1.80029,4.20333,4.20333,0,0,0,1.53515,1.51172,4.8821,4.8821,0,0,0,2.56836.624,5.0215,5.0215,0,0,0,3.19238-.96,3.27391,3.27391,0,0,0,1.22364-2.73584,3.15529,3.15529,0,0,0-1.44043-2.75976,10.30005,10.30005,0,0,0-3.4795-1.46436q-2.04052-.479-4.10449-1.104a7.54212,7.54212,0,0,1-3.5039-2.23193,6.12745,6.12745,0,0,1-1.43946-4.248,5.84756,5.84756,0,0,1,2.63965-4.87207,11.12085,11.12085,0,0,1,6.76856-1.94385,12.42186,12.42186,0,0,1,6.93554,1.75195q2.66456,1.75269,2.66407,3.96a1.93663,1.93663,0,0,1-.624,1.48828,2.24558,2.24558,0,0,1-1.584.57568,2.00516,2.00516,0,0,1-1.51172-.624,5.41635,5.41635,0,0,1-1.00879-1.51172q-.40722-.8877-.86328-1.77588a4.0421,4.0421,0,0,0-1.39258-1.51221,4.53924,4.53924,0,0,0-5.208.43213,3.43319,3.43319,0,0,0-1.15136,2.63965,3.21318,3.21318,0,0,0,1.43945,2.78418,10.34017,10.34017,0,0,0,3.48047,1.51221q2.03905.5039,4.10351,1.12793a7.633,7.633,0,0,1,3.50391,2.208,6.03838,6.03838,0,0,1,1.44043,4.22364,5.62832,5.62832,0,0,1-2.75977,4.77636A12.70534,12.70534,0,0,1,1561.26953,188.04834Z" transform="translate(-1110.16992 -151.45169)"/><path class="cls-1" d="M1583.10938,188.09619a6.29261,6.29261,0,0,1-4.91993-1.99219,8.347,8.347,0,0,1-1.80078-5.78369V166.92822h-2.73535a.72094.72094,0,0,1-.81641-.81592v-.67187q0-.86425.81641-.86426h1.48828a3.78931,3.78931,0,0,0,2.95117-1.248,6.15562,6.15562,0,0,0,1.416-3.40771q.145-1.05541.96-1.05615h.7207q.91115,0,.91211,1.05615l.04785,4.65576h6.04786a.82379.82379,0,0,1,.86425.86426v.67187q0,.81666-.86425.81592h-6.04786v13.43994a4.01546,4.01546,0,0,0,.76758,2.61622,2.43184,2.43184,0,0,0,1.96778.936q2.87988,0,3.4082-2.49609a.85915.85915,0,0,1,.57617-.48.87644.87644,0,0,1,.69629.0957.67856.67856,0,0,1,.31152.624,6.297,6.297,0,0,1-1.84765,4.51221A6.51421,6.51421,0,0,1,1583.10938,188.09619Z" transform="translate(-1110.16992 -151.45169)"/><path class="cls-1" d="M1611.1416,180.56006a.8782.8782,0,0,1,.9834-.38379.718.718,0,0,1,.55176.86377,8.06639,8.06639,0,0,1-2.97559,4.80029,9.93515,9.93515,0,0,1-6.76758,2.25586,10.8304,10.8304,0,0,1-8.13671-3.35986,12.187,12.187,0,0,1-3.23926-8.832,11.49832,11.49832,0,0,1,3.33593-8.44825,11.03171,11.03171,0,0,1,8.13575-3.35986q4.31982,0,6.64746,2.13623a6.51112,6.51112,0,0,1,2.32812,4.91992,3.306,3.306,0,0,1-2.44726,3.35987l-11.61621,4.272a8.33746,8.33746,0,0,0,2.73535,3.88818,6.91455,6.91455,0,0,0,4.32031,1.39209,7.0764,7.0764,0,0,0,3.76855-.98437A6.1817,6.1817,0,0,0,1611.1416,180.56006Zm-9.07226-14.63965a4.0806,4.0806,0,0,0-3.60059,2.15967,10.60628,10.60628,0,0,0-1.34375,5.66406,15.62088,15.62088,0,0,0,.28809,3.07227l7.96777-3.45606a2.04377,2.04377,0,0,0,1.248-2.01611,6.19616,6.19616,0,0,0-1.31934-3.57617A3.88854,3.88854,0,0,0,1602.06934,165.92041Z" transform="translate(-1110.16992 -151.45169)"/><path class="cls-1" d="M1638.21289,183.63232a2.599,2.599,0,0,0,.91211,1.91993q.91113.86426.91211,1.248v.14405q0,.67236-.81543.67187h-4.99219a.88451.88451,0,0,1-.96-.91211l-.14453-1.67969a8.04207,8.04207,0,0,1-6.71973,3.07178,10.73009,10.73009,0,0,1-7.89648-3.312,13.13352,13.13352,0,0,1-.04785-17.32813,10.721,10.721,0,0,1,8.04-3.35986,8.71708,8.71708,0,0,1,6.28808,2.44824V157.52a2.06511,2.06511,0,0,0-.55176-1.48779,6.38553,6.38553,0,0,0-1.10449-.936.98922.98922,0,0,1-.55176-.792V154.208q0-.62329.86426-.96l5.08789-1.63184q1.68018-.57568,1.67969.86377Zm-10.51172,2.63965a4.77155,4.77155,0,0,0,3.52832-1.63183,6.33494,6.33494,0,0,0,1.55957-4.56006v-7.67969a6.53718,6.53718,0,0,0-1.82422-4.43994,5.56919,5.56919,0,0,0-4.27148-2.04,5.13338,5.13338,0,0,0-4.32031,2.18359,9.99743,9.99743,0,0,0-1.67969,5.97608,16.967,16.967,0,0,0,1.84766,8.59228Q1624.48486,186.22461,1627.70117,186.272Z" transform="translate(-1110.16992 -151.45169)"/><path class="cls-2" d="M1112.76172,245.21631q-1.00782,0-1.00781-.72022v-.19189q0-.43214.88769-1.24805a2.47984,2.47984,0,0,0,.8877-1.87207V228.6084a2.99651,2.99651,0,0,0-.8877-2.064q-.88915-.95946-.88769-1.248v-.144q0-.38379.86425-.86425l4.79981-2.39991a1.447,1.447,0,0,1,1.27148-.07177.94372.94372,0,0,1,.45606.88769v18.48a2.38991,2.38991,0,0,0,.98437,1.87207q.98292.81666.9834,1.24805v.19189q0,.72-1.05566.72022Zm3.55176-27.02393a4.10442,4.10442,0,0,1-2.87989-1.0083,3.59541,3.59541,0,0,1,0-5.18359,4.10442,4.10442,0,0,1,2.87989-1.0083,3.95083,3.95083,0,0,1,2.80859,1.0083,3.64972,3.64972,0,0,1,0,5.18359A3.95083,3.95083,0,0,1,1116.31348,218.19238Z" transform="translate(-1110.16992 -151.45169)"/><path class="cls-2" d="M1148.18555,241.18408a2.79886,2.79886,0,0,0,.88769,1.896q.83936.84081.83985,1.27246v.19189q0,.72-1.05567.71973h-7.00781q-1.05615,0-1.05664-.71973v-.19189q0-.43214.88867-1.27246a2.39432,2.39432,0,0,0,.83984-1.896l-.48046-9.26367q-.33546-7.92041-5.04-7.91992a4.5339,4.5339,0,0,0-3.64746,1.65576,6.44756,6.44756,0,0,0-1.39258,4.2959v11.28027a2.39133,2.39133,0,0,0,.98437,1.87207q.98292.81666.98438,1.24805v.19189q0,.72-1.05664.71973h-7.43946q-1.00781,0-1.00781-.71973v-.19189q0-.43214.96-1.24805a2.41175,2.41175,0,0,0,.96-1.87207V228.36816a2.06168,2.06168,0,0,0-.55273-1.48779,6.91606,6.91606,0,0,0-1.0791-.936.99211.99211,0,0,1-.52832-.792v-.144q0-.479.86425-.86377l4.65528-2.25635c.51172-.22314.88867-.24756,1.12793-.07177a1.08817,1.08817,0,0,1,.36035.936v3.11963a7.32629,7.32629,0,0,1,2.92773-3.07178,8.607,8.607,0,0,1,4.36817-1.104,8.4863,8.4863,0,0,1,6.24023,2.54394q2.543,2.54517,2.87989,7.87207Z" transform="translate(-1110.16992 -151.45169)"/><path class="cls-2" d="M1171.46582,245.69629a6.29264,6.29264,0,0,1-4.91992-1.99219,8.347,8.347,0,0,1-1.80078-5.78369V224.52832h-2.73535a.72094.72094,0,0,1-.81641-.81592v-.67187q0-.86425.81641-.86426h1.48828a3.78932,3.78932,0,0,0,2.95117-1.248,6.15562,6.15562,0,0,0,1.416-3.40771q.145-1.05543.96-1.05615h.7207q.91113,0,.91211,1.05615l.04785,4.65576h6.04785a.82379.82379,0,0,1,.86426.86426v.67187q0,.81666-.86426.81592h-6.04785v13.43994a4.01541,4.01541,0,0,0,.76758,2.61621,2.43182,2.43182,0,0,0,1.96777.936q2.87988,0,3.4082-2.4961a.85919.85919,0,0,1,.57618-.48.87649.87649,0,0,1,.69629.09571.67854.67854,0,0,1,.31152.624,6.297,6.297,0,0,1-1.84766,4.51221A6.51419,6.51419,0,0,1,1171.46582,245.69629Z" transform="translate(-1110.16992 -151.45169)"/><path class="cls-2" d="M1203.81738,241.13623a3.06287,3.06287,0,0,0,.91211,1.896,2.32864,2.32864,0,0,1,.81543,1.32031v.19189q0,.67238-1.00781.67188h-7.05566q-1.00929,0-1.00879-.67188v-.19189q0-.43214.88867-1.27246a2.39436,2.39436,0,0,0,.83984-1.896l-.48047-9.5039q-.33545-7.67871-5.04-7.67969a4.53393,4.53393,0,0,0-3.64746,1.65576,6.44762,6.44762,0,0,0-1.39258,4.2959v11.28027a2.41769,2.41769,0,0,0,.98438,1.84766q.9829.84081.98438,1.27246v.14355q0,.72-1.05665.72022h-7.43945q-1.00781,0-1.00781-.72022v-.14355a1.13227,1.13227,0,0,1,.47949-.84033,10.44831,10.44831,0,0,0,.96-.936,1.92254,1.92254,0,0,0,.48047-1.34375V215.74414a2.109,2.109,0,0,0-.50391-1.43994,6.03967,6.03967,0,0,0-1.00878-.936.972.972,0,0,1-.50391-.74365v-.144q0-.62329.81641-1.0083l5.13574-2.25586q1.53516-.67164,1.53613.76807l-.04785,14.92773a7.74883,7.74883,0,0,1,6.71973-3.21582,8.57162,8.57162,0,0,1,6.24023,2.49609q2.543,2.4961,2.832,7.63184Z" transform="translate(-1110.16992 -151.45169)"/><path class="cls-2" d="M1227.57715,238.16016a.87819.87819,0,0,1,.9834-.38379.718.718,0,0,1,.55175.86377,8.06638,8.06638,0,0,1-2.97558,4.80029,9.93522,9.93522,0,0,1-6.76758,2.25586,10.83042,10.83042,0,0,1-8.13672-3.35986,12.18708,12.18708,0,0,1-3.23926-8.832,11.49827,11.49827,0,0,1,3.33594-8.44824,11.03165,11.03165,0,0,1,8.13574-3.35986q4.31983,0,6.64746,2.13623a6.51112,6.51112,0,0,1,2.32813,4.91992,3.306,3.306,0,0,1-2.44727,3.35986l-11.61621,4.272a8.33753,8.33753,0,0,0,2.73535,3.88818,6.91462,6.91462,0,0,0,4.32032,1.39209,7.0764,7.0764,0,0,0,3.76855-.98437A6.18176,6.18176,0,0,0,1227.57715,238.16016Zm-9.07227-14.63965a4.08057,4.08057,0,0,0-3.60058,2.15967,10.60628,10.60628,0,0,0-1.34375,5.66406,15.62155,15.62155,0,0,0,.28808,3.07226l7.96778-3.45605a2.04376,2.04376,0,0,0,1.248-2.01611,6.19627,6.19627,0,0,0-1.31933-3.57618A3.88856,3.88856,0,0,0,1218.50488,223.52051Z" transform="translate(-1110.16992 -151.45169)"/><path class="cls-2" d="M1258.249,245.69629a14.03034,14.03034,0,0,1-10.08007-3.648q-3.84082-3.64746-3.83985-9.936V215.12012a2.53136,2.53136,0,0,0-.91211-1.896q-.9126-.83862-.91211-1.22363v-.19238q0-.67164,1.05664-.67188h7.53516q1.00927,0,1.00879.67188v.19238q0,.38452-.96,1.22363a2.47946,2.47946,0,0,0-.96,1.896V232.1123q0,5.13648,2.49511,8.064a8.43155,8.43155,0,0,0,6.76856,2.92822,8.06946,8.06946,0,0,0,6.168-2.8081q2.56639-2.80811,2.56836-8.18409V215.12012a2.50477,2.50477,0,0,0-.93653-1.896q-.936-.83862-.93554-1.22363v-.19238q0-.67164,1.05566-.67188h4.84766q1.05615,0,1.05664.67188v.19238q0,.38452-1.00879,1.22363a2.44247,2.44247,0,0,0-1.00781,1.896v17.04q0,6.241-3.57618,9.88818A12.6116,12.6116,0,0,1,1258.249,245.69629Z" transform="translate(-1110.16992 -151.45169)"/><path class="cls-2" d="M1299.81641,241.18408a2.79882,2.79882,0,0,0,.88769,1.896q.83936.84081.83985,1.27246v.19189q0,.72-1.05567.71973h-7.00781q-1.05615,0-1.05664-.71973v-.19189q0-.43214.88867-1.27246a2.39432,2.39432,0,0,0,.83984-1.896l-.48046-9.26367q-.33546-7.92041-5.04-7.91992a4.5339,4.5339,0,0,0-3.64746,1.65576,6.44756,6.44756,0,0,0-1.39258,4.2959v11.28027a2.39133,2.39133,0,0,0,.98437,1.87207q.98292.81666.98438,1.24805v.19189q0,.72-1.05664.71973h-7.43946q-1.00781,0-1.00781-.71973v-.19189q0-.43214.96-1.24805a2.41175,2.41175,0,0,0,.96-1.87207V228.36816a2.06168,2.06168,0,0,0-.55273-1.48779,6.91606,6.91606,0,0,0-1.0791-.936.99211.99211,0,0,1-.52832-.792v-.144q0-.479.86425-.86377l4.65528-2.25635c.51172-.22314.88867-.24756,1.12793-.07177a1.08817,1.08817,0,0,1,.36035.936v3.11963a7.32629,7.32629,0,0,1,2.92773-3.07178,8.607,8.607,0,0,1,4.36817-1.104,8.4863,8.4863,0,0,1,6.24023,2.54394q2.543,2.54517,2.87988,7.87207Z" transform="translate(-1110.16992 -151.45169)"/><path class="cls-2" d="M1305.33594,245.21631q-1.00782,0-1.00782-.72022v-.19189q0-.43214.8877-1.24805a2.47984,2.47984,0,0,0,.8877-1.87207V228.6084a2.99651,2.99651,0,0,0-.8877-2.064q-.88915-.95946-.8877-1.248v-.144q0-.38379.86426-.86425l4.79981-2.39991a1.447,1.447,0,0,1,1.27148-.07177.94372.94372,0,0,1,.45606.88769v18.48a2.38991,2.38991,0,0,0,.98437,1.87207q.98292.81666.9834,1.24805v.19189q0,.72-1.05566.72022Zm3.55176-27.02393a4.10442,4.10442,0,0,1-2.87989-1.0083,3.59541,3.59541,0,0,1,0-5.18359,4.10442,4.10442,0,0,1,2.87989-1.0083,3.95083,3.95083,0,0,1,2.80859,1.0083,3.64972,3.64972,0,0,1,0,5.18359A3.95083,3.95083,0,0,1,1308.8877,218.19238Z" transform="translate(-1110.16992 -151.45169)"/><path class="cls-2" d="M1325.87988,245.69629a6.29264,6.29264,0,0,1-4.91992-1.99219,8.34705,8.34705,0,0,1-1.80078-5.78369V224.52832h-2.73535a.72094.72094,0,0,1-.81641-.81592v-.67187q0-.86425.81641-.86426h1.48828a3.78932,3.78932,0,0,0,2.95117-1.248,6.1557,6.1557,0,0,0,1.416-3.40771q.145-1.05543.96-1.05615h.7207q.91113,0,.91211,1.05615l.04785,4.65576h6.04785a.82377.82377,0,0,1,.86426.86426v.67187q0,.81666-.86426.81592h-6.04785v13.43994a4.01541,4.01541,0,0,0,.76758,2.61621,2.43182,2.43182,0,0,0,1.96777.936q2.8799,0,3.40821-2.4961a.85918.85918,0,0,1,.57617-.48.87649.87649,0,0,1,.69629.09571.67854.67854,0,0,1,.31152.624,6.297,6.297,0,0,1-1.84766,4.51221A6.51419,6.51419,0,0,1,1325.87988,245.69629Z" transform="translate(-1110.16992 -151.45169)"/><path class="cls-2" d="M1353.91211,238.16016a.87819.87819,0,0,1,.9834-.38379.718.718,0,0,1,.55176.86377,8.06644,8.06644,0,0,1-2.97559,4.80029,9.93522,9.93522,0,0,1-6.76758,2.25586,10.83042,10.83042,0,0,1-8.13672-3.35986,12.18708,12.18708,0,0,1-3.23926-8.832,11.49827,11.49827,0,0,1,3.33594-8.44824,11.03166,11.03166,0,0,1,8.13574-3.35986q4.31984,0,6.64747,2.13623a6.51114,6.51114,0,0,1,2.32812,4.91992,3.306,3.306,0,0,1-2.44727,3.35986l-11.61621,4.272a8.33754,8.33754,0,0,0,2.73536,3.88818,6.91461,6.91461,0,0,0,4.32031,1.39209,7.0764,7.0764,0,0,0,3.76855-.98437A6.18176,6.18176,0,0,0,1353.91211,238.16016Zm-9.07227-14.63965a4.08058,4.08058,0,0,0-3.60058,2.15967,10.60628,10.60628,0,0,0-1.34375,5.66406,15.62155,15.62155,0,0,0,.28808,3.07226l7.96778-3.45605a2.04376,2.04376,0,0,0,1.248-2.01611,6.19627,6.19627,0,0,0-1.31933-3.57618A3.88856,3.88856,0,0,0,1344.83984,223.52051Z" transform="translate(-1110.16992 -151.45169)"/><path class="cls-2" d="M1380.9834,241.23242a2.59894,2.59894,0,0,0,.91211,1.91992q.91113.86427.91211,1.248v.144q0,.67238-.81543.67188H1377a.88451.88451,0,0,1-.96-.91211l-.14453-1.67969a8.04211,8.04211,0,0,1-6.71973,3.07178,10.73009,10.73009,0,0,1-7.89648-3.312,13.13352,13.13352,0,0,1-.04785-17.32813,10.72094,10.72094,0,0,1,8.04-3.35986,8.71708,8.71708,0,0,1,6.28809,2.44824v-9.02441a2.06513,2.06513,0,0,0-.55176-1.4878,6.38582,6.38582,0,0,0-1.10449-.936.98924.98924,0,0,1-.55176-.792v-.09619q0-.62329.86426-.96l5.08789-1.63183q1.68018-.57568,1.67969.86377Zm-10.51172,2.63965A4.77158,4.77158,0,0,0,1374,242.24023a6.33491,6.33491,0,0,0,1.55957-4.56v-7.67969a6.53718,6.53718,0,0,0-1.82422-4.43994,5.56918,5.56918,0,0,0-4.27148-2.04,5.13341,5.13341,0,0,0-4.32032,2.18359,9.99741,9.99741,0,0,0-1.67968,5.97608,16.96686,16.96686,0,0,0,1.84765,8.59228Q1367.25537,243.8247,1370.47168,243.87207Z" transform="translate(-1110.16992 -151.45169)"/><path class="cls-2" d="M1409.83105,245.69629q-6.48047,0-10.17675-2.75977-3.6958-2.75976-3.69532-5.78418a2.523,2.523,0,0,1,.624-1.752,2.072,2.072,0,0,1,1.72754-.64795,2.8994,2.8994,0,0,1,1.77636.6958,4.73936,4.73936,0,0,1,1.22364,1.60791,19.67362,19.67362,0,0,0,1.15234,2.064,16.2086,16.2086,0,0,0,1.53613,2.064,6.13708,6.13708,0,0,0,2.39942,1.584,9.84555,9.84555,0,0,0,3.67187.624,6.98574,6.98574,0,0,0,4.752-1.584,5.261,5.261,0,0,0,1.82421-4.17579,5.82648,5.82648,0,0,0-1.10351-3.64794,6.42551,6.42551,0,0,0-2.85645-2.11231,26.175,26.175,0,0,0-3.88769-1.12793q-2.13721-.45557-4.27246-1.05566a18.4018,18.4018,0,0,1-3.8877-1.56006,7.29431,7.29431,0,0,1-2.85644-2.92822,9.8883,9.8883,0,0,1-1.10352-4.896,8.52136,8.52136,0,0,1,3.31152-6.8877q3.312-2.71142,9.07227-2.7124a15.86805,15.86805,0,0,1,9.33594,2.52q3.57569,2.52027,3.52832,5.54395a2.18568,2.18568,0,0,1-2.4961,2.44824,2.77212,2.77212,0,0,1-1.7998-.6001,3.78825,3.78825,0,0,1-1.12793-1.51172,21.032,21.032,0,0,0-.98438-1.99219,16.50583,16.50583,0,0,0-1.29589-1.99218,5.11358,5.11358,0,0,0-2.06348-1.51172,8.0246,8.0246,0,0,0-3.24023-.6001,6.46958,6.46958,0,0,0-4.70411,1.63184,5.45081,5.45081,0,0,0-1.67968,4.08007,5.36122,5.36122,0,0,0,1.10351,3.48,6.63647,6.63647,0,0,0,2.85645,2.04,30.17638,30.17638,0,0,0,3.88769,1.17627q2.13575.50391,4.27149,1.15186a18.63155,18.63155,0,0,1,3.88867,1.65576,7.65548,7.65548,0,0,1,2.85547,2.97608,9.78416,9.78416,0,0,1,1.10449,4.84814,8.19178,8.19178,0,0,1-3.69629,7.03174A15.13344,15.13344,0,0,1,1409.83105,245.69629Z" transform="translate(-1110.16992 -151.45169)"/><path class="cls-2" d="M1434.40723,245.69629a6.29265,6.29265,0,0,1-4.91993-1.99219,8.34705,8.34705,0,0,1-1.80078-5.78369V224.52832h-2.73535a.72093.72093,0,0,1-.8164-.81592v-.67187q0-.86425.8164-.86426h1.48828a3.78931,3.78931,0,0,0,2.95117-1.248,6.15562,6.15562,0,0,0,1.416-3.40771q.145-1.05543.96-1.05615h.7207q.91115,0,.91211,1.05615l.04786,4.65576h6.04785a.82379.82379,0,0,1,.86426.86426v.67187q0,.81666-.86426.81592h-6.04785v13.43994a4.01541,4.01541,0,0,0,.76757,2.61621,2.43182,2.43182,0,0,0,1.96778.936q2.87988,0,3.4082-2.4961a.8592.8592,0,0,1,.57617-.48.87648.87648,0,0,1,.69629.09571.67854.67854,0,0,1,.31152.624,6.297,6.297,0,0,1-1.84765,4.51221A6.51421,6.51421,0,0,1,1434.40723,245.69629Z" transform="translate(-1110.16992 -151.45169)"/><path class="cls-2" d="M1463.92773,240.89648a3.16,3.16,0,0,0,.55176,1.65577,1.971,1.971,0,0,0,.91211.74414,3.18692,3.18692,0,0,1,.81543.38379.724.724,0,0,1,.36035.624q0,1.20043-3.88769,1.20019a5.123,5.123,0,0,1-2.8086-.60009,2.88132,2.88132,0,0,1-1.03125-2.27979q-1.92041,3.07178-6.67285,3.07178a10.39906,10.39906,0,0,1-6.5039-1.896,6.35049,6.35049,0,0,1-2.47168-5.352,6.16091,6.16091,0,0,1,2.44824-5.30371,10.095,10.095,0,0,1,6.28808-1.896,8.86218,8.86218,0,0,1,5.56739,1.63183l-.09571-.96a17.72152,17.72152,0,0,0-1.53613-6.43213,3.71324,3.71324,0,0,0-3.5039-2.01611,3.4962,3.4962,0,0,0-2.47168.91211,4.79475,4.79475,0,0,0-1.34473,1.99218,7.13882,7.13882,0,0,1-1.03125,1.9917,2.01832,2.01832,0,0,1-1.68067.91211,2.40776,2.40776,0,0,1-1.7041-.60009,2.08573,2.08573,0,0,1-.64746-1.60791,4.46507,4.46507,0,0,1,2.51953-3.83985,12.04281,12.04281,0,0,1,6.36036-1.53613,10.11528,10.11528,0,0,1,7.29589,2.66406,11.55425,11.55425,0,0,1,3.3125,7.31983Zm-10.17675,2.97559a3.99059,3.99059,0,0,0,3.19238-1.43994,4.71639,4.71639,0,0,0,1.12793-3.40772l-.14356-1.48828a4.8104,4.8104,0,0,0-1.39257-3.26367,4.80237,4.80237,0,0,0-6.43164.07178,4.68474,4.68474,0,0,0-1.248,3.43213,6.86579,6.86579,0,0,0,1.36816,4.31982A4.25619,4.25619,0,0,0,1453.751,243.87207Z" transform="translate(-1110.16992 -151.45169)"/><path class="cls-2" d="M1477.0791,245.69629a6.29264,6.29264,0,0,1-4.91992-1.99219,8.347,8.347,0,0,1-1.80078-5.78369V224.52832h-2.73535a.72094.72094,0,0,1-.81641-.81592v-.67187q0-.86425.81641-.86426h1.48828a3.78932,3.78932,0,0,0,2.95117-1.248,6.1557,6.1557,0,0,0,1.416-3.40771q.145-1.05543.96-1.05615h.7207q.91113,0,.91211,1.05615l.04785,4.65576h6.04785a.82377.82377,0,0,1,.86426.86426v.67187q0,.81666-.86426.81592h-6.04785v13.43994a4.01541,4.01541,0,0,0,.76758,2.61621,2.43182,2.43182,0,0,0,1.96777.936q2.87988,0,3.40821-2.4961a.85916.85916,0,0,1,.57617-.48.87649.87649,0,0,1,.69629.09571.67854.67854,0,0,1,.31152.624,6.297,6.297,0,0,1-1.84766,4.51221A6.51419,6.51419,0,0,1,1477.0791,245.69629Z" transform="translate(-1110.16992 -151.45169)"/><path class="cls-2" d="M1505.11133,238.16016a.87819.87819,0,0,1,.9834-.38379.718.718,0,0,1,.55175.86377,8.06642,8.06642,0,0,1-2.97558,4.80029,9.93522,9.93522,0,0,1-6.76758,2.25586,10.83042,10.83042,0,0,1-8.13672-3.35986,12.18708,12.18708,0,0,1-3.23926-8.832,11.49827,11.49827,0,0,1,3.33594-8.44824,11.03165,11.03165,0,0,1,8.13574-3.35986q4.31984,0,6.64746,2.13623a6.51112,6.51112,0,0,1,2.32813,4.91992,3.306,3.306,0,0,1-2.44727,3.35986l-11.61621,4.272a8.33746,8.33746,0,0,0,2.73535,3.88818,6.91462,6.91462,0,0,0,4.32032,1.39209,7.0764,7.0764,0,0,0,3.76855-.98437A6.18176,6.18176,0,0,0,1505.11133,238.16016Zm-9.07227-14.63965a4.08057,4.08057,0,0,0-3.60058,2.15967,10.60628,10.60628,0,0,0-1.34375,5.66406,15.62155,15.62155,0,0,0,.28808,3.07226l7.96778-3.45605a2.04376,2.04376,0,0,0,1.248-2.01611,6.19627,6.19627,0,0,0-1.31933-3.57618A3.88856,3.88856,0,0,0,1496.03906,223.52051Z" transform="translate(-1110.16992 -151.45169)"/><path class="cls-2" d="M1519.126,245.64844a13.72762,13.72762,0,0,1-7.248-1.7041q-2.78467-1.70362-2.78418-3.81592a2.06908,2.06908,0,0,1,.64844-1.63233,2.541,2.541,0,0,1,1.752-.57568,2.22826,2.22826,0,0,1,1.60742.624,4.54729,4.54729,0,0,1,1.03223,1.53565,16.80355,16.80355,0,0,0,.88867,1.80029,4.20336,4.20336,0,0,0,1.53516,1.51172,4.88214,4.88214,0,0,0,2.56836.624,5.02152,5.02152,0,0,0,3.19238-.96,3.27393,3.27393,0,0,0,1.22363-2.73584,3.15529,3.15529,0,0,0-1.44043-2.75976,10.2998,10.2998,0,0,0-3.47949-1.46436q-2.04052-.479-4.10449-1.104a7.542,7.542,0,0,1-3.50391-2.23194,6.1274,6.1274,0,0,1-1.43945-4.248,5.84752,5.84752,0,0,1,2.63965-4.87207,11.1208,11.1208,0,0,1,6.76855-1.94385,12.4219,12.4219,0,0,1,6.93555,1.75195q2.66456,1.75269,2.66406,3.96a1.93659,1.93659,0,0,1-.624,1.48828,2.24563,2.24563,0,0,1-1.584.57569,2.00515,2.00515,0,0,1-1.51172-.624,5.41612,5.41612,0,0,1-1.00878-1.51171q-.40723-.8877-.86329-1.77588a4.042,4.042,0,0,0-1.39257-1.51221,4.53923,4.53923,0,0,0-5.208.43213,3.43318,3.43318,0,0,0-1.15137,2.63965,3.21318,3.21318,0,0,0,1.43945,2.78418,10.34,10.34,0,0,0,3.48047,1.5122q2.03907.50391,4.10352,1.12793a7.633,7.633,0,0,1,3.5039,2.208,6.03832,6.03832,0,0,1,1.44043,4.22363,5.62835,5.62835,0,0,1-2.75976,4.77637A12.70534,12.70534,0,0,1,1519.126,245.64844Z" transform="translate(-1110.16992 -151.45169)"/><path class="cls-2" d="M1536.21387,245.69629a4.03174,4.03174,0,0,1-2.6875-.88818,3.10854,3.10854,0,0,1-1.05664-2.52,3.16816,3.16816,0,0,1,1.05664-2.56788,4.03146,4.03146,0,0,1,2.6875-.88769,3.96484,3.96484,0,0,1,2.64062.88769,3.17054,3.17054,0,0,1,1.05567,2.56788,3.11085,3.11085,0,0,1-1.05567,2.52A3.96514,3.96514,0,0,1,1536.21387,245.69629Z" transform="translate(-1110.16992 -151.45169)"/></g></svg>